G04*
G04 #@! TF.GenerationSoftware,Altium Limited,Altium Designer,25.8.1 (18)*
G04*
G04 Layer_Color=65535*
%FSLAX25Y25*%
%MOIN*%
G70*
G04*
G04 #@! TF.SameCoordinates,B8C25E97-C649-417D-B0D0-2C2A699CC183*
G04*
G04*
G04 #@! TF.FilePolarity,Positive*
G04*
G01*
G75*
%ADD10C,0.00787*%
%ADD11C,0.01000*%
G36*
X103810Y27806D02*
X103754D01*
Y27471D01*
X103699D01*
Y27193D01*
X103643D01*
Y26914D01*
X104311D01*
Y26524D01*
X103531D01*
Y26301D01*
X103476D01*
Y26023D01*
X103420D01*
Y25744D01*
X103364D01*
Y25633D01*
X104144D01*
Y25243D01*
X103309D01*
Y25131D01*
X103253D01*
Y24853D01*
X103197D01*
Y24574D01*
X103141D01*
Y24296D01*
X103086D01*
Y24129D01*
X102696D01*
Y24184D01*
X102751D01*
Y24463D01*
X102807D01*
Y24686D01*
X102863D01*
Y24964D01*
X102919D01*
Y25243D01*
X102139D01*
Y25187D01*
X102083D01*
Y24909D01*
X102027D01*
Y24630D01*
X101971D01*
Y24296D01*
X101916D01*
Y24129D01*
X101581D01*
Y24407D01*
X101637D01*
Y24741D01*
X101693D01*
Y25020D01*
X101749D01*
Y25243D01*
X101080D01*
Y25633D01*
X101860D01*
Y25911D01*
X101916D01*
Y26190D01*
X101971D01*
Y26469D01*
X102027D01*
Y26524D01*
X101247D01*
Y26914D01*
X102083D01*
Y27081D01*
X102139D01*
Y27416D01*
X102194D01*
Y27694D01*
X102250D01*
Y27973D01*
X102306D01*
Y28084D01*
X102640D01*
Y27806D01*
X102584D01*
Y27527D01*
X102529D01*
Y27249D01*
X102473D01*
Y26914D01*
X103253D01*
Y26970D01*
X103309D01*
Y27304D01*
X103364D01*
Y27583D01*
X103420D01*
Y27861D01*
X103476D01*
Y28084D01*
X103810D01*
Y27806D01*
D02*
G37*
G36*
X97236Y27081D02*
X97347D01*
Y26803D01*
X97291D01*
Y26636D01*
X97236D01*
Y26691D01*
X96734D01*
Y26636D01*
X96623D01*
Y26580D01*
X96511D01*
Y26524D01*
X96456D01*
Y26469D01*
X96400D01*
Y26413D01*
X96344D01*
Y26357D01*
X96289D01*
Y26246D01*
X96233D01*
Y26190D01*
X96177D01*
Y26023D01*
X96121D01*
Y24129D01*
X95676D01*
Y27081D01*
X96010D01*
Y26914D01*
X96066D01*
Y26747D01*
Y26691D01*
Y26524D01*
X96177D01*
Y26636D01*
X96233D01*
Y26691D01*
X96289D01*
Y26747D01*
X96344D01*
Y26803D01*
X96400D01*
Y26859D01*
X96456D01*
Y26914D01*
X96511D01*
Y26970D01*
X96567D01*
Y27026D01*
X96679D01*
Y27081D01*
X96901D01*
Y27137D01*
X97236D01*
Y27081D01*
D02*
G37*
G36*
X105314D02*
X105426D01*
Y27026D01*
X105481D01*
Y26970D01*
X105537D01*
Y26580D01*
X105481D01*
Y26524D01*
X105426D01*
Y26469D01*
X105314D01*
Y26413D01*
X105147D01*
Y26469D01*
X104980D01*
Y26524D01*
X104924D01*
Y26691D01*
X104869D01*
Y26859D01*
X104924D01*
Y27026D01*
X104980D01*
Y27081D01*
X105091D01*
Y27137D01*
X105314D01*
Y27081D01*
D02*
G37*
G36*
X118519Y25410D02*
X117181D01*
Y25800D01*
X118519D01*
Y25410D01*
D02*
G37*
G36*
X115733Y24574D02*
Y24519D01*
Y24129D01*
X115287D01*
Y27527D01*
X115231D01*
Y27471D01*
X115176D01*
Y27416D01*
X115064D01*
Y27360D01*
X115009D01*
Y27304D01*
X114953D01*
Y27249D01*
X114897D01*
Y27193D01*
X114841D01*
Y27137D01*
X114730D01*
Y27081D01*
X114674D01*
Y27026D01*
X114619D01*
Y26970D01*
X114451D01*
Y27081D01*
X114396D01*
Y27137D01*
X114340D01*
Y27193D01*
X114284D01*
Y27249D01*
X114340D01*
Y27304D01*
X114396D01*
Y27360D01*
X114507D01*
Y27416D01*
X114563D01*
Y27471D01*
X114619D01*
Y27527D01*
X114674D01*
Y27583D01*
X114786D01*
Y27639D01*
X114841D01*
Y27694D01*
X114897D01*
Y27750D01*
X114953D01*
Y27806D01*
X115064D01*
Y27861D01*
X115120D01*
Y27917D01*
X115176D01*
Y27973D01*
X115231D01*
Y28029D01*
X115343D01*
Y28084D01*
X115733D01*
Y24574D01*
D02*
G37*
G36*
X93837Y27081D02*
X94116D01*
Y27026D01*
X94283D01*
Y26970D01*
X94339D01*
Y26914D01*
X94450D01*
Y26859D01*
X94506D01*
Y26747D01*
X94561D01*
Y26691D01*
X94617D01*
Y26524D01*
X94673D01*
Y24129D01*
X94339D01*
Y24351D01*
X94283D01*
Y24574D01*
X94227D01*
Y24519D01*
X94171D01*
Y24463D01*
X94116D01*
Y24407D01*
X94060D01*
Y24351D01*
X94004D01*
Y24296D01*
X93893D01*
Y24240D01*
X93837D01*
Y24184D01*
X93726D01*
Y24129D01*
X93447D01*
Y24073D01*
X93057D01*
Y24129D01*
X92834D01*
Y24184D01*
X92723D01*
Y24240D01*
X92611D01*
Y24296D01*
X92556D01*
Y24351D01*
X92500D01*
Y24407D01*
X92444D01*
Y24519D01*
X92389D01*
Y24686D01*
X92333D01*
Y24741D01*
Y24797D01*
Y25243D01*
X92389D01*
Y25354D01*
X92444D01*
Y25466D01*
X92500D01*
Y25521D01*
X92556D01*
Y25577D01*
X92611D01*
Y25633D01*
X92667D01*
Y25689D01*
X92779D01*
Y25744D01*
X92890D01*
Y25800D01*
X93057D01*
Y25856D01*
X93447D01*
Y25911D01*
X94227D01*
Y26413D01*
X94171D01*
Y26524D01*
X94116D01*
Y26580D01*
X94060D01*
Y26636D01*
X94004D01*
Y26691D01*
X93837D01*
Y26747D01*
X93336D01*
Y26691D01*
X93113D01*
Y26636D01*
X93001D01*
Y26580D01*
X92834D01*
Y26524D01*
X92779D01*
Y26636D01*
X92723D01*
Y26747D01*
X92667D01*
Y26914D01*
X92779D01*
Y26970D01*
X92946D01*
Y27026D01*
X93113D01*
Y27081D01*
X93447D01*
Y27137D01*
X93837D01*
Y27081D01*
D02*
G37*
G36*
X90550Y28029D02*
X90940D01*
Y27973D01*
X91107D01*
Y27917D01*
X91219D01*
Y27861D01*
X91330D01*
Y27806D01*
X91386D01*
Y27750D01*
X91441D01*
Y27694D01*
X91497D01*
Y27639D01*
X91553D01*
Y27583D01*
X91609D01*
Y27471D01*
X91664D01*
Y27304D01*
X91720D01*
Y27026D01*
X91776D01*
Y26859D01*
X91720D01*
Y26524D01*
X91664D01*
Y26413D01*
X91609D01*
Y26301D01*
X91553D01*
Y26190D01*
X91497D01*
Y26134D01*
X91441D01*
Y26079D01*
X91386D01*
Y26023D01*
X91330D01*
Y25967D01*
X91274D01*
Y25911D01*
X91163D01*
Y25856D01*
X91051D01*
Y25800D01*
X90884D01*
Y25744D01*
X90606D01*
Y25689D01*
X89714D01*
Y24129D01*
X89269D01*
Y26914D01*
Y26970D01*
Y28084D01*
X90550D01*
Y28029D01*
D02*
G37*
G36*
X126820Y28084D02*
X127099D01*
Y28029D01*
X127210D01*
Y27973D01*
X127321D01*
Y27917D01*
X127377D01*
Y27861D01*
X127433D01*
Y27806D01*
X127489D01*
Y27750D01*
X127544D01*
Y27694D01*
X127600D01*
Y27639D01*
X127656D01*
Y27527D01*
X127711D01*
Y27416D01*
X127767D01*
Y27249D01*
X127823D01*
Y27081D01*
X127879D01*
Y26803D01*
X127934D01*
Y26524D01*
Y26469D01*
Y25354D01*
X127879D01*
Y25076D01*
X127823D01*
Y24909D01*
X127767D01*
Y24797D01*
X127711D01*
Y24686D01*
X127656D01*
Y24574D01*
X127600D01*
Y24519D01*
X127544D01*
Y24407D01*
X127489D01*
Y24351D01*
X127433D01*
Y24296D01*
X127321D01*
Y24240D01*
X127266D01*
Y24184D01*
X127099D01*
Y24129D01*
X126876D01*
Y24073D01*
X126486D01*
Y24129D01*
X126263D01*
Y24184D01*
X126096D01*
Y24240D01*
X126040D01*
Y24296D01*
X125929D01*
Y24351D01*
X125873D01*
Y24407D01*
X125817D01*
Y24463D01*
X125761D01*
Y24574D01*
X125706D01*
Y24630D01*
X125650D01*
Y24741D01*
X125594D01*
Y24909D01*
X125539D01*
Y25076D01*
X125483D01*
Y25299D01*
X125427D01*
Y25633D01*
X125371D01*
Y26580D01*
X125427D01*
Y26970D01*
X125483D01*
Y27193D01*
X125539D01*
Y27360D01*
X125594D01*
Y27471D01*
X125650D01*
Y27583D01*
X125706D01*
Y27694D01*
X125761D01*
Y27750D01*
X125817D01*
Y27806D01*
X125873D01*
Y27861D01*
X125929D01*
Y27917D01*
X125984D01*
Y27973D01*
X126096D01*
Y28029D01*
X126207D01*
Y28084D01*
X126486D01*
Y28140D01*
X126820D01*
Y28084D01*
D02*
G37*
G36*
X123644D02*
X123923D01*
Y28029D01*
X124034D01*
Y27973D01*
X124146D01*
Y27917D01*
X124201D01*
Y27861D01*
X124257D01*
Y27806D01*
X124313D01*
Y27750D01*
X124369D01*
Y27694D01*
X124424D01*
Y27639D01*
X124480D01*
Y27527D01*
X124536D01*
Y27416D01*
X124591D01*
Y27249D01*
X124647D01*
Y27081D01*
X124703D01*
Y26803D01*
X124759D01*
Y25354D01*
X124703D01*
Y25076D01*
X124647D01*
Y24909D01*
X124591D01*
Y24797D01*
X124536D01*
Y24686D01*
X124480D01*
Y24574D01*
X124424D01*
Y24519D01*
X124369D01*
Y24407D01*
X124313D01*
Y24351D01*
X124257D01*
Y24296D01*
X124146D01*
Y24240D01*
X124090D01*
Y24184D01*
X123923D01*
Y24129D01*
X123700D01*
Y24073D01*
X123310D01*
Y24129D01*
X123087D01*
Y24184D01*
X122920D01*
Y24240D01*
X122864D01*
Y24296D01*
X122753D01*
Y24351D01*
X122697D01*
Y24407D01*
X122641D01*
Y24463D01*
X122586D01*
Y24574D01*
X122530D01*
Y24630D01*
X122474D01*
Y24741D01*
X122419D01*
Y24909D01*
X122363D01*
Y25076D01*
X122307D01*
Y25299D01*
X122251D01*
Y25633D01*
X122196D01*
Y26580D01*
X122251D01*
Y26970D01*
X122307D01*
Y27193D01*
X122363D01*
Y27360D01*
X122419D01*
Y27471D01*
X122474D01*
Y27583D01*
X122530D01*
Y27694D01*
X122586D01*
Y27750D01*
X122641D01*
Y27806D01*
X122697D01*
Y27861D01*
X122753D01*
Y27917D01*
X122809D01*
Y27973D01*
X122920D01*
Y28029D01*
X123031D01*
Y28084D01*
X123310D01*
Y28140D01*
X123644D01*
Y28084D01*
D02*
G37*
G36*
X120469D02*
X120747D01*
Y28029D01*
X120859D01*
Y27973D01*
X120970D01*
Y27917D01*
X121026D01*
Y27861D01*
X121081D01*
Y27806D01*
X121137D01*
Y27750D01*
X121193D01*
Y27694D01*
X121249D01*
Y27639D01*
X121304D01*
Y27527D01*
X121360D01*
Y27416D01*
X121416D01*
Y27249D01*
X121471D01*
Y27081D01*
X121527D01*
Y26803D01*
X121583D01*
Y25466D01*
Y25410D01*
Y25354D01*
X121527D01*
Y25076D01*
X121471D01*
Y24909D01*
X121416D01*
Y24797D01*
X121360D01*
Y24686D01*
X121304D01*
Y24574D01*
X121249D01*
Y24519D01*
X121193D01*
Y24407D01*
X121137D01*
Y24351D01*
X121081D01*
Y24296D01*
X120970D01*
Y24240D01*
X120914D01*
Y24184D01*
X120747D01*
Y24129D01*
X120524D01*
Y24073D01*
X120134D01*
Y24129D01*
X119911D01*
Y24184D01*
X119744D01*
Y24240D01*
X119689D01*
Y24296D01*
X119577D01*
Y24351D01*
X119521D01*
Y24407D01*
X119466D01*
Y24463D01*
X119410D01*
Y24574D01*
X119354D01*
Y24630D01*
X119299D01*
Y24741D01*
X119243D01*
Y24909D01*
X119187D01*
Y25076D01*
X119131D01*
Y25299D01*
X119076D01*
Y25633D01*
X119020D01*
Y26580D01*
X119076D01*
Y26970D01*
X119131D01*
Y27193D01*
X119187D01*
Y27360D01*
X119243D01*
Y27471D01*
X119299D01*
Y27583D01*
X119354D01*
Y27694D01*
X119410D01*
Y27750D01*
X119466D01*
Y27806D01*
X119521D01*
Y27861D01*
X119577D01*
Y27917D01*
X119633D01*
Y27973D01*
X119744D01*
Y28029D01*
X119856D01*
Y28084D01*
X120134D01*
Y28140D01*
X120469D01*
Y28084D01*
D02*
G37*
G36*
X112334D02*
X112613D01*
Y28029D01*
X112724D01*
Y27973D01*
X112836D01*
Y27917D01*
X112891D01*
Y27861D01*
X112947D01*
Y27806D01*
X113003D01*
Y27750D01*
X113059D01*
Y27694D01*
X113114D01*
Y27639D01*
X113170D01*
Y27527D01*
X113226D01*
Y27416D01*
X113281D01*
Y27249D01*
X113337D01*
Y27081D01*
X113393D01*
Y26803D01*
X113449D01*
Y25354D01*
X113393D01*
Y25076D01*
X113337D01*
Y24909D01*
X113281D01*
Y24797D01*
X113226D01*
Y24686D01*
X113170D01*
Y24574D01*
X113114D01*
Y24519D01*
X113059D01*
Y24407D01*
X113003D01*
Y24351D01*
X112947D01*
Y24296D01*
X112836D01*
Y24240D01*
X112780D01*
Y24184D01*
X112613D01*
Y24129D01*
X112390D01*
Y24073D01*
X112000D01*
Y24129D01*
X111777D01*
Y24184D01*
X111610D01*
Y24240D01*
X111554D01*
Y24296D01*
X111443D01*
Y24351D01*
X111387D01*
Y24407D01*
X111331D01*
Y24463D01*
X111276D01*
Y24574D01*
X111220D01*
Y24630D01*
X111164D01*
Y24741D01*
X111109D01*
Y24909D01*
X111053D01*
Y25076D01*
X110997D01*
Y25299D01*
X110941D01*
Y25633D01*
X110886D01*
Y26580D01*
X110941D01*
Y26970D01*
X110997D01*
Y27193D01*
X111053D01*
Y27360D01*
X111109D01*
Y27471D01*
X111164D01*
Y27583D01*
X111220D01*
Y27694D01*
X111276D01*
Y27750D01*
X111331D01*
Y27806D01*
X111387D01*
Y27861D01*
X111443D01*
Y27917D01*
X111499D01*
Y27973D01*
X111610D01*
Y28029D01*
X111721D01*
Y28084D01*
X112000D01*
Y28140D01*
X112334D01*
Y28084D01*
D02*
G37*
G36*
X109159D02*
X109437D01*
Y28029D01*
X109549D01*
Y27973D01*
X109660D01*
Y27917D01*
X109716D01*
Y27861D01*
X109771D01*
Y27806D01*
X109827D01*
Y27750D01*
X109883D01*
Y27694D01*
X109939D01*
Y27639D01*
X109994D01*
Y27527D01*
X110050D01*
Y27416D01*
X110106D01*
Y27249D01*
X110161D01*
Y27081D01*
X110217D01*
Y26970D01*
Y26914D01*
Y26803D01*
X110273D01*
Y25354D01*
X110217D01*
Y25076D01*
X110161D01*
Y24909D01*
X110106D01*
Y24797D01*
X110050D01*
Y24686D01*
X109994D01*
Y24574D01*
X109939D01*
Y24519D01*
X109883D01*
Y24407D01*
X109827D01*
Y24351D01*
X109771D01*
Y24296D01*
X109660D01*
Y24240D01*
X109604D01*
Y24184D01*
X109437D01*
Y24129D01*
X109214D01*
Y24073D01*
X108824D01*
Y24129D01*
X108601D01*
Y24184D01*
X108434D01*
Y24240D01*
X108379D01*
Y24296D01*
X108267D01*
Y24351D01*
X108211D01*
Y24407D01*
X108156D01*
Y24463D01*
X108100D01*
Y24574D01*
X108044D01*
Y24630D01*
X107989D01*
Y24741D01*
X107933D01*
Y24909D01*
X107877D01*
Y25076D01*
X107821D01*
Y25299D01*
X107766D01*
Y25633D01*
X107710D01*
Y26580D01*
X107766D01*
Y26970D01*
X107821D01*
Y27193D01*
X107877D01*
Y27360D01*
X107933D01*
Y27471D01*
X107989D01*
Y27583D01*
X108044D01*
Y27694D01*
X108100D01*
Y27750D01*
X108156D01*
Y27806D01*
X108211D01*
Y27861D01*
X108267D01*
Y27917D01*
X108323D01*
Y27973D01*
X108434D01*
Y28029D01*
X108546D01*
Y28084D01*
X108824D01*
Y28140D01*
X109159D01*
Y28084D01*
D02*
G37*
G36*
X105314Y24741D02*
X105426D01*
Y24686D01*
X105481D01*
Y24630D01*
X105537D01*
Y24240D01*
X105481D01*
Y24184D01*
X105426D01*
Y24129D01*
X105314D01*
Y24073D01*
X105147D01*
Y24129D01*
X104980D01*
Y24184D01*
X104924D01*
Y24351D01*
X104869D01*
Y24407D01*
Y24519D01*
X104924D01*
Y24686D01*
X104980D01*
Y24741D01*
X105091D01*
Y24797D01*
X105314D01*
Y24741D01*
D02*
G37*
G36*
X98461Y27081D02*
X99297D01*
Y26691D01*
X98461D01*
Y24741D01*
X98517D01*
Y24630D01*
X98573D01*
Y24574D01*
X98629D01*
Y24519D01*
X98740D01*
Y24463D01*
X99186D01*
Y24519D01*
X99297D01*
Y24129D01*
X99019D01*
Y24073D01*
X98684D01*
Y24129D01*
X98461D01*
Y24184D01*
X98294D01*
Y24240D01*
X98239D01*
Y24296D01*
X98183D01*
Y24351D01*
X98127D01*
Y24463D01*
X98071D01*
Y24574D01*
X98016D01*
Y24853D01*
X97960D01*
Y26691D01*
X97570D01*
Y26914D01*
X97626D01*
Y26970D01*
X97737D01*
Y27026D01*
X97849D01*
Y27081D01*
X97960D01*
Y27137D01*
X98016D01*
Y27304D01*
X98071D01*
Y27471D01*
X98127D01*
Y27527D01*
Y27694D01*
X98183D01*
Y27750D01*
X98461D01*
Y27081D01*
D02*
G37*
G36*
X103587Y20229D02*
X103531D01*
Y19894D01*
X103476D01*
Y19616D01*
X103420D01*
Y19337D01*
X104089D01*
Y18947D01*
X103309D01*
Y18724D01*
X103253D01*
Y18446D01*
X103197D01*
Y18167D01*
X103141D01*
Y18056D01*
X103921D01*
Y17666D01*
X103086D01*
Y17554D01*
X103030D01*
Y17276D01*
X102974D01*
Y16997D01*
X102919D01*
Y16719D01*
X102863D01*
Y16551D01*
X102473D01*
Y16607D01*
X102529D01*
Y16886D01*
X102584D01*
Y17109D01*
X102640D01*
Y17387D01*
X102696D01*
Y17666D01*
X101916D01*
Y17610D01*
X101860D01*
Y17331D01*
X101804D01*
Y17053D01*
X101749D01*
Y16719D01*
X101693D01*
Y16551D01*
X101359D01*
Y16830D01*
X101414D01*
Y17164D01*
X101470D01*
Y17443D01*
X101526D01*
Y17666D01*
X100857D01*
Y18056D01*
X101637D01*
Y18334D01*
X101693D01*
Y18613D01*
X101749D01*
Y18891D01*
X101804D01*
Y18947D01*
X101024D01*
Y19337D01*
X101860D01*
Y19504D01*
X101916D01*
Y19839D01*
X101971D01*
Y20117D01*
X102027D01*
Y20396D01*
X102083D01*
Y20507D01*
X102417D01*
Y20229D01*
X102361D01*
Y19950D01*
X102306D01*
Y19671D01*
X102250D01*
Y19337D01*
X103030D01*
Y19393D01*
X103086D01*
Y19727D01*
X103141D01*
Y20006D01*
X103197D01*
Y20284D01*
X103253D01*
Y20507D01*
X103587D01*
Y20229D01*
D02*
G37*
G36*
X105091Y19504D02*
X105203D01*
Y19449D01*
X105259D01*
Y19393D01*
X105314D01*
Y19003D01*
X105259D01*
Y18947D01*
X105203D01*
Y18891D01*
X105091D01*
Y18836D01*
X104924D01*
Y18891D01*
X104757D01*
Y18947D01*
X104701D01*
Y19114D01*
X104646D01*
Y19281D01*
X104701D01*
Y19449D01*
X104757D01*
Y19504D01*
X104869D01*
Y19560D01*
X105091D01*
Y19504D01*
D02*
G37*
G36*
X97960Y19449D02*
X97904D01*
Y19281D01*
X97849D01*
Y19114D01*
X97793D01*
Y19003D01*
X97737D01*
Y18836D01*
X97681D01*
Y18724D01*
X97626D01*
Y18557D01*
X97570D01*
Y18390D01*
X97514D01*
Y18279D01*
X97459D01*
Y18111D01*
X97403D01*
Y17944D01*
X97347D01*
Y17833D01*
X97291D01*
Y17666D01*
X97236D01*
Y17554D01*
X97180D01*
Y17387D01*
X97124D01*
Y17220D01*
X97069D01*
Y17109D01*
X97013D01*
Y16941D01*
X96957D01*
Y16774D01*
X96901D01*
Y16663D01*
X96846D01*
Y16551D01*
X96289D01*
Y16663D01*
X96233D01*
Y16830D01*
X96177D01*
Y16997D01*
X96121D01*
Y17109D01*
X96066D01*
Y17276D01*
X96010D01*
Y17443D01*
X95954D01*
Y17554D01*
X95899D01*
Y17721D01*
X95843D01*
Y17833D01*
X95787D01*
Y18000D01*
X95731D01*
Y18167D01*
X95676D01*
Y18279D01*
X95620D01*
Y18446D01*
X95564D01*
Y18613D01*
X95509D01*
Y18724D01*
X95453D01*
Y18891D01*
X95397D01*
Y19059D01*
X95341D01*
Y19170D01*
X95286D01*
Y19337D01*
X95230D01*
Y19449D01*
X95174D01*
Y19504D01*
X95676D01*
Y19449D01*
X95731D01*
Y19281D01*
X95787D01*
Y19114D01*
X95843D01*
Y18947D01*
X95899D01*
Y18836D01*
X95954D01*
Y18669D01*
X96010D01*
Y18501D01*
X96066D01*
Y18334D01*
X96121D01*
Y18167D01*
X96177D01*
Y18056D01*
X96233D01*
Y17889D01*
X96289D01*
Y17721D01*
X96344D01*
Y17554D01*
X96400D01*
Y17387D01*
X96456D01*
Y17220D01*
X96511D01*
Y16997D01*
X96623D01*
Y17164D01*
X96679D01*
Y17331D01*
X96734D01*
Y17499D01*
X96790D01*
Y17666D01*
X96846D01*
Y17833D01*
X96901D01*
Y18000D01*
X96957D01*
Y18167D01*
X97013D01*
Y18279D01*
X97069D01*
Y18446D01*
X97124D01*
Y18613D01*
X97180D01*
Y18780D01*
X97236D01*
Y18947D01*
X97291D01*
Y19059D01*
X97347D01*
Y19170D01*
Y19226D01*
X97403D01*
Y19393D01*
X97459D01*
Y19504D01*
X97960D01*
Y19449D01*
D02*
G37*
G36*
X90606Y20451D02*
X90940D01*
Y20396D01*
X91107D01*
Y20340D01*
X91274D01*
Y20284D01*
X91330D01*
Y20229D01*
X91441D01*
Y20173D01*
X91497D01*
Y20117D01*
X91553D01*
Y20006D01*
X91609D01*
Y19950D01*
X91664D01*
Y19783D01*
X91720D01*
Y19449D01*
X91776D01*
Y19281D01*
X91720D01*
Y18947D01*
X91664D01*
Y18836D01*
X91609D01*
Y18724D01*
X91553D01*
Y18669D01*
X91497D01*
Y18613D01*
X91441D01*
Y18557D01*
X91386D01*
Y18501D01*
X91274D01*
Y18446D01*
X91219D01*
Y18390D01*
X91107D01*
Y18334D01*
X90996D01*
Y18223D01*
X91051D01*
Y18111D01*
X91107D01*
Y18000D01*
X91163D01*
Y17944D01*
X91219D01*
Y17833D01*
X91274D01*
Y17777D01*
X91330D01*
Y17666D01*
X91386D01*
Y17554D01*
X91441D01*
Y17499D01*
X91497D01*
Y17387D01*
X91553D01*
Y17276D01*
X91609D01*
Y17220D01*
X91664D01*
Y17109D01*
X91720D01*
Y17053D01*
X91776D01*
Y16941D01*
X91831D01*
Y16830D01*
X91887D01*
Y16774D01*
X91943D01*
Y16663D01*
X91999D01*
Y16551D01*
X91497D01*
Y16607D01*
X91441D01*
Y16719D01*
X91386D01*
Y16774D01*
X91330D01*
Y16886D01*
X91274D01*
Y16997D01*
X91219D01*
Y17053D01*
X91163D01*
Y17164D01*
X91107D01*
Y17276D01*
X91051D01*
Y17331D01*
X90996D01*
Y17443D01*
X90940D01*
Y17554D01*
X90884D01*
Y17610D01*
X90829D01*
Y17721D01*
X90773D01*
Y17833D01*
X90717D01*
Y17944D01*
X90661D01*
Y18000D01*
X90606D01*
Y18111D01*
X90550D01*
Y18167D01*
X89714D01*
Y16551D01*
X89269D01*
Y20507D01*
X90606D01*
Y20451D01*
D02*
G37*
G36*
X108936Y20507D02*
X109214D01*
Y20451D01*
X109326D01*
Y20396D01*
X109437D01*
Y20340D01*
X109493D01*
Y20284D01*
X109549D01*
Y20229D01*
X109604D01*
Y20173D01*
X109660D01*
Y20117D01*
X109716D01*
Y20061D01*
X109771D01*
Y19950D01*
X109827D01*
Y19839D01*
X109883D01*
Y19671D01*
X109939D01*
Y19504D01*
X109994D01*
Y19226D01*
X110050D01*
Y17777D01*
X109994D01*
Y17499D01*
X109939D01*
Y17331D01*
X109883D01*
Y17276D01*
Y17220D01*
X109827D01*
Y17109D01*
X109771D01*
Y16997D01*
X109716D01*
Y16941D01*
X109660D01*
Y16830D01*
X109604D01*
Y16774D01*
X109549D01*
Y16719D01*
X109437D01*
Y16663D01*
X109381D01*
Y16607D01*
X109214D01*
Y16551D01*
X108991D01*
Y16496D01*
X108601D01*
Y16551D01*
X108379D01*
Y16607D01*
X108211D01*
Y16663D01*
X108156D01*
Y16719D01*
X108044D01*
Y16774D01*
X107989D01*
Y16830D01*
X107933D01*
Y16886D01*
X107877D01*
Y16997D01*
X107821D01*
Y17053D01*
X107766D01*
Y17164D01*
X107710D01*
Y17331D01*
X107654D01*
Y17499D01*
X107599D01*
Y17721D01*
X107543D01*
Y18056D01*
X107487D01*
Y19003D01*
X107543D01*
Y19393D01*
X107599D01*
Y19616D01*
X107654D01*
Y19783D01*
X107710D01*
Y19894D01*
X107766D01*
Y20006D01*
X107821D01*
Y20117D01*
X107877D01*
Y20173D01*
X107933D01*
Y20229D01*
X107989D01*
Y20284D01*
X108044D01*
Y20340D01*
X108100D01*
Y20396D01*
X108211D01*
Y20451D01*
X108323D01*
Y20507D01*
X108601D01*
Y20563D01*
X108936D01*
Y20507D01*
D02*
G37*
G36*
X105091Y17164D02*
X105203D01*
Y17109D01*
X105259D01*
Y17053D01*
X105314D01*
Y16663D01*
X105259D01*
Y16607D01*
X105203D01*
Y16551D01*
X105091D01*
Y16496D01*
X104924D01*
Y16551D01*
X104757D01*
Y16607D01*
X104701D01*
Y16774D01*
X104646D01*
Y16941D01*
X104701D01*
Y17109D01*
X104757D01*
Y17164D01*
X104869D01*
Y17220D01*
X105091D01*
Y17164D01*
D02*
G37*
G36*
X98573D02*
X98684D01*
Y17109D01*
X98740D01*
Y17053D01*
X98796D01*
Y16663D01*
X98740D01*
Y16607D01*
X98684D01*
Y16551D01*
X98573D01*
Y16496D01*
X98406D01*
Y16551D01*
X98239D01*
Y16607D01*
X98183D01*
Y16774D01*
X98127D01*
Y16941D01*
X98183D01*
Y17109D01*
X98239D01*
Y17164D01*
X98350D01*
Y17220D01*
X98573D01*
Y17164D01*
D02*
G37*
G36*
X93949Y19504D02*
X94227D01*
Y19449D01*
X94339D01*
Y19393D01*
X94450D01*
Y19337D01*
X94506D01*
Y19281D01*
X94617D01*
Y19226D01*
X94673D01*
Y19114D01*
X94729D01*
Y19059D01*
X94784D01*
Y18947D01*
X94840D01*
Y18836D01*
X94896D01*
Y18669D01*
X94951D01*
Y17944D01*
X92946D01*
Y17721D01*
X93001D01*
Y17499D01*
X93057D01*
Y17331D01*
X93113D01*
Y17276D01*
X93169D01*
Y17164D01*
X93224D01*
Y17109D01*
X93280D01*
Y17053D01*
X93391D01*
Y16997D01*
X93503D01*
Y16941D01*
X93614D01*
Y16886D01*
X94283D01*
Y16941D01*
X94506D01*
Y16997D01*
X94729D01*
Y17053D01*
X94840D01*
Y16663D01*
X94673D01*
Y16607D01*
X94506D01*
Y16551D01*
X94171D01*
Y16496D01*
X93670D01*
Y16551D01*
X93391D01*
Y16607D01*
X93280D01*
Y16663D01*
X93113D01*
Y16719D01*
X93057D01*
Y16774D01*
X92946D01*
Y16830D01*
X92890D01*
Y16886D01*
X92834D01*
Y16941D01*
X92779D01*
Y17053D01*
X92723D01*
Y17109D01*
X92667D01*
Y17220D01*
X92611D01*
Y17387D01*
X92556D01*
Y17554D01*
X92500D01*
Y18446D01*
X92556D01*
Y18669D01*
X92611D01*
Y18836D01*
X92667D01*
Y18947D01*
X92723D01*
Y19003D01*
X92779D01*
Y19114D01*
X92834D01*
Y19170D01*
X92890D01*
Y19226D01*
X92946D01*
Y19281D01*
X93001D01*
Y19337D01*
X93113D01*
Y19393D01*
X93224D01*
Y19449D01*
X93336D01*
Y19504D01*
X93614D01*
Y19560D01*
X93949D01*
Y19504D01*
D02*
G37*
G36*
X90606Y12930D02*
X90940D01*
Y12874D01*
X91163D01*
Y12819D01*
X91330D01*
Y12596D01*
X91274D01*
Y12429D01*
X91219D01*
Y12373D01*
X91107D01*
Y12429D01*
X90996D01*
Y12484D01*
X90829D01*
Y12540D01*
X90606D01*
Y12596D01*
X89993D01*
Y12540D01*
X89826D01*
Y12484D01*
X89770D01*
Y12429D01*
X89714D01*
Y12373D01*
X89659D01*
Y12317D01*
X89603D01*
Y12206D01*
X89547D01*
Y11760D01*
X89603D01*
Y11649D01*
X89659D01*
Y11593D01*
X89714D01*
Y11537D01*
X89770D01*
Y11481D01*
X89826D01*
Y11426D01*
X89937D01*
Y11370D01*
X90049D01*
Y11314D01*
X90160D01*
Y11259D01*
X90271D01*
Y11203D01*
X90439D01*
Y11147D01*
X90550D01*
Y11091D01*
X90661D01*
Y11036D01*
X90773D01*
Y10980D01*
X90884D01*
Y10924D01*
X90996D01*
Y10869D01*
X91107D01*
Y10813D01*
X91163D01*
Y10757D01*
X91219D01*
Y10701D01*
X91274D01*
Y10590D01*
X91330D01*
Y10534D01*
X91386D01*
Y10367D01*
X91441D01*
Y9699D01*
X91386D01*
Y9531D01*
X91330D01*
Y9476D01*
X91274D01*
Y9364D01*
X91219D01*
Y9309D01*
X91163D01*
Y9253D01*
X91107D01*
Y9197D01*
X90996D01*
Y9141D01*
X90940D01*
Y9086D01*
X90773D01*
Y9030D01*
X90606D01*
Y8974D01*
X90327D01*
Y8919D01*
X89770D01*
Y8974D01*
X89324D01*
Y9030D01*
X89157D01*
Y9086D01*
X88990D01*
Y9531D01*
X89101D01*
Y9476D01*
X89213D01*
Y9420D01*
X89436D01*
Y9364D01*
X89714D01*
Y9309D01*
X90439D01*
Y9364D01*
X90606D01*
Y9420D01*
X90717D01*
Y9476D01*
X90773D01*
Y9531D01*
X90829D01*
Y9587D01*
X90884D01*
Y9643D01*
X90940D01*
Y9754D01*
X90996D01*
Y10200D01*
X90940D01*
Y10311D01*
X90884D01*
Y10367D01*
X90829D01*
Y10423D01*
X90773D01*
Y10479D01*
X90717D01*
Y10534D01*
X90606D01*
Y10590D01*
X90494D01*
Y10646D01*
X90383D01*
Y10701D01*
X90271D01*
Y10757D01*
X90104D01*
Y10813D01*
X89937D01*
Y10869D01*
X89826D01*
Y10924D01*
X89714D01*
Y10980D01*
X89603D01*
Y11036D01*
X89547D01*
Y11091D01*
X89436D01*
Y11147D01*
X89380D01*
Y11203D01*
X89324D01*
Y11259D01*
X89269D01*
Y11314D01*
X89213D01*
Y11426D01*
X89157D01*
Y11537D01*
X89101D01*
Y11760D01*
X89046D01*
Y12150D01*
X89101D01*
Y12373D01*
X89157D01*
Y12484D01*
X89213D01*
Y12540D01*
X89269D01*
Y12596D01*
X89324D01*
Y12651D01*
X89380D01*
Y12707D01*
X89436D01*
Y12763D01*
X89547D01*
Y12819D01*
X89659D01*
Y12874D01*
X89826D01*
Y12930D01*
X90104D01*
Y12986D01*
X90606D01*
Y12930D01*
D02*
G37*
G36*
X103531Y12651D02*
X103476D01*
Y12317D01*
X103420D01*
Y12039D01*
X103364D01*
Y11760D01*
X104033D01*
Y11370D01*
X103253D01*
Y11147D01*
X103197D01*
Y10869D01*
X103141D01*
Y10590D01*
X103086D01*
Y10479D01*
X103866D01*
Y10089D01*
X103030D01*
Y9977D01*
X102974D01*
Y9699D01*
X102919D01*
Y9420D01*
X102863D01*
Y9141D01*
X102807D01*
Y8974D01*
X102417D01*
Y9030D01*
X102473D01*
Y9309D01*
X102529D01*
Y9531D01*
X102584D01*
Y9810D01*
X102640D01*
Y10089D01*
X101860D01*
Y10033D01*
X101804D01*
Y9754D01*
X101749D01*
Y9476D01*
X101693D01*
Y9141D01*
X101637D01*
Y8974D01*
X101303D01*
Y9253D01*
X101359D01*
Y9587D01*
X101414D01*
Y9866D01*
X101470D01*
Y10089D01*
X100801D01*
Y10479D01*
X101581D01*
Y10757D01*
X101637D01*
Y11036D01*
X101693D01*
Y11314D01*
X101749D01*
Y11370D01*
X100969D01*
Y11760D01*
X101804D01*
Y11927D01*
X101860D01*
Y12261D01*
X101916D01*
Y12540D01*
X101971D01*
Y12819D01*
X102027D01*
Y12930D01*
X102361D01*
Y12651D01*
X102306D01*
Y12373D01*
X102250D01*
Y12094D01*
X102194D01*
Y11760D01*
X102974D01*
Y11816D01*
X103030D01*
Y12150D01*
X103086D01*
Y12429D01*
X103141D01*
Y12707D01*
X103197D01*
Y12930D01*
X103531D01*
Y12651D01*
D02*
G37*
G36*
X96901Y11927D02*
X97013D01*
Y11649D01*
X96957D01*
Y11481D01*
X96901D01*
Y11537D01*
X96400D01*
Y11481D01*
X96289D01*
Y11426D01*
X96177D01*
Y11370D01*
X96121D01*
Y11314D01*
X96066D01*
Y11259D01*
X96010D01*
Y11203D01*
X95954D01*
Y11091D01*
X95899D01*
Y11036D01*
X95843D01*
Y10869D01*
X95787D01*
Y8974D01*
X95341D01*
Y9086D01*
Y9141D01*
Y11927D01*
X95676D01*
Y11760D01*
X95731D01*
Y11370D01*
X95843D01*
Y11481D01*
X95899D01*
Y11537D01*
X95954D01*
Y11593D01*
X96010D01*
Y11649D01*
X96066D01*
Y11704D01*
X96121D01*
Y11760D01*
X96177D01*
Y11816D01*
X96233D01*
Y11871D01*
X96344D01*
Y11927D01*
X96567D01*
Y11983D01*
X96901D01*
Y11927D01*
D02*
G37*
G36*
X105036D02*
X105147D01*
Y11871D01*
X105203D01*
Y11816D01*
X105259D01*
Y11426D01*
X105203D01*
Y11370D01*
X105147D01*
Y11314D01*
X105036D01*
Y11259D01*
X104869D01*
Y11314D01*
X104701D01*
Y11370D01*
X104646D01*
Y11537D01*
X104590D01*
Y11704D01*
X104646D01*
Y11871D01*
X104701D01*
Y11927D01*
X104813D01*
Y11983D01*
X105036D01*
Y11927D01*
D02*
G37*
G36*
Y9587D02*
X105147D01*
Y9531D01*
X105203D01*
Y9476D01*
X105259D01*
Y9086D01*
X105203D01*
Y9030D01*
X105147D01*
Y8974D01*
X105036D01*
Y8919D01*
X104869D01*
Y8974D01*
X104701D01*
Y9030D01*
X104646D01*
Y9197D01*
X104590D01*
Y9364D01*
X104646D01*
Y9531D01*
X104701D01*
Y9587D01*
X104813D01*
Y9643D01*
X105036D01*
Y9587D01*
D02*
G37*
G36*
X97069D02*
X97180D01*
Y9531D01*
X97236D01*
Y9476D01*
X97291D01*
Y9086D01*
X97236D01*
Y9030D01*
X97180D01*
Y8974D01*
X97069D01*
Y8919D01*
X96901D01*
Y8974D01*
X96734D01*
Y9030D01*
X96679D01*
Y9197D01*
X96623D01*
Y9364D01*
X96679D01*
Y9531D01*
X96734D01*
Y9587D01*
X96846D01*
Y9643D01*
X97069D01*
Y9587D01*
D02*
G37*
G36*
X93503Y11927D02*
X93781D01*
Y11871D01*
X93893D01*
Y11816D01*
X94004D01*
Y11760D01*
X94060D01*
Y11704D01*
X94171D01*
Y11649D01*
X94227D01*
Y11537D01*
X94283D01*
Y11481D01*
X94339D01*
Y11370D01*
X94394D01*
Y11259D01*
X94450D01*
Y11091D01*
X94506D01*
Y10367D01*
X92500D01*
Y10144D01*
X92556D01*
Y9921D01*
X92611D01*
Y9754D01*
X92667D01*
Y9699D01*
X92723D01*
Y9587D01*
X92779D01*
Y9531D01*
X92834D01*
Y9476D01*
X92946D01*
Y9420D01*
X93057D01*
Y9364D01*
X93169D01*
Y9309D01*
X93837D01*
Y9364D01*
X94060D01*
Y9420D01*
X94283D01*
Y9476D01*
X94394D01*
Y9086D01*
X94227D01*
Y9030D01*
X94060D01*
Y8974D01*
X93726D01*
Y8919D01*
X93224D01*
Y8974D01*
X92946D01*
Y9030D01*
X92834D01*
Y9086D01*
X92667D01*
Y9141D01*
X92611D01*
Y9197D01*
X92500D01*
Y9253D01*
X92444D01*
Y9309D01*
X92389D01*
Y9364D01*
X92333D01*
Y9476D01*
X92277D01*
Y9531D01*
X92221D01*
Y9643D01*
X92166D01*
Y9810D01*
X92110D01*
Y9977D01*
X92054D01*
Y10869D01*
X92110D01*
Y11091D01*
X92166D01*
Y11259D01*
X92221D01*
Y11370D01*
X92277D01*
Y11426D01*
X92333D01*
Y11537D01*
X92389D01*
Y11593D01*
X92444D01*
Y11649D01*
X92500D01*
Y11704D01*
X92556D01*
Y11760D01*
X92667D01*
Y11816D01*
X92779D01*
Y11871D01*
X92890D01*
Y11927D01*
X93169D01*
Y11983D01*
X93503D01*
Y11927D01*
D02*
G37*
G36*
X129996Y28084D02*
X130274D01*
Y28029D01*
X130386D01*
Y27973D01*
X130497D01*
Y27917D01*
X130609D01*
Y27861D01*
X130664D01*
Y27806D01*
X130720D01*
Y27750D01*
X130776D01*
Y27694D01*
X130831D01*
Y27583D01*
X130887D01*
Y27416D01*
X130943D01*
Y26747D01*
X130887D01*
Y26580D01*
X130831D01*
Y26413D01*
X130776D01*
Y26357D01*
X130720D01*
Y26246D01*
X130664D01*
Y26134D01*
X130609D01*
Y26079D01*
X130553D01*
Y26023D01*
X130497D01*
Y25967D01*
X130441D01*
Y25911D01*
X130386D01*
Y25800D01*
X130330D01*
Y25744D01*
X130274D01*
Y25689D01*
X130219D01*
Y25633D01*
X130163D01*
Y25577D01*
X130107D01*
Y25521D01*
X130051D01*
Y25466D01*
X129996D01*
Y25410D01*
X129940D01*
Y25354D01*
X129884D01*
Y25299D01*
X129829D01*
Y25243D01*
X129773D01*
Y25187D01*
X129717D01*
Y25131D01*
X129661D01*
Y25076D01*
X129606D01*
Y25020D01*
X129550D01*
Y24964D01*
X129494D01*
Y24909D01*
X129439D01*
Y24853D01*
X129383D01*
Y24797D01*
X129327D01*
Y24741D01*
X129271D01*
Y24686D01*
X129216D01*
Y24630D01*
X129160D01*
Y24574D01*
X131110D01*
Y24129D01*
X128547D01*
Y24574D01*
X128603D01*
Y24630D01*
X128659D01*
Y24686D01*
X128714D01*
Y24741D01*
X128770D01*
Y24797D01*
X128826D01*
Y24853D01*
X128881D01*
Y24909D01*
X128937D01*
Y24964D01*
X128993D01*
Y25020D01*
X129049D01*
Y25076D01*
X129104D01*
Y25131D01*
X129160D01*
Y25187D01*
X129216D01*
Y25243D01*
X129271D01*
Y25299D01*
X129327D01*
Y25354D01*
X129383D01*
Y25410D01*
X129439D01*
Y25466D01*
X129494D01*
Y25521D01*
X129550D01*
Y25577D01*
X129606D01*
Y25633D01*
X129661D01*
Y25689D01*
X129717D01*
Y25744D01*
X129773D01*
Y25800D01*
X129829D01*
Y25856D01*
X129884D01*
Y25911D01*
X129940D01*
Y25967D01*
X129996D01*
Y26023D01*
X130051D01*
Y26134D01*
X130107D01*
Y26190D01*
X130163D01*
Y26246D01*
X130219D01*
Y26301D01*
X130274D01*
Y26413D01*
X130330D01*
Y26524D01*
X130386D01*
Y26636D01*
X130441D01*
Y26803D01*
X130497D01*
Y27304D01*
X130441D01*
Y27416D01*
X130386D01*
Y27527D01*
X130330D01*
Y27583D01*
X130274D01*
Y27639D01*
X130163D01*
Y27694D01*
X129996D01*
Y27750D01*
X129494D01*
Y27694D01*
X129327D01*
Y27639D01*
X129216D01*
Y27583D01*
X129104D01*
Y27527D01*
X129049D01*
Y27471D01*
X128937D01*
Y27416D01*
X128881D01*
Y27360D01*
X128826D01*
Y27416D01*
X128770D01*
Y27471D01*
X128714D01*
Y27527D01*
X128659D01*
Y27583D01*
X128603D01*
Y27694D01*
X128714D01*
Y27750D01*
X128770D01*
Y27806D01*
X128826D01*
Y27861D01*
X128937D01*
Y27917D01*
X129049D01*
Y27973D01*
X129160D01*
Y28029D01*
X129327D01*
Y28084D01*
X129606D01*
Y28140D01*
X129996D01*
Y28084D01*
D02*
G37*
G36*
X167008Y59263D02*
X166750D01*
Y54105D01*
X166492D01*
Y51268D01*
X166234D01*
Y49205D01*
X165976D01*
Y47400D01*
X165718D01*
Y46110D01*
X165461D01*
Y44821D01*
X165203D01*
Y43789D01*
X164945D01*
Y43016D01*
X164687D01*
Y41984D01*
X164429D01*
Y41210D01*
X164171D01*
Y40437D01*
X163913D01*
Y39663D01*
X163655D01*
Y39147D01*
X163397D01*
Y38374D01*
X163139D01*
Y37858D01*
X162882D01*
Y37342D01*
X162624D01*
Y36568D01*
X162366D01*
Y36053D01*
X162108D01*
Y35537D01*
X161850D01*
Y35021D01*
X161592D01*
Y34763D01*
X161334D01*
Y34247D01*
X161076D01*
Y33732D01*
X160818D01*
Y33216D01*
X160561D01*
Y32958D01*
X160303D01*
Y32442D01*
X160045D01*
Y32184D01*
X159787D01*
Y31668D01*
X159529D01*
Y31411D01*
X159271D01*
Y31153D01*
X159013D01*
Y30637D01*
X158755D01*
Y30379D01*
X158497D01*
Y30121D01*
X158239D01*
Y29863D01*
X157982D01*
Y29347D01*
X157724D01*
Y29089D01*
X157466D01*
Y28832D01*
X157208D01*
Y28574D01*
X156950D01*
Y28316D01*
X156692D01*
Y28058D01*
X156434D01*
Y27800D01*
X156176D01*
Y27542D01*
X155918D01*
Y27284D01*
X155403D01*
Y27026D01*
X155145D01*
Y26768D01*
X154887D01*
Y26511D01*
X154629D01*
Y26253D01*
X154371D01*
Y25995D01*
X153855D01*
Y25737D01*
X153597D01*
Y25479D01*
X153340D01*
Y25221D01*
X152824D01*
Y24963D01*
X152566D01*
Y24705D01*
X152050D01*
Y24447D01*
X151534D01*
Y24190D01*
X151276D01*
Y23932D01*
X150760D01*
Y23674D01*
X150245D01*
Y23416D01*
X149987D01*
Y23158D01*
X149471D01*
Y22900D01*
X148955D01*
Y22642D01*
X148182D01*
Y22384D01*
X147924D01*
Y22642D01*
X147150D01*
Y22900D01*
X146634D01*
Y23158D01*
X146376D01*
Y23416D01*
X145861D01*
Y23674D01*
X145345D01*
Y23932D01*
X144829D01*
Y24190D01*
X144571D01*
Y24447D01*
X144055D01*
Y24705D01*
X143540D01*
Y24963D01*
X143282D01*
Y25221D01*
X143024D01*
Y25479D01*
X142508D01*
Y25737D01*
X142250D01*
Y25995D01*
X141734D01*
Y26253D01*
X141476D01*
Y26511D01*
X141218D01*
Y26768D01*
X140961D01*
Y27026D01*
X140703D01*
Y27284D01*
X140187D01*
Y27542D01*
X139929D01*
Y27800D01*
X139671D01*
Y28058D01*
X139413D01*
Y28316D01*
X139155D01*
Y28574D01*
X138897D01*
Y28832D01*
X138639D01*
Y29089D01*
X138382D01*
Y29347D01*
X138124D01*
Y29863D01*
X137866D01*
Y30121D01*
X137608D01*
Y30379D01*
X137350D01*
Y30637D01*
X137092D01*
Y31153D01*
X136834D01*
Y31411D01*
X136576D01*
Y31668D01*
X136318D01*
Y32184D01*
X136061D01*
Y32442D01*
X135803D01*
Y32958D01*
X135545D01*
Y33216D01*
X135287D01*
Y33732D01*
X135029D01*
Y34247D01*
X134771D01*
Y34763D01*
X134513D01*
Y35021D01*
X134255D01*
Y35537D01*
X133997D01*
Y36053D01*
X133739D01*
Y36568D01*
X133482D01*
Y37342D01*
X133224D01*
Y37858D01*
X132966D01*
Y38374D01*
X132708D01*
Y39147D01*
X132450D01*
Y39663D01*
X132192D01*
Y40437D01*
X131934D01*
Y41210D01*
X131676D01*
Y41726D01*
Y41984D01*
X131418D01*
Y43016D01*
X131160D01*
Y43789D01*
X130903D01*
Y44821D01*
X130645D01*
Y46110D01*
X130387D01*
Y47400D01*
X130129D01*
Y49205D01*
X129871D01*
Y51268D01*
X129613D01*
Y54105D01*
X129355D01*
Y59263D01*
X129097D01*
Y66484D01*
X167008D01*
Y59263D01*
D02*
G37*
G36*
X143050Y17763D02*
X143131D01*
Y15731D01*
X143212D01*
Y15650D01*
X143294D01*
Y15569D01*
X143375D01*
Y15487D01*
X143456D01*
Y15406D01*
X143537D01*
Y15244D01*
X143619D01*
Y15163D01*
X143700D01*
Y15081D01*
X143862D01*
Y15000D01*
X144025D01*
Y14919D01*
X144106D01*
Y14838D01*
X144187D01*
Y14756D01*
X144269D01*
Y14675D01*
X144350D01*
Y14594D01*
X144512D01*
Y14513D01*
X144594D01*
Y14350D01*
X144512D01*
Y14269D01*
X144431D01*
Y14187D01*
X144350D01*
Y14106D01*
X144269D01*
Y14025D01*
X144187D01*
Y13944D01*
X144106D01*
Y13862D01*
X144025D01*
Y13781D01*
X143862D01*
Y13862D01*
X143781D01*
Y13700D01*
X143700D01*
Y13537D01*
X143619D01*
Y13456D01*
X143537D01*
Y13375D01*
X143456D01*
Y13213D01*
X143375D01*
Y13131D01*
X143131D01*
Y13213D01*
X143050D01*
Y13294D01*
X142969D01*
Y13456D01*
X142887D01*
Y13537D01*
X142806D01*
Y13619D01*
X142725D01*
Y13700D01*
X142562D01*
Y13781D01*
X142400D01*
Y13862D01*
X142319D01*
Y13944D01*
X142237D01*
Y14025D01*
X142156D01*
Y14106D01*
X142075D01*
Y14187D01*
X141994D01*
Y14269D01*
X141912D01*
Y14350D01*
X141831D01*
Y14513D01*
X141912D01*
Y14594D01*
X141994D01*
Y14675D01*
X142075D01*
Y14756D01*
X142156D01*
Y14838D01*
X142237D01*
Y14919D01*
X142319D01*
Y15000D01*
X142481D01*
Y15081D01*
X142562D01*
Y15163D01*
X142644D01*
Y15244D01*
X142725D01*
Y15325D01*
X142806D01*
Y15487D01*
X142562D01*
Y15406D01*
X142481D01*
Y15244D01*
X142319D01*
Y15975D01*
Y16056D01*
Y17763D01*
X142400D01*
Y17844D01*
X142481D01*
Y17763D01*
X142725D01*
Y17844D01*
X142887D01*
Y17763D01*
X142969D01*
Y17844D01*
X143050D01*
Y17763D01*
D02*
G37*
G36*
X143537D02*
X144106D01*
Y15650D01*
Y15569D01*
Y15244D01*
X143862D01*
Y15325D01*
X143781D01*
Y15406D01*
X143700D01*
Y15487D01*
X143619D01*
Y15569D01*
X143537D01*
Y15650D01*
X143456D01*
Y15731D01*
X143375D01*
Y15812D01*
X143294D01*
Y17763D01*
X143375D01*
Y17844D01*
X143537D01*
Y17763D01*
D02*
G37*
G36*
X140206Y10938D02*
X138663D01*
Y11019D01*
X138581D01*
Y13700D01*
X135413D01*
Y11587D01*
X135331D01*
Y10938D01*
X133788D01*
Y11019D01*
X133706D01*
Y14919D01*
Y15000D01*
Y17763D01*
X135413D01*
Y17681D01*
X135331D01*
Y16381D01*
X135413D01*
Y15000D01*
X138500D01*
Y15081D01*
X138581D01*
Y17763D01*
X140206D01*
Y10938D01*
D02*
G37*
G36*
X156212Y17681D02*
X156294D01*
Y16544D01*
X156212D01*
Y16463D01*
X154100D01*
Y16381D01*
X154019D01*
Y10938D01*
X152475D01*
Y11019D01*
X152394D01*
Y16463D01*
X150200D01*
Y17437D01*
X150119D01*
Y17763D01*
X156212D01*
Y17681D01*
D02*
G37*
G36*
X147844Y14513D02*
Y14431D01*
Y12319D01*
X151013D01*
Y11019D01*
X150931D01*
Y10938D01*
X146381D01*
Y11019D01*
X146219D01*
Y17763D01*
X147844D01*
Y14513D01*
D02*
G37*
G36*
X144106Y11019D02*
X143862D01*
Y10938D01*
X143375D01*
Y11019D01*
X143294D01*
Y12888D01*
X143375D01*
Y12969D01*
X143456D01*
Y13131D01*
X143537D01*
Y13213D01*
X143619D01*
Y13294D01*
X143700D01*
Y13375D01*
X143781D01*
Y13456D01*
X143862D01*
Y13537D01*
X143944D01*
Y13619D01*
X144106D01*
Y11019D01*
D02*
G37*
G36*
X142481Y13537D02*
X142562D01*
Y13456D01*
X142644D01*
Y13375D01*
X142725D01*
Y13213D01*
X142806D01*
Y13131D01*
X142887D01*
Y13050D01*
X142969D01*
Y12969D01*
X143050D01*
Y12888D01*
X143131D01*
Y11019D01*
X143050D01*
Y10938D01*
X142481D01*
Y11019D01*
X142319D01*
Y13131D01*
Y13213D01*
Y13619D01*
X142481D01*
Y13537D01*
D02*
G37*
%LPC*%
G36*
X103197Y26524D02*
X102361D01*
Y26357D01*
X102306D01*
Y26079D01*
X102250D01*
Y25800D01*
X102194D01*
Y25744D01*
Y25633D01*
X103030D01*
Y25856D01*
X103086D01*
Y26134D01*
X103141D01*
Y26469D01*
X103197D01*
Y26524D01*
D02*
G37*
G36*
X94227Y25577D02*
X93280D01*
Y25521D01*
X93113D01*
Y25466D01*
X93001D01*
Y25410D01*
X92946D01*
Y25354D01*
X92890D01*
Y25243D01*
X92834D01*
Y25076D01*
X92779D01*
Y24853D01*
X92834D01*
Y24686D01*
X92890D01*
Y24630D01*
X92946D01*
Y24574D01*
X93001D01*
Y24519D01*
X93113D01*
Y24463D01*
X93614D01*
Y24519D01*
X93781D01*
Y24574D01*
X93893D01*
Y24630D01*
X93949D01*
Y24686D01*
X94004D01*
Y24741D01*
X94060D01*
Y24797D01*
X94116D01*
Y24853D01*
X94171D01*
Y25020D01*
X94227D01*
Y25577D01*
D02*
G37*
G36*
X90606Y27694D02*
X89714D01*
Y26079D01*
X90606D01*
Y26134D01*
X90829D01*
Y26190D01*
X90940D01*
Y26246D01*
X90996D01*
Y26301D01*
X91051D01*
Y26357D01*
X91107D01*
Y26413D01*
X91163D01*
Y26524D01*
X91219D01*
Y26691D01*
X91274D01*
Y27137D01*
X91219D01*
Y27304D01*
X91163D01*
Y27360D01*
X91107D01*
Y27416D01*
X91051D01*
Y27471D01*
X90996D01*
Y27527D01*
X90940D01*
Y27583D01*
X90829D01*
Y27639D01*
X90606D01*
Y27694D01*
D02*
G37*
G36*
X126876Y27750D02*
X126430D01*
Y27694D01*
X126319D01*
Y27639D01*
X126207D01*
Y27583D01*
X126151D01*
Y27527D01*
X126096D01*
Y27416D01*
X126040D01*
Y27304D01*
X125984D01*
Y27193D01*
X125929D01*
Y26970D01*
X125873D01*
Y26524D01*
X125817D01*
Y25689D01*
X125873D01*
Y25243D01*
X125929D01*
Y25020D01*
X125984D01*
Y24909D01*
X126040D01*
Y24797D01*
X126096D01*
Y24686D01*
X126151D01*
Y24630D01*
X126207D01*
Y24574D01*
X126319D01*
Y24519D01*
X126430D01*
Y24463D01*
X126876D01*
Y24519D01*
X127043D01*
Y24574D01*
X127099D01*
Y24630D01*
X127154D01*
Y24686D01*
X127210D01*
Y24741D01*
X127266D01*
Y24853D01*
X127321D01*
Y24964D01*
X127377D01*
Y25131D01*
X127433D01*
Y25410D01*
X127489D01*
Y26803D01*
X127433D01*
Y27081D01*
X127377D01*
Y27249D01*
X127321D01*
Y27360D01*
X127266D01*
Y27471D01*
X127210D01*
Y27527D01*
X127154D01*
Y27583D01*
X127099D01*
Y27639D01*
X126987D01*
Y27694D01*
X126876D01*
Y27750D01*
D02*
G37*
G36*
X123700D02*
X123254D01*
Y27694D01*
X123143D01*
Y27639D01*
X123031D01*
Y27583D01*
X122976D01*
Y27527D01*
X122920D01*
Y27416D01*
X122864D01*
Y27304D01*
X122809D01*
Y27193D01*
X122753D01*
Y26970D01*
X122697D01*
Y26524D01*
X122641D01*
Y25689D01*
X122697D01*
Y25299D01*
Y25243D01*
X122753D01*
Y25020D01*
X122809D01*
Y24909D01*
X122864D01*
Y24797D01*
X122920D01*
Y24686D01*
X122976D01*
Y24630D01*
X123031D01*
Y24574D01*
X123143D01*
Y24519D01*
X123254D01*
Y24463D01*
X123700D01*
Y24519D01*
X123867D01*
Y24574D01*
X123923D01*
Y24630D01*
X123979D01*
Y24686D01*
X124034D01*
Y24741D01*
X124090D01*
Y24853D01*
X124146D01*
Y24964D01*
X124201D01*
Y25131D01*
X124257D01*
Y25410D01*
X124313D01*
Y26803D01*
X124257D01*
Y27081D01*
X124201D01*
Y27249D01*
X124146D01*
Y27360D01*
X124090D01*
Y27471D01*
X124034D01*
Y27527D01*
X123979D01*
Y27583D01*
X123923D01*
Y27639D01*
X123811D01*
Y27694D01*
X123700D01*
Y27750D01*
D02*
G37*
G36*
X120524D02*
X120079D01*
Y27694D01*
X119967D01*
Y27639D01*
X119856D01*
Y27583D01*
X119800D01*
Y27527D01*
X119744D01*
Y27416D01*
X119689D01*
Y27304D01*
X119633D01*
Y27193D01*
X119577D01*
Y26970D01*
X119521D01*
Y26524D01*
X119466D01*
Y25689D01*
X119521D01*
Y25243D01*
X119577D01*
Y25020D01*
X119633D01*
Y24909D01*
X119689D01*
Y24797D01*
X119744D01*
Y24686D01*
X119800D01*
Y24630D01*
X119856D01*
Y24574D01*
X119967D01*
Y24519D01*
X120079D01*
Y24463D01*
X120524D01*
Y24519D01*
X120691D01*
Y24574D01*
X120747D01*
Y24630D01*
X120803D01*
Y24686D01*
X120859D01*
Y24741D01*
X120914D01*
Y24853D01*
X120970D01*
Y24964D01*
X121026D01*
Y25131D01*
X121081D01*
Y25410D01*
X121137D01*
Y26803D01*
X121081D01*
Y27081D01*
X121026D01*
Y27249D01*
X120970D01*
Y27360D01*
X120914D01*
Y27471D01*
X120859D01*
Y27527D01*
X120803D01*
Y27583D01*
X120747D01*
Y27639D01*
X120636D01*
Y27694D01*
X120524D01*
Y27750D01*
D02*
G37*
G36*
X112390D02*
X111944D01*
Y27694D01*
X111833D01*
Y27639D01*
X111721D01*
Y27583D01*
X111666D01*
Y27527D01*
X111610D01*
Y27416D01*
X111554D01*
Y27304D01*
X111499D01*
Y27193D01*
X111443D01*
Y26970D01*
X111387D01*
Y26524D01*
X111331D01*
Y26023D01*
Y25967D01*
Y25689D01*
X111387D01*
Y25243D01*
X111443D01*
Y25020D01*
X111499D01*
Y24909D01*
X111554D01*
Y24797D01*
X111610D01*
Y24686D01*
X111666D01*
Y24630D01*
X111721D01*
Y24574D01*
X111833D01*
Y24519D01*
X111944D01*
Y24463D01*
X112390D01*
Y24519D01*
X112557D01*
Y24574D01*
X112613D01*
Y24630D01*
X112669D01*
Y24686D01*
X112724D01*
Y24741D01*
X112780D01*
Y24853D01*
X112836D01*
Y24964D01*
X112891D01*
Y25131D01*
X112947D01*
Y25410D01*
X113003D01*
Y26803D01*
X112947D01*
Y27081D01*
X112891D01*
Y27249D01*
X112836D01*
Y27360D01*
X112780D01*
Y27471D01*
X112724D01*
Y27527D01*
X112669D01*
Y27583D01*
X112613D01*
Y27639D01*
X112501D01*
Y27694D01*
X112390D01*
Y27750D01*
D02*
G37*
G36*
X109214D02*
X108769D01*
Y27694D01*
X108657D01*
Y27639D01*
X108546D01*
Y27583D01*
X108490D01*
Y27527D01*
X108434D01*
Y27416D01*
X108379D01*
Y27304D01*
X108323D01*
Y27193D01*
X108267D01*
Y26970D01*
X108211D01*
Y26524D01*
X108156D01*
Y25689D01*
X108211D01*
Y25243D01*
X108267D01*
Y25020D01*
X108323D01*
Y24909D01*
X108379D01*
Y24797D01*
X108434D01*
Y24686D01*
X108490D01*
Y24630D01*
X108546D01*
Y24574D01*
X108657D01*
Y24519D01*
X108769D01*
Y24463D01*
X109214D01*
Y24519D01*
X109381D01*
Y24574D01*
X109437D01*
Y24630D01*
X109493D01*
Y24686D01*
X109549D01*
Y24741D01*
X109604D01*
Y24853D01*
X109660D01*
Y24964D01*
X109716D01*
Y25020D01*
Y25131D01*
X109771D01*
Y25410D01*
X109827D01*
Y26803D01*
X109771D01*
Y27081D01*
X109716D01*
Y27249D01*
X109660D01*
Y27360D01*
X109604D01*
Y27471D01*
X109549D01*
Y27527D01*
X109493D01*
Y27583D01*
X109437D01*
Y27639D01*
X109326D01*
Y27694D01*
X109214D01*
Y27750D01*
D02*
G37*
G36*
X102974Y18947D02*
X102139D01*
Y18780D01*
X102083D01*
Y18501D01*
X102027D01*
Y18223D01*
X101971D01*
Y18056D01*
X102807D01*
Y18279D01*
X102863D01*
Y18501D01*
Y18557D01*
X102919D01*
Y18891D01*
X102974D01*
Y18947D01*
D02*
G37*
G36*
X90661Y20117D02*
X89714D01*
Y18557D01*
X90661D01*
Y18613D01*
X90829D01*
Y18669D01*
X90940D01*
Y18724D01*
X91051D01*
Y18780D01*
X91107D01*
Y18891D01*
X91163D01*
Y18947D01*
X91219D01*
Y19114D01*
X91274D01*
Y19560D01*
X91219D01*
Y19671D01*
Y19727D01*
X91163D01*
Y19839D01*
X91107D01*
Y19894D01*
X91051D01*
Y19950D01*
X90996D01*
Y20006D01*
X90884D01*
Y20061D01*
X90661D01*
Y20117D01*
D02*
G37*
G36*
X108991Y20173D02*
X108546D01*
Y20117D01*
X108434D01*
Y20061D01*
X108323D01*
Y20006D01*
X108267D01*
Y19950D01*
X108211D01*
Y19839D01*
X108156D01*
Y19727D01*
X108100D01*
Y19616D01*
X108044D01*
Y19393D01*
X107989D01*
Y18947D01*
X107933D01*
Y18111D01*
X107989D01*
Y17666D01*
X108044D01*
Y17443D01*
X108100D01*
Y17331D01*
X108156D01*
Y17220D01*
X108211D01*
Y17109D01*
X108267D01*
Y17053D01*
X108323D01*
Y16997D01*
X108434D01*
Y16941D01*
X108546D01*
Y16886D01*
X108991D01*
Y16941D01*
X109159D01*
Y16997D01*
X109214D01*
Y17053D01*
X109270D01*
Y17109D01*
X109326D01*
Y17164D01*
X109381D01*
Y17276D01*
X109437D01*
Y17387D01*
X109493D01*
Y17554D01*
X109549D01*
Y17833D01*
X109604D01*
Y19226D01*
X109549D01*
Y19504D01*
X109493D01*
Y19671D01*
X109437D01*
Y19783D01*
X109381D01*
Y19894D01*
X109326D01*
Y19950D01*
X109270D01*
Y20006D01*
X109214D01*
Y20061D01*
X109103D01*
Y20117D01*
X108991D01*
Y20173D01*
D02*
G37*
G36*
X94004Y19170D02*
X93559D01*
Y19114D01*
X93391D01*
Y19059D01*
X93280D01*
Y19003D01*
X93224D01*
Y18947D01*
X93169D01*
Y18836D01*
X93113D01*
Y18780D01*
X93057D01*
Y18613D01*
X93001D01*
Y18390D01*
X92946D01*
Y18334D01*
X94506D01*
Y18557D01*
X94450D01*
Y18780D01*
X94394D01*
Y18891D01*
X94339D01*
Y18947D01*
X94283D01*
Y19003D01*
X94227D01*
Y19059D01*
X94171D01*
Y19114D01*
X94004D01*
Y19170D01*
D02*
G37*
G36*
X102919Y11370D02*
X102083D01*
Y11203D01*
X102027D01*
Y10924D01*
X101971D01*
Y10646D01*
X101916D01*
Y10479D01*
X102751D01*
Y10701D01*
X102807D01*
Y10980D01*
X102863D01*
Y11314D01*
X102919D01*
Y11370D01*
D02*
G37*
G36*
X93559Y11593D02*
X93113D01*
Y11537D01*
X92946D01*
Y11481D01*
X92834D01*
Y11426D01*
X92779D01*
Y11370D01*
X92723D01*
Y11259D01*
X92667D01*
Y11203D01*
X92611D01*
Y11036D01*
X92556D01*
Y10813D01*
X92500D01*
Y10757D01*
X94060D01*
Y10980D01*
X94004D01*
Y11203D01*
X93949D01*
Y11314D01*
X93893D01*
Y11370D01*
X93837D01*
Y11426D01*
X93781D01*
Y11481D01*
X93726D01*
Y11537D01*
X93559D01*
Y11593D01*
D02*
G37*
G36*
X166234Y65711D02*
X129871D01*
Y62100D01*
X130129D01*
Y55137D01*
X130387D01*
Y51784D01*
X130645D01*
Y49721D01*
X130903D01*
Y47916D01*
X131160D01*
Y46626D01*
X131418D01*
Y45337D01*
X131676D01*
Y44305D01*
X131934D01*
Y43274D01*
X132192D01*
Y42242D01*
X132450D01*
Y41984D01*
X132708D01*
Y42242D01*
X133224D01*
Y42500D01*
X133482D01*
Y42758D01*
X133739D01*
Y43016D01*
X133997D01*
Y43274D01*
X134513D01*
Y43532D01*
X134771D01*
Y43789D01*
X135029D01*
Y44047D01*
X135287D01*
Y44305D01*
X135803D01*
Y44563D01*
X136061D01*
Y44821D01*
X136318D01*
Y45079D01*
X136576D01*
Y45337D01*
X137092D01*
Y45595D01*
X137350D01*
Y45853D01*
X137608D01*
Y46110D01*
X137866D01*
Y46368D01*
X138382D01*
Y46626D01*
X138639D01*
Y46884D01*
X138897D01*
Y47142D01*
X139155D01*
Y47400D01*
X139671D01*
Y47658D01*
X139929D01*
Y47916D01*
X140187D01*
Y48174D01*
X140703D01*
Y48432D01*
X140961D01*
Y48689D01*
X141218D01*
Y48947D01*
X141476D01*
Y49205D01*
X141992D01*
Y49463D01*
X142250D01*
Y49721D01*
X142508D01*
Y49979D01*
X142766D01*
Y50237D01*
X143282D01*
Y50495D01*
X143540D01*
Y50753D01*
X143797D01*
Y51011D01*
X144055D01*
Y51268D01*
X144571D01*
Y51526D01*
X144829D01*
Y51784D01*
X145087D01*
Y52042D01*
X145345D01*
Y52300D01*
X145861D01*
Y52558D01*
X146118D01*
Y52816D01*
X146376D01*
Y53074D01*
X146634D01*
Y53332D01*
X147150D01*
Y53589D01*
X147408D01*
Y53847D01*
X147666D01*
Y54105D01*
X148440D01*
Y53847D01*
X148697D01*
Y53589D01*
X149213D01*
Y53332D01*
X149471D01*
Y53074D01*
X149729D01*
Y52816D01*
X149987D01*
Y52558D01*
X150503D01*
Y52300D01*
X150760D01*
Y52042D01*
X151018D01*
Y51784D01*
X151276D01*
Y51526D01*
X151792D01*
Y51268D01*
X152050D01*
Y51011D01*
X152308D01*
Y50753D01*
X152566D01*
Y50495D01*
X153082D01*
Y50237D01*
X153340D01*
Y49979D01*
X153597D01*
Y49721D01*
X153855D01*
Y49463D01*
X154371D01*
Y49205D01*
X154629D01*
Y48947D01*
X154887D01*
Y48689D01*
X155145D01*
Y48432D01*
X155660D01*
Y48174D01*
X155918D01*
Y47916D01*
X156176D01*
Y47658D01*
X156692D01*
Y47400D01*
X156950D01*
Y47142D01*
X157208D01*
Y46884D01*
X157466D01*
Y46626D01*
X157982D01*
Y46368D01*
X158239D01*
Y46110D01*
X158497D01*
Y45853D01*
X158755D01*
Y45595D01*
X159271D01*
Y45337D01*
X159529D01*
Y45079D01*
X159787D01*
Y44821D01*
X160045D01*
Y44563D01*
X160561D01*
Y44305D01*
X160818D01*
Y44047D01*
X161076D01*
Y43789D01*
X161334D01*
Y43532D01*
X161850D01*
Y43274D01*
X162108D01*
Y43016D01*
X162366D01*
Y42758D01*
X162624D01*
Y42500D01*
X163139D01*
Y42242D01*
X163397D01*
Y41984D01*
X163655D01*
Y42242D01*
X163913D01*
Y43274D01*
X164171D01*
Y44305D01*
X164429D01*
Y45337D01*
X164687D01*
Y46626D01*
X164945D01*
Y47916D01*
X165203D01*
Y49721D01*
X165461D01*
Y51784D01*
X165718D01*
Y55137D01*
X165976D01*
Y62100D01*
X166234D01*
Y65711D01*
D02*
G37*
G36*
X148440Y51268D02*
X147924D01*
Y51011D01*
X147408D01*
Y50753D01*
X147150D01*
Y50495D01*
X146892D01*
Y50237D01*
X146634D01*
Y49979D01*
X146118D01*
Y49721D01*
X145861D01*
Y49463D01*
X145603D01*
Y49205D01*
X145345D01*
Y48947D01*
X144829D01*
Y48689D01*
X144571D01*
Y48432D01*
X144313D01*
Y48174D01*
X144055D01*
Y47916D01*
X143540D01*
Y47658D01*
X143282D01*
Y47400D01*
X143024D01*
Y47142D01*
X142508D01*
Y46884D01*
X142250D01*
Y46626D01*
X141992D01*
Y46368D01*
X141734D01*
Y46110D01*
X141218D01*
Y45853D01*
X140961D01*
Y45595D01*
X140703D01*
Y45337D01*
X140445D01*
Y45079D01*
X139929D01*
Y44821D01*
X139671D01*
Y44563D01*
X139413D01*
Y44305D01*
X139155D01*
Y44047D01*
X138639D01*
Y43789D01*
X138382D01*
Y43532D01*
X138124D01*
Y43274D01*
X137866D01*
Y43016D01*
X137350D01*
Y42758D01*
X137092D01*
Y42500D01*
X136834D01*
Y42242D01*
X136318D01*
Y41984D01*
X136061D01*
Y41726D01*
X135803D01*
Y41468D01*
X135545D01*
Y41210D01*
X135029D01*
Y40953D01*
X134771D01*
Y40695D01*
X134513D01*
Y40437D01*
X134255D01*
Y40179D01*
X133739D01*
Y39921D01*
X133482D01*
Y39663D01*
X133224D01*
Y39405D01*
X133482D01*
Y38632D01*
X133739D01*
Y38116D01*
X133997D01*
Y37600D01*
X134255D01*
Y37084D01*
X134513D01*
Y36826D01*
X134771D01*
Y37084D01*
X135029D01*
Y37342D01*
X135287D01*
Y37600D01*
X135803D01*
Y37858D01*
X136061D01*
Y38116D01*
X136318D01*
Y38374D01*
X136576D01*
Y38632D01*
X137092D01*
Y38890D01*
X137350D01*
Y39147D01*
X137608D01*
Y39405D01*
X137866D01*
Y39663D01*
X138382D01*
Y39921D01*
X138639D01*
Y40179D01*
X138897D01*
Y40437D01*
X139155D01*
Y40695D01*
X139671D01*
Y40953D01*
X139929D01*
Y41210D01*
X140187D01*
Y41468D01*
X140445D01*
Y41726D01*
X140961D01*
Y41984D01*
X141218D01*
Y42242D01*
X141476D01*
Y42500D01*
X141734D01*
Y42758D01*
X142250D01*
Y43016D01*
X142508D01*
Y43274D01*
X142766D01*
Y43532D01*
X143282D01*
Y43789D01*
X143540D01*
Y44047D01*
X143797D01*
Y44305D01*
X144055D01*
Y44563D01*
X144571D01*
Y44821D01*
X144829D01*
Y45079D01*
X145087D01*
Y45337D01*
X145345D01*
Y45595D01*
X145861D01*
Y45853D01*
X146118D01*
Y46110D01*
X146376D01*
Y46368D01*
X146634D01*
Y46626D01*
X147150D01*
Y46884D01*
X147408D01*
Y47142D01*
X147666D01*
Y47400D01*
X148440D01*
Y47142D01*
X148697D01*
Y46884D01*
X149213D01*
Y46626D01*
X149471D01*
Y46368D01*
X149729D01*
Y46110D01*
X149987D01*
Y45853D01*
X150503D01*
Y45595D01*
X150760D01*
Y45337D01*
X151018D01*
Y45079D01*
X151276D01*
Y44821D01*
X151792D01*
Y44563D01*
X152050D01*
Y44305D01*
X152308D01*
Y44047D01*
X152566D01*
Y43789D01*
X153082D01*
Y43532D01*
X153340D01*
Y43274D01*
X153597D01*
Y43016D01*
X154113D01*
Y42758D01*
X154371D01*
Y42500D01*
X154629D01*
Y42242D01*
X154887D01*
Y41984D01*
X155403D01*
Y41726D01*
X155660D01*
Y41468D01*
X155918D01*
Y41210D01*
X156176D01*
Y40953D01*
X156692D01*
Y40695D01*
X156950D01*
Y40437D01*
X157208D01*
Y40179D01*
X157466D01*
Y39921D01*
X157982D01*
Y39663D01*
X158239D01*
Y39405D01*
X158497D01*
Y39147D01*
X158755D01*
Y38890D01*
X159271D01*
Y38632D01*
X159529D01*
Y38374D01*
X159787D01*
Y38116D01*
X160045D01*
Y37858D01*
X160561D01*
Y37600D01*
X160818D01*
Y37342D01*
X161076D01*
Y37084D01*
X161850D01*
Y37600D01*
X162108D01*
Y38116D01*
X162366D01*
Y38632D01*
X162624D01*
Y39405D01*
X162882D01*
Y39663D01*
X162624D01*
Y39921D01*
X162366D01*
Y40179D01*
X162108D01*
Y40437D01*
X161592D01*
Y40695D01*
X161334D01*
Y40953D01*
X161076D01*
Y41210D01*
X160561D01*
Y41468D01*
X160303D01*
Y41726D01*
X160045D01*
Y41984D01*
X159787D01*
Y42242D01*
X159271D01*
Y42500D01*
X159013D01*
Y42758D01*
X158755D01*
Y43016D01*
X158497D01*
Y43274D01*
X157982D01*
Y43532D01*
X157724D01*
Y43789D01*
X157466D01*
Y44047D01*
X157208D01*
Y44305D01*
X156692D01*
Y44563D01*
X156434D01*
Y44821D01*
X156176D01*
Y45079D01*
X155918D01*
Y45337D01*
X155403D01*
Y45595D01*
X155145D01*
Y45853D01*
X154887D01*
Y46110D01*
X154629D01*
Y46368D01*
X154113D01*
Y46626D01*
X153855D01*
Y46884D01*
X153597D01*
Y47142D01*
X153340D01*
Y47400D01*
X152824D01*
Y47658D01*
X152566D01*
Y47916D01*
X152308D01*
Y48174D01*
X151792D01*
Y48432D01*
X151534D01*
Y48689D01*
X151276D01*
Y48947D01*
X151018D01*
Y49205D01*
X150503D01*
Y49463D01*
X150245D01*
Y49721D01*
X149987D01*
Y49979D01*
X149729D01*
Y50237D01*
X149213D01*
Y50495D01*
X148955D01*
Y50753D01*
X148697D01*
Y51011D01*
X148440D01*
Y51268D01*
D02*
G37*
G36*
Y44563D02*
X147924D01*
Y44305D01*
X147408D01*
Y44047D01*
X147150D01*
Y43789D01*
X146892D01*
Y43532D01*
X146376D01*
Y43274D01*
X146118D01*
Y43016D01*
X145861D01*
Y42758D01*
X145603D01*
Y42500D01*
X145087D01*
Y42242D01*
X144829D01*
Y41984D01*
X144571D01*
Y41726D01*
X144313D01*
Y41468D01*
X143797D01*
Y41210D01*
X143540D01*
Y40953D01*
X143282D01*
Y40695D01*
X143024D01*
Y40437D01*
X142508D01*
Y40179D01*
X142250D01*
Y39921D01*
X141992D01*
Y39663D01*
X141734D01*
Y39405D01*
X141218D01*
Y39147D01*
X140961D01*
Y38890D01*
X140703D01*
Y38632D01*
X140445D01*
Y38374D01*
X139929D01*
Y38116D01*
X139671D01*
Y37858D01*
X139413D01*
Y37600D01*
X138897D01*
Y37342D01*
X138639D01*
Y37084D01*
X138382D01*
Y36826D01*
X138124D01*
Y36568D01*
X137608D01*
Y36310D01*
X137350D01*
Y36053D01*
X137092D01*
Y35795D01*
X136834D01*
Y35537D01*
X136318D01*
Y35279D01*
X136061D01*
Y35021D01*
X135803D01*
Y34763D01*
X135545D01*
Y34505D01*
X135803D01*
Y33990D01*
X136061D01*
Y33732D01*
X136318D01*
Y33216D01*
X136576D01*
Y32958D01*
X136834D01*
Y32442D01*
X137092D01*
Y32184D01*
X137350D01*
Y31668D01*
X137608D01*
Y31411D01*
X137866D01*
Y31153D01*
X138124D01*
Y30637D01*
X138382D01*
Y30379D01*
X138639D01*
Y30121D01*
X138897D01*
Y29863D01*
X139155D01*
Y29605D01*
X139413D01*
Y29347D01*
X139671D01*
Y29089D01*
X139929D01*
Y28832D01*
X140187D01*
Y28574D01*
X140445D01*
Y28316D01*
X140703D01*
Y28058D01*
X140961D01*
Y27800D01*
X141218D01*
Y27542D01*
X141476D01*
Y27284D01*
X141992D01*
Y27026D01*
X142250D01*
Y26768D01*
X142508D01*
Y26511D01*
X143024D01*
Y26253D01*
X143282D01*
Y25995D01*
X143540D01*
Y25737D01*
X144055D01*
Y25479D01*
X144313D01*
Y25221D01*
X144829D01*
Y24963D01*
X145345D01*
Y24705D01*
X145603D01*
Y24447D01*
X146118D01*
Y24190D01*
X146634D01*
Y23932D01*
X147150D01*
Y23674D01*
X147666D01*
Y23416D01*
X148440D01*
Y23674D01*
X148955D01*
Y23932D01*
X149471D01*
Y24190D01*
X149987D01*
Y24447D01*
X150503D01*
Y24705D01*
X150760D01*
Y24963D01*
X151276D01*
Y25221D01*
X151792D01*
Y25479D01*
X152050D01*
Y25737D01*
X152566D01*
Y25995D01*
X152824D01*
Y26253D01*
X153082D01*
Y26511D01*
X153597D01*
Y26768D01*
X153855D01*
Y27026D01*
X154113D01*
Y27284D01*
X154629D01*
Y27542D01*
X154887D01*
Y27800D01*
X155145D01*
Y28058D01*
X155403D01*
Y28316D01*
X155660D01*
Y28574D01*
X155918D01*
Y28832D01*
X156176D01*
Y29089D01*
X156434D01*
Y29347D01*
X156692D01*
Y29605D01*
X156950D01*
Y29863D01*
X157208D01*
Y30121D01*
X157466D01*
Y30379D01*
X157724D01*
Y30637D01*
X157982D01*
Y31153D01*
X158239D01*
Y31411D01*
X158497D01*
Y31668D01*
X158755D01*
Y32184D01*
X159013D01*
Y32442D01*
X159271D01*
Y32958D01*
X159529D01*
Y33216D01*
X159787D01*
Y33732D01*
X160045D01*
Y33990D01*
X160303D01*
Y34505D01*
X160561D01*
Y34763D01*
X160303D01*
Y35021D01*
X160045D01*
Y35279D01*
X159787D01*
Y35537D01*
X159529D01*
Y35795D01*
X159013D01*
Y36053D01*
X158755D01*
Y36310D01*
X158497D01*
Y36568D01*
X158239D01*
Y36826D01*
X157724D01*
Y37084D01*
X157466D01*
Y37342D01*
X157208D01*
Y37600D01*
X156692D01*
Y37858D01*
X156434D01*
Y38116D01*
X156176D01*
Y38374D01*
X155918D01*
Y38632D01*
X155403D01*
Y38890D01*
X155145D01*
Y39147D01*
X154887D01*
Y39405D01*
X154629D01*
Y39663D01*
X154113D01*
Y39921D01*
X153855D01*
Y40179D01*
X153597D01*
Y40437D01*
X153340D01*
Y40695D01*
X152824D01*
Y40953D01*
X152566D01*
Y41210D01*
X152308D01*
Y41468D01*
X152050D01*
Y41726D01*
X151534D01*
Y41984D01*
X151276D01*
Y42242D01*
X151018D01*
Y42500D01*
X150760D01*
Y42758D01*
X150245D01*
Y43016D01*
X149987D01*
Y43274D01*
X149729D01*
Y43532D01*
X149471D01*
Y43789D01*
X148955D01*
Y44047D01*
X148697D01*
Y44305D01*
X148440D01*
Y44563D01*
D02*
G37*
%LPD*%
G36*
X140703Y63389D02*
X140445D01*
Y61842D01*
X140187D01*
Y61584D01*
X139929D01*
Y61326D01*
X139155D01*
Y61068D01*
X137092D01*
Y61326D01*
X137866D01*
Y61584D01*
X138124D01*
Y61842D01*
X138382D01*
Y62616D01*
X138124D01*
Y63132D01*
X137092D01*
Y62874D01*
X136834D01*
Y63389D01*
X137092D01*
Y63647D01*
X137866D01*
Y63905D01*
X138382D01*
Y64163D01*
X139413D01*
Y63905D01*
X140445D01*
Y64163D01*
X140703D01*
Y63389D01*
D02*
G37*
G36*
X133739Y63647D02*
X133997D01*
Y62100D01*
X134255D01*
Y61584D01*
X134513D01*
Y61068D01*
X134771D01*
Y60811D01*
X135029D01*
Y60553D01*
X135545D01*
Y60295D01*
X135803D01*
Y60037D01*
X136576D01*
Y59779D01*
X137092D01*
Y59263D01*
X136834D01*
Y59005D01*
X136576D01*
Y58747D01*
X135545D01*
Y59005D01*
X135287D01*
Y59263D01*
X134771D01*
Y59521D01*
X134255D01*
Y60037D01*
X133997D01*
Y60553D01*
X133482D01*
Y60811D01*
X133224D01*
Y61326D01*
X132966D01*
Y61584D01*
X132708D01*
Y61842D01*
X132192D01*
Y62100D01*
X131676D01*
Y62358D01*
X131418D01*
Y62616D01*
X131676D01*
Y62874D01*
X132192D01*
Y63132D01*
X131676D01*
Y63905D01*
X132708D01*
Y63389D01*
X132966D01*
Y63132D01*
X133224D01*
Y63905D01*
X133739D01*
Y63647D01*
D02*
G37*
G36*
X153855Y63389D02*
X154113D01*
Y63132D01*
X154371D01*
Y61842D01*
X154629D01*
Y61584D01*
X154887D01*
Y61326D01*
X155145D01*
Y61068D01*
X155660D01*
Y60811D01*
X155918D01*
Y60553D01*
X156434D01*
Y60295D01*
X156692D01*
Y60037D01*
X156950D01*
Y59779D01*
X156692D01*
Y59521D01*
X156434D01*
Y59263D01*
X155660D01*
Y59521D01*
X155403D01*
Y59779D01*
X154629D01*
Y60553D01*
X154371D01*
Y60811D01*
X154113D01*
Y61068D01*
X153340D01*
Y60811D01*
X153082D01*
Y60553D01*
X152308D01*
Y61068D01*
X152566D01*
Y61584D01*
X153082D01*
Y61842D01*
X152566D01*
Y62100D01*
X152308D01*
Y62616D01*
X152566D01*
Y62874D01*
X153082D01*
Y62616D01*
X153340D01*
Y63647D01*
X153855D01*
Y63389D01*
D02*
G37*
G36*
X157208Y62358D02*
Y62100D01*
X156692D01*
Y61842D01*
X155918D01*
Y62100D01*
X155403D01*
Y62358D01*
X155145D01*
Y62616D01*
X157208D01*
Y62358D01*
D02*
G37*
G36*
X137350Y62100D02*
X137608D01*
Y61842D01*
X136834D01*
Y61584D01*
X135803D01*
Y61842D01*
X135287D01*
Y62100D01*
X135803D01*
Y62358D01*
X137350D01*
Y62100D01*
D02*
G37*
G36*
X159013Y63905D02*
X159529D01*
Y63647D01*
X160303D01*
Y63905D01*
X160818D01*
Y63132D01*
X160303D01*
Y62616D01*
X160045D01*
Y61842D01*
X159787D01*
Y61584D01*
X159271D01*
Y61326D01*
X158755D01*
Y61068D01*
X156950D01*
Y61584D01*
X157724D01*
Y61842D01*
X157982D01*
Y62874D01*
X157724D01*
Y63132D01*
X156692D01*
Y62874D01*
X156434D01*
Y63389D01*
X156692D01*
Y63647D01*
X157466D01*
Y63905D01*
X157982D01*
Y64163D01*
X159013D01*
Y63905D01*
D02*
G37*
G36*
X147924Y63389D02*
X148697D01*
Y63132D01*
X149471D01*
Y62874D01*
X150760D01*
Y62616D01*
X150503D01*
Y62358D01*
X150245D01*
Y62100D01*
X149987D01*
Y61842D01*
X149471D01*
Y61584D01*
X147666D01*
Y61068D01*
X147924D01*
Y60811D01*
X147408D01*
Y61068D01*
X146892D01*
Y61326D01*
X145345D01*
Y61068D01*
X144829D01*
Y60553D01*
X144571D01*
Y60295D01*
X144313D01*
Y59521D01*
X144055D01*
Y59005D01*
X144313D01*
Y58747D01*
X144571D01*
Y59263D01*
X145087D01*
Y59521D01*
X145345D01*
Y59779D01*
X145603D01*
Y59263D01*
X145861D01*
Y59005D01*
X145603D01*
Y58490D01*
X145345D01*
Y58232D01*
X145087D01*
Y57716D01*
X145345D01*
Y56942D01*
X145087D01*
Y55910D01*
X144829D01*
Y55137D01*
X144571D01*
Y54621D01*
X144313D01*
Y54363D01*
X144055D01*
Y54105D01*
X143797D01*
Y53847D01*
X142766D01*
Y53589D01*
X142508D01*
Y53074D01*
X142250D01*
Y52816D01*
X141992D01*
Y52558D01*
X140703D01*
Y51784D01*
X140961D01*
Y51526D01*
X141218D01*
Y51268D01*
X141734D01*
Y50753D01*
X141218D01*
Y50495D01*
X140703D01*
Y50237D01*
X140187D01*
Y49979D01*
X139929D01*
Y49721D01*
X139671D01*
Y49463D01*
X139413D01*
Y49205D01*
X139155D01*
Y48947D01*
X138897D01*
Y48432D01*
X138639D01*
Y48174D01*
X138382D01*
Y48432D01*
X137608D01*
Y47916D01*
X137350D01*
Y47658D01*
X136318D01*
Y48174D01*
X136576D01*
Y48689D01*
X136061D01*
Y49463D01*
X136318D01*
Y49721D01*
X136834D01*
Y49979D01*
X136576D01*
Y50495D01*
X137608D01*
Y50237D01*
X138124D01*
Y49979D01*
X138382D01*
Y50237D01*
X139155D01*
Y50495D01*
X139671D01*
Y50753D01*
X139929D01*
Y51268D01*
X139413D01*
Y51526D01*
X138639D01*
Y51784D01*
X138124D01*
Y52042D01*
X137866D01*
Y53589D01*
X138124D01*
Y53847D01*
X138382D01*
Y54105D01*
X138897D01*
Y54363D01*
X139413D01*
Y54105D01*
X139929D01*
Y54363D01*
X139671D01*
Y54621D01*
X139413D01*
Y54879D01*
X138639D01*
Y55137D01*
X138124D01*
Y55395D01*
X137866D01*
Y55653D01*
X137608D01*
Y55910D01*
X137866D01*
Y56168D01*
X138124D01*
Y56426D01*
X139671D01*
Y56684D01*
X140703D01*
Y56942D01*
X140961D01*
Y56426D01*
X141218D01*
Y55910D01*
X141476D01*
Y55395D01*
X141734D01*
Y55137D01*
X141992D01*
Y54879D01*
X142250D01*
Y54621D01*
X142508D01*
Y54363D01*
X143540D01*
Y54621D01*
X143797D01*
Y54879D01*
X144055D01*
Y55137D01*
X144313D01*
Y56684D01*
X143797D01*
Y56942D01*
X143024D01*
Y57458D01*
X143282D01*
Y57716D01*
X144055D01*
Y58232D01*
X143797D01*
Y58747D01*
X143540D01*
Y61068D01*
X143797D01*
Y61842D01*
X144055D01*
Y62100D01*
X144313D01*
Y62616D01*
X144571D01*
Y62874D01*
X144829D01*
Y63132D01*
X145345D01*
Y63389D01*
X145603D01*
Y63647D01*
X147924D01*
Y63389D01*
D02*
G37*
G36*
X152824Y59521D02*
X153082D01*
Y59263D01*
X153340D01*
Y58490D01*
Y58232D01*
X153597D01*
Y57716D01*
X153855D01*
Y57458D01*
X154371D01*
Y57200D01*
X155145D01*
Y56942D01*
X156434D01*
Y55653D01*
X156692D01*
Y55137D01*
X156950D01*
Y54879D01*
X156434D01*
Y55137D01*
X155918D01*
Y55395D01*
X155403D01*
Y55653D01*
X154887D01*
Y55910D01*
X154629D01*
Y56168D01*
X154113D01*
Y56426D01*
X153597D01*
Y56942D01*
X152824D01*
Y56684D01*
X152566D01*
Y56426D01*
X152308D01*
Y56168D01*
X151534D01*
Y57200D01*
X152050D01*
Y57716D01*
X151792D01*
Y57458D01*
X151276D01*
Y57716D01*
X150760D01*
Y58232D01*
X151018D01*
Y58490D01*
X151276D01*
Y58747D01*
X151792D01*
Y58490D01*
X152308D01*
Y58747D01*
X152050D01*
Y59263D01*
X152308D01*
Y59779D01*
X152824D01*
Y59521D01*
D02*
G37*
G36*
X160818Y62100D02*
X161076D01*
Y60037D01*
X160818D01*
Y58747D01*
X160561D01*
Y57716D01*
X160045D01*
Y57974D01*
X158755D01*
Y57716D01*
X158239D01*
Y57458D01*
X157982D01*
Y57200D01*
X157466D01*
Y57458D01*
X157208D01*
Y57716D01*
X156434D01*
Y57974D01*
X156176D01*
Y58490D01*
X156434D01*
Y59005D01*
X156692D01*
Y59263D01*
X156950D01*
Y59521D01*
X157208D01*
Y59779D01*
X157466D01*
Y60037D01*
X157982D01*
Y60295D01*
X158497D01*
Y60553D01*
X159013D01*
Y60811D01*
X159271D01*
Y61068D01*
X159787D01*
Y61326D01*
X160045D01*
Y61584D01*
X160303D01*
Y62100D01*
X160561D01*
Y62358D01*
X160818D01*
Y62100D01*
D02*
G37*
G36*
X141218Y62358D02*
X141476D01*
Y61584D01*
X141734D01*
Y59521D01*
X141476D01*
Y58747D01*
X141218D01*
Y57716D01*
X141476D01*
Y57200D01*
X140961D01*
Y57458D01*
X140445D01*
Y56942D01*
X140187D01*
Y57200D01*
X139671D01*
Y57458D01*
X139413D01*
Y57200D01*
X139155D01*
Y56942D01*
X138639D01*
Y56684D01*
X137092D01*
Y56168D01*
X136834D01*
Y58232D01*
X137092D01*
Y59005D01*
X137350D01*
Y59263D01*
X137608D01*
Y59521D01*
X137866D01*
Y59779D01*
X138382D01*
Y60037D01*
X138897D01*
Y60295D01*
X139155D01*
Y60553D01*
X139671D01*
Y60811D01*
X140187D01*
Y61068D01*
X140445D01*
Y61584D01*
X140703D01*
Y62100D01*
X140961D01*
Y62874D01*
X141218D01*
Y62358D01*
D02*
G37*
G36*
X132708Y59263D02*
X132966D01*
Y58747D01*
X133224D01*
Y58232D01*
X133739D01*
Y57974D01*
X134513D01*
Y57716D01*
X136061D01*
Y57974D01*
X136318D01*
Y56684D01*
X134771D01*
Y56942D01*
X133997D01*
Y56684D01*
X133482D01*
Y56942D01*
X133224D01*
Y57200D01*
X132966D01*
Y56942D01*
X132708D01*
Y56684D01*
X131934D01*
Y56942D01*
X131676D01*
Y57200D01*
X131934D01*
Y57716D01*
X131676D01*
Y57974D01*
X131160D01*
Y58490D01*
X131418D01*
Y58747D01*
X131934D01*
Y59263D01*
X131676D01*
Y59521D01*
X132708D01*
Y59263D01*
D02*
G37*
G36*
X137608Y54879D02*
X137866D01*
Y54621D01*
X138124D01*
Y54363D01*
X137866D01*
Y54105D01*
X137608D01*
Y53847D01*
X137350D01*
Y53332D01*
X137092D01*
Y52558D01*
X137350D01*
Y52300D01*
X136318D01*
Y52042D01*
X135545D01*
Y51784D01*
X135029D01*
Y52300D01*
X134255D01*
Y52042D01*
X133997D01*
Y51784D01*
X132966D01*
Y52300D01*
X133224D01*
Y52558D01*
X132708D01*
Y52300D01*
X132450D01*
Y52558D01*
X132192D01*
Y53332D01*
X132450D01*
Y53589D01*
X132966D01*
Y53332D01*
X133224D01*
Y53847D01*
X132966D01*
Y54105D01*
X132708D01*
Y54363D01*
X132966D01*
Y54621D01*
X133997D01*
Y54363D01*
X134255D01*
Y53332D01*
X134513D01*
Y53074D01*
X135803D01*
Y53332D01*
X136061D01*
Y53589D01*
X135803D01*
Y54621D01*
X136061D01*
Y54879D01*
X136318D01*
Y55137D01*
X137608D01*
Y54879D01*
D02*
G37*
G36*
X163397Y64421D02*
X163913D01*
Y64163D01*
X164171D01*
Y63905D01*
X164429D01*
Y62358D01*
X164171D01*
Y61842D01*
X163913D01*
Y61068D01*
X163655D01*
Y60553D01*
X163397D01*
Y60295D01*
Y59779D01*
X163139D01*
Y59263D01*
X163655D01*
Y59779D01*
X163913D01*
Y56426D01*
X163655D01*
Y55910D01*
X163397D01*
Y55395D01*
X163655D01*
Y54363D01*
X163913D01*
Y52042D01*
X163655D01*
Y51784D01*
X163397D01*
Y51526D01*
X162882D01*
Y51268D01*
X162108D01*
Y50237D01*
X162366D01*
Y49979D01*
X162882D01*
Y49721D01*
X163139D01*
Y49463D01*
X163397D01*
Y48432D01*
X163139D01*
Y47658D01*
X162882D01*
Y46884D01*
X162624D01*
Y46110D01*
X162108D01*
Y46368D01*
X161592D01*
Y46110D01*
X161334D01*
Y45853D01*
X160303D01*
Y46626D01*
X159787D01*
Y47400D01*
X160303D01*
Y47658D01*
X160045D01*
Y48432D01*
X160818D01*
Y48174D01*
X161076D01*
Y47658D01*
X161334D01*
Y47400D01*
X161592D01*
Y47658D01*
X161850D01*
Y47916D01*
X162108D01*
Y48947D01*
X161850D01*
Y49205D01*
X161592D01*
Y49463D01*
X161076D01*
Y49721D01*
X160045D01*
Y49463D01*
X159529D01*
Y49721D01*
X158755D01*
Y49979D01*
X158497D01*
Y51784D01*
X158755D01*
Y52042D01*
X159013D01*
Y52300D01*
X159529D01*
Y52558D01*
X159787D01*
Y53074D01*
X159529D01*
Y53332D01*
X159271D01*
Y53589D01*
X159013D01*
Y53847D01*
X158755D01*
Y54105D01*
X158497D01*
Y54363D01*
X158239D01*
Y54621D01*
X157982D01*
Y54879D01*
X157724D01*
Y55137D01*
X157208D01*
Y55653D01*
X156950D01*
Y56684D01*
X157208D01*
Y56942D01*
X157466D01*
Y56684D01*
X157982D01*
Y56942D01*
X158239D01*
Y57200D01*
X158755D01*
Y57458D01*
X160303D01*
Y55395D01*
X160561D01*
Y54621D01*
X160818D01*
Y53847D01*
X161076D01*
Y53589D01*
X161334D01*
Y53074D01*
X161592D01*
Y52816D01*
X161850D01*
Y52558D01*
X162108D01*
Y51784D01*
X162882D01*
Y52042D01*
X163139D01*
Y52300D01*
X163397D01*
Y52558D01*
X163655D01*
Y53589D01*
X163397D01*
Y54363D01*
X163139D01*
Y54621D01*
X162882D01*
Y54879D01*
X162624D01*
Y54621D01*
X162366D01*
Y54105D01*
X162108D01*
Y54363D01*
X161850D01*
Y55395D01*
X162108D01*
Y55653D01*
X162882D01*
Y56942D01*
X162624D01*
Y59263D01*
X162882D01*
Y60295D01*
X163139D01*
Y61584D01*
X163397D01*
Y62358D01*
X163139D01*
Y62616D01*
X162366D01*
Y62358D01*
X162108D01*
Y60295D01*
X161850D01*
Y61326D01*
X161592D01*
Y63647D01*
X161850D01*
Y64163D01*
X162108D01*
Y64421D01*
X162624D01*
Y64679D01*
X163397D01*
Y64421D01*
D02*
G37*
G36*
X158497Y53332D02*
X158755D01*
Y52558D01*
X158497D01*
Y52300D01*
X158239D01*
Y51784D01*
X157982D01*
Y50495D01*
X156434D01*
Y50237D01*
X155403D01*
Y50495D01*
X154629D01*
Y50237D01*
X154113D01*
Y51011D01*
X153855D01*
Y51268D01*
X153597D01*
Y51526D01*
X153340D01*
Y51784D01*
X153597D01*
Y52042D01*
X154113D01*
Y52300D01*
X153855D01*
Y52816D01*
X154113D01*
Y53074D01*
X154887D01*
Y52816D01*
X155145D01*
Y52042D01*
X155403D01*
Y51784D01*
X155660D01*
Y51526D01*
X155918D01*
Y51268D01*
X156692D01*
Y51526D01*
X156950D01*
Y52558D01*
X157208D01*
Y53589D01*
X158497D01*
Y53332D01*
D02*
G37*
%LPC*%
G36*
X139155Y63647D02*
X138382D01*
Y63132D01*
X139155D01*
Y63647D01*
D02*
G37*
G36*
X158755D02*
X157982D01*
Y63132D01*
X158239D01*
Y63389D01*
X158755D01*
Y63647D01*
D02*
G37*
%LPD*%
G36*
X150503Y41468D02*
X150245D01*
Y41210D01*
X149987D01*
Y40695D01*
X149729D01*
Y40179D01*
X149471D01*
Y39921D01*
X149213D01*
Y39663D01*
X148697D01*
Y39405D01*
X148182D01*
Y39147D01*
X147408D01*
Y38890D01*
X146634D01*
Y39147D01*
X146892D01*
Y39405D01*
X147150D01*
Y39663D01*
X147408D01*
Y40179D01*
X147150D01*
Y40695D01*
X146376D01*
Y40179D01*
X146892D01*
Y39921D01*
X146634D01*
Y39663D01*
X145087D01*
Y39921D01*
X144829D01*
Y40179D01*
X146118D01*
Y40953D01*
X146376D01*
Y41210D01*
X147150D01*
Y41468D01*
X147408D01*
Y41726D01*
X147924D01*
Y41984D01*
X148440D01*
Y41726D01*
X150245D01*
Y41984D01*
X150503D01*
Y41468D01*
D02*
G37*
G36*
X144571Y39405D02*
X144829D01*
Y38374D01*
X145087D01*
Y38116D01*
X145603D01*
Y37858D01*
X146118D01*
Y37600D01*
X145861D01*
Y37084D01*
X145603D01*
Y36826D01*
X144829D01*
Y36568D01*
X144313D01*
Y37342D01*
X143797D01*
Y37084D01*
X143282D01*
Y36826D01*
X142508D01*
Y37858D01*
X143024D01*
Y38116D01*
X142766D01*
Y38374D01*
X142508D01*
Y38632D01*
X142250D01*
Y38890D01*
X142508D01*
Y39147D01*
X143540D01*
Y38632D01*
X143797D01*
Y38374D01*
X144055D01*
Y38890D01*
X143797D01*
Y39405D01*
X144055D01*
Y39663D01*
X144571D01*
Y39405D01*
D02*
G37*
G36*
X150503Y40437D02*
X150760D01*
Y37858D01*
X150503D01*
Y35279D01*
X150760D01*
Y34763D01*
X150503D01*
Y35021D01*
X149729D01*
Y34763D01*
X149213D01*
Y35021D01*
X148955D01*
Y35279D01*
X148697D01*
Y35537D01*
X148440D01*
Y36310D01*
X147924D01*
Y36053D01*
X146634D01*
Y36310D01*
X146892D01*
Y36568D01*
X146376D01*
Y36310D01*
X145861D01*
Y36568D01*
X146118D01*
Y37342D01*
X146376D01*
Y37600D01*
X146634D01*
Y38116D01*
X147150D01*
Y38374D01*
X147408D01*
Y38632D01*
X148182D01*
Y38890D01*
X148697D01*
Y39147D01*
X149213D01*
Y39405D01*
X149729D01*
Y39663D01*
X149987D01*
Y40179D01*
X150245D01*
Y40695D01*
X150503D01*
Y40437D01*
D02*
G37*
G36*
X152824Y38890D02*
X153855D01*
Y38632D01*
X154113D01*
Y38374D01*
X154371D01*
Y38116D01*
X154629D01*
Y37600D01*
X154887D01*
Y37084D01*
X155145D01*
Y35021D01*
X155403D01*
Y35279D01*
X155660D01*
Y35537D01*
X155918D01*
Y35279D01*
X156434D01*
Y35021D01*
X156176D01*
Y34763D01*
X155918D01*
Y34505D01*
X155660D01*
Y33216D01*
X155145D01*
Y32958D01*
X154887D01*
Y32700D01*
X154629D01*
Y32184D01*
X154371D01*
Y31668D01*
X154113D01*
Y31153D01*
X153855D01*
Y30895D01*
X153597D01*
Y30637D01*
X153340D01*
Y30379D01*
X151018D01*
Y30637D01*
X150760D01*
Y29863D01*
X151018D01*
Y29605D01*
X151276D01*
Y29347D01*
X151534D01*
Y29089D01*
X152050D01*
Y28832D01*
X152308D01*
Y28574D01*
X152050D01*
Y28316D01*
X151792D01*
Y27800D01*
X151534D01*
Y27542D01*
X151276D01*
Y27284D01*
X151018D01*
Y27026D01*
X150760D01*
Y26511D01*
X150245D01*
Y26253D01*
X149213D01*
Y26768D01*
X148955D01*
Y26511D01*
X148697D01*
Y26253D01*
X148440D01*
Y25737D01*
X148182D01*
Y25479D01*
X147408D01*
Y25737D01*
X147150D01*
Y25995D01*
X147408D01*
Y26511D01*
X147666D01*
Y26768D01*
X147924D01*
Y27026D01*
X147666D01*
X147408Y26768D01*
X146892D01*
Y27026D01*
X146634D01*
Y27284D01*
X146892D01*
Y27542D01*
X147150D01*
Y27800D01*
X147924D01*
Y28316D01*
X147666D01*
Y28574D01*
X148955D01*
Y27800D01*
X149213D01*
Y27542D01*
X149471D01*
Y27284D01*
X149987D01*
Y27542D01*
X150245D01*
Y27800D01*
X150503D01*
Y28574D01*
X150245D01*
Y28832D01*
X149987D01*
Y29089D01*
X149471D01*
Y29347D01*
X148955D01*
Y29605D01*
X148440D01*
Y29863D01*
X148182D01*
Y30121D01*
X147924D01*
Y30379D01*
X147666D01*
Y30895D01*
X147408D01*
Y31411D01*
X147666D01*
Y31926D01*
X147924D01*
Y32184D01*
X149213D01*
Y32442D01*
X148955D01*
Y32700D01*
X148697D01*
Y32958D01*
X148182D01*
Y33216D01*
X147666D01*
Y33474D01*
X146892D01*
Y33732D01*
X146634D01*
Y33990D01*
X146376D01*
Y34505D01*
X146118D01*
Y35537D01*
X147408D01*
Y35795D01*
X147924D01*
Y35537D01*
X148182D01*
Y35279D01*
X148440D01*
Y35021D01*
X148697D01*
Y34763D01*
X148955D01*
Y34505D01*
X149213D01*
Y34247D01*
X149471D01*
Y33990D01*
X149729D01*
Y34505D01*
X150245D01*
Y32958D01*
X150503D01*
Y31668D01*
X150760D01*
Y31411D01*
X151018D01*
Y31153D01*
X151276D01*
Y30895D01*
X151792D01*
Y30637D01*
X152824D01*
Y30895D01*
X153082D01*
Y31153D01*
X153340D01*
Y31411D01*
X153597D01*
Y31668D01*
X153855D01*
Y32184D01*
X154113D01*
Y32700D01*
X153855D01*
Y33216D01*
X153082D01*
Y32958D01*
X152824D01*
Y32700D01*
X152566D01*
Y33732D01*
X152824D01*
Y33990D01*
X153340D01*
Y34247D01*
X153855D01*
Y34505D01*
X153597D01*
Y34763D01*
X154113D01*
Y34505D01*
X154371D01*
Y34763D01*
X154629D01*
Y36053D01*
X154887D01*
Y36310D01*
X154629D01*
Y37342D01*
X154371D01*
Y37600D01*
X154113D01*
Y37858D01*
X153855D01*
Y38116D01*
X153597D01*
Y38374D01*
X153340D01*
Y38116D01*
X153082D01*
Y37858D01*
X153340D01*
Y37600D01*
X153597D01*
Y37342D01*
X153855D01*
Y37084D01*
X154113D01*
Y36568D01*
X153855D01*
Y36310D01*
X153597D01*
Y35795D01*
X153340D01*
Y35279D01*
X153082D01*
Y34763D01*
X152824D01*
Y35537D01*
X152566D01*
Y36310D01*
X152308D01*
Y36568D01*
X152050D01*
Y37084D01*
X151792D01*
Y37342D01*
X151534D01*
Y38116D01*
X151792D01*
Y38632D01*
X152050D01*
Y38890D01*
X152566D01*
Y39147D01*
X152824D01*
Y38890D01*
D02*
G37*
G36*
X141218Y37084D02*
X141734D01*
Y36568D01*
X141992D01*
Y36053D01*
X142250D01*
Y35795D01*
X142766D01*
Y35537D01*
X144055D01*
Y35279D01*
X144571D01*
Y35537D01*
X145861D01*
Y35279D01*
X145603D01*
Y35021D01*
X145861D01*
Y34247D01*
X146118D01*
Y33732D01*
X145603D01*
Y33990D01*
X144829D01*
Y34247D01*
X144055D01*
Y34505D01*
X143797D01*
Y34763D01*
X143024D01*
Y34505D01*
X142250D01*
Y34763D01*
X141992D01*
Y35021D01*
X141476D01*
Y34505D01*
X141218D01*
Y34247D01*
X140445D01*
Y35021D01*
X139671D01*
Y36053D01*
X140961D01*
Y36310D01*
X140703D01*
Y36568D01*
X140445D01*
Y36826D01*
X140703D01*
Y37084D01*
X140961D01*
Y37342D01*
X141218D01*
Y37084D01*
D02*
G37*
G36*
X146376Y32958D02*
X146892D01*
Y32700D01*
X147666D01*
Y32184D01*
X147408D01*
Y31926D01*
X147150D01*
Y30379D01*
X147408D01*
Y30121D01*
X145861D01*
Y29863D01*
X145345D01*
Y29605D01*
X144829D01*
Y29347D01*
X144313D01*
Y29863D01*
X143282D01*
Y29605D01*
X143024D01*
Y29347D01*
X142766D01*
Y29089D01*
X142250D01*
Y29347D01*
X141992D01*
Y29863D01*
X142250D01*
Y30121D01*
X141992D01*
Y30379D01*
X141734D01*
Y30121D01*
X141218D01*
Y30895D01*
X141476D01*
Y31153D01*
X142250D01*
Y31411D01*
X141734D01*
Y31926D01*
X141992D01*
Y32184D01*
X142766D01*
Y31926D01*
X143024D01*
Y31411D01*
X143282D01*
Y31153D01*
X143540D01*
Y30895D01*
X145345D01*
Y31668D01*
X145087D01*
Y31926D01*
X144829D01*
Y32442D01*
X145087D01*
Y32958D01*
X145345D01*
Y33216D01*
X146376D01*
Y32958D01*
D02*
G37*
%LPC*%
G36*
X148697Y41468D02*
X147924D01*
Y41210D01*
Y40953D01*
X148182D01*
Y41210D01*
X148697D01*
Y41468D01*
D02*
G37*
G36*
X143619Y15163D02*
X143537D01*
Y15081D01*
X143619D01*
Y15163D01*
D02*
G37*
G36*
X143212Y15325D02*
X143050D01*
Y15244D01*
X142969D01*
Y15000D01*
X142887D01*
Y14919D01*
X142806D01*
Y14838D01*
X142725D01*
Y14756D01*
X142644D01*
Y14675D01*
X142562D01*
Y14513D01*
X142481D01*
Y14431D01*
X142725D01*
Y14513D01*
X142806D01*
Y14594D01*
X142887D01*
Y14675D01*
X142969D01*
Y14838D01*
X143050D01*
Y15000D01*
X143131D01*
Y15163D01*
X143212D01*
Y15325D01*
D02*
G37*
G36*
X142969Y14431D02*
X142887D01*
Y14350D01*
X142969D01*
Y14431D01*
D02*
G37*
G36*
X143375Y14756D02*
X143131D01*
Y14675D01*
Y14594D01*
X143050D01*
Y14513D01*
X142969D01*
Y14431D01*
X143294D01*
Y14187D01*
X143212D01*
Y14025D01*
X143131D01*
Y13944D01*
X143050D01*
Y13781D01*
X142969D01*
Y13700D01*
X143131D01*
Y13781D01*
X143212D01*
Y13862D01*
X143294D01*
Y13944D01*
X143375D01*
Y14025D01*
X143456D01*
Y14106D01*
X143537D01*
Y14187D01*
X143619D01*
Y14269D01*
X143700D01*
Y14350D01*
X143781D01*
Y14513D01*
X143700D01*
Y14594D01*
X143537D01*
Y14675D01*
X143375D01*
Y14756D01*
D02*
G37*
%LPD*%
D10*
X165000Y252429D02*
G03*
X165000Y252035I0J-197D01*
G01*
D02*
G03*
X165000Y252429I0J197D01*
G01*
D02*
G03*
X165000Y252035I0J-197D01*
G01*
X49000Y252429D02*
G03*
X49000Y252035I0J-197D01*
G01*
D02*
G03*
X49000Y252429I0J197D01*
G01*
D02*
G03*
X49000Y252035I0J-197D01*
G01*
X48500Y188929D02*
G03*
X48500Y188535I0J-197D01*
G01*
D02*
G03*
X48500Y188929I0J197D01*
G01*
D02*
G03*
X48500Y188535I0J-197D01*
G01*
X48000Y89929D02*
G03*
X48000Y89535I0J-197D01*
G01*
D02*
G03*
X48000Y89929I0J197D01*
G01*
D02*
G03*
X48000Y89535I0J-197D01*
G01*
X212039Y37213D02*
Y263000D01*
X191961Y37213D02*
X212039D01*
X191961D02*
Y268787D01*
X197000D01*
X161063Y248098D02*
X168937D01*
X161063Y222902D02*
X168937D01*
X152402Y231563D02*
Y239437D01*
X177598Y231563D02*
Y239437D01*
X22539Y37213D02*
Y263000D01*
X2461Y37213D02*
X22539D01*
X2461D02*
Y268787D01*
X7500D01*
X45063Y248098D02*
X52937D01*
X45063Y222902D02*
X52937D01*
X36402Y231563D02*
Y239437D01*
X61598Y231563D02*
Y239437D01*
X44563Y184598D02*
X52437D01*
X44563Y159402D02*
X52437D01*
X35902Y168063D02*
Y175937D01*
X61098Y168063D02*
Y175937D01*
X44063Y85598D02*
X51937D01*
X44063Y60402D02*
X51937D01*
X35402Y69063D02*
Y76937D01*
X60598Y69063D02*
Y76937D01*
D11*
X159999Y216498D02*
X158999Y217498D01*
X157000D01*
X156000Y216498D01*
Y212500D01*
X157000Y211500D01*
X158999D01*
X159999Y212500D01*
Y214499D01*
X157999D01*
X161998Y211500D02*
Y217498D01*
X165997Y211500D01*
Y217498D01*
X167996D02*
Y211500D01*
X170995D01*
X171995Y212500D01*
Y216498D01*
X170995Y217498D01*
X167996D01*
X37500Y47500D02*
Y51499D01*
X39499Y53498D01*
X41499Y51499D01*
Y47500D01*
Y50499D01*
X37500D01*
X43498Y53498D02*
X45497D01*
X44498D01*
Y47500D01*
X43498D01*
X45497D01*
X48496D02*
Y53498D01*
X52495Y47500D01*
Y53498D01*
X54495Y47500D02*
X56494D01*
X55494D01*
Y53498D01*
X54495Y52498D01*
X27500Y152998D02*
X29499D01*
X28500D01*
Y147000D01*
X27500D01*
X29499D01*
X36497D02*
X32498D01*
X36497Y150998D01*
Y151998D01*
X35497Y152998D01*
X33498D01*
X32498Y151998D01*
X42495D02*
X41495Y152998D01*
X39496D01*
X38496Y151998D01*
Y147999D01*
X39496Y147000D01*
X41495D01*
X42495Y147999D01*
X48493Y147000D02*
X44495D01*
X48493Y150998D01*
Y151998D01*
X47493Y152998D01*
X45494D01*
X44495Y151998D01*
X50493Y146000D02*
X54491D01*
X60489Y151998D02*
X59490Y152998D01*
X57490D01*
X56491Y151998D01*
Y150998D01*
X57490Y149999D01*
X59490D01*
X60489Y148999D01*
Y147999D01*
X59490Y147000D01*
X57490D01*
X56491Y147999D01*
X62489Y152998D02*
Y147000D01*
X65488D01*
X66487Y147999D01*
Y151998D01*
X65488Y152998D01*
X62489D01*
X68487Y147000D02*
Y150998D01*
X70486Y152998D01*
X72486Y150998D01*
Y147000D01*
Y149999D01*
X68487D01*
X31000Y216998D02*
Y212999D01*
X32999Y211000D01*
X34999Y212999D01*
Y216998D01*
X36998D02*
Y211000D01*
X39997D01*
X40997Y211999D01*
Y215998D01*
X39997Y216998D01*
X36998D01*
X42996D02*
Y211000D01*
X45995D01*
X46995Y211999D01*
Y215998D01*
X45995Y216998D01*
X42996D01*
X48994Y210000D02*
X52993D01*
X58991Y216998D02*
X54992D01*
Y213999D01*
X56992Y214998D01*
X57991D01*
X58991Y213999D01*
Y211999D01*
X57991Y211000D01*
X55992D01*
X54992Y211999D01*
X60990Y216998D02*
Y212999D01*
X62990Y211000D01*
X64989Y212999D01*
Y216998D01*
X142500Y239499D02*
X140501D01*
X141501D01*
Y234501D01*
X140501Y233501D01*
X139501D01*
X138502Y234501D01*
X148498Y239499D02*
X146499Y238499D01*
X144500Y236500D01*
Y234501D01*
X145499Y233501D01*
X147499D01*
X148498Y234501D01*
Y235500D01*
X147499Y236500D01*
X144500D01*
X34099Y100898D02*
X32099D01*
X33099D01*
Y95900D01*
X32099Y94900D01*
X31100D01*
X30100Y95900D01*
X40097Y100898D02*
X36098D01*
Y97899D01*
X38097Y98899D01*
X39097D01*
X40097Y97899D01*
Y95900D01*
X39097Y94900D01*
X37098D01*
X36098Y95900D01*
X34599Y199898D02*
X32599D01*
X33599D01*
Y194900D01*
X32599Y193900D01*
X31600D01*
X30600Y194900D01*
X39597Y193900D02*
Y199898D01*
X36598Y196899D01*
X40597D01*
X69000Y238499D02*
X67001D01*
X68001D01*
Y233501D01*
X67001Y232501D01*
X66001D01*
X65002Y233501D01*
X71000Y237499D02*
X71999Y238499D01*
X73999D01*
X74998Y237499D01*
Y236500D01*
X73999Y235500D01*
X72999D01*
X73999D01*
X74998Y234500D01*
Y233501D01*
X73999Y232501D01*
X71999D01*
X71000Y233501D01*
X181000Y265999D02*
X179001D01*
X180001D01*
Y261001D01*
X179001Y260001D01*
X178001D01*
X177002Y261001D01*
X186998Y260001D02*
X183000D01*
X186998Y264000D01*
Y264999D01*
X185999Y265999D01*
X183999D01*
X183000Y264999D01*
X30000Y267999D02*
X28001D01*
X29000D01*
Y263001D01*
X28001Y262001D01*
X27001D01*
X26001Y263001D01*
X31999Y262001D02*
X33999D01*
X32999D01*
Y267999D01*
X31999Y266999D01*
M02*
