G04*
G04 #@! TF.GenerationSoftware,Altium Limited,Altium Designer,25.8.1 (18)*
G04*
G04 Layer_Color=16711935*
%FSLAX25Y25*%
%MOIN*%
G70*
G04*
G04 #@! TF.SameCoordinates,B8C25E97-C649-417D-B0D0-2C2A699CC183*
G04*
G04*
G04 #@! TF.FilePolarity,Positive*
G04*
G01*
G75*
%ADD11C,0.01000*%
D11*
X166000Y278500D02*
G03*
X156000Y288500I-10000J0D01*
G01*
Y256500D02*
G03*
X166000Y266500I0J10000D01*
G01*
X66500Y288500D02*
G03*
X56500Y278500I0J-10000D01*
G01*
Y266500D02*
G03*
X66500Y256500I10000J0D01*
G01*
X206000Y-0D02*
G03*
X214500Y8500I-0J8500D01*
G01*
X214500Y279500D02*
G03*
X206000Y288000I-8500J-0D01*
G01*
X202000Y-264500D02*
G03*
X210500Y-273000I8500J0D01*
G01*
X8500Y288000D02*
G03*
X0Y279500I0J-8500D01*
G01*
X-0Y8500D02*
G03*
X8500Y0I8500J0D01*
G01*
X158917Y280451D02*
X165808D01*
X158917Y288116D02*
X165808D01*
Y280451D02*
Y288116D01*
X158917Y280451D02*
Y288116D01*
X66500Y256500D02*
X156000D01*
X66500Y288500D02*
X156000D01*
X166000Y266500D02*
Y278500D01*
X56500Y266500D02*
Y278500D01*
X56917Y279951D02*
X63808D01*
X56917Y287616D02*
X63808D01*
Y279951D02*
Y287616D01*
X56917Y279951D02*
Y287616D01*
X138000Y288000D02*
X206998D01*
X8500D02*
X77499D01*
X0Y340000D02*
X214000D01*
X214500Y279500D02*
X214500Y9000D01*
X8500Y0D02*
X207000D01*
X-0Y8500D02*
X0Y279500D01*
M02*
