G04*
G04 #@! TF.GenerationSoftware,Altium Limited,Altium Designer,25.8.1 (18)*
G04*
G04 Layer_Color=255*
%FSLAX25Y25*%
%MOIN*%
G70*
G04*
G04 #@! TF.SameCoordinates,B8C25E97-C649-417D-B0D0-2C2A699CC183*
G04*
G04*
G04 #@! TF.FilePolarity,Positive*
G04*
G01*
G75*
%ADD17C,0.05020*%
%ADD18R,0.05020X0.05020*%
%ADD19C,0.08858*%
%ADD20C,0.09449*%
%ADD21C,0.11811*%
D17*
X207000Y43000D02*
D03*
X197000D02*
D03*
X207000Y53000D02*
D03*
X197000D02*
D03*
X207000Y63000D02*
D03*
X197000D02*
D03*
X207000Y73000D02*
D03*
X197000D02*
D03*
X207000Y83000D02*
D03*
X197000D02*
D03*
X207000Y93000D02*
D03*
X197000D02*
D03*
X207000Y103000D02*
D03*
X197000D02*
D03*
X207000Y113000D02*
D03*
X197000D02*
D03*
X207000Y123000D02*
D03*
X197000D02*
D03*
X207000Y133000D02*
D03*
X197000D02*
D03*
X207000Y143000D02*
D03*
X197000D02*
D03*
X207000Y153000D02*
D03*
X197000D02*
D03*
X207000Y163000D02*
D03*
X197000D02*
D03*
X207000Y173000D02*
D03*
X197000D02*
D03*
X207000Y183000D02*
D03*
X197000D02*
D03*
X207000Y193000D02*
D03*
X197000D02*
D03*
X207000Y203000D02*
D03*
X197000D02*
D03*
X207000Y213000D02*
D03*
X197000D02*
D03*
X207000Y223000D02*
D03*
X197000D02*
D03*
X207000Y233000D02*
D03*
X197000D02*
D03*
X207000Y243000D02*
D03*
X197000D02*
D03*
X207000Y253000D02*
D03*
X197000D02*
D03*
X207000Y263000D02*
D03*
X17500Y43000D02*
D03*
X7500D02*
D03*
X17500Y53000D02*
D03*
X7500D02*
D03*
X17500Y63000D02*
D03*
X7500D02*
D03*
X17500Y73000D02*
D03*
X7500D02*
D03*
X17500Y83000D02*
D03*
X7500D02*
D03*
X17500Y93000D02*
D03*
X7500D02*
D03*
X17500Y103000D02*
D03*
X7500D02*
D03*
X17500Y113000D02*
D03*
X7500D02*
D03*
X17500Y123000D02*
D03*
X7500D02*
D03*
X17500Y133000D02*
D03*
X7500D02*
D03*
X17500Y143000D02*
D03*
X7500D02*
D03*
X17500Y153000D02*
D03*
X7500D02*
D03*
X17500Y163000D02*
D03*
X7500D02*
D03*
X17500Y173000D02*
D03*
X7500D02*
D03*
X17500Y183000D02*
D03*
X7500D02*
D03*
X17500Y193000D02*
D03*
X7500D02*
D03*
X17500Y203000D02*
D03*
X7500D02*
D03*
X17500Y213000D02*
D03*
X7500D02*
D03*
X17500Y223000D02*
D03*
X7500D02*
D03*
X17500Y233000D02*
D03*
X7500D02*
D03*
X17500Y243000D02*
D03*
X7500D02*
D03*
X17500Y253000D02*
D03*
X7500D02*
D03*
X17500Y263000D02*
D03*
D18*
X197000D02*
D03*
X7500D02*
D03*
D19*
X165000Y235500D02*
D03*
X49000D02*
D03*
X48500Y172000D02*
D03*
X48000Y73000D02*
D03*
D20*
X155000Y245500D02*
D03*
Y225500D02*
D03*
X175000D02*
D03*
Y245500D02*
D03*
X59000D02*
D03*
Y225500D02*
D03*
X39000D02*
D03*
Y245500D02*
D03*
X58500Y182000D02*
D03*
Y162000D02*
D03*
X38500D02*
D03*
Y182000D02*
D03*
X58000Y83000D02*
D03*
Y63000D02*
D03*
X38000D02*
D03*
Y83000D02*
D03*
D21*
X202500Y282500D02*
D03*
X190000Y23000D02*
D03*
X24500Y22000D02*
D03*
X12000Y282500D02*
D03*
M02*
