G04*
G04 #@! TF.GenerationSoftware,Altium Limited,Altium Designer,25.8.1 (18)*
G04*
G04 Layer_Physical_Order=1*
G04 Layer_Color=255*
%FSLAX25Y25*%
%MOIN*%
G70*
G04*
G04 #@! TF.SameCoordinates,B8C25E97-C649-417D-B0D0-2C2A699CC183*
G04*
G04*
G04 #@! TF.FilePolarity,Positive*
G04*
G01*
G75*
%ADD11C,0.01000*%
%ADD17C,0.05020*%
%ADD18R,0.05020X0.05020*%
%ADD19C,0.08858*%
%ADD20C,0.09449*%
%ADD21C,0.11811*%
G36*
X215002Y0D02*
X0D01*
Y288408D01*
X6728D01*
X7143Y287408D01*
X6636Y286902D01*
X5880Y285771D01*
X5360Y284514D01*
X5094Y283180D01*
Y281820D01*
X5360Y280486D01*
X5880Y279229D01*
X6636Y278098D01*
X7598Y277136D01*
X8729Y276380D01*
X9986Y275860D01*
X11320Y275594D01*
X12680D01*
X14014Y275860D01*
X15271Y276380D01*
X16402Y277136D01*
X17364Y278098D01*
X18120Y279229D01*
X18640Y280486D01*
X18905Y281820D01*
Y283180D01*
X18640Y284514D01*
X18120Y285771D01*
X17364Y286902D01*
X16857Y287408D01*
X17272Y288408D01*
X55113D01*
X55149Y288392D01*
X55897Y287616D01*
Y281647D01*
X55884Y281616D01*
X55500Y279684D01*
Y279583D01*
X55480Y279485D01*
Y278500D01*
Y266500D01*
Y265515D01*
X55500Y265417D01*
Y265316D01*
X55884Y263384D01*
X55923Y263291D01*
X55942Y263193D01*
X56696Y261373D01*
X56752Y261290D01*
X56790Y261197D01*
X57885Y259559D01*
X57956Y259488D01*
X58012Y259404D01*
X59404Y258012D01*
X59488Y257956D01*
X59559Y257885D01*
X61197Y256790D01*
X61290Y256752D01*
X61373Y256696D01*
X63193Y255942D01*
X63291Y255923D01*
X63384Y255884D01*
X65316Y255500D01*
X65417D01*
X65515Y255480D01*
X156985D01*
X157083Y255500D01*
X157184D01*
X159116Y255884D01*
X159209Y255923D01*
X159307Y255942D01*
X161127Y256696D01*
X161210Y256752D01*
X161303Y256790D01*
X162941Y257885D01*
X163012Y257956D01*
X163096Y258012D01*
X164488Y259404D01*
X164544Y259488D01*
X164615Y259559D01*
X165710Y261197D01*
X165748Y261290D01*
X165804Y261373D01*
X166558Y263193D01*
X166577Y263291D01*
X166616Y263384D01*
X167000Y265316D01*
Y265417D01*
X167020Y265515D01*
Y266500D01*
Y278500D01*
Y279485D01*
X167000Y279583D01*
Y279684D01*
X166827Y280551D01*
Y288116D01*
X167068Y288408D01*
X197228D01*
X197643Y287408D01*
X197136Y286902D01*
X196380Y285771D01*
X195860Y284514D01*
X195595Y283180D01*
Y281820D01*
X195860Y280486D01*
X196380Y279229D01*
X197136Y278098D01*
X198098Y277136D01*
X199229Y276380D01*
X200486Y275860D01*
X201820Y275594D01*
X203180D01*
X204514Y275860D01*
X205771Y276380D01*
X206902Y277136D01*
X207864Y278098D01*
X208620Y279229D01*
X209140Y280486D01*
X209405Y281820D01*
Y283180D01*
X209140Y284514D01*
X208620Y285771D01*
X207864Y286902D01*
X207357Y287408D01*
X207772Y288408D01*
X215002D01*
X215002Y0D01*
D02*
G37*
%LPC*%
G36*
X18000Y266500D02*
Y263500D01*
X21000D01*
X20771Y264355D01*
X20309Y265155D01*
X19655Y265809D01*
X18855Y266271D01*
X18000Y266500D01*
D02*
G37*
G36*
X11010Y266510D02*
X8000D01*
Y263500D01*
X11010D01*
Y266510D01*
D02*
G37*
G36*
X17000Y266500D02*
X16145Y266271D01*
X15345Y265809D01*
X14691Y265155D01*
X14229Y264355D01*
X14000Y263500D01*
X17000D01*
Y266500D01*
D02*
G37*
G36*
X7000Y266510D02*
X3990D01*
Y263500D01*
X7000D01*
Y266510D01*
D02*
G37*
G36*
X21000Y262500D02*
X18000D01*
Y259500D01*
X18855Y259729D01*
X19655Y260191D01*
X20309Y260845D01*
X20771Y261645D01*
X21000Y262500D01*
D02*
G37*
G36*
X17000D02*
X14000D01*
X14229Y261645D01*
X14691Y260845D01*
X15345Y260191D01*
X16145Y259729D01*
X17000Y259500D01*
Y262500D01*
D02*
G37*
G36*
X207462Y266510D02*
X206538D01*
X205645Y266271D01*
X204845Y265809D01*
X204191Y265155D01*
X203729Y264355D01*
X203490Y263462D01*
Y262538D01*
X203729Y261645D01*
X204191Y260845D01*
X204845Y260191D01*
X205645Y259729D01*
X206538Y259490D01*
X207462D01*
X208355Y259729D01*
X209155Y260191D01*
X209809Y260845D01*
X210271Y261645D01*
X210510Y262538D01*
Y263462D01*
X210271Y264355D01*
X209809Y265155D01*
X209155Y265809D01*
X208355Y266271D01*
X207462Y266510D01*
D02*
G37*
G36*
X200510D02*
X193490D01*
Y264529D01*
X192000D01*
X191415Y264413D01*
X190919Y264081D01*
X185419Y258581D01*
X185087Y258085D01*
X184971Y257500D01*
Y244634D01*
X177366Y237029D01*
X170211D01*
X170059Y237596D01*
X169344Y238834D01*
X168334Y239844D01*
X167096Y240559D01*
X165715Y240929D01*
X164285D01*
X162904Y240559D01*
X161666Y239844D01*
X160656Y238834D01*
X159941Y237596D01*
X159571Y236215D01*
Y234785D01*
X159941Y233404D01*
X160656Y232166D01*
X161666Y231156D01*
X162904Y230441D01*
X164285Y230071D01*
X165715D01*
X167096Y230441D01*
X168334Y231156D01*
X169344Y232166D01*
X170059Y233404D01*
X170211Y233971D01*
X178000D01*
X178585Y234087D01*
X179081Y234419D01*
X187581Y242919D01*
X187913Y243415D01*
X188029Y244000D01*
Y256867D01*
X192490Y261327D01*
X193490Y261124D01*
Y259490D01*
X200510D01*
Y266510D01*
D02*
G37*
G36*
X11010Y262500D02*
X8000D01*
Y259490D01*
X11010D01*
Y262500D01*
D02*
G37*
G36*
X7000D02*
X3990D01*
Y259490D01*
X7000D01*
Y262500D01*
D02*
G37*
G36*
X207462Y256510D02*
X206538D01*
X205645Y256271D01*
X204845Y255809D01*
X204191Y255155D01*
X203729Y254355D01*
X203490Y253462D01*
Y252538D01*
X203729Y251645D01*
X204191Y250845D01*
X204845Y250191D01*
X205645Y249729D01*
X206538Y249490D01*
X207462D01*
X208355Y249729D01*
X209155Y250191D01*
X209809Y250845D01*
X210271Y251645D01*
X210510Y252538D01*
Y253462D01*
X210271Y254355D01*
X209809Y255155D01*
X209155Y255809D01*
X208355Y256271D01*
X207462Y256510D01*
D02*
G37*
G36*
X197462D02*
X196538D01*
X195645Y256271D01*
X194845Y255809D01*
X194191Y255155D01*
X193729Y254355D01*
X193490Y253462D01*
Y252538D01*
X193729Y251645D01*
X194191Y250845D01*
X194845Y250191D01*
X195645Y249729D01*
X196538Y249490D01*
X197462D01*
X198355Y249729D01*
X199155Y250191D01*
X199809Y250845D01*
X200271Y251645D01*
X200510Y252538D01*
Y253462D01*
X200271Y254355D01*
X199809Y255155D01*
X199155Y255809D01*
X198355Y256271D01*
X197462Y256510D01*
D02*
G37*
G36*
X17962D02*
X17038D01*
X16145Y256271D01*
X15345Y255809D01*
X14691Y255155D01*
X14229Y254355D01*
X13990Y253462D01*
Y252538D01*
X14229Y251645D01*
X14691Y250845D01*
X15345Y250191D01*
X16145Y249729D01*
X17038Y249490D01*
X17962D01*
X18855Y249729D01*
X19655Y250191D01*
X20309Y250845D01*
X20771Y251645D01*
X21010Y252538D01*
Y253462D01*
X20771Y254355D01*
X20309Y255155D01*
X19655Y255809D01*
X18855Y256271D01*
X17962Y256510D01*
D02*
G37*
G36*
X7962D02*
X7038D01*
X6145Y256271D01*
X5345Y255809D01*
X4691Y255155D01*
X4229Y254355D01*
X3990Y253462D01*
Y252538D01*
X4229Y251645D01*
X4691Y250845D01*
X5345Y250191D01*
X6145Y249729D01*
X7038Y249490D01*
X7962D01*
X8855Y249729D01*
X9655Y250191D01*
X10309Y250845D01*
X10771Y251645D01*
X11010Y252538D01*
Y253462D01*
X10771Y254355D01*
X10309Y255155D01*
X9655Y255809D01*
X8855Y256271D01*
X7962Y256510D01*
D02*
G37*
G36*
X175754Y251224D02*
X175500D01*
Y246000D01*
X180724D01*
Y246254D01*
X180334Y247709D01*
X179581Y249015D01*
X178515Y250081D01*
X177209Y250834D01*
X175754Y251224D01*
D02*
G37*
G36*
X155754D02*
X155500D01*
Y246000D01*
X160724D01*
Y246254D01*
X160334Y247709D01*
X159581Y249015D01*
X158515Y250081D01*
X157210Y250834D01*
X155754Y251224D01*
D02*
G37*
G36*
X59754D02*
X59500D01*
Y246000D01*
X64724D01*
Y246254D01*
X64334Y247709D01*
X63581Y249015D01*
X62515Y250081D01*
X61209Y250834D01*
X59754Y251224D01*
D02*
G37*
G36*
X39754D02*
X39500D01*
Y246000D01*
X44724D01*
Y246254D01*
X44334Y247709D01*
X43581Y249015D01*
X42515Y250081D01*
X41210Y250834D01*
X39754Y251224D01*
D02*
G37*
G36*
X174500D02*
X174246D01*
X172791Y250834D01*
X171485Y250081D01*
X170419Y249015D01*
X169666Y247709D01*
X169276Y246254D01*
Y246000D01*
X174500D01*
Y251224D01*
D02*
G37*
G36*
X154500D02*
X154246D01*
X152790Y250834D01*
X151485Y250081D01*
X150419Y249015D01*
X149666Y247709D01*
X149276Y246254D01*
Y246000D01*
X154500D01*
Y251224D01*
D02*
G37*
G36*
X58500D02*
X58246D01*
X56791Y250834D01*
X55485Y250081D01*
X54419Y249015D01*
X53666Y247709D01*
X53276Y246254D01*
Y246000D01*
X58500D01*
Y251224D01*
D02*
G37*
G36*
X38500D02*
X38246D01*
X36790Y250834D01*
X35485Y250081D01*
X34419Y249015D01*
X33666Y247709D01*
X33276Y246254D01*
Y246000D01*
X38500D01*
Y251224D01*
D02*
G37*
G36*
X180724Y245000D02*
X175500D01*
Y239776D01*
X175754D01*
X177209Y240166D01*
X178515Y240919D01*
X179581Y241985D01*
X180334Y243290D01*
X180724Y244746D01*
Y245000D01*
D02*
G37*
G36*
X174500D02*
X169276D01*
Y244746D01*
X169666Y243290D01*
X170419Y241985D01*
X171485Y240919D01*
X172791Y240166D01*
X174246Y239776D01*
X174500D01*
Y245000D01*
D02*
G37*
G36*
X160724D02*
X155500D01*
Y239776D01*
X155754D01*
X157210Y240166D01*
X158515Y240919D01*
X159581Y241985D01*
X160334Y243290D01*
X160724Y244746D01*
Y245000D01*
D02*
G37*
G36*
X154500D02*
X149276D01*
Y244746D01*
X149666Y243290D01*
X150419Y241985D01*
X151485Y240919D01*
X152790Y240166D01*
X154246Y239776D01*
X154500D01*
Y245000D01*
D02*
G37*
G36*
X64724D02*
X59500D01*
Y239776D01*
X59754D01*
X61209Y240166D01*
X62515Y240919D01*
X63581Y241985D01*
X64334Y243290D01*
X64724Y244746D01*
Y245000D01*
D02*
G37*
G36*
X58500D02*
X53276D01*
Y244746D01*
X53666Y243290D01*
X54419Y241985D01*
X55485Y240919D01*
X56791Y240166D01*
X58246Y239776D01*
X58500D01*
Y245000D01*
D02*
G37*
G36*
X44724D02*
X39500D01*
Y239776D01*
X39754D01*
X41210Y240166D01*
X42515Y240919D01*
X43581Y241985D01*
X44334Y243290D01*
X44724Y244746D01*
Y245000D01*
D02*
G37*
G36*
X38500D02*
X33276D01*
Y244746D01*
X33666Y243290D01*
X34419Y241985D01*
X35485Y240919D01*
X36790Y240166D01*
X38246Y239776D01*
X38500D01*
Y245000D01*
D02*
G37*
G36*
X207462Y246510D02*
X206538D01*
X205645Y246271D01*
X204845Y245809D01*
X204191Y245155D01*
X203729Y244355D01*
X203490Y243462D01*
Y242538D01*
X203729Y241645D01*
X204191Y240845D01*
X204845Y240191D01*
X205645Y239729D01*
X206538Y239490D01*
X207462D01*
X208355Y239729D01*
X209155Y240191D01*
X209809Y240845D01*
X210271Y241645D01*
X210510Y242538D01*
Y243462D01*
X210271Y244355D01*
X209809Y245155D01*
X209155Y245809D01*
X208355Y246271D01*
X207462Y246510D01*
D02*
G37*
G36*
X197462D02*
X196538D01*
X195645Y246271D01*
X194845Y245809D01*
X194191Y245155D01*
X193729Y244355D01*
X193490Y243462D01*
Y242538D01*
X193729Y241645D01*
X194191Y240845D01*
X194845Y240191D01*
X195645Y239729D01*
X196538Y239490D01*
X197462D01*
X198355Y239729D01*
X199155Y240191D01*
X199809Y240845D01*
X200271Y241645D01*
X200510Y242538D01*
Y243462D01*
X200271Y244355D01*
X199809Y245155D01*
X199155Y245809D01*
X198355Y246271D01*
X197462Y246510D01*
D02*
G37*
G36*
X7962D02*
X7038D01*
X6145Y246271D01*
X5345Y245809D01*
X4691Y245155D01*
X4229Y244355D01*
X3990Y243462D01*
Y242538D01*
X4229Y241645D01*
X4691Y240845D01*
X5345Y240191D01*
X6145Y239729D01*
X7038Y239490D01*
X7962D01*
X8855Y239729D01*
X9655Y240191D01*
X10309Y240845D01*
X10771Y241645D01*
X11010Y242538D01*
Y243462D01*
X10771Y244355D01*
X10309Y245155D01*
X9655Y245809D01*
X8855Y246271D01*
X7962Y246510D01*
D02*
G37*
G36*
X17962D02*
X17038D01*
X16145Y246271D01*
X15345Y245809D01*
X14691Y245155D01*
X14229Y244355D01*
X13990Y243462D01*
Y242538D01*
X14229Y241645D01*
X14691Y240845D01*
X15345Y240191D01*
X16145Y239729D01*
X17038Y239490D01*
X17962D01*
X18855Y239729D01*
X19655Y240191D01*
X20309Y240845D01*
X20670Y241471D01*
X26866D01*
X33919Y234419D01*
X34415Y234087D01*
X35000Y233971D01*
X43789D01*
X43941Y233404D01*
X44656Y232166D01*
X45666Y231156D01*
X46904Y230441D01*
X48285Y230071D01*
X49715D01*
X51096Y230441D01*
X52334Y231156D01*
X53344Y232166D01*
X54059Y233404D01*
X54429Y234785D01*
Y236215D01*
X54059Y237596D01*
X53344Y238834D01*
X52334Y239844D01*
X51096Y240559D01*
X49715Y240929D01*
X48285D01*
X46904Y240559D01*
X45666Y239844D01*
X44656Y238834D01*
X43941Y237596D01*
X43789Y237029D01*
X35634D01*
X28581Y244081D01*
X28085Y244413D01*
X27500Y244529D01*
X20670D01*
X20309Y245155D01*
X19655Y245809D01*
X18855Y246271D01*
X17962Y246510D01*
D02*
G37*
G36*
X207462Y236510D02*
X206538D01*
X205645Y236271D01*
X204845Y235809D01*
X204191Y235155D01*
X203729Y234355D01*
X203490Y233462D01*
Y232538D01*
X203729Y231645D01*
X204191Y230845D01*
X204845Y230191D01*
X205645Y229729D01*
X206538Y229490D01*
X207462D01*
X208355Y229729D01*
X209155Y230191D01*
X209809Y230845D01*
X210271Y231645D01*
X210510Y232538D01*
Y233462D01*
X210271Y234355D01*
X209809Y235155D01*
X209155Y235809D01*
X208355Y236271D01*
X207462Y236510D01*
D02*
G37*
G36*
X197462D02*
X196538D01*
X195645Y236271D01*
X194845Y235809D01*
X194191Y235155D01*
X193729Y234355D01*
X193490Y233462D01*
Y232538D01*
X193729Y231645D01*
X194191Y230845D01*
X194845Y230191D01*
X195645Y229729D01*
X196538Y229490D01*
X197462D01*
X198355Y229729D01*
X199155Y230191D01*
X199809Y230845D01*
X200271Y231645D01*
X200510Y232538D01*
Y233462D01*
X200271Y234355D01*
X199809Y235155D01*
X199155Y235809D01*
X198355Y236271D01*
X197462Y236510D01*
D02*
G37*
G36*
X17962D02*
X17038D01*
X16145Y236271D01*
X15345Y235809D01*
X14691Y235155D01*
X14229Y234355D01*
X13990Y233462D01*
Y232538D01*
X14229Y231645D01*
X14691Y230845D01*
X15345Y230191D01*
X16145Y229729D01*
X17038Y229490D01*
X17962D01*
X18855Y229729D01*
X19655Y230191D01*
X20309Y230845D01*
X20771Y231645D01*
X21010Y232538D01*
Y233462D01*
X20771Y234355D01*
X20309Y235155D01*
X19655Y235809D01*
X18855Y236271D01*
X17962Y236510D01*
D02*
G37*
G36*
X7962D02*
X7038D01*
X6145Y236271D01*
X5345Y235809D01*
X4691Y235155D01*
X4229Y234355D01*
X3990Y233462D01*
Y232538D01*
X4229Y231645D01*
X4691Y230845D01*
X5345Y230191D01*
X6145Y229729D01*
X7038Y229490D01*
X7962D01*
X8855Y229729D01*
X9655Y230191D01*
X10309Y230845D01*
X10771Y231645D01*
X11010Y232538D01*
Y233462D01*
X10771Y234355D01*
X10309Y235155D01*
X9655Y235809D01*
X8855Y236271D01*
X7962Y236510D01*
D02*
G37*
G36*
X175754Y231224D02*
X175500D01*
Y226000D01*
X180724D01*
Y226254D01*
X180334Y227710D01*
X179581Y229015D01*
X178515Y230081D01*
X177209Y230834D01*
X175754Y231224D01*
D02*
G37*
G36*
X155754D02*
X155500D01*
Y226000D01*
X160724D01*
Y226254D01*
X160334Y227710D01*
X159581Y229015D01*
X158515Y230081D01*
X157210Y230834D01*
X155754Y231224D01*
D02*
G37*
G36*
X59754D02*
X59500D01*
Y226000D01*
X64724D01*
Y226254D01*
X64334Y227710D01*
X63581Y229015D01*
X62515Y230081D01*
X61209Y230834D01*
X59754Y231224D01*
D02*
G37*
G36*
X39754D02*
X39500D01*
Y226000D01*
X44724D01*
Y226254D01*
X44334Y227710D01*
X43581Y229015D01*
X42515Y230081D01*
X41210Y230834D01*
X39754Y231224D01*
D02*
G37*
G36*
X174500D02*
X174246D01*
X172791Y230834D01*
X171485Y230081D01*
X170419Y229015D01*
X169666Y227710D01*
X169276Y226254D01*
Y226000D01*
X174500D01*
Y231224D01*
D02*
G37*
G36*
X154500D02*
X154246D01*
X152790Y230834D01*
X151485Y230081D01*
X150419Y229015D01*
X149666Y227710D01*
X149276Y226254D01*
Y226000D01*
X154500D01*
Y231224D01*
D02*
G37*
G36*
X58500D02*
X58246D01*
X56791Y230834D01*
X55485Y230081D01*
X54419Y229015D01*
X53666Y227710D01*
X53276Y226254D01*
Y226000D01*
X58500D01*
Y231224D01*
D02*
G37*
G36*
X38500D02*
X38246D01*
X36790Y230834D01*
X35485Y230081D01*
X34419Y229015D01*
X33666Y227710D01*
X33276Y226254D01*
Y226000D01*
X38500D01*
Y231224D01*
D02*
G37*
G36*
X180724Y225000D02*
X175500D01*
Y219776D01*
X175754D01*
X177209Y220166D01*
X178515Y220919D01*
X179581Y221985D01*
X180334Y223290D01*
X180724Y224746D01*
Y225000D01*
D02*
G37*
G36*
X174500D02*
X169276D01*
Y224746D01*
X169666Y223290D01*
X170419Y221985D01*
X171485Y220919D01*
X172791Y220166D01*
X174246Y219776D01*
X174500D01*
Y225000D01*
D02*
G37*
G36*
X160724D02*
X155500D01*
Y219776D01*
X155754D01*
X157210Y220166D01*
X158515Y220919D01*
X159581Y221985D01*
X160334Y223290D01*
X160724Y224746D01*
Y225000D01*
D02*
G37*
G36*
X154500D02*
X149276D01*
Y224746D01*
X149666Y223290D01*
X150419Y221985D01*
X151485Y220919D01*
X152790Y220166D01*
X154246Y219776D01*
X154500D01*
Y225000D01*
D02*
G37*
G36*
X64724D02*
X59500D01*
Y219776D01*
X59754D01*
X61209Y220166D01*
X62515Y220919D01*
X63581Y221985D01*
X64334Y223290D01*
X64724Y224746D01*
Y225000D01*
D02*
G37*
G36*
X58500D02*
X53276D01*
Y224746D01*
X53666Y223290D01*
X54419Y221985D01*
X55485Y220919D01*
X56791Y220166D01*
X58246Y219776D01*
X58500D01*
Y225000D01*
D02*
G37*
G36*
X44724D02*
X39500D01*
Y219776D01*
X39754D01*
X41210Y220166D01*
X42515Y220919D01*
X43581Y221985D01*
X44334Y223290D01*
X44724Y224746D01*
Y225000D01*
D02*
G37*
G36*
X38500D02*
X33276D01*
Y224746D01*
X33666Y223290D01*
X34419Y221985D01*
X35485Y220919D01*
X36790Y220166D01*
X38246Y219776D01*
X38500D01*
Y225000D01*
D02*
G37*
G36*
X207462Y226510D02*
X206538D01*
X205645Y226271D01*
X204845Y225809D01*
X204191Y225155D01*
X203729Y224355D01*
X203490Y223462D01*
Y222538D01*
X203729Y221645D01*
X204191Y220845D01*
X204845Y220191D01*
X205645Y219729D01*
X206538Y219490D01*
X207462D01*
X208355Y219729D01*
X209155Y220191D01*
X209809Y220845D01*
X210271Y221645D01*
X210510Y222538D01*
Y223462D01*
X210271Y224355D01*
X209809Y225155D01*
X209155Y225809D01*
X208355Y226271D01*
X207462Y226510D01*
D02*
G37*
G36*
X197462D02*
X196538D01*
X195645Y226271D01*
X194845Y225809D01*
X194191Y225155D01*
X193729Y224355D01*
X193490Y223462D01*
Y222538D01*
X193729Y221645D01*
X194191Y220845D01*
X194845Y220191D01*
X195645Y219729D01*
X196538Y219490D01*
X197462D01*
X198355Y219729D01*
X199155Y220191D01*
X199809Y220845D01*
X200271Y221645D01*
X200510Y222538D01*
Y223462D01*
X200271Y224355D01*
X199809Y225155D01*
X199155Y225809D01*
X198355Y226271D01*
X197462Y226510D01*
D02*
G37*
G36*
X17962D02*
X17038D01*
X16145Y226271D01*
X15345Y225809D01*
X14691Y225155D01*
X14229Y224355D01*
X13990Y223462D01*
Y222538D01*
X14229Y221645D01*
X14691Y220845D01*
X15345Y220191D01*
X16145Y219729D01*
X17038Y219490D01*
X17962D01*
X18855Y219729D01*
X19655Y220191D01*
X20309Y220845D01*
X20771Y221645D01*
X21010Y222538D01*
Y223462D01*
X20771Y224355D01*
X20309Y225155D01*
X19655Y225809D01*
X18855Y226271D01*
X17962Y226510D01*
D02*
G37*
G36*
X7962D02*
X7038D01*
X6145Y226271D01*
X5345Y225809D01*
X4691Y225155D01*
X4229Y224355D01*
X3990Y223462D01*
Y222538D01*
X4229Y221645D01*
X4691Y220845D01*
X5345Y220191D01*
X6145Y219729D01*
X7038Y219490D01*
X7962D01*
X8855Y219729D01*
X9655Y220191D01*
X10309Y220845D01*
X10771Y221645D01*
X11010Y222538D01*
Y223462D01*
X10771Y224355D01*
X10309Y225155D01*
X9655Y225809D01*
X8855Y226271D01*
X7962Y226510D01*
D02*
G37*
G36*
X207462Y216510D02*
X206538D01*
X205645Y216271D01*
X204845Y215809D01*
X204191Y215155D01*
X203729Y214355D01*
X203490Y213462D01*
Y212538D01*
X203729Y211645D01*
X204191Y210845D01*
X204845Y210191D01*
X205645Y209729D01*
X206538Y209490D01*
X207462D01*
X208355Y209729D01*
X209155Y210191D01*
X209809Y210845D01*
X210271Y211645D01*
X210510Y212538D01*
Y213462D01*
X210271Y214355D01*
X209809Y215155D01*
X209155Y215809D01*
X208355Y216271D01*
X207462Y216510D01*
D02*
G37*
G36*
X197462D02*
X196538D01*
X195645Y216271D01*
X194845Y215809D01*
X194191Y215155D01*
X193729Y214355D01*
X193490Y213462D01*
Y212538D01*
X193729Y211645D01*
X194191Y210845D01*
X194845Y210191D01*
X195645Y209729D01*
X196538Y209490D01*
X197462D01*
X198355Y209729D01*
X199155Y210191D01*
X199809Y210845D01*
X200271Y211645D01*
X200510Y212538D01*
Y213462D01*
X200271Y214355D01*
X199809Y215155D01*
X199155Y215809D01*
X198355Y216271D01*
X197462Y216510D01*
D02*
G37*
G36*
X17962D02*
X17038D01*
X16145Y216271D01*
X15345Y215809D01*
X14691Y215155D01*
X14229Y214355D01*
X13990Y213462D01*
Y212538D01*
X14229Y211645D01*
X14691Y210845D01*
X15345Y210191D01*
X16145Y209729D01*
X17038Y209490D01*
X17962D01*
X18855Y209729D01*
X19655Y210191D01*
X20309Y210845D01*
X20771Y211645D01*
X21010Y212538D01*
Y213462D01*
X20771Y214355D01*
X20309Y215155D01*
X19655Y215809D01*
X18855Y216271D01*
X17962Y216510D01*
D02*
G37*
G36*
X7962D02*
X7038D01*
X6145Y216271D01*
X5345Y215809D01*
X4691Y215155D01*
X4229Y214355D01*
X3990Y213462D01*
Y212538D01*
X4229Y211645D01*
X4691Y210845D01*
X5345Y210191D01*
X6145Y209729D01*
X7038Y209490D01*
X7962D01*
X8855Y209729D01*
X9655Y210191D01*
X10309Y210845D01*
X10771Y211645D01*
X11010Y212538D01*
Y213462D01*
X10771Y214355D01*
X10309Y215155D01*
X9655Y215809D01*
X8855Y216271D01*
X7962Y216510D01*
D02*
G37*
G36*
X207462Y206510D02*
X206538D01*
X205645Y206271D01*
X204845Y205809D01*
X204191Y205155D01*
X203729Y204355D01*
X203490Y203462D01*
Y202538D01*
X203729Y201645D01*
X204191Y200845D01*
X204845Y200191D01*
X205645Y199729D01*
X206538Y199490D01*
X207462D01*
X208355Y199729D01*
X209155Y200191D01*
X209809Y200845D01*
X210271Y201645D01*
X210510Y202538D01*
Y203462D01*
X210271Y204355D01*
X209809Y205155D01*
X209155Y205809D01*
X208355Y206271D01*
X207462Y206510D01*
D02*
G37*
G36*
X197462D02*
X196538D01*
X195645Y206271D01*
X194845Y205809D01*
X194191Y205155D01*
X193729Y204355D01*
X193490Y203462D01*
Y202538D01*
X193729Y201645D01*
X194191Y200845D01*
X194845Y200191D01*
X195645Y199729D01*
X196538Y199490D01*
X197462D01*
X198355Y199729D01*
X199155Y200191D01*
X199809Y200845D01*
X200271Y201645D01*
X200510Y202538D01*
Y203462D01*
X200271Y204355D01*
X199809Y205155D01*
X199155Y205809D01*
X198355Y206271D01*
X197462Y206510D01*
D02*
G37*
G36*
X17962D02*
X17038D01*
X16145Y206271D01*
X15345Y205809D01*
X14691Y205155D01*
X14229Y204355D01*
X13990Y203462D01*
Y202538D01*
X14229Y201645D01*
X14691Y200845D01*
X15345Y200191D01*
X16145Y199729D01*
X17038Y199490D01*
X17962D01*
X18855Y199729D01*
X19655Y200191D01*
X20309Y200845D01*
X20771Y201645D01*
X21010Y202538D01*
Y203462D01*
X20771Y204355D01*
X20309Y205155D01*
X19655Y205809D01*
X18855Y206271D01*
X17962Y206510D01*
D02*
G37*
G36*
X7962D02*
X7038D01*
X6145Y206271D01*
X5345Y205809D01*
X4691Y205155D01*
X4229Y204355D01*
X3990Y203462D01*
Y202538D01*
X4229Y201645D01*
X4691Y200845D01*
X5345Y200191D01*
X6145Y199729D01*
X7038Y199490D01*
X7962D01*
X8855Y199729D01*
X9655Y200191D01*
X10309Y200845D01*
X10771Y201645D01*
X11010Y202538D01*
Y203462D01*
X10771Y204355D01*
X10309Y205155D01*
X9655Y205809D01*
X8855Y206271D01*
X7962Y206510D01*
D02*
G37*
G36*
X207462Y196510D02*
X206538D01*
X205645Y196271D01*
X204845Y195809D01*
X204191Y195155D01*
X203729Y194355D01*
X203490Y193462D01*
Y192538D01*
X203729Y191645D01*
X204191Y190845D01*
X204845Y190191D01*
X205645Y189729D01*
X206538Y189490D01*
X207462D01*
X208355Y189729D01*
X209155Y190191D01*
X209809Y190845D01*
X210271Y191645D01*
X210510Y192538D01*
Y193462D01*
X210271Y194355D01*
X209809Y195155D01*
X209155Y195809D01*
X208355Y196271D01*
X207462Y196510D01*
D02*
G37*
G36*
X197462D02*
X196538D01*
X195645Y196271D01*
X194845Y195809D01*
X194191Y195155D01*
X193729Y194355D01*
X193490Y193462D01*
Y192538D01*
X193729Y191645D01*
X194191Y190845D01*
X194845Y190191D01*
X195645Y189729D01*
X196538Y189490D01*
X197462D01*
X198355Y189729D01*
X199155Y190191D01*
X199809Y190845D01*
X200271Y191645D01*
X200510Y192538D01*
Y193462D01*
X200271Y194355D01*
X199809Y195155D01*
X199155Y195809D01*
X198355Y196271D01*
X197462Y196510D01*
D02*
G37*
G36*
X17962D02*
X17038D01*
X16145Y196271D01*
X15345Y195809D01*
X14691Y195155D01*
X14229Y194355D01*
X13990Y193462D01*
Y192538D01*
X14229Y191645D01*
X14691Y190845D01*
X15345Y190191D01*
X16145Y189729D01*
X17038Y189490D01*
X17962D01*
X18855Y189729D01*
X19655Y190191D01*
X20309Y190845D01*
X20771Y191645D01*
X21010Y192538D01*
Y193462D01*
X20771Y194355D01*
X20309Y195155D01*
X19655Y195809D01*
X18855Y196271D01*
X17962Y196510D01*
D02*
G37*
G36*
X7962D02*
X7038D01*
X6145Y196271D01*
X5345Y195809D01*
X4691Y195155D01*
X4229Y194355D01*
X3990Y193462D01*
Y192538D01*
X4229Y191645D01*
X4691Y190845D01*
X5345Y190191D01*
X6145Y189729D01*
X7038Y189490D01*
X7962D01*
X8855Y189729D01*
X9655Y190191D01*
X10309Y190845D01*
X10771Y191645D01*
X11010Y192538D01*
Y193462D01*
X10771Y194355D01*
X10309Y195155D01*
X9655Y195809D01*
X8855Y196271D01*
X7962Y196510D01*
D02*
G37*
G36*
X59254Y187724D02*
X59000D01*
Y182500D01*
X64224D01*
Y182754D01*
X63834Y184210D01*
X63081Y185515D01*
X62015Y186581D01*
X60710Y187334D01*
X59254Y187724D01*
D02*
G37*
G36*
X39254D02*
X39000D01*
Y182500D01*
X44224D01*
Y182754D01*
X43834Y184210D01*
X43081Y185515D01*
X42015Y186581D01*
X40709Y187334D01*
X39254Y187724D01*
D02*
G37*
G36*
X58000D02*
X57746D01*
X56291Y187334D01*
X54985Y186581D01*
X53919Y185515D01*
X53166Y184210D01*
X52776Y182754D01*
Y182500D01*
X58000D01*
Y187724D01*
D02*
G37*
G36*
X38000D02*
X37746D01*
X36290Y187334D01*
X34985Y186581D01*
X33919Y185515D01*
X33166Y184210D01*
X32776Y182754D01*
Y182500D01*
X38000D01*
Y187724D01*
D02*
G37*
G36*
X207462Y186510D02*
X206538D01*
X205645Y186271D01*
X204845Y185809D01*
X204191Y185155D01*
X203729Y184355D01*
X203490Y183462D01*
Y182538D01*
X203729Y181645D01*
X204191Y180845D01*
X204845Y180191D01*
X205645Y179729D01*
X206538Y179490D01*
X207462D01*
X208355Y179729D01*
X209155Y180191D01*
X209809Y180845D01*
X210271Y181645D01*
X210510Y182538D01*
Y183462D01*
X210271Y184355D01*
X209809Y185155D01*
X209155Y185809D01*
X208355Y186271D01*
X207462Y186510D01*
D02*
G37*
G36*
X197462D02*
X196538D01*
X195645Y186271D01*
X194845Y185809D01*
X194191Y185155D01*
X193729Y184355D01*
X193490Y183462D01*
Y182538D01*
X193729Y181645D01*
X194191Y180845D01*
X194845Y180191D01*
X195645Y179729D01*
X196538Y179490D01*
X197462D01*
X198355Y179729D01*
X199155Y180191D01*
X199809Y180845D01*
X200271Y181645D01*
X200510Y182538D01*
Y183462D01*
X200271Y184355D01*
X199809Y185155D01*
X199155Y185809D01*
X198355Y186271D01*
X197462Y186510D01*
D02*
G37*
G36*
X17962D02*
X17038D01*
X16145Y186271D01*
X15345Y185809D01*
X14691Y185155D01*
X14229Y184355D01*
X13990Y183462D01*
Y182538D01*
X14229Y181645D01*
X14691Y180845D01*
X15345Y180191D01*
X16145Y179729D01*
X17038Y179490D01*
X17962D01*
X18855Y179729D01*
X19655Y180191D01*
X20309Y180845D01*
X20771Y181645D01*
X21010Y182538D01*
Y183462D01*
X20771Y184355D01*
X20309Y185155D01*
X19655Y185809D01*
X18855Y186271D01*
X17962Y186510D01*
D02*
G37*
G36*
X7962D02*
X7038D01*
X6145Y186271D01*
X5345Y185809D01*
X4691Y185155D01*
X4229Y184355D01*
X3990Y183462D01*
Y182538D01*
X4229Y181645D01*
X4691Y180845D01*
X5345Y180191D01*
X6145Y179729D01*
X7038Y179490D01*
X7962D01*
X8855Y179729D01*
X9655Y180191D01*
X10309Y180845D01*
X10771Y181645D01*
X11010Y182538D01*
Y183462D01*
X10771Y184355D01*
X10309Y185155D01*
X9655Y185809D01*
X8855Y186271D01*
X7962Y186510D01*
D02*
G37*
G36*
X64224Y181500D02*
X59000D01*
Y176276D01*
X59254D01*
X60710Y176666D01*
X62015Y177419D01*
X63081Y178485D01*
X63834Y179790D01*
X64224Y181246D01*
Y181500D01*
D02*
G37*
G36*
X58000D02*
X52776D01*
Y181246D01*
X53166Y179790D01*
X53919Y178485D01*
X54985Y177419D01*
X56291Y176666D01*
X57746Y176276D01*
X58000D01*
Y181500D01*
D02*
G37*
G36*
X44224D02*
X39000D01*
Y176276D01*
X39254D01*
X40709Y176666D01*
X42015Y177419D01*
X43081Y178485D01*
X43834Y179790D01*
X44224Y181246D01*
Y181500D01*
D02*
G37*
G36*
X38000D02*
X32776D01*
Y181246D01*
X33166Y179790D01*
X33919Y178485D01*
X34985Y177419D01*
X36290Y176666D01*
X37746Y176276D01*
X38000D01*
Y181500D01*
D02*
G37*
G36*
X49215Y177429D02*
X47785D01*
X46404Y177059D01*
X45166Y176344D01*
X44156Y175334D01*
X43441Y174096D01*
X43423Y174029D01*
X20858D01*
X20771Y174355D01*
X20309Y175155D01*
X19655Y175809D01*
X18855Y176271D01*
X17962Y176510D01*
X17038D01*
X16145Y176271D01*
X15345Y175809D01*
X14691Y175155D01*
X14229Y174355D01*
X13990Y173462D01*
Y172538D01*
X14229Y171645D01*
X14691Y170845D01*
X15345Y170191D01*
X16145Y169729D01*
X17038Y169490D01*
X17962D01*
X18855Y169729D01*
X19655Y170191D01*
X20309Y170845D01*
X20381Y170971D01*
X43155D01*
X43441Y169904D01*
X44156Y168666D01*
X45166Y167656D01*
X46404Y166941D01*
X47785Y166571D01*
X49215D01*
X50596Y166941D01*
X51834Y167656D01*
X52844Y168666D01*
X53559Y169904D01*
X53929Y171285D01*
Y172715D01*
X53559Y174096D01*
X52844Y175334D01*
X51834Y176344D01*
X50596Y177059D01*
X49215Y177429D01*
D02*
G37*
G36*
X207462Y176510D02*
X206538D01*
X205645Y176271D01*
X204845Y175809D01*
X204191Y175155D01*
X203729Y174355D01*
X203490Y173462D01*
Y172538D01*
X203729Y171645D01*
X204191Y170845D01*
X204845Y170191D01*
X205645Y169729D01*
X206538Y169490D01*
X207462D01*
X208355Y169729D01*
X209155Y170191D01*
X209809Y170845D01*
X210271Y171645D01*
X210510Y172538D01*
Y173462D01*
X210271Y174355D01*
X209809Y175155D01*
X209155Y175809D01*
X208355Y176271D01*
X207462Y176510D01*
D02*
G37*
G36*
X197462D02*
X196538D01*
X195645Y176271D01*
X194845Y175809D01*
X194191Y175155D01*
X193729Y174355D01*
X193490Y173462D01*
Y172538D01*
X193729Y171645D01*
X194191Y170845D01*
X194845Y170191D01*
X195645Y169729D01*
X196538Y169490D01*
X197462D01*
X198355Y169729D01*
X199155Y170191D01*
X199809Y170845D01*
X200271Y171645D01*
X200510Y172538D01*
Y173462D01*
X200271Y174355D01*
X199809Y175155D01*
X199155Y175809D01*
X198355Y176271D01*
X197462Y176510D01*
D02*
G37*
G36*
X7962D02*
X7038D01*
X6145Y176271D01*
X5345Y175809D01*
X4691Y175155D01*
X4229Y174355D01*
X3990Y173462D01*
Y172538D01*
X4229Y171645D01*
X4691Y170845D01*
X5345Y170191D01*
X6145Y169729D01*
X7038Y169490D01*
X7962D01*
X8855Y169729D01*
X9655Y170191D01*
X10309Y170845D01*
X10771Y171645D01*
X11010Y172538D01*
Y173462D01*
X10771Y174355D01*
X10309Y175155D01*
X9655Y175809D01*
X8855Y176271D01*
X7962Y176510D01*
D02*
G37*
G36*
X59254Y167724D02*
X59000D01*
Y162500D01*
X64224D01*
Y162754D01*
X63834Y164209D01*
X63081Y165515D01*
X62015Y166581D01*
X60710Y167334D01*
X59254Y167724D01*
D02*
G37*
G36*
X39254D02*
X39000D01*
Y162500D01*
X44224D01*
Y162754D01*
X43834Y164209D01*
X43081Y165515D01*
X42015Y166581D01*
X40709Y167334D01*
X39254Y167724D01*
D02*
G37*
G36*
X38000D02*
X37746D01*
X36290Y167334D01*
X34985Y166581D01*
X33919Y165515D01*
X33166Y164209D01*
X32776Y162754D01*
Y162500D01*
X38000D01*
Y167724D01*
D02*
G37*
G36*
X58000D02*
X57746D01*
X56291Y167334D01*
X54985Y166581D01*
X53919Y165515D01*
X53166Y164209D01*
X52776Y162754D01*
Y162500D01*
X58000D01*
Y167724D01*
D02*
G37*
G36*
X207462Y166510D02*
X206538D01*
X205645Y166271D01*
X204845Y165809D01*
X204191Y165155D01*
X203729Y164355D01*
X203490Y163462D01*
Y162538D01*
X203729Y161645D01*
X204191Y160845D01*
X204845Y160191D01*
X205645Y159729D01*
X206538Y159490D01*
X207462D01*
X208355Y159729D01*
X209155Y160191D01*
X209809Y160845D01*
X210271Y161645D01*
X210510Y162538D01*
Y163462D01*
X210271Y164355D01*
X209809Y165155D01*
X209155Y165809D01*
X208355Y166271D01*
X207462Y166510D01*
D02*
G37*
G36*
X197462D02*
X196538D01*
X195645Y166271D01*
X194845Y165809D01*
X194191Y165155D01*
X193729Y164355D01*
X193490Y163462D01*
Y162538D01*
X193729Y161645D01*
X194191Y160845D01*
X194845Y160191D01*
X195645Y159729D01*
X196538Y159490D01*
X197462D01*
X198355Y159729D01*
X199155Y160191D01*
X199809Y160845D01*
X200271Y161645D01*
X200510Y162538D01*
Y163462D01*
X200271Y164355D01*
X199809Y165155D01*
X199155Y165809D01*
X198355Y166271D01*
X197462Y166510D01*
D02*
G37*
G36*
X17962D02*
X17038D01*
X16145Y166271D01*
X15345Y165809D01*
X14691Y165155D01*
X14229Y164355D01*
X13990Y163462D01*
Y162538D01*
X14229Y161645D01*
X14691Y160845D01*
X15345Y160191D01*
X16145Y159729D01*
X17038Y159490D01*
X17962D01*
X18855Y159729D01*
X19655Y160191D01*
X20309Y160845D01*
X20771Y161645D01*
X21010Y162538D01*
Y163462D01*
X20771Y164355D01*
X20309Y165155D01*
X19655Y165809D01*
X18855Y166271D01*
X17962Y166510D01*
D02*
G37*
G36*
X7962D02*
X7038D01*
X6145Y166271D01*
X5345Y165809D01*
X4691Y165155D01*
X4229Y164355D01*
X3990Y163462D01*
Y162538D01*
X4229Y161645D01*
X4691Y160845D01*
X5345Y160191D01*
X6145Y159729D01*
X7038Y159490D01*
X7962D01*
X8855Y159729D01*
X9655Y160191D01*
X10309Y160845D01*
X10771Y161645D01*
X11010Y162538D01*
Y163462D01*
X10771Y164355D01*
X10309Y165155D01*
X9655Y165809D01*
X8855Y166271D01*
X7962Y166510D01*
D02*
G37*
G36*
X64224Y161500D02*
X59000D01*
Y156276D01*
X59254D01*
X60710Y156666D01*
X62015Y157419D01*
X63081Y158485D01*
X63834Y159791D01*
X64224Y161246D01*
Y161500D01*
D02*
G37*
G36*
X58000D02*
X52776D01*
Y161246D01*
X53166Y159791D01*
X53919Y158485D01*
X54985Y157419D01*
X56291Y156666D01*
X57746Y156276D01*
X58000D01*
Y161500D01*
D02*
G37*
G36*
X44224D02*
X39000D01*
Y156276D01*
X39254D01*
X40709Y156666D01*
X42015Y157419D01*
X43081Y158485D01*
X43834Y159791D01*
X44224Y161246D01*
Y161500D01*
D02*
G37*
G36*
X38000D02*
X32776D01*
Y161246D01*
X33166Y159791D01*
X33919Y158485D01*
X34985Y157419D01*
X36290Y156666D01*
X37746Y156276D01*
X38000D01*
Y161500D01*
D02*
G37*
G36*
X207462Y156510D02*
X206538D01*
X205645Y156271D01*
X204845Y155809D01*
X204191Y155155D01*
X203729Y154355D01*
X203490Y153462D01*
Y152538D01*
X203729Y151645D01*
X204191Y150845D01*
X204845Y150191D01*
X205645Y149729D01*
X206538Y149490D01*
X207462D01*
X208355Y149729D01*
X209155Y150191D01*
X209809Y150845D01*
X210271Y151645D01*
X210510Y152538D01*
Y153462D01*
X210271Y154355D01*
X209809Y155155D01*
X209155Y155809D01*
X208355Y156271D01*
X207462Y156510D01*
D02*
G37*
G36*
X197462D02*
X196538D01*
X195645Y156271D01*
X194845Y155809D01*
X194191Y155155D01*
X193729Y154355D01*
X193490Y153462D01*
Y152538D01*
X193729Y151645D01*
X194191Y150845D01*
X194845Y150191D01*
X195645Y149729D01*
X196538Y149490D01*
X197462D01*
X198355Y149729D01*
X199155Y150191D01*
X199809Y150845D01*
X200271Y151645D01*
X200510Y152538D01*
Y153462D01*
X200271Y154355D01*
X199809Y155155D01*
X199155Y155809D01*
X198355Y156271D01*
X197462Y156510D01*
D02*
G37*
G36*
X17962D02*
X17038D01*
X16145Y156271D01*
X15345Y155809D01*
X14691Y155155D01*
X14229Y154355D01*
X13990Y153462D01*
Y152538D01*
X14229Y151645D01*
X14691Y150845D01*
X15345Y150191D01*
X16145Y149729D01*
X17038Y149490D01*
X17962D01*
X18855Y149729D01*
X19655Y150191D01*
X20309Y150845D01*
X20771Y151645D01*
X21010Y152538D01*
Y153462D01*
X20771Y154355D01*
X20309Y155155D01*
X19655Y155809D01*
X18855Y156271D01*
X17962Y156510D01*
D02*
G37*
G36*
X7962D02*
X7038D01*
X6145Y156271D01*
X5345Y155809D01*
X4691Y155155D01*
X4229Y154355D01*
X3990Y153462D01*
Y152538D01*
X4229Y151645D01*
X4691Y150845D01*
X5345Y150191D01*
X6145Y149729D01*
X7038Y149490D01*
X7962D01*
X8855Y149729D01*
X9655Y150191D01*
X10309Y150845D01*
X10771Y151645D01*
X11010Y152538D01*
Y153462D01*
X10771Y154355D01*
X10309Y155155D01*
X9655Y155809D01*
X8855Y156271D01*
X7962Y156510D01*
D02*
G37*
G36*
X207462Y146510D02*
X206538D01*
X205645Y146271D01*
X204845Y145809D01*
X204191Y145155D01*
X203729Y144355D01*
X203490Y143462D01*
Y142538D01*
X203729Y141645D01*
X204191Y140845D01*
X204845Y140191D01*
X205645Y139729D01*
X206538Y139490D01*
X207462D01*
X208355Y139729D01*
X209155Y140191D01*
X209809Y140845D01*
X210271Y141645D01*
X210510Y142538D01*
Y143462D01*
X210271Y144355D01*
X209809Y145155D01*
X209155Y145809D01*
X208355Y146271D01*
X207462Y146510D01*
D02*
G37*
G36*
X197462D02*
X196538D01*
X195645Y146271D01*
X194845Y145809D01*
X194191Y145155D01*
X193729Y144355D01*
X193490Y143462D01*
Y142538D01*
X193729Y141645D01*
X194191Y140845D01*
X194845Y140191D01*
X195645Y139729D01*
X196538Y139490D01*
X197462D01*
X198355Y139729D01*
X199155Y140191D01*
X199809Y140845D01*
X200271Y141645D01*
X200510Y142538D01*
Y143462D01*
X200271Y144355D01*
X199809Y145155D01*
X199155Y145809D01*
X198355Y146271D01*
X197462Y146510D01*
D02*
G37*
G36*
X17962D02*
X17038D01*
X16145Y146271D01*
X15345Y145809D01*
X14691Y145155D01*
X14229Y144355D01*
X13990Y143462D01*
Y142538D01*
X14229Y141645D01*
X14691Y140845D01*
X15345Y140191D01*
X16145Y139729D01*
X17038Y139490D01*
X17962D01*
X18855Y139729D01*
X19655Y140191D01*
X20309Y140845D01*
X20771Y141645D01*
X21010Y142538D01*
Y143462D01*
X20771Y144355D01*
X20309Y145155D01*
X19655Y145809D01*
X18855Y146271D01*
X17962Y146510D01*
D02*
G37*
G36*
X7962D02*
X7038D01*
X6145Y146271D01*
X5345Y145809D01*
X4691Y145155D01*
X4229Y144355D01*
X3990Y143462D01*
Y142538D01*
X4229Y141645D01*
X4691Y140845D01*
X5345Y140191D01*
X6145Y139729D01*
X7038Y139490D01*
X7962D01*
X8855Y139729D01*
X9655Y140191D01*
X10309Y140845D01*
X10771Y141645D01*
X11010Y142538D01*
Y143462D01*
X10771Y144355D01*
X10309Y145155D01*
X9655Y145809D01*
X8855Y146271D01*
X7962Y146510D01*
D02*
G37*
G36*
X207462Y136510D02*
X206538D01*
X205645Y136271D01*
X204845Y135809D01*
X204191Y135155D01*
X203729Y134355D01*
X203490Y133462D01*
Y132538D01*
X203729Y131645D01*
X204191Y130845D01*
X204845Y130191D01*
X205645Y129729D01*
X206538Y129490D01*
X207462D01*
X208355Y129729D01*
X209155Y130191D01*
X209809Y130845D01*
X210271Y131645D01*
X210510Y132538D01*
Y133462D01*
X210271Y134355D01*
X209809Y135155D01*
X209155Y135809D01*
X208355Y136271D01*
X207462Y136510D01*
D02*
G37*
G36*
X197462D02*
X196538D01*
X195645Y136271D01*
X194845Y135809D01*
X194191Y135155D01*
X193729Y134355D01*
X193490Y133462D01*
Y132538D01*
X193729Y131645D01*
X194191Y130845D01*
X194845Y130191D01*
X195645Y129729D01*
X196538Y129490D01*
X197462D01*
X198355Y129729D01*
X199155Y130191D01*
X199809Y130845D01*
X200271Y131645D01*
X200510Y132538D01*
Y133462D01*
X200271Y134355D01*
X199809Y135155D01*
X199155Y135809D01*
X198355Y136271D01*
X197462Y136510D01*
D02*
G37*
G36*
X17962D02*
X17038D01*
X16145Y136271D01*
X15345Y135809D01*
X14691Y135155D01*
X14229Y134355D01*
X13990Y133462D01*
Y132538D01*
X14229Y131645D01*
X14691Y130845D01*
X15345Y130191D01*
X16145Y129729D01*
X17038Y129490D01*
X17962D01*
X18855Y129729D01*
X19655Y130191D01*
X20309Y130845D01*
X20771Y131645D01*
X21010Y132538D01*
Y133462D01*
X20771Y134355D01*
X20309Y135155D01*
X19655Y135809D01*
X18855Y136271D01*
X17962Y136510D01*
D02*
G37*
G36*
X7962D02*
X7038D01*
X6145Y136271D01*
X5345Y135809D01*
X4691Y135155D01*
X4229Y134355D01*
X3990Y133462D01*
Y132538D01*
X4229Y131645D01*
X4691Y130845D01*
X5345Y130191D01*
X6145Y129729D01*
X7038Y129490D01*
X7962D01*
X8855Y129729D01*
X9655Y130191D01*
X10309Y130845D01*
X10771Y131645D01*
X11010Y132538D01*
Y133462D01*
X10771Y134355D01*
X10309Y135155D01*
X9655Y135809D01*
X8855Y136271D01*
X7962Y136510D01*
D02*
G37*
G36*
X207462Y126510D02*
X206538D01*
X205645Y126271D01*
X204845Y125809D01*
X204191Y125155D01*
X203729Y124355D01*
X203490Y123462D01*
Y122538D01*
X203729Y121645D01*
X204191Y120845D01*
X204845Y120191D01*
X205645Y119729D01*
X206538Y119490D01*
X207462D01*
X208355Y119729D01*
X209155Y120191D01*
X209809Y120845D01*
X210271Y121645D01*
X210510Y122538D01*
Y123462D01*
X210271Y124355D01*
X209809Y125155D01*
X209155Y125809D01*
X208355Y126271D01*
X207462Y126510D01*
D02*
G37*
G36*
X197462D02*
X196538D01*
X195645Y126271D01*
X194845Y125809D01*
X194191Y125155D01*
X193729Y124355D01*
X193490Y123462D01*
Y122538D01*
X193729Y121645D01*
X194191Y120845D01*
X194845Y120191D01*
X195645Y119729D01*
X196538Y119490D01*
X197462D01*
X198355Y119729D01*
X199155Y120191D01*
X199809Y120845D01*
X200271Y121645D01*
X200510Y122538D01*
Y123462D01*
X200271Y124355D01*
X199809Y125155D01*
X199155Y125809D01*
X198355Y126271D01*
X197462Y126510D01*
D02*
G37*
G36*
X17962D02*
X17038D01*
X16145Y126271D01*
X15345Y125809D01*
X14691Y125155D01*
X14229Y124355D01*
X13990Y123462D01*
Y122538D01*
X14229Y121645D01*
X14691Y120845D01*
X15345Y120191D01*
X16145Y119729D01*
X17038Y119490D01*
X17962D01*
X18855Y119729D01*
X19655Y120191D01*
X20309Y120845D01*
X20771Y121645D01*
X21010Y122538D01*
Y123462D01*
X20771Y124355D01*
X20309Y125155D01*
X19655Y125809D01*
X18855Y126271D01*
X17962Y126510D01*
D02*
G37*
G36*
X7962D02*
X7038D01*
X6145Y126271D01*
X5345Y125809D01*
X4691Y125155D01*
X4229Y124355D01*
X3990Y123462D01*
Y122538D01*
X4229Y121645D01*
X4691Y120845D01*
X5345Y120191D01*
X6145Y119729D01*
X7038Y119490D01*
X7962D01*
X8855Y119729D01*
X9655Y120191D01*
X10309Y120845D01*
X10771Y121645D01*
X11010Y122538D01*
Y123462D01*
X10771Y124355D01*
X10309Y125155D01*
X9655Y125809D01*
X8855Y126271D01*
X7962Y126510D01*
D02*
G37*
G36*
X207462Y116510D02*
X206538D01*
X205645Y116271D01*
X204845Y115809D01*
X204191Y115155D01*
X203729Y114355D01*
X203490Y113462D01*
Y112538D01*
X203729Y111645D01*
X204191Y110845D01*
X204845Y110191D01*
X205645Y109729D01*
X206538Y109490D01*
X207462D01*
X208355Y109729D01*
X209155Y110191D01*
X209809Y110845D01*
X210271Y111645D01*
X210510Y112538D01*
Y113462D01*
X210271Y114355D01*
X209809Y115155D01*
X209155Y115809D01*
X208355Y116271D01*
X207462Y116510D01*
D02*
G37*
G36*
X197462D02*
X196538D01*
X195645Y116271D01*
X194845Y115809D01*
X194191Y115155D01*
X193729Y114355D01*
X193490Y113462D01*
Y112538D01*
X193729Y111645D01*
X194191Y110845D01*
X194845Y110191D01*
X195645Y109729D01*
X196538Y109490D01*
X197462D01*
X198355Y109729D01*
X199155Y110191D01*
X199809Y110845D01*
X200271Y111645D01*
X200510Y112538D01*
Y113462D01*
X200271Y114355D01*
X199809Y115155D01*
X199155Y115809D01*
X198355Y116271D01*
X197462Y116510D01*
D02*
G37*
G36*
X17962D02*
X17038D01*
X16145Y116271D01*
X15345Y115809D01*
X14691Y115155D01*
X14229Y114355D01*
X13990Y113462D01*
Y112538D01*
X14229Y111645D01*
X14691Y110845D01*
X15345Y110191D01*
X16145Y109729D01*
X17038Y109490D01*
X17962D01*
X18855Y109729D01*
X19655Y110191D01*
X20309Y110845D01*
X20771Y111645D01*
X21010Y112538D01*
Y113462D01*
X20771Y114355D01*
X20309Y115155D01*
X19655Y115809D01*
X18855Y116271D01*
X17962Y116510D01*
D02*
G37*
G36*
X7962D02*
X7038D01*
X6145Y116271D01*
X5345Y115809D01*
X4691Y115155D01*
X4229Y114355D01*
X3990Y113462D01*
Y112538D01*
X4229Y111645D01*
X4691Y110845D01*
X5345Y110191D01*
X6145Y109729D01*
X7038Y109490D01*
X7962D01*
X8855Y109729D01*
X9655Y110191D01*
X10309Y110845D01*
X10771Y111645D01*
X11010Y112538D01*
Y113462D01*
X10771Y114355D01*
X10309Y115155D01*
X9655Y115809D01*
X8855Y116271D01*
X7962Y116510D01*
D02*
G37*
G36*
X207462Y106510D02*
X206538D01*
X205645Y106271D01*
X204845Y105809D01*
X204191Y105155D01*
X203729Y104355D01*
X203490Y103462D01*
Y102538D01*
X203729Y101645D01*
X204191Y100845D01*
X204845Y100191D01*
X205645Y99729D01*
X206538Y99490D01*
X207462D01*
X208355Y99729D01*
X209155Y100191D01*
X209809Y100845D01*
X210271Y101645D01*
X210510Y102538D01*
Y103462D01*
X210271Y104355D01*
X209809Y105155D01*
X209155Y105809D01*
X208355Y106271D01*
X207462Y106510D01*
D02*
G37*
G36*
X197462D02*
X196538D01*
X195645Y106271D01*
X194845Y105809D01*
X194191Y105155D01*
X193729Y104355D01*
X193490Y103462D01*
Y102538D01*
X193729Y101645D01*
X194191Y100845D01*
X194845Y100191D01*
X195645Y99729D01*
X196538Y99490D01*
X197462D01*
X198355Y99729D01*
X199155Y100191D01*
X199809Y100845D01*
X200271Y101645D01*
X200510Y102538D01*
Y103462D01*
X200271Y104355D01*
X199809Y105155D01*
X199155Y105809D01*
X198355Y106271D01*
X197462Y106510D01*
D02*
G37*
G36*
X17962D02*
X17038D01*
X16145Y106271D01*
X15345Y105809D01*
X14691Y105155D01*
X14229Y104355D01*
X13990Y103462D01*
Y102538D01*
X14229Y101645D01*
X14691Y100845D01*
X15345Y100191D01*
X16145Y99729D01*
X17038Y99490D01*
X17962D01*
X18855Y99729D01*
X19655Y100191D01*
X20309Y100845D01*
X20771Y101645D01*
X21010Y102538D01*
Y103462D01*
X20771Y104355D01*
X20309Y105155D01*
X19655Y105809D01*
X18855Y106271D01*
X17962Y106510D01*
D02*
G37*
G36*
X7962D02*
X7038D01*
X6145Y106271D01*
X5345Y105809D01*
X4691Y105155D01*
X4229Y104355D01*
X3990Y103462D01*
Y102538D01*
X4229Y101645D01*
X4691Y100845D01*
X5345Y100191D01*
X6145Y99729D01*
X7038Y99490D01*
X7962D01*
X8855Y99729D01*
X9655Y100191D01*
X10309Y100845D01*
X10771Y101645D01*
X11010Y102538D01*
Y103462D01*
X10771Y104355D01*
X10309Y105155D01*
X9655Y105809D01*
X8855Y106271D01*
X7962Y106510D01*
D02*
G37*
G36*
X207462Y96510D02*
X206538D01*
X205645Y96271D01*
X204845Y95809D01*
X204191Y95155D01*
X203729Y94355D01*
X203490Y93462D01*
Y92538D01*
X203729Y91645D01*
X204191Y90845D01*
X204845Y90191D01*
X205645Y89729D01*
X206538Y89490D01*
X207462D01*
X208355Y89729D01*
X209155Y90191D01*
X209809Y90845D01*
X210271Y91645D01*
X210510Y92538D01*
Y93462D01*
X210271Y94355D01*
X209809Y95155D01*
X209155Y95809D01*
X208355Y96271D01*
X207462Y96510D01*
D02*
G37*
G36*
X197462D02*
X196538D01*
X195645Y96271D01*
X194845Y95809D01*
X194191Y95155D01*
X193729Y94355D01*
X193490Y93462D01*
Y92538D01*
X193729Y91645D01*
X194191Y90845D01*
X194845Y90191D01*
X195645Y89729D01*
X196538Y89490D01*
X197462D01*
X198355Y89729D01*
X199155Y90191D01*
X199809Y90845D01*
X200271Y91645D01*
X200510Y92538D01*
Y93462D01*
X200271Y94355D01*
X199809Y95155D01*
X199155Y95809D01*
X198355Y96271D01*
X197462Y96510D01*
D02*
G37*
G36*
X17962D02*
X17038D01*
X16145Y96271D01*
X15345Y95809D01*
X14691Y95155D01*
X14229Y94355D01*
X13990Y93462D01*
Y92538D01*
X14229Y91645D01*
X14691Y90845D01*
X15345Y90191D01*
X16145Y89729D01*
X17038Y89490D01*
X17962D01*
X18855Y89729D01*
X19655Y90191D01*
X20309Y90845D01*
X20771Y91645D01*
X21010Y92538D01*
Y93462D01*
X20771Y94355D01*
X20309Y95155D01*
X19655Y95809D01*
X18855Y96271D01*
X17962Y96510D01*
D02*
G37*
G36*
X7962D02*
X7038D01*
X6145Y96271D01*
X5345Y95809D01*
X4691Y95155D01*
X4229Y94355D01*
X3990Y93462D01*
Y92538D01*
X4229Y91645D01*
X4691Y90845D01*
X5345Y90191D01*
X6145Y89729D01*
X7038Y89490D01*
X7962D01*
X8855Y89729D01*
X9655Y90191D01*
X10309Y90845D01*
X10771Y91645D01*
X11010Y92538D01*
Y93462D01*
X10771Y94355D01*
X10309Y95155D01*
X9655Y95809D01*
X8855Y96271D01*
X7962Y96510D01*
D02*
G37*
G36*
X58754Y88724D02*
X58500D01*
Y83500D01*
X63724D01*
Y83754D01*
X63334Y85210D01*
X62581Y86515D01*
X61515Y87581D01*
X60210Y88334D01*
X58754Y88724D01*
D02*
G37*
G36*
X38754D02*
X38500D01*
Y83500D01*
X43724D01*
Y83754D01*
X43334Y85210D01*
X42581Y86515D01*
X41515Y87581D01*
X40209Y88334D01*
X38754Y88724D01*
D02*
G37*
G36*
X57500D02*
X57246D01*
X55791Y88334D01*
X54485Y87581D01*
X53419Y86515D01*
X52666Y85210D01*
X52276Y83754D01*
Y83500D01*
X57500D01*
Y88724D01*
D02*
G37*
G36*
X37500D02*
X37246D01*
X35791Y88334D01*
X34485Y87581D01*
X33419Y86515D01*
X32666Y85210D01*
X32276Y83754D01*
Y83500D01*
X37500D01*
Y88724D01*
D02*
G37*
G36*
X207462Y86510D02*
X206538D01*
X205645Y86271D01*
X204845Y85809D01*
X204191Y85155D01*
X203729Y84355D01*
X203490Y83462D01*
Y82538D01*
X203729Y81645D01*
X204191Y80845D01*
X204845Y80191D01*
X205645Y79729D01*
X206538Y79490D01*
X207462D01*
X208355Y79729D01*
X209155Y80191D01*
X209809Y80845D01*
X210271Y81645D01*
X210510Y82538D01*
Y83462D01*
X210271Y84355D01*
X209809Y85155D01*
X209155Y85809D01*
X208355Y86271D01*
X207462Y86510D01*
D02*
G37*
G36*
X197462D02*
X196538D01*
X195645Y86271D01*
X194845Y85809D01*
X194191Y85155D01*
X193729Y84355D01*
X193490Y83462D01*
Y82538D01*
X193729Y81645D01*
X194191Y80845D01*
X194845Y80191D01*
X195645Y79729D01*
X196538Y79490D01*
X197462D01*
X198355Y79729D01*
X199155Y80191D01*
X199809Y80845D01*
X200271Y81645D01*
X200510Y82538D01*
Y83462D01*
X200271Y84355D01*
X199809Y85155D01*
X199155Y85809D01*
X198355Y86271D01*
X197462Y86510D01*
D02*
G37*
G36*
X17962D02*
X17038D01*
X16145Y86271D01*
X15345Y85809D01*
X14691Y85155D01*
X14229Y84355D01*
X13990Y83462D01*
Y82538D01*
X14229Y81645D01*
X14691Y80845D01*
X15345Y80191D01*
X16145Y79729D01*
X17038Y79490D01*
X17962D01*
X18855Y79729D01*
X19655Y80191D01*
X20309Y80845D01*
X20771Y81645D01*
X21010Y82538D01*
Y83462D01*
X20771Y84355D01*
X20309Y85155D01*
X19655Y85809D01*
X18855Y86271D01*
X17962Y86510D01*
D02*
G37*
G36*
X7962D02*
X7038D01*
X6145Y86271D01*
X5345Y85809D01*
X4691Y85155D01*
X4229Y84355D01*
X3990Y83462D01*
Y82538D01*
X4229Y81645D01*
X4691Y80845D01*
X5345Y80191D01*
X6145Y79729D01*
X7038Y79490D01*
X7962D01*
X8855Y79729D01*
X9655Y80191D01*
X10309Y80845D01*
X10771Y81645D01*
X11010Y82538D01*
Y83462D01*
X10771Y84355D01*
X10309Y85155D01*
X9655Y85809D01*
X8855Y86271D01*
X7962Y86510D01*
D02*
G37*
G36*
X63724Y82500D02*
X58500D01*
Y77276D01*
X58754D01*
X60210Y77666D01*
X61515Y78419D01*
X62581Y79485D01*
X63334Y80791D01*
X63724Y82246D01*
Y82500D01*
D02*
G37*
G36*
X57500D02*
X52276D01*
Y82246D01*
X52666Y80791D01*
X53419Y79485D01*
X54485Y78419D01*
X55791Y77666D01*
X57246Y77276D01*
X57500D01*
Y82500D01*
D02*
G37*
G36*
X43724D02*
X38500D01*
Y77276D01*
X38754D01*
X40209Y77666D01*
X41515Y78419D01*
X42581Y79485D01*
X43334Y80791D01*
X43724Y82246D01*
Y82500D01*
D02*
G37*
G36*
X37500D02*
X32276D01*
Y82246D01*
X32666Y80791D01*
X33419Y79485D01*
X34485Y78419D01*
X35791Y77666D01*
X37246Y77276D01*
X37500D01*
Y82500D01*
D02*
G37*
G36*
X48715Y78429D02*
X47285D01*
X45904Y78059D01*
X44666Y77344D01*
X43656Y76334D01*
X42941Y75096D01*
X42789Y74529D01*
X20670D01*
X20309Y75155D01*
X19655Y75809D01*
X18855Y76271D01*
X17962Y76510D01*
X17038D01*
X16145Y76271D01*
X15345Y75809D01*
X14691Y75155D01*
X14229Y74355D01*
X13990Y73462D01*
Y72538D01*
X14229Y71645D01*
X14691Y70845D01*
X15345Y70191D01*
X16145Y69729D01*
X17038Y69490D01*
X17962D01*
X18855Y69729D01*
X19655Y70191D01*
X20309Y70845D01*
X20670Y71471D01*
X42789D01*
X42941Y70904D01*
X43656Y69666D01*
X44666Y68656D01*
X45904Y67941D01*
X47285Y67571D01*
X48715D01*
X50096Y67941D01*
X51334Y68656D01*
X52344Y69666D01*
X53059Y70904D01*
X53429Y72285D01*
Y73715D01*
X53059Y75096D01*
X52344Y76334D01*
X51334Y77344D01*
X50096Y78059D01*
X48715Y78429D01*
D02*
G37*
G36*
X207462Y76510D02*
X206538D01*
X205645Y76271D01*
X204845Y75809D01*
X204191Y75155D01*
X203729Y74355D01*
X203490Y73462D01*
Y72538D01*
X203729Y71645D01*
X204191Y70845D01*
X204845Y70191D01*
X205645Y69729D01*
X206538Y69490D01*
X207462D01*
X208355Y69729D01*
X209155Y70191D01*
X209809Y70845D01*
X210271Y71645D01*
X210510Y72538D01*
Y73462D01*
X210271Y74355D01*
X209809Y75155D01*
X209155Y75809D01*
X208355Y76271D01*
X207462Y76510D01*
D02*
G37*
G36*
X197462D02*
X196538D01*
X195645Y76271D01*
X194845Y75809D01*
X194191Y75155D01*
X193729Y74355D01*
X193490Y73462D01*
Y72538D01*
X193729Y71645D01*
X194191Y70845D01*
X194845Y70191D01*
X195645Y69729D01*
X196538Y69490D01*
X197462D01*
X198355Y69729D01*
X199155Y70191D01*
X199809Y70845D01*
X200271Y71645D01*
X200510Y72538D01*
Y73462D01*
X200271Y74355D01*
X199809Y75155D01*
X199155Y75809D01*
X198355Y76271D01*
X197462Y76510D01*
D02*
G37*
G36*
X7962D02*
X7038D01*
X6145Y76271D01*
X5345Y75809D01*
X4691Y75155D01*
X4229Y74355D01*
X3990Y73462D01*
Y72538D01*
X4229Y71645D01*
X4691Y70845D01*
X5345Y70191D01*
X6145Y69729D01*
X7038Y69490D01*
X7962D01*
X8855Y69729D01*
X9655Y70191D01*
X10309Y70845D01*
X10771Y71645D01*
X11010Y72538D01*
Y73462D01*
X10771Y74355D01*
X10309Y75155D01*
X9655Y75809D01*
X8855Y76271D01*
X7962Y76510D01*
D02*
G37*
G36*
X58754Y68724D02*
X58500D01*
Y63500D01*
X63724D01*
Y63754D01*
X63334Y65210D01*
X62581Y66515D01*
X61515Y67581D01*
X60210Y68334D01*
X58754Y68724D01*
D02*
G37*
G36*
X38754D02*
X38500D01*
Y63500D01*
X43724D01*
Y63754D01*
X43334Y65210D01*
X42581Y66515D01*
X41515Y67581D01*
X40209Y68334D01*
X38754Y68724D01*
D02*
G37*
G36*
X57500D02*
X57246D01*
X55791Y68334D01*
X54485Y67581D01*
X53419Y66515D01*
X52666Y65210D01*
X52276Y63754D01*
Y63500D01*
X57500D01*
Y68724D01*
D02*
G37*
G36*
X37500D02*
X37246D01*
X35791Y68334D01*
X34485Y67581D01*
X33419Y66515D01*
X32666Y65210D01*
X32276Y63754D01*
Y63500D01*
X37500D01*
Y68724D01*
D02*
G37*
G36*
X207462Y66510D02*
X206538D01*
X205645Y66271D01*
X204845Y65809D01*
X204191Y65155D01*
X203729Y64355D01*
X203490Y63462D01*
Y62538D01*
X203729Y61645D01*
X204191Y60845D01*
X204845Y60191D01*
X205645Y59729D01*
X206538Y59490D01*
X207462D01*
X208355Y59729D01*
X209155Y60191D01*
X209809Y60845D01*
X210271Y61645D01*
X210510Y62538D01*
Y63462D01*
X210271Y64355D01*
X209809Y65155D01*
X209155Y65809D01*
X208355Y66271D01*
X207462Y66510D01*
D02*
G37*
G36*
X197462D02*
X196538D01*
X195645Y66271D01*
X194845Y65809D01*
X194191Y65155D01*
X193729Y64355D01*
X193490Y63462D01*
Y62538D01*
X193729Y61645D01*
X194191Y60845D01*
X194845Y60191D01*
X195645Y59729D01*
X196538Y59490D01*
X197462D01*
X198355Y59729D01*
X199155Y60191D01*
X199809Y60845D01*
X200271Y61645D01*
X200510Y62538D01*
Y63462D01*
X200271Y64355D01*
X199809Y65155D01*
X199155Y65809D01*
X198355Y66271D01*
X197462Y66510D01*
D02*
G37*
G36*
X17962D02*
X17038D01*
X16145Y66271D01*
X15345Y65809D01*
X14691Y65155D01*
X14229Y64355D01*
X13990Y63462D01*
Y62538D01*
X14229Y61645D01*
X14691Y60845D01*
X15345Y60191D01*
X16145Y59729D01*
X17038Y59490D01*
X17962D01*
X18855Y59729D01*
X19655Y60191D01*
X20309Y60845D01*
X20771Y61645D01*
X21010Y62538D01*
Y63462D01*
X20771Y64355D01*
X20309Y65155D01*
X19655Y65809D01*
X18855Y66271D01*
X17962Y66510D01*
D02*
G37*
G36*
X7962D02*
X7038D01*
X6145Y66271D01*
X5345Y65809D01*
X4691Y65155D01*
X4229Y64355D01*
X3990Y63462D01*
Y62538D01*
X4229Y61645D01*
X4691Y60845D01*
X5345Y60191D01*
X6145Y59729D01*
X7038Y59490D01*
X7962D01*
X8855Y59729D01*
X9655Y60191D01*
X10309Y60845D01*
X10771Y61645D01*
X11010Y62538D01*
Y63462D01*
X10771Y64355D01*
X10309Y65155D01*
X9655Y65809D01*
X8855Y66271D01*
X7962Y66510D01*
D02*
G37*
G36*
X63724Y62500D02*
X58500D01*
Y57276D01*
X58754D01*
X60210Y57666D01*
X61515Y58419D01*
X62581Y59485D01*
X63334Y60790D01*
X63724Y62246D01*
Y62500D01*
D02*
G37*
G36*
X57500D02*
X52276D01*
Y62246D01*
X52666Y60790D01*
X53419Y59485D01*
X54485Y58419D01*
X55791Y57666D01*
X57246Y57276D01*
X57500D01*
Y62500D01*
D02*
G37*
G36*
X43724D02*
X38500D01*
Y57276D01*
X38754D01*
X40209Y57666D01*
X41515Y58419D01*
X42581Y59485D01*
X43334Y60790D01*
X43724Y62246D01*
Y62500D01*
D02*
G37*
G36*
X37500D02*
X32276D01*
Y62246D01*
X32666Y60790D01*
X33419Y59485D01*
X34485Y58419D01*
X35791Y57666D01*
X37246Y57276D01*
X37500D01*
Y62500D01*
D02*
G37*
G36*
X207462Y56510D02*
X206538D01*
X205645Y56271D01*
X204845Y55809D01*
X204191Y55155D01*
X203729Y54355D01*
X203490Y53462D01*
Y52538D01*
X203729Y51645D01*
X204191Y50845D01*
X204845Y50191D01*
X205645Y49729D01*
X206538Y49490D01*
X207462D01*
X208355Y49729D01*
X209155Y50191D01*
X209809Y50845D01*
X210271Y51645D01*
X210510Y52538D01*
Y53462D01*
X210271Y54355D01*
X209809Y55155D01*
X209155Y55809D01*
X208355Y56271D01*
X207462Y56510D01*
D02*
G37*
G36*
X197462D02*
X196538D01*
X195645Y56271D01*
X194845Y55809D01*
X194191Y55155D01*
X193729Y54355D01*
X193490Y53462D01*
Y52538D01*
X193729Y51645D01*
X194191Y50845D01*
X194845Y50191D01*
X195645Y49729D01*
X196538Y49490D01*
X197462D01*
X198355Y49729D01*
X199155Y50191D01*
X199809Y50845D01*
X200271Y51645D01*
X200510Y52538D01*
Y53462D01*
X200271Y54355D01*
X199809Y55155D01*
X199155Y55809D01*
X198355Y56271D01*
X197462Y56510D01*
D02*
G37*
G36*
X17962D02*
X17038D01*
X16145Y56271D01*
X15345Y55809D01*
X14691Y55155D01*
X14229Y54355D01*
X13990Y53462D01*
Y52538D01*
X14229Y51645D01*
X14691Y50845D01*
X15345Y50191D01*
X16145Y49729D01*
X17038Y49490D01*
X17962D01*
X18855Y49729D01*
X19655Y50191D01*
X20309Y50845D01*
X20771Y51645D01*
X21010Y52538D01*
Y53462D01*
X20771Y54355D01*
X20309Y55155D01*
X19655Y55809D01*
X18855Y56271D01*
X17962Y56510D01*
D02*
G37*
G36*
X7962D02*
X7038D01*
X6145Y56271D01*
X5345Y55809D01*
X4691Y55155D01*
X4229Y54355D01*
X3990Y53462D01*
Y52538D01*
X4229Y51645D01*
X4691Y50845D01*
X5345Y50191D01*
X6145Y49729D01*
X7038Y49490D01*
X7962D01*
X8855Y49729D01*
X9655Y50191D01*
X10309Y50845D01*
X10771Y51645D01*
X11010Y52538D01*
Y53462D01*
X10771Y54355D01*
X10309Y55155D01*
X9655Y55809D01*
X8855Y56271D01*
X7962Y56510D01*
D02*
G37*
G36*
X207462Y46510D02*
X206538D01*
X205645Y46271D01*
X204845Y45809D01*
X204191Y45155D01*
X203729Y44355D01*
X203490Y43462D01*
Y42538D01*
X203729Y41645D01*
X204191Y40845D01*
X204845Y40191D01*
X205645Y39729D01*
X206538Y39490D01*
X207462D01*
X208355Y39729D01*
X209155Y40191D01*
X209809Y40845D01*
X210271Y41645D01*
X210510Y42538D01*
Y43462D01*
X210271Y44355D01*
X209809Y45155D01*
X209155Y45809D01*
X208355Y46271D01*
X207462Y46510D01*
D02*
G37*
G36*
X197462D02*
X196538D01*
X195645Y46271D01*
X194845Y45809D01*
X194191Y45155D01*
X193729Y44355D01*
X193490Y43462D01*
Y42538D01*
X193729Y41645D01*
X194191Y40845D01*
X194845Y40191D01*
X195645Y39729D01*
X196538Y39490D01*
X197462D01*
X198355Y39729D01*
X199155Y40191D01*
X199809Y40845D01*
X200271Y41645D01*
X200510Y42538D01*
Y43462D01*
X200271Y44355D01*
X199809Y45155D01*
X199155Y45809D01*
X198355Y46271D01*
X197462Y46510D01*
D02*
G37*
G36*
X17962D02*
X17038D01*
X16145Y46271D01*
X15345Y45809D01*
X14691Y45155D01*
X14229Y44355D01*
X13990Y43462D01*
Y42538D01*
X14229Y41645D01*
X14691Y40845D01*
X15345Y40191D01*
X16145Y39729D01*
X17038Y39490D01*
X17962D01*
X18855Y39729D01*
X19655Y40191D01*
X20309Y40845D01*
X20771Y41645D01*
X21010Y42538D01*
Y43462D01*
X20771Y44355D01*
X20309Y45155D01*
X19655Y45809D01*
X18855Y46271D01*
X17962Y46510D01*
D02*
G37*
G36*
X7962D02*
X7038D01*
X6145Y46271D01*
X5345Y45809D01*
X4691Y45155D01*
X4229Y44355D01*
X3990Y43462D01*
Y42538D01*
X4229Y41645D01*
X4691Y40845D01*
X5345Y40191D01*
X6145Y39729D01*
X7038Y39490D01*
X7962D01*
X8855Y39729D01*
X9655Y40191D01*
X10309Y40845D01*
X10771Y41645D01*
X11010Y42538D01*
Y43462D01*
X10771Y44355D01*
X10309Y45155D01*
X9655Y45809D01*
X8855Y46271D01*
X7962Y46510D01*
D02*
G37*
G36*
X190680Y29906D02*
X189320D01*
X187986Y29640D01*
X186729Y29120D01*
X185598Y28364D01*
X184636Y27402D01*
X183880Y26271D01*
X183360Y25014D01*
X183095Y23680D01*
Y22320D01*
X183360Y20986D01*
X183880Y19729D01*
X184636Y18598D01*
X185598Y17636D01*
X186729Y16880D01*
X187986Y16360D01*
X189320Y16094D01*
X190680D01*
X192014Y16360D01*
X193271Y16880D01*
X194402Y17636D01*
X195364Y18598D01*
X196120Y19729D01*
X196640Y20986D01*
X196906Y22320D01*
Y23680D01*
X196640Y25014D01*
X196120Y26271D01*
X195364Y27402D01*
X194402Y28364D01*
X193271Y29120D01*
X192014Y29640D01*
X190680Y29906D01*
D02*
G37*
G36*
X25180Y28905D02*
X23820D01*
X22486Y28640D01*
X21229Y28120D01*
X20098Y27364D01*
X19136Y26402D01*
X18380Y25271D01*
X17860Y24014D01*
X17594Y22680D01*
Y21320D01*
X17860Y19986D01*
X18380Y18729D01*
X19136Y17598D01*
X20098Y16636D01*
X21229Y15880D01*
X22486Y15360D01*
X23820Y15094D01*
X25180D01*
X26514Y15360D01*
X27771Y15880D01*
X28902Y16636D01*
X29864Y17598D01*
X30620Y18729D01*
X31140Y19986D01*
X31405Y21320D01*
Y22680D01*
X31140Y24014D01*
X30620Y25271D01*
X29864Y26402D01*
X28902Y27364D01*
X27771Y28120D01*
X26514Y28640D01*
X25180Y28905D01*
D02*
G37*
%LPD*%
D11*
X192000Y263000D02*
X197000D01*
X186500Y257500D02*
X192000Y263000D01*
X186500Y244000D02*
Y257500D01*
X178000Y235500D02*
X186500Y244000D01*
X165000Y235500D02*
X178000D01*
X17500Y73000D02*
X48000D01*
Y172500D02*
X48500Y172000D01*
X18000Y172500D02*
X48000D01*
X17500Y173000D02*
X18000Y172500D01*
X17500Y243000D02*
X27500D01*
X35000Y235500D01*
X49000D01*
D17*
X207000Y43000D02*
D03*
X197000D02*
D03*
X207000Y53000D02*
D03*
X197000D02*
D03*
X207000Y63000D02*
D03*
X197000D02*
D03*
X207000Y73000D02*
D03*
X197000D02*
D03*
X207000Y83000D02*
D03*
X197000D02*
D03*
X207000Y93000D02*
D03*
X197000D02*
D03*
X207000Y103000D02*
D03*
X197000D02*
D03*
X207000Y113000D02*
D03*
X197000D02*
D03*
X207000Y123000D02*
D03*
X197000D02*
D03*
X207000Y133000D02*
D03*
X197000D02*
D03*
X207000Y143000D02*
D03*
X197000D02*
D03*
X207000Y153000D02*
D03*
X197000D02*
D03*
X207000Y163000D02*
D03*
X197000D02*
D03*
X207000Y173000D02*
D03*
X197000D02*
D03*
X207000Y183000D02*
D03*
X197000D02*
D03*
X207000Y193000D02*
D03*
X197000D02*
D03*
X207000Y203000D02*
D03*
X197000D02*
D03*
X207000Y213000D02*
D03*
X197000D02*
D03*
X207000Y223000D02*
D03*
X197000D02*
D03*
X207000Y233000D02*
D03*
X197000D02*
D03*
X207000Y243000D02*
D03*
X197000D02*
D03*
X207000Y253000D02*
D03*
X197000D02*
D03*
X207000Y263000D02*
D03*
X17500Y43000D02*
D03*
X7500D02*
D03*
X17500Y53000D02*
D03*
X7500D02*
D03*
X17500Y63000D02*
D03*
X7500D02*
D03*
X17500Y73000D02*
D03*
X7500D02*
D03*
X17500Y83000D02*
D03*
X7500D02*
D03*
X17500Y93000D02*
D03*
X7500D02*
D03*
X17500Y103000D02*
D03*
X7500D02*
D03*
X17500Y113000D02*
D03*
X7500D02*
D03*
X17500Y123000D02*
D03*
X7500D02*
D03*
X17500Y133000D02*
D03*
X7500D02*
D03*
X17500Y143000D02*
D03*
X7500D02*
D03*
X17500Y153000D02*
D03*
X7500D02*
D03*
X17500Y163000D02*
D03*
X7500D02*
D03*
X17500Y173000D02*
D03*
X7500D02*
D03*
X17500Y183000D02*
D03*
X7500D02*
D03*
X17500Y193000D02*
D03*
X7500D02*
D03*
X17500Y203000D02*
D03*
X7500D02*
D03*
X17500Y213000D02*
D03*
X7500D02*
D03*
X17500Y223000D02*
D03*
X7500D02*
D03*
X17500Y233000D02*
D03*
X7500D02*
D03*
X17500Y243000D02*
D03*
X7500D02*
D03*
X17500Y253000D02*
D03*
X7500D02*
D03*
X17500Y263000D02*
D03*
D18*
X197000D02*
D03*
X7500D02*
D03*
D19*
X165000Y235500D02*
D03*
X49000D02*
D03*
X48500Y172000D02*
D03*
X48000Y73000D02*
D03*
D20*
X155000Y245500D02*
D03*
Y225500D02*
D03*
X175000D02*
D03*
Y245500D02*
D03*
X59000D02*
D03*
Y225500D02*
D03*
X39000D02*
D03*
Y245500D02*
D03*
X58500Y182000D02*
D03*
Y162000D02*
D03*
X38500D02*
D03*
Y182000D02*
D03*
X58000Y83000D02*
D03*
Y63000D02*
D03*
X38000D02*
D03*
Y83000D02*
D03*
D21*
X202500Y282500D02*
D03*
X190000Y23000D02*
D03*
X24500Y22000D02*
D03*
X12000Y282500D02*
D03*
M02*
