G04*
G04 #@! TF.GenerationSoftware,Altium Limited,Altium Designer,25.8.1 (18)*
G04*
G04 Layer_Color=0*
%FSLAX25Y25*%
%MOIN*%
G70*
G04*
G04 #@! TF.SameCoordinates,B8C25E97-C649-417D-B0D0-2C2A699CC183*
G04*
G04*
G04 #@! TF.FilePolarity,Positive*
G04*
G01*
G75*
%ADD24C,0.00100*%
G36*
X56500Y266500D02*
Y278500D01*
Y279485D01*
X56884Y281417D01*
X57638Y283237D01*
X58732Y284875D01*
X60125Y286267D01*
X61763Y287362D01*
X63583Y288116D01*
X65515Y288500D01*
X66500D01*
D01*
X156000D01*
X156985D01*
X158917Y288116D01*
X160737Y287362D01*
X162375Y286267D01*
X163768Y284875D01*
X164862Y283237D01*
X165616Y281417D01*
X166000Y279485D01*
Y278500D01*
D01*
Y266500D01*
Y265515D01*
X165616Y263583D01*
X164862Y261763D01*
X163768Y260125D01*
X162375Y258733D01*
X160737Y257638D01*
X158917Y256884D01*
X156985Y256500D01*
X156000D01*
D01*
X66500D01*
X65515D01*
X63583Y256884D01*
X61763Y257638D01*
X60125Y258733D01*
X58732Y260125D01*
X57638Y261763D01*
X56884Y263583D01*
X56500Y265515D01*
Y266500D01*
D01*
D02*
G37*
G36*
X158917Y280451D02*
Y288116D01*
X165808D01*
Y280451D01*
X158917D01*
D02*
G37*
G36*
X56917Y279951D02*
Y287616D01*
X63808D01*
Y279951D01*
X56917D01*
D02*
G37*
D24*
X-501Y8500D02*
G03*
X8500Y-501I9002J0D01*
G01*
X207000D01*
X207291Y-409D01*
D02*
G03*
X215002Y8500I-1291J8908D01*
G01*
Y9000D01*
X215002Y279495D01*
X215002Y279500D01*
D02*
G03*
X207291Y288408I-9002J-0D01*
G01*
X207000Y288502D01*
X8500D01*
D02*
G03*
X-501Y279500I0J-9002D01*
G01*
X-501Y8500D01*
M02*
