G04*
G04 #@! TF.GenerationSoftware,Altium Limited,Altium Designer,26.7.1 (11)*
G04*
G04 Layer_Color=128*
G04 Board_Origin=10000000|900000*
%FSLAX44Y44*%
%MOMM*%
G71*
G04*
G04 #@! TF.SameCoordinates,79BF4A82-B34F-4656-B250-A078A92891FE*
G04*
G04*
G04 #@! TF.FilePolarity,Positive*
G04*
G01*
G75*
%ADD25C,0.1270*%
D25*
X496130Y668020D02*
X504630D01*
X500380Y663770D02*
Y672270D01*
X521530Y668020D02*
X530030D01*
X525780Y663770D02*
Y672270D01*
X496130Y642620D02*
X504630D01*
X500380Y638370D02*
Y646870D01*
X521530Y642620D02*
X530030D01*
X525780Y638370D02*
Y646870D01*
X496130Y617220D02*
X504630D01*
X500380Y612970D02*
Y621470D01*
X521530Y617220D02*
X530030D01*
X525780Y612970D02*
Y621470D01*
X496130Y591820D02*
X504630D01*
X500380Y587570D02*
Y596070D01*
X521530Y591820D02*
X530030D01*
X525780Y587570D02*
Y596070D01*
X496130Y566420D02*
X504630D01*
X500380Y562170D02*
Y570670D01*
X521530Y566420D02*
X530030D01*
X525780Y562170D02*
Y570670D01*
X496130Y541020D02*
X504630D01*
X500380Y536770D02*
Y545270D01*
X521530Y541020D02*
X530030D01*
X525780Y536770D02*
Y545270D01*
X496130Y515620D02*
X504630D01*
X500380Y511370D02*
Y519870D01*
X521530Y515620D02*
X530030D01*
X525780Y511370D02*
Y519870D01*
X496130Y490220D02*
X504630D01*
X500380Y485970D02*
Y494470D01*
X521530Y490220D02*
X530030D01*
X525780Y485970D02*
Y494470D01*
X496130Y464820D02*
X504630D01*
X500380Y460570D02*
Y469070D01*
X521530Y464820D02*
X530030D01*
X525780Y460570D02*
Y469070D01*
X496130Y439420D02*
X504630D01*
X500380Y435170D02*
Y443670D01*
X521530Y439420D02*
X530030D01*
X525780Y435170D02*
Y443670D01*
X496130Y414020D02*
X504630D01*
X500380Y409770D02*
Y418270D01*
X521530Y414020D02*
X530030D01*
X525780Y409770D02*
Y418270D01*
X496130Y388620D02*
X504630D01*
X500380Y384370D02*
Y392870D01*
X521530Y388620D02*
X530030D01*
X525780Y384370D02*
Y392870D01*
X496130Y363220D02*
X504630D01*
X500380Y358970D02*
Y367470D01*
X521530Y363220D02*
X530030D01*
X525780Y358970D02*
Y367470D01*
X496130Y337820D02*
X504630D01*
X500380Y333570D02*
Y342070D01*
X521530Y337820D02*
X530030D01*
X525780Y333570D02*
Y342070D01*
X496130Y312420D02*
X504630D01*
X500380Y308170D02*
Y316670D01*
X521530Y312420D02*
X530030D01*
X525780Y308170D02*
Y316670D01*
X496130Y287020D02*
X504630D01*
X500380Y282770D02*
Y291270D01*
X521530Y287020D02*
X530030D01*
X525780Y282770D02*
Y291270D01*
X496130Y261620D02*
X504630D01*
X500380Y257370D02*
Y265870D01*
X521530Y261620D02*
X530030D01*
X525780Y257370D02*
Y265870D01*
X496130Y236220D02*
X504630D01*
X500380Y231970D02*
Y240470D01*
X521530Y236220D02*
X530030D01*
X525780Y231970D02*
Y240470D01*
X496130Y210820D02*
X504630D01*
X500380Y206570D02*
Y215070D01*
X521530Y210820D02*
X530030D01*
X525780Y206570D02*
Y215070D01*
X496130Y185420D02*
X504630D01*
X500380Y181170D02*
Y189670D01*
X521530Y185420D02*
X530030D01*
X525780Y181170D02*
Y189670D01*
X496130Y160020D02*
X504630D01*
X500380Y155770D02*
Y164270D01*
X521530Y160020D02*
X530030D01*
X525780Y155770D02*
Y164270D01*
X496130Y134620D02*
X504630D01*
X500380Y130370D02*
Y138870D01*
X521530Y134620D02*
X530030D01*
X525780Y130370D02*
Y138870D01*
X496130Y109220D02*
X504630D01*
X500380Y104970D02*
Y113470D01*
X521530Y109220D02*
X530030D01*
X525780Y104970D02*
Y113470D01*
X221100Y279400D02*
X236100D01*
X228600Y271900D02*
Y286900D01*
X195200Y304800D02*
X211200D01*
X203200Y296800D02*
Y312800D01*
X195200Y254000D02*
X211200D01*
X203200Y246000D02*
Y262000D01*
X246000Y254000D02*
X262000D01*
X254000Y246000D02*
Y262000D01*
X246000Y304800D02*
X262000D01*
X254000Y296800D02*
Y312800D01*
X14800Y642620D02*
X23300D01*
X19050Y638370D02*
Y646870D01*
X14800Y617220D02*
X23300D01*
X19050Y612970D02*
Y621470D01*
X40200Y617220D02*
X48700D01*
X44450Y612970D02*
Y621470D01*
X14800Y591820D02*
X23300D01*
X19050Y587570D02*
Y596070D01*
X40200Y591820D02*
X48700D01*
X44450Y587570D02*
Y596070D01*
X14800Y566420D02*
X23300D01*
X19050Y562170D02*
Y570670D01*
X40200Y566420D02*
X48700D01*
X44450Y562170D02*
Y570670D01*
X14800Y541020D02*
X23300D01*
X19050Y536770D02*
Y545270D01*
X40200Y541020D02*
X48700D01*
X44450Y536770D02*
Y545270D01*
X14800Y515620D02*
X23300D01*
X19050Y511370D02*
Y519870D01*
X40200Y515620D02*
X48700D01*
X44450Y511370D02*
Y519870D01*
X14800Y490220D02*
X23300D01*
X19050Y485970D02*
Y494470D01*
X40200Y490220D02*
X48700D01*
X44450Y485970D02*
Y494470D01*
X14800Y464820D02*
X23300D01*
X19050Y460570D02*
Y469070D01*
X40200Y464820D02*
X48700D01*
X44450Y460570D02*
Y469070D01*
X14800Y439420D02*
X23300D01*
X19050Y435170D02*
Y443670D01*
X40200Y439420D02*
X48700D01*
X44450Y435170D02*
Y443670D01*
X14800Y414020D02*
X23300D01*
X19050Y409770D02*
Y418270D01*
X40200Y414020D02*
X48700D01*
X44450Y409770D02*
Y418270D01*
X14800Y388620D02*
X23300D01*
X19050Y384370D02*
Y392870D01*
X40200Y388620D02*
X48700D01*
X44450Y384370D02*
Y392870D01*
X14800Y363220D02*
X23300D01*
X19050Y358970D02*
Y367470D01*
X40200Y363220D02*
X48700D01*
X44450Y358970D02*
Y367470D01*
X14800Y337820D02*
X23300D01*
X19050Y333570D02*
Y342070D01*
X40200Y337820D02*
X48700D01*
X44450Y333570D02*
Y342070D01*
X14800Y312420D02*
X23300D01*
X19050Y308170D02*
Y316670D01*
X40200Y312420D02*
X48700D01*
X44450Y308170D02*
Y316670D01*
X14800Y287020D02*
X23300D01*
X19050Y282770D02*
Y291270D01*
X40200Y287020D02*
X48700D01*
X44450Y282770D02*
Y291270D01*
X14800Y261620D02*
X23300D01*
X19050Y257370D02*
Y265870D01*
X40200Y261620D02*
X48700D01*
X44450Y257370D02*
Y265870D01*
X14800Y236220D02*
X23300D01*
X19050Y231970D02*
Y240470D01*
X40200Y236220D02*
X48700D01*
X44450Y231970D02*
Y240470D01*
X14800Y210820D02*
X23300D01*
X19050Y206570D02*
Y215070D01*
X40200Y210820D02*
X48700D01*
X44450Y206570D02*
Y215070D01*
X14800Y185420D02*
X23300D01*
X19050Y181170D02*
Y189670D01*
X14800Y160020D02*
X23300D01*
X19050Y155770D02*
Y164270D01*
X40200Y160020D02*
X48700D01*
X44450Y155770D02*
Y164270D01*
X14800Y134620D02*
X23300D01*
X19050Y130370D02*
Y138870D01*
X40200Y134620D02*
X48700D01*
X44450Y130370D02*
Y138870D01*
X14800Y109220D02*
X23300D01*
X19050Y104970D02*
Y113470D01*
X40200Y109220D02*
X48700D01*
X44450Y104970D02*
Y113470D01*
X40200Y185420D02*
X48700D01*
X44450Y181170D02*
Y189670D01*
X14800Y668020D02*
X23300D01*
X19050Y663770D02*
Y672270D01*
X40200Y668020D02*
X48700D01*
X44450Y663770D02*
Y672270D01*
X40200Y642620D02*
X48700D01*
X44450Y638370D02*
Y646870D01*
X191860Y623570D02*
X207860D01*
X199860Y615570D02*
Y631570D01*
X191860Y572770D02*
X207860D01*
X199860Y564770D02*
Y580770D01*
X141060Y572770D02*
X157060D01*
X149060Y564770D02*
Y580770D01*
X141060Y623570D02*
X157060D01*
X149060Y615570D02*
Y631570D01*
X166960Y598170D02*
X181960D01*
X174460Y590670D02*
Y605670D01*
X141860Y508000D02*
X157860D01*
X149860Y500000D02*
Y516000D01*
X141860Y457200D02*
X157860D01*
X149860Y449200D02*
Y465200D01*
X91060Y457200D02*
X107060D01*
X99060Y449200D02*
Y465200D01*
X91060Y508000D02*
X107060D01*
X99060Y500000D02*
Y516000D01*
X116960Y482600D02*
X131960D01*
X124460Y475100D02*
Y490100D01*
X116960Y281940D02*
X131960D01*
X124460Y274440D02*
Y289440D01*
X91060Y307340D02*
X107060D01*
X99060Y299340D02*
Y315340D01*
X91060Y256540D02*
X107060D01*
X99060Y248540D02*
Y264540D01*
X141860Y256540D02*
X157860D01*
X149860Y248540D02*
Y264540D01*
X141860Y307340D02*
X157860D01*
X149860Y299340D02*
Y315340D01*
X411600Y598170D02*
X426600D01*
X419100Y590670D02*
Y605670D01*
X411100Y634091D02*
X427100D01*
X419100Y626091D02*
Y642091D01*
X447021Y598170D02*
X463021D01*
X455021Y590170D02*
Y606170D01*
X411100Y562249D02*
X427100D01*
X419100Y554249D02*
Y570249D01*
X375179Y598170D02*
X391179D01*
X383179Y590170D02*
Y606170D01*
X221100Y482600D02*
X236100D01*
X228600Y475100D02*
Y490100D01*
X195200Y508000D02*
X211200D01*
X203200Y500000D02*
Y516000D01*
X195200Y457200D02*
X211200D01*
X203200Y449200D02*
Y465200D01*
X246000Y457200D02*
X262000D01*
X254000Y449200D02*
Y465200D01*
X246000Y508000D02*
X262000D01*
X254000Y500000D02*
Y516000D01*
X501850Y717550D02*
X526850D01*
X514350Y705050D02*
Y730050D01*
X470100Y58420D02*
X495100D01*
X482600Y45920D02*
Y70920D01*
X49730Y55880D02*
X74730D01*
X62230Y43380D02*
Y68380D01*
X17980Y717550D02*
X42980D01*
X30480Y705050D02*
Y730050D01*
X197390Y530860D02*
X201390D01*
X199390Y528860D02*
Y532860D01*
X227870Y628650D02*
X231870D01*
X229870Y626650D02*
Y630650D01*
X248074Y614752D02*
X252074D01*
X250074Y612752D02*
Y616752D01*
X250730Y580390D02*
X254730D01*
X252730Y578390D02*
Y582390D01*
X239273Y399697D02*
X243273D01*
X241273Y397697D02*
Y401697D01*
X273590Y393700D02*
X277590D01*
X275590Y391700D02*
Y395700D01*
X319310Y382270D02*
X323310D01*
X321310Y380270D02*
Y384270D01*
X318040Y419100D02*
X322040D01*
X320040Y417100D02*
Y421100D01*
X329470Y454660D02*
X333470D01*
X331470Y452660D02*
Y456660D01*
X291370Y452120D02*
X295370D01*
X293370Y450120D02*
Y454120D01*
X342126Y481649D02*
X346125D01*
X344125Y479649D02*
Y483649D01*
X312960Y485140D02*
X316960D01*
X314960Y483140D02*
Y487140D01*
X461550Y666750D02*
X465550D01*
X463550Y664750D02*
Y668750D01*
X443770Y648970D02*
X447770D01*
X445770Y646970D02*
Y650970D01*
X465360Y622300D02*
X469360D01*
X467360Y620300D02*
Y624300D01*
X175410Y240030D02*
X179410D01*
X177410Y238030D02*
Y242030D01*
X236760Y232410D02*
X240760D01*
X238760Y230410D02*
Y234410D01*
X225330Y217170D02*
X229330D01*
X227330Y215170D02*
Y219170D01*
X201200Y207010D02*
X205200D01*
X203200Y205010D02*
Y209010D01*
X175800Y207010D02*
X179800D01*
X177800Y205010D02*
Y209010D01*
X149130Y205740D02*
X153130D01*
X151130Y203740D02*
Y207740D01*
X113570Y204470D02*
X117570D01*
X115570Y202470D02*
Y206470D01*
X91772Y204778D02*
X95772D01*
X93772Y202778D02*
Y206778D01*
X70390Y270510D02*
X74390D01*
X72390Y268510D02*
Y272510D01*
X68240Y303530D02*
X72240D01*
X70240Y301530D02*
Y305530D01*
X173260Y566420D02*
X177260D01*
X175260Y564420D02*
Y568420D01*
X219867Y559398D02*
X223867D01*
X221867Y557398D02*
Y561398D01*
X229140Y546100D02*
X233140D01*
X231140Y544100D02*
Y548100D01*
X239300Y532130D02*
X243300D01*
X241300Y530130D02*
Y534130D01*
X180880Y530860D02*
X184880D01*
X182880Y528860D02*
Y532860D01*
X164370Y532130D02*
X168370D01*
X166370Y530130D02*
Y534130D01*
X147514Y532132D02*
X151514D01*
X149514Y530132D02*
Y534132D01*
X125000Y533400D02*
X129000D01*
X127000Y531400D02*
Y535400D01*
X74200Y537210D02*
X78200D01*
X76200Y535210D02*
Y539210D01*
X61500Y548250D02*
X65500D01*
X63500Y546250D02*
Y550250D01*
X74200Y659130D02*
X78200D01*
X76200Y657130D02*
Y661130D01*
X91980Y652780D02*
X95980D01*
X93980Y650780D02*
Y654780D01*
X105950Y640080D02*
X109950D01*
X107950Y638080D02*
Y642080D01*
X119920Y627380D02*
X123920D01*
X121920Y625380D02*
Y629380D01*
X119920Y582930D02*
X123920D01*
X121920Y580930D02*
Y584930D01*
X104680Y596900D02*
X108680D01*
X106680Y594900D02*
Y598900D01*
X90535Y611485D02*
X94535D01*
X92535Y609485D02*
Y613485D01*
X76459Y623953D02*
X80458D01*
X78458Y621953D02*
Y625953D01*
X108175Y549217D02*
X112175D01*
X110175Y547217D02*
Y551217D01*
X69629Y587080D02*
X73629D01*
X71629Y585080D02*
Y589080D01*
X83090Y574040D02*
X87090D01*
X85090Y572040D02*
Y576040D01*
X96529Y561046D02*
X100529D01*
X98529Y559046D02*
Y563046D01*
X62172Y510923D02*
X66172D01*
X64172Y508923D02*
Y512923D01*
X256408Y538097D02*
X260408D01*
X258408Y536097D02*
Y540097D01*
X39910Y27940D02*
X43910D01*
X41910Y25940D02*
Y29940D01*
X14430Y47760D02*
X18429D01*
X16430Y45760D02*
Y49760D01*
X11970Y78740D02*
X15970D01*
X13970Y76740D02*
Y80740D01*
X81820Y21590D02*
X85820D01*
X83820Y19590D02*
Y23590D01*
X112650Y21912D02*
X116650D01*
X114650Y19912D02*
Y23912D01*
X111030Y54610D02*
X115030D01*
X113030Y52610D02*
Y56610D01*
X126221Y83301D02*
X130220D01*
X128221Y81300D02*
Y85301D01*
X141729Y104625D02*
X145729D01*
X143729Y102625D02*
Y106625D01*
X177270Y73608D02*
X181270D01*
X179270Y71608D02*
Y75608D01*
X162407Y85885D02*
X166407D01*
X164407Y83885D02*
Y87885D01*
X164370Y39370D02*
X168370D01*
X166370Y37370D02*
Y41370D01*
X197948Y39360D02*
X201948D01*
X199948Y37360D02*
Y41360D01*
X221520Y16510D02*
X225520D01*
X223520Y14510D02*
Y18510D01*
X210225Y72962D02*
X214225D01*
X212225Y70961D02*
Y74962D01*
X173260Y140970D02*
X177260D01*
X175260Y138970D02*
Y142970D01*
X164992Y166013D02*
X168992D01*
X166992Y164013D02*
Y168013D01*
X183420Y179070D02*
X187420D01*
X185420Y177070D02*
Y181070D01*
X105950Y124460D02*
X109950D01*
X107950Y122460D02*
Y126460D01*
X83090Y107950D02*
X87090D01*
X85090Y105950D02*
Y109950D01*
X207550Y121920D02*
X211550D01*
X209550Y119920D02*
Y123920D01*
X385989Y18035D02*
X389989D01*
X387989Y16035D02*
Y20035D01*
X316847Y25143D02*
X320847D01*
X318847Y23143D02*
Y27143D01*
X285184Y19974D02*
X289184D01*
X287183Y17974D02*
Y21974D01*
X276137Y100101D02*
X280137D01*
X278137Y98102D02*
Y102101D01*
X236719Y109148D02*
X240719D01*
X238719Y107148D02*
Y111148D01*
X265152Y140812D02*
X269152D01*
X267152Y138812D02*
Y142812D01*
X223149Y154382D02*
X227149D01*
X225149Y152382D02*
Y156382D01*
X136560Y149212D02*
X140560D01*
X138560Y147212D02*
Y151212D01*
X105950Y157480D02*
X109950D01*
X107950Y155480D02*
Y159480D01*
X73879Y149858D02*
X77879D01*
X75879Y147858D02*
Y151858D01*
X103410Y182880D02*
X107410D01*
X105410Y180880D02*
Y184880D01*
X79049Y183460D02*
X83049D01*
X81049Y181460D02*
Y185460D01*
X140240Y184150D02*
X144240D01*
X142240Y182150D02*
Y186150D01*
X224060Y194310D02*
X228060D01*
X226060Y192310D02*
Y196310D01*
X271050Y173990D02*
X275050D01*
X273050Y171990D02*
Y175990D01*
X377730Y181610D02*
X381730D01*
X379730Y179610D02*
Y183610D01*
X402790Y48406D02*
X406790D01*
X404790Y46406D02*
Y50406D01*
X334940Y65853D02*
X338940D01*
X336940Y63853D02*
Y67853D01*
X315500Y101600D02*
X319500D01*
X317500Y99600D02*
Y103600D01*
X319310Y121920D02*
X323310D01*
X321310Y119920D02*
Y123920D01*
X316770Y152400D02*
X320770D01*
X318770Y150400D02*
Y154400D01*
X517166Y65207D02*
X521166D01*
X519166Y63207D02*
Y67207D01*
X507473Y31605D02*
X511473D01*
X509473Y29605D02*
Y33605D01*
X455778Y36129D02*
X459778D01*
X457778Y34129D02*
Y38129D01*
X434454Y65207D02*
X438454D01*
X436454Y63207D02*
Y67207D01*
X418299Y81362D02*
X422299D01*
X420299Y79362D02*
Y83362D01*
X447377Y109794D02*
X451377D01*
X449377Y107794D02*
Y111794D01*
X453839Y150504D02*
X457839D01*
X455839Y148504D02*
Y152504D01*
X442208Y184106D02*
X446208D01*
X444208Y182106D02*
Y186106D01*
X417006Y195092D02*
X421007D01*
X419007Y193092D02*
Y197092D01*
X371380Y209550D02*
X375380D01*
X373380Y207550D02*
Y211550D01*
X315500Y222250D02*
X319500D01*
X317500Y220250D02*
Y224250D01*
X259620Y205740D02*
X263620D01*
X261620Y203740D02*
Y207740D01*
X311690Y190500D02*
X315690D01*
X313690Y188500D02*
Y192500D01*
X338360Y250190D02*
X342360D01*
X340360Y248190D02*
Y252190D01*
X435100Y257126D02*
X439100D01*
X437100Y255126D02*
Y259126D01*
X402144Y264880D02*
X406144D01*
X404144Y262880D02*
Y266880D01*
X364665Y286850D02*
X368665D01*
X366665Y284851D02*
Y288850D01*
X318040Y289560D02*
X322040D01*
X320040Y287560D02*
Y291560D01*
X292640Y256540D02*
X296640D01*
X294640Y254540D02*
Y258540D01*
X254540Y358140D02*
X258540D01*
X256540Y356140D02*
Y360140D01*
X336879Y330145D02*
X340879D01*
X338879Y328145D02*
Y332145D01*
X288830Y313690D02*
X292830D01*
X290830Y311690D02*
Y315690D01*
X306508Y349531D02*
X310508D01*
X308508Y347531D02*
Y351531D01*
X363760Y367030D02*
X367760D01*
X365760Y365030D02*
Y369030D01*
X400205Y320452D02*
X404206D01*
X402206Y318452D02*
Y322453D01*
X438977Y301713D02*
X442977D01*
X440977Y299713D02*
Y303713D01*
X445439Y354054D02*
X449439D01*
X447439Y352054D02*
Y356054D01*
X457070Y436121D02*
X461070D01*
X459070Y434121D02*
Y438121D01*
X430576Y403811D02*
X434576D01*
X432576Y401811D02*
Y405811D01*
X399320Y373380D02*
X403320D01*
X401320Y371380D02*
Y375380D01*
X373920Y410210D02*
X377920D01*
X375920Y408210D02*
Y412210D01*
X276783Y362455D02*
X280783D01*
X278783Y360455D02*
Y364455D01*
X392970Y435610D02*
X396970D01*
X394970Y433610D02*
Y437610D01*
X429803Y449453D02*
X433803D01*
X431803Y447453D02*
Y451453D01*
X457740Y486410D02*
X461740D01*
X459740Y484410D02*
Y488410D01*
X437420Y520700D02*
X441420D01*
X439420Y518700D02*
Y522700D01*
X421181Y494218D02*
X425181D01*
X423181Y492218D02*
Y496218D01*
X387358Y465701D02*
X391358D01*
X389358Y463701D02*
Y467701D01*
X375190Y502920D02*
X379190D01*
X377190Y500920D02*
Y504920D01*
X273590Y549910D02*
X277590D01*
X275590Y547910D02*
Y551910D01*
X277931Y522073D02*
X281931D01*
X279931Y520073D02*
Y524073D01*
X310420Y518160D02*
X314420D01*
X312420Y516160D02*
Y520160D01*
X351060Y520700D02*
X355060D01*
X353060Y518700D02*
Y522700D01*
X326930Y546100D02*
X330930D01*
X328930Y544100D02*
Y548100D01*
X304070Y561340D02*
X308070D01*
X306070Y559340D02*
Y563340D01*
X363760Y549910D02*
X367760D01*
X365760Y547910D02*
Y551910D01*
X382810Y532130D02*
X386810D01*
X384810Y530130D02*
Y534130D01*
X401860Y519430D02*
X405860D01*
X403860Y517430D02*
Y521430D01*
X447580Y535940D02*
X451580D01*
X449580Y533940D02*
Y537940D01*
X461550Y549910D02*
X465550D01*
X463550Y547910D02*
Y551910D01*
X467502Y572745D02*
X471502D01*
X469502Y570745D02*
Y574745D01*
X479330Y637540D02*
X483330D01*
X481330Y635540D02*
Y639540D01*
X522059Y690945D02*
X526059D01*
X524059Y688945D02*
Y692945D01*
X479330Y701040D02*
X483330D01*
X481330Y699040D02*
Y703040D01*
X449492Y705601D02*
X453492D01*
X451492Y703601D02*
Y707601D01*
X436150Y695960D02*
X440150D01*
X438150Y693960D02*
Y697960D01*
X379000Y631190D02*
X383000D01*
X381000Y629190D02*
Y633190D01*
X438690Y670560D02*
X442690D01*
X440690Y668560D02*
Y672560D01*
X359950Y632460D02*
X363950D01*
X361950Y630460D02*
Y634460D01*
X357410Y579120D02*
X361410D01*
X359410Y577120D02*
Y581120D01*
X344077Y604998D02*
X348078D01*
X346077Y602998D02*
Y606998D01*
X337090Y571500D02*
X341090D01*
X339090Y569500D02*
Y573500D01*
X310397Y587502D02*
X314397D01*
X312397Y585502D02*
Y589502D01*
X313022Y608935D02*
X317022D01*
X315022Y606935D02*
Y610935D01*
X333280Y629920D02*
X337280D01*
X335280Y627920D02*
Y631920D01*
X269780Y568960D02*
X273780D01*
X271780Y566960D02*
Y570960D01*
X283750Y586740D02*
X287750D01*
X285750Y584740D02*
Y588740D01*
X287215Y614183D02*
X291215D01*
X289215Y612183D02*
Y616183D01*
X290100Y637540D02*
X294100D01*
X292100Y635540D02*
Y639540D01*
X36100Y687950D02*
X40100D01*
X38100Y685950D02*
Y689950D01*
X12857Y694092D02*
X16857D01*
X14857Y692092D02*
Y696092D01*
X64040Y717550D02*
X68040D01*
X66040Y715550D02*
Y719550D01*
X52610Y698500D02*
X56610D01*
X54610Y696500D02*
Y700500D01*
X83090Y704850D02*
X87090D01*
X85090Y702850D02*
Y706850D01*
X93250Y722630D02*
X97250D01*
X95250Y720630D02*
Y724630D01*
X127562Y723972D02*
X131562D01*
X129562Y721972D02*
Y725972D01*
X114840Y713740D02*
X118840D01*
X116840Y711740D02*
Y715740D01*
X118650Y694690D02*
X122650D01*
X120650Y692690D02*
Y696690D01*
X98330Y673490D02*
X102330D01*
X100330Y671490D02*
Y675490D01*
X126270Y678180D02*
X130270D01*
X128270Y676180D02*
Y680180D01*
X179613Y431348D02*
X183613D01*
X181613Y429348D02*
Y433348D01*
X174530Y457200D02*
X178530D01*
X176530Y455200D02*
Y459200D01*
X71372Y492545D02*
X75372D01*
X73372Y490545D02*
Y494545D01*
X71575Y475963D02*
X75574D01*
X73575Y473963D02*
Y477963D01*
X69120Y450850D02*
X73120D01*
X71120Y448850D02*
Y452850D01*
X93250Y408940D02*
X97250D01*
X95250Y406940D02*
Y410940D01*
X128874Y409478D02*
X132874D01*
X130874Y407478D02*
Y411478D01*
X161830Y408940D02*
X165830D01*
X163830Y406940D02*
Y410940D01*
X229478Y346054D02*
X233477D01*
X231478Y344054D02*
Y348054D01*
X211107Y367487D02*
X215107D01*
X213107Y365487D02*
Y369487D01*
X183420Y375920D02*
X187420D01*
X185420Y373920D02*
Y377920D01*
X149130Y377190D02*
X153130D01*
X151130Y375190D02*
Y379190D01*
X201200Y396240D02*
X205200D01*
X203200Y394240D02*
Y398240D01*
X65310Y410210D02*
X69310D01*
X67310Y408210D02*
Y412210D01*
X116110Y386080D02*
X120110D01*
X118110Y384080D02*
Y388080D01*
X89440Y378460D02*
X93440D01*
X91440Y376460D02*
Y380460D01*
X67850Y363220D02*
X71850D01*
X69850Y361220D02*
Y365220D01*
X70390Y328930D02*
X74390D01*
X72390Y326930D02*
Y330930D01*
X95790Y342900D02*
X99790D01*
X97790Y340900D02*
Y344900D01*
X126270Y350520D02*
X130270D01*
X128270Y348520D02*
Y352520D01*
X173260Y356870D02*
X177260D01*
X175260Y354870D02*
Y358870D01*
X155480Y342900D02*
X159480D01*
X157480Y340900D02*
Y344900D01*
X238030Y370840D02*
X242030D01*
X240030Y368840D02*
Y372840D01*
X174364Y317186D02*
X178365D01*
X176364Y315186D02*
Y319186D01*
X173650Y294640D02*
X177650D01*
X175650Y292640D02*
Y296640D01*
X177070Y264160D02*
X181070D01*
X179070Y262160D02*
Y266160D01*
X124113Y240702D02*
X128113D01*
X126113Y238702D02*
Y242702D01*
X64040Y217170D02*
X68040D01*
X66040Y215170D02*
Y219170D01*
M02*
