G04*
G04 #@! TF.GenerationSoftware,Altium Limited,Altium Designer,25.8.1 (18)*
G04*
G04 Layer_Color=8388736*
%FSLAX44Y44*%
%MOMM*%
G71*
G04*
G04 #@! TF.SameCoordinates,B4FD2330-8F18-4F1E-BBFD-ABE2F71AA5CF*
G04*
G04*
G04 #@! TF.FilePolarity,Negative*
G04*
G01*
G75*
%ADD12C,1.4782*%
%ADD13R,1.4782X1.4782*%
%ADD14C,2.4532*%
%ADD15C,2.6032*%
%ADD16C,3.2032*%
D12*
X525780Y109220D02*
D03*
X500380D02*
D03*
X525780Y134620D02*
D03*
X500380D02*
D03*
X525780Y160020D02*
D03*
X500380D02*
D03*
X525780Y185420D02*
D03*
X500380D02*
D03*
X525780Y210820D02*
D03*
X500380D02*
D03*
X525780Y236220D02*
D03*
X500380D02*
D03*
X525780Y261620D02*
D03*
X500380D02*
D03*
X525780Y287020D02*
D03*
X500380D02*
D03*
X525780Y312420D02*
D03*
X500380D02*
D03*
X525780Y337820D02*
D03*
X500380D02*
D03*
X525780Y363220D02*
D03*
X500380D02*
D03*
X525780Y388620D02*
D03*
X500380D02*
D03*
X525780Y414020D02*
D03*
X500380D02*
D03*
X525780Y439420D02*
D03*
X500380D02*
D03*
X525780Y464820D02*
D03*
X500380D02*
D03*
X525780Y490220D02*
D03*
X500380D02*
D03*
X525780Y515620D02*
D03*
X500380D02*
D03*
X525780Y541020D02*
D03*
X500380D02*
D03*
X525780Y566420D02*
D03*
X500380D02*
D03*
X525780Y591820D02*
D03*
X500380D02*
D03*
X525780Y617220D02*
D03*
X500380D02*
D03*
X525780Y642620D02*
D03*
X500380D02*
D03*
X525780Y668020D02*
D03*
X44450Y109220D02*
D03*
X19050D02*
D03*
X44450Y134620D02*
D03*
X19050D02*
D03*
X44450Y160020D02*
D03*
X19050D02*
D03*
X44450Y185420D02*
D03*
X19050D02*
D03*
X44450Y210820D02*
D03*
X19050D02*
D03*
X44450Y236220D02*
D03*
X19050D02*
D03*
X44450Y261620D02*
D03*
X19050D02*
D03*
X44450Y287020D02*
D03*
X19050D02*
D03*
X44450Y312420D02*
D03*
X19050D02*
D03*
X44450Y337820D02*
D03*
X19050D02*
D03*
X44450Y363220D02*
D03*
X19050D02*
D03*
X44450Y388620D02*
D03*
X19050D02*
D03*
X44450Y414020D02*
D03*
X19050D02*
D03*
X44450Y439420D02*
D03*
X19050D02*
D03*
X44450Y464820D02*
D03*
X19050D02*
D03*
X44450Y490220D02*
D03*
X19050D02*
D03*
X44450Y515620D02*
D03*
X19050D02*
D03*
X44450Y541020D02*
D03*
X19050D02*
D03*
X44450Y566420D02*
D03*
X19050D02*
D03*
X44450Y591820D02*
D03*
X19050D02*
D03*
X44450Y617220D02*
D03*
X19050D02*
D03*
X44450Y642620D02*
D03*
X19050D02*
D03*
X44450Y668020D02*
D03*
D13*
X500380D02*
D03*
X19050D02*
D03*
D14*
X419100Y598170D02*
D03*
X124460D02*
D03*
X123190Y436880D02*
D03*
X121920Y185420D02*
D03*
D15*
X393700Y623570D02*
D03*
Y572770D02*
D03*
X444500D02*
D03*
Y623570D02*
D03*
X149860D02*
D03*
Y572770D02*
D03*
X99060D02*
D03*
Y623570D02*
D03*
X148590Y462280D02*
D03*
Y411480D02*
D03*
X97790D02*
D03*
Y462280D02*
D03*
X147320Y210820D02*
D03*
Y160020D02*
D03*
X96520D02*
D03*
Y210820D02*
D03*
D16*
X514350Y717550D02*
D03*
X482600Y58420D02*
D03*
X62230Y55880D02*
D03*
X30480Y717550D02*
D03*
M02*
