G04*
G04 #@! TF.GenerationSoftware,Altium Limited,Altium Designer,25.8.1 (18)*
G04*
G04 Layer_Color=65535*
%FSLAX44Y44*%
%MOMM*%
G71*
G04*
G04 #@! TF.SameCoordinates,B4FD2330-8F18-4F1E-BBFD-ABE2F71AA5CF*
G04*
G04*
G04 #@! TF.FilePolarity,Positive*
G04*
G01*
G75*
%ADD10C,0.2000*%
%ADD11C,0.2540*%
G36*
X263677Y70627D02*
X263536D01*
Y69777D01*
X263394D01*
Y69070D01*
X263253D01*
Y68362D01*
X264951D01*
Y67372D01*
X262970D01*
Y66806D01*
X262828D01*
Y66098D01*
X262687D01*
Y65391D01*
X262545D01*
Y65107D01*
X264527D01*
Y64117D01*
X262404D01*
Y63834D01*
X262262D01*
Y63126D01*
X262121D01*
Y62419D01*
X261979D01*
Y61711D01*
X261838D01*
Y61287D01*
X260847D01*
Y61428D01*
X260989D01*
Y62136D01*
X261130D01*
Y62702D01*
X261272D01*
Y63409D01*
X261413D01*
Y64117D01*
X259432D01*
Y63975D01*
X259291D01*
Y63268D01*
X259149D01*
Y62560D01*
X259007D01*
Y61711D01*
X258866D01*
Y61287D01*
X258017D01*
Y61994D01*
X258158D01*
Y62843D01*
X258300D01*
Y63551D01*
X258441D01*
Y64117D01*
X256743D01*
Y65107D01*
X258724D01*
Y65815D01*
X258866D01*
Y66523D01*
X259007D01*
Y67230D01*
X259149D01*
Y67372D01*
X257168D01*
Y68362D01*
X259291D01*
Y68787D01*
X259432D01*
Y69636D01*
X259573D01*
Y70343D01*
X259715D01*
Y71051D01*
X259856D01*
Y71334D01*
X260706D01*
Y70627D01*
X260564D01*
Y69919D01*
X260423D01*
Y69211D01*
X260281D01*
Y68362D01*
X262262D01*
Y68504D01*
X262404D01*
Y69353D01*
X262545D01*
Y70061D01*
X262687D01*
Y70768D01*
X262828D01*
Y71334D01*
X263677D01*
Y70627D01*
D02*
G37*
G36*
X246979Y68787D02*
X247262D01*
Y68079D01*
X247120D01*
Y67655D01*
X246979D01*
Y67796D01*
X245705D01*
Y67655D01*
X245422D01*
Y67513D01*
X245139D01*
Y67372D01*
X244998D01*
Y67230D01*
X244856D01*
Y67089D01*
X244715D01*
Y66947D01*
X244573D01*
Y66664D01*
X244431D01*
Y66523D01*
X244290D01*
Y66098D01*
X244148D01*
Y61287D01*
X243016D01*
Y68787D01*
X243865D01*
Y68362D01*
X244007D01*
Y67938D01*
Y67796D01*
Y67372D01*
X244290D01*
Y67655D01*
X244431D01*
Y67796D01*
X244573D01*
Y67938D01*
X244715D01*
Y68079D01*
X244856D01*
Y68221D01*
X244998D01*
Y68362D01*
X245139D01*
Y68504D01*
X245280D01*
Y68645D01*
X245564D01*
Y68787D01*
X246130D01*
Y68928D01*
X246979D01*
Y68787D01*
D02*
G37*
G36*
X267498D02*
X267781D01*
Y68645D01*
X267923D01*
Y68504D01*
X268064D01*
Y67513D01*
X267923D01*
Y67372D01*
X267781D01*
Y67230D01*
X267498D01*
Y67089D01*
X267074D01*
Y67230D01*
X266649D01*
Y67372D01*
X266508D01*
Y67796D01*
X266366D01*
Y68221D01*
X266508D01*
Y68645D01*
X266649D01*
Y68787D01*
X266932D01*
Y68928D01*
X267498D01*
Y68787D01*
D02*
G37*
G36*
X301037Y64541D02*
X297641D01*
Y65532D01*
X301037D01*
Y64541D01*
D02*
G37*
G36*
X293962Y62419D02*
Y62277D01*
Y61287D01*
X292829D01*
Y69919D01*
X292688D01*
Y69777D01*
X292546D01*
Y69636D01*
X292263D01*
Y69494D01*
X292122D01*
Y69353D01*
X291980D01*
Y69211D01*
X291839D01*
Y69070D01*
X291697D01*
Y68928D01*
X291414D01*
Y68787D01*
X291273D01*
Y68645D01*
X291131D01*
Y68504D01*
X290707D01*
Y68787D01*
X290565D01*
Y68928D01*
X290424D01*
Y69070D01*
X290282D01*
Y69211D01*
X290424D01*
Y69353D01*
X290565D01*
Y69494D01*
X290848D01*
Y69636D01*
X290990D01*
Y69777D01*
X291131D01*
Y69919D01*
X291273D01*
Y70061D01*
X291556D01*
Y70202D01*
X291697D01*
Y70343D01*
X291839D01*
Y70485D01*
X291980D01*
Y70627D01*
X292263D01*
Y70768D01*
X292405D01*
Y70910D01*
X292546D01*
Y71051D01*
X292688D01*
Y71193D01*
X292971D01*
Y71334D01*
X293962D01*
Y62419D01*
D02*
G37*
G36*
X238346Y68787D02*
X239054D01*
Y68645D01*
X239478D01*
Y68504D01*
X239620D01*
Y68362D01*
X239903D01*
Y68221D01*
X240044D01*
Y67938D01*
X240186D01*
Y67796D01*
X240327D01*
Y67372D01*
X240469D01*
Y61287D01*
X239620D01*
Y61853D01*
X239478D01*
Y62419D01*
X239337D01*
Y62277D01*
X239195D01*
Y62136D01*
X239054D01*
Y61994D01*
X238912D01*
Y61853D01*
X238771D01*
Y61711D01*
X238488D01*
Y61570D01*
X238346D01*
Y61428D01*
X238063D01*
Y61287D01*
X237356D01*
Y61145D01*
X236365D01*
Y61287D01*
X235799D01*
Y61428D01*
X235516D01*
Y61570D01*
X235233D01*
Y61711D01*
X235091D01*
Y61853D01*
X234950D01*
Y61994D01*
X234809D01*
Y62277D01*
X234667D01*
Y62702D01*
X234526D01*
Y62843D01*
Y62985D01*
Y64117D01*
X234667D01*
Y64400D01*
X234809D01*
Y64683D01*
X234950D01*
Y64824D01*
X235091D01*
Y64966D01*
X235233D01*
Y65107D01*
X235375D01*
Y65249D01*
X235658D01*
Y65391D01*
X235941D01*
Y65532D01*
X236365D01*
Y65673D01*
X237356D01*
Y65815D01*
X239337D01*
Y67089D01*
X239195D01*
Y67372D01*
X239054D01*
Y67513D01*
X238912D01*
Y67655D01*
X238771D01*
Y67796D01*
X238346D01*
Y67938D01*
X237073D01*
Y67796D01*
X236507D01*
Y67655D01*
X236224D01*
Y67513D01*
X235799D01*
Y67372D01*
X235658D01*
Y67655D01*
X235516D01*
Y67938D01*
X235375D01*
Y68362D01*
X235658D01*
Y68504D01*
X236082D01*
Y68645D01*
X236507D01*
Y68787D01*
X237356D01*
Y68928D01*
X238346D01*
Y68787D01*
D02*
G37*
G36*
X229997Y71193D02*
X230988D01*
Y71051D01*
X231412D01*
Y70910D01*
X231695D01*
Y70768D01*
X231978D01*
Y70627D01*
X232120D01*
Y70485D01*
X232261D01*
Y70343D01*
X232403D01*
Y70202D01*
X232544D01*
Y70061D01*
X232686D01*
Y69777D01*
X232827D01*
Y69353D01*
X232969D01*
Y68645D01*
X233110D01*
Y68221D01*
X232969D01*
Y67372D01*
X232827D01*
Y67089D01*
X232686D01*
Y66806D01*
X232544D01*
Y66523D01*
X232403D01*
Y66381D01*
X232261D01*
Y66240D01*
X232120D01*
Y66098D01*
X231978D01*
Y65957D01*
X231837D01*
Y65815D01*
X231554D01*
Y65673D01*
X231271D01*
Y65532D01*
X230846D01*
Y65391D01*
X230138D01*
Y65249D01*
X227874D01*
Y61287D01*
X226742D01*
Y68362D01*
Y68504D01*
Y71334D01*
X229997D01*
Y71193D01*
D02*
G37*
G36*
X322123Y71334D02*
X322830D01*
Y71193D01*
X323113D01*
Y71051D01*
X323396D01*
Y70910D01*
X323538D01*
Y70768D01*
X323680D01*
Y70627D01*
X323821D01*
Y70485D01*
X323963D01*
Y70343D01*
X324104D01*
Y70202D01*
X324245D01*
Y69919D01*
X324387D01*
Y69636D01*
X324529D01*
Y69211D01*
X324670D01*
Y68787D01*
X324812D01*
Y68079D01*
X324953D01*
Y67372D01*
Y67230D01*
Y64400D01*
X324812D01*
Y63692D01*
X324670D01*
Y63268D01*
X324529D01*
Y62985D01*
X324387D01*
Y62702D01*
X324245D01*
Y62419D01*
X324104D01*
Y62277D01*
X323963D01*
Y61994D01*
X323821D01*
Y61853D01*
X323680D01*
Y61711D01*
X323396D01*
Y61570D01*
X323255D01*
Y61428D01*
X322830D01*
Y61287D01*
X322264D01*
Y61145D01*
X321274D01*
Y61287D01*
X320708D01*
Y61428D01*
X320283D01*
Y61570D01*
X320142D01*
Y61711D01*
X319859D01*
Y61853D01*
X319717D01*
Y61994D01*
X319576D01*
Y62136D01*
X319434D01*
Y62419D01*
X319293D01*
Y62560D01*
X319151D01*
Y62843D01*
X319009D01*
Y63268D01*
X318868D01*
Y63692D01*
X318727D01*
Y64258D01*
X318585D01*
Y65107D01*
X318443D01*
Y67513D01*
X318585D01*
Y68504D01*
X318727D01*
Y69070D01*
X318868D01*
Y69494D01*
X319009D01*
Y69777D01*
X319151D01*
Y70061D01*
X319293D01*
Y70343D01*
X319434D01*
Y70485D01*
X319576D01*
Y70627D01*
X319717D01*
Y70768D01*
X319859D01*
Y70910D01*
X320000D01*
Y71051D01*
X320283D01*
Y71193D01*
X320566D01*
Y71334D01*
X321274D01*
Y71476D01*
X322123D01*
Y71334D01*
D02*
G37*
G36*
X314056D02*
X314764D01*
Y71193D01*
X315047D01*
Y71051D01*
X315330D01*
Y70910D01*
X315472D01*
Y70768D01*
X315613D01*
Y70627D01*
X315755D01*
Y70485D01*
X315896D01*
Y70343D01*
X316038D01*
Y70202D01*
X316179D01*
Y69919D01*
X316321D01*
Y69636D01*
X316462D01*
Y69211D01*
X316604D01*
Y68787D01*
X316745D01*
Y68079D01*
X316887D01*
Y64400D01*
X316745D01*
Y63692D01*
X316604D01*
Y63268D01*
X316462D01*
Y62985D01*
X316321D01*
Y62702D01*
X316179D01*
Y62419D01*
X316038D01*
Y62277D01*
X315896D01*
Y61994D01*
X315755D01*
Y61853D01*
X315613D01*
Y61711D01*
X315330D01*
Y61570D01*
X315189D01*
Y61428D01*
X314764D01*
Y61287D01*
X314198D01*
Y61145D01*
X313207D01*
Y61287D01*
X312641D01*
Y61428D01*
X312217D01*
Y61570D01*
X312075D01*
Y61711D01*
X311792D01*
Y61853D01*
X311651D01*
Y61994D01*
X311509D01*
Y62136D01*
X311368D01*
Y62419D01*
X311226D01*
Y62560D01*
X311085D01*
Y62843D01*
X310943D01*
Y63268D01*
X310802D01*
Y63692D01*
X310660D01*
Y64258D01*
X310519D01*
Y65107D01*
X310377D01*
Y67513D01*
X310519D01*
Y68504D01*
X310660D01*
Y69070D01*
X310802D01*
Y69494D01*
X310943D01*
Y69777D01*
X311085D01*
Y70061D01*
X311226D01*
Y70343D01*
X311368D01*
Y70485D01*
X311509D01*
Y70627D01*
X311651D01*
Y70768D01*
X311792D01*
Y70910D01*
X311934D01*
Y71051D01*
X312217D01*
Y71193D01*
X312500D01*
Y71334D01*
X313207D01*
Y71476D01*
X314056D01*
Y71334D01*
D02*
G37*
G36*
X305990D02*
X306698D01*
Y71193D01*
X306981D01*
Y71051D01*
X307264D01*
Y70910D01*
X307405D01*
Y70768D01*
X307547D01*
Y70627D01*
X307688D01*
Y70485D01*
X307830D01*
Y70343D01*
X307971D01*
Y70202D01*
X308113D01*
Y69919D01*
X308254D01*
Y69636D01*
X308396D01*
Y69211D01*
X308537D01*
Y68787D01*
X308679D01*
Y68079D01*
X308820D01*
Y64683D01*
Y64541D01*
Y64400D01*
X308679D01*
Y63692D01*
X308537D01*
Y63268D01*
X308396D01*
Y62985D01*
X308254D01*
Y62702D01*
X308113D01*
Y62419D01*
X307971D01*
Y62277D01*
X307830D01*
Y61994D01*
X307688D01*
Y61853D01*
X307547D01*
Y61711D01*
X307264D01*
Y61570D01*
X307122D01*
Y61428D01*
X306698D01*
Y61287D01*
X306132D01*
Y61145D01*
X305141D01*
Y61287D01*
X304575D01*
Y61428D01*
X304151D01*
Y61570D01*
X304009D01*
Y61711D01*
X303726D01*
Y61853D01*
X303584D01*
Y61994D01*
X303443D01*
Y62136D01*
X303301D01*
Y62419D01*
X303160D01*
Y62560D01*
X303018D01*
Y62843D01*
X302877D01*
Y63268D01*
X302735D01*
Y63692D01*
X302594D01*
Y64258D01*
X302452D01*
Y65107D01*
X302311D01*
Y67513D01*
X302452D01*
Y68504D01*
X302594D01*
Y69070D01*
X302735D01*
Y69494D01*
X302877D01*
Y69777D01*
X303018D01*
Y70061D01*
X303160D01*
Y70343D01*
X303301D01*
Y70485D01*
X303443D01*
Y70627D01*
X303584D01*
Y70768D01*
X303726D01*
Y70910D01*
X303867D01*
Y71051D01*
X304151D01*
Y71193D01*
X304433D01*
Y71334D01*
X305141D01*
Y71476D01*
X305990D01*
Y71334D01*
D02*
G37*
G36*
X285329D02*
X286037D01*
Y71193D01*
X286320D01*
Y71051D01*
X286603D01*
Y70910D01*
X286744D01*
Y70768D01*
X286886D01*
Y70627D01*
X287027D01*
Y70485D01*
X287169D01*
Y70343D01*
X287310D01*
Y70202D01*
X287452D01*
Y69919D01*
X287593D01*
Y69636D01*
X287735D01*
Y69211D01*
X287876D01*
Y68787D01*
X288018D01*
Y68079D01*
X288159D01*
Y64400D01*
X288018D01*
Y63692D01*
X287876D01*
Y63268D01*
X287735D01*
Y62985D01*
X287593D01*
Y62702D01*
X287452D01*
Y62419D01*
X287310D01*
Y62277D01*
X287169D01*
Y61994D01*
X287027D01*
Y61853D01*
X286886D01*
Y61711D01*
X286603D01*
Y61570D01*
X286461D01*
Y61428D01*
X286037D01*
Y61287D01*
X285471D01*
Y61145D01*
X284480D01*
Y61287D01*
X283914D01*
Y61428D01*
X283489D01*
Y61570D01*
X283348D01*
Y61711D01*
X283065D01*
Y61853D01*
X282923D01*
Y61994D01*
X282782D01*
Y62136D01*
X282640D01*
Y62419D01*
X282499D01*
Y62560D01*
X282357D01*
Y62843D01*
X282216D01*
Y63268D01*
X282074D01*
Y63692D01*
X281933D01*
Y64258D01*
X281791D01*
Y65107D01*
X281650D01*
Y67513D01*
X281791D01*
Y68504D01*
X281933D01*
Y69070D01*
X282074D01*
Y69494D01*
X282216D01*
Y69777D01*
X282357D01*
Y70061D01*
X282499D01*
Y70343D01*
X282640D01*
Y70485D01*
X282782D01*
Y70627D01*
X282923D01*
Y70768D01*
X283065D01*
Y70910D01*
X283206D01*
Y71051D01*
X283489D01*
Y71193D01*
X283772D01*
Y71334D01*
X284480D01*
Y71476D01*
X285329D01*
Y71334D01*
D02*
G37*
G36*
X277263D02*
X277970D01*
Y71193D01*
X278253D01*
Y71051D01*
X278536D01*
Y70910D01*
X278678D01*
Y70768D01*
X278819D01*
Y70627D01*
X278961D01*
Y70485D01*
X279102D01*
Y70343D01*
X279244D01*
Y70202D01*
X279386D01*
Y69919D01*
X279527D01*
Y69636D01*
X279669D01*
Y69211D01*
X279810D01*
Y68787D01*
X279951D01*
Y68504D01*
Y68362D01*
Y68079D01*
X280093D01*
Y64400D01*
X279951D01*
Y63692D01*
X279810D01*
Y63268D01*
X279669D01*
Y62985D01*
X279527D01*
Y62702D01*
X279386D01*
Y62419D01*
X279244D01*
Y62277D01*
X279102D01*
Y61994D01*
X278961D01*
Y61853D01*
X278819D01*
Y61711D01*
X278536D01*
Y61570D01*
X278395D01*
Y61428D01*
X277970D01*
Y61287D01*
X277404D01*
Y61145D01*
X276414D01*
Y61287D01*
X275848D01*
Y61428D01*
X275423D01*
Y61570D01*
X275282D01*
Y61711D01*
X274998D01*
Y61853D01*
X274857D01*
Y61994D01*
X274715D01*
Y62136D01*
X274574D01*
Y62419D01*
X274433D01*
Y62560D01*
X274291D01*
Y62843D01*
X274149D01*
Y63268D01*
X274008D01*
Y63692D01*
X273866D01*
Y64258D01*
X273725D01*
Y65107D01*
X273583D01*
Y67513D01*
X273725D01*
Y68504D01*
X273866D01*
Y69070D01*
X274008D01*
Y69494D01*
X274149D01*
Y69777D01*
X274291D01*
Y70061D01*
X274433D01*
Y70343D01*
X274574D01*
Y70485D01*
X274715D01*
Y70627D01*
X274857D01*
Y70768D01*
X274998D01*
Y70910D01*
X275140D01*
Y71051D01*
X275423D01*
Y71193D01*
X275706D01*
Y71334D01*
X276414D01*
Y71476D01*
X277263D01*
Y71334D01*
D02*
G37*
G36*
X267498Y62843D02*
X267781D01*
Y62702D01*
X267923D01*
Y62560D01*
X268064D01*
Y61570D01*
X267923D01*
Y61428D01*
X267781D01*
Y61287D01*
X267498D01*
Y61145D01*
X267074D01*
Y61287D01*
X266649D01*
Y61428D01*
X266508D01*
Y61853D01*
X266366D01*
Y61994D01*
Y62277D01*
X266508D01*
Y62702D01*
X266649D01*
Y62843D01*
X266932D01*
Y62985D01*
X267498D01*
Y62843D01*
D02*
G37*
G36*
X250092Y68787D02*
X252215D01*
Y67796D01*
X250092D01*
Y62843D01*
X250233D01*
Y62560D01*
X250375D01*
Y62419D01*
X250517D01*
Y62277D01*
X250800D01*
Y62136D01*
X251932D01*
Y62277D01*
X252215D01*
Y61287D01*
X251507D01*
Y61145D01*
X250658D01*
Y61287D01*
X250092D01*
Y61428D01*
X249667D01*
Y61570D01*
X249526D01*
Y61711D01*
X249384D01*
Y61853D01*
X249243D01*
Y62136D01*
X249101D01*
Y62419D01*
X248960D01*
Y63126D01*
X248818D01*
Y67796D01*
X247828D01*
Y68362D01*
X247969D01*
Y68504D01*
X248252D01*
Y68645D01*
X248535D01*
Y68787D01*
X248818D01*
Y68928D01*
X248960D01*
Y69353D01*
X249101D01*
Y69777D01*
X249243D01*
Y69919D01*
Y70343D01*
X249384D01*
Y70485D01*
X250092D01*
Y68787D01*
D02*
G37*
G36*
X263111Y51381D02*
X262970D01*
Y50532D01*
X262828D01*
Y49824D01*
X262687D01*
Y49116D01*
X264385D01*
Y48126D01*
X262404D01*
Y47560D01*
X262262D01*
Y46852D01*
X262121D01*
Y46144D01*
X261979D01*
Y45862D01*
X263960D01*
Y44871D01*
X261838D01*
Y44588D01*
X261696D01*
Y43880D01*
X261555D01*
Y43173D01*
X261413D01*
Y42465D01*
X261272D01*
Y42041D01*
X260281D01*
Y42182D01*
X260423D01*
Y42890D01*
X260564D01*
Y43456D01*
X260706D01*
Y44163D01*
X260847D01*
Y44871D01*
X258866D01*
Y44729D01*
X258724D01*
Y44022D01*
X258583D01*
Y43314D01*
X258441D01*
Y42465D01*
X258300D01*
Y42041D01*
X257451D01*
Y42748D01*
X257592D01*
Y43597D01*
X257734D01*
Y44305D01*
X257875D01*
Y44871D01*
X256177D01*
Y45862D01*
X258158D01*
Y46569D01*
X258300D01*
Y47277D01*
X258441D01*
Y47984D01*
X258583D01*
Y48126D01*
X256602D01*
Y49116D01*
X258724D01*
Y49541D01*
X258866D01*
Y50390D01*
X259007D01*
Y51097D01*
X259149D01*
Y51805D01*
X259291D01*
Y52088D01*
X260140D01*
Y51381D01*
X259998D01*
Y50673D01*
X259856D01*
Y49965D01*
X259715D01*
Y49116D01*
X261696D01*
Y49258D01*
X261838D01*
Y50107D01*
X261979D01*
Y50814D01*
X262121D01*
Y51522D01*
X262262D01*
Y52088D01*
X263111D01*
Y51381D01*
D02*
G37*
G36*
X266932Y49541D02*
X267215D01*
Y49399D01*
X267357D01*
Y49258D01*
X267498D01*
Y48267D01*
X267357D01*
Y48126D01*
X267215D01*
Y47984D01*
X266932D01*
Y47843D01*
X266508D01*
Y47984D01*
X266083D01*
Y48126D01*
X265942D01*
Y48550D01*
X265800D01*
Y48975D01*
X265942D01*
Y49399D01*
X266083D01*
Y49541D01*
X266366D01*
Y49682D01*
X266932D01*
Y49541D01*
D02*
G37*
G36*
X248818Y49399D02*
X248677D01*
Y48975D01*
X248535D01*
Y48550D01*
X248394D01*
Y48267D01*
X248252D01*
Y47843D01*
X248111D01*
Y47560D01*
X247969D01*
Y47135D01*
X247828D01*
Y46711D01*
X247686D01*
Y46428D01*
X247545D01*
Y46003D01*
X247403D01*
Y45578D01*
X247262D01*
Y45296D01*
X247120D01*
Y44871D01*
X246979D01*
Y44588D01*
X246837D01*
Y44163D01*
X246696D01*
Y43739D01*
X246554D01*
Y43456D01*
X246413D01*
Y43031D01*
X246271D01*
Y42607D01*
X246130D01*
Y42324D01*
X245988D01*
Y42041D01*
X244573D01*
Y42324D01*
X244431D01*
Y42748D01*
X244290D01*
Y43173D01*
X244148D01*
Y43456D01*
X244007D01*
Y43880D01*
X243865D01*
Y44305D01*
X243724D01*
Y44588D01*
X243582D01*
Y45012D01*
X243441D01*
Y45296D01*
X243299D01*
Y45720D01*
X243158D01*
Y46144D01*
X243016D01*
Y46428D01*
X242875D01*
Y46852D01*
X242733D01*
Y47277D01*
X242592D01*
Y47560D01*
X242450D01*
Y47984D01*
X242309D01*
Y48409D01*
X242167D01*
Y48692D01*
X242026D01*
Y49116D01*
X241884D01*
Y49399D01*
X241743D01*
Y49541D01*
X243016D01*
Y49399D01*
X243158D01*
Y48975D01*
X243299D01*
Y48550D01*
X243441D01*
Y48126D01*
X243582D01*
Y47843D01*
X243724D01*
Y47418D01*
X243865D01*
Y46994D01*
X244007D01*
Y46569D01*
X244148D01*
Y46144D01*
X244290D01*
Y45862D01*
X244431D01*
Y45437D01*
X244573D01*
Y45012D01*
X244715D01*
Y44588D01*
X244856D01*
Y44163D01*
X244998D01*
Y43739D01*
X245139D01*
Y43173D01*
X245422D01*
Y43597D01*
X245564D01*
Y44022D01*
X245705D01*
Y44446D01*
X245847D01*
Y44871D01*
X245988D01*
Y45296D01*
X246130D01*
Y45720D01*
X246271D01*
Y46144D01*
X246413D01*
Y46428D01*
X246554D01*
Y46852D01*
X246696D01*
Y47277D01*
X246837D01*
Y47701D01*
X246979D01*
Y48126D01*
X247120D01*
Y48409D01*
X247262D01*
Y48692D01*
Y48833D01*
X247403D01*
Y49258D01*
X247545D01*
Y49541D01*
X248818D01*
Y49399D01*
D02*
G37*
G36*
X230138Y51947D02*
X230988D01*
Y51805D01*
X231412D01*
Y51664D01*
X231837D01*
Y51522D01*
X231978D01*
Y51381D01*
X232261D01*
Y51239D01*
X232403D01*
Y51097D01*
X232544D01*
Y50814D01*
X232686D01*
Y50673D01*
X232827D01*
Y50248D01*
X232969D01*
Y49399D01*
X233110D01*
Y48975D01*
X232969D01*
Y48126D01*
X232827D01*
Y47843D01*
X232686D01*
Y47560D01*
X232544D01*
Y47418D01*
X232403D01*
Y47277D01*
X232261D01*
Y47135D01*
X232120D01*
Y46994D01*
X231837D01*
Y46852D01*
X231695D01*
Y46711D01*
X231412D01*
Y46569D01*
X231129D01*
Y46286D01*
X231271D01*
Y46003D01*
X231412D01*
Y45720D01*
X231554D01*
Y45578D01*
X231695D01*
Y45296D01*
X231837D01*
Y45154D01*
X231978D01*
Y44871D01*
X232120D01*
Y44588D01*
X232261D01*
Y44446D01*
X232403D01*
Y44163D01*
X232544D01*
Y43880D01*
X232686D01*
Y43739D01*
X232827D01*
Y43456D01*
X232969D01*
Y43314D01*
X233110D01*
Y43031D01*
X233252D01*
Y42748D01*
X233393D01*
Y42607D01*
X233535D01*
Y42324D01*
X233676D01*
Y42041D01*
X232403D01*
Y42182D01*
X232261D01*
Y42465D01*
X232120D01*
Y42607D01*
X231978D01*
Y42890D01*
X231837D01*
Y43173D01*
X231695D01*
Y43314D01*
X231554D01*
Y43597D01*
X231412D01*
Y43880D01*
X231271D01*
Y44022D01*
X231129D01*
Y44305D01*
X230988D01*
Y44588D01*
X230846D01*
Y44729D01*
X230705D01*
Y45012D01*
X230563D01*
Y45296D01*
X230422D01*
Y45578D01*
X230280D01*
Y45720D01*
X230138D01*
Y46003D01*
X229997D01*
Y46144D01*
X227874D01*
Y42041D01*
X226742D01*
Y52088D01*
X230138D01*
Y51947D01*
D02*
G37*
G36*
X276697Y52088D02*
X277404D01*
Y51947D01*
X277687D01*
Y51805D01*
X277970D01*
Y51664D01*
X278112D01*
Y51522D01*
X278253D01*
Y51381D01*
X278395D01*
Y51239D01*
X278536D01*
Y51097D01*
X278678D01*
Y50956D01*
X278819D01*
Y50673D01*
X278961D01*
Y50390D01*
X279102D01*
Y49965D01*
X279244D01*
Y49541D01*
X279386D01*
Y48833D01*
X279527D01*
Y45154D01*
X279386D01*
Y44446D01*
X279244D01*
Y44022D01*
X279102D01*
Y43880D01*
Y43739D01*
X278961D01*
Y43456D01*
X278819D01*
Y43173D01*
X278678D01*
Y43031D01*
X278536D01*
Y42748D01*
X278395D01*
Y42607D01*
X278253D01*
Y42465D01*
X277970D01*
Y42324D01*
X277829D01*
Y42182D01*
X277404D01*
Y42041D01*
X276838D01*
Y41899D01*
X275848D01*
Y42041D01*
X275282D01*
Y42182D01*
X274857D01*
Y42324D01*
X274715D01*
Y42465D01*
X274433D01*
Y42607D01*
X274291D01*
Y42748D01*
X274149D01*
Y42890D01*
X274008D01*
Y43173D01*
X273866D01*
Y43314D01*
X273725D01*
Y43597D01*
X273583D01*
Y44022D01*
X273442D01*
Y44446D01*
X273300D01*
Y45012D01*
X273159D01*
Y45862D01*
X273017D01*
Y48267D01*
X273159D01*
Y49258D01*
X273300D01*
Y49824D01*
X273442D01*
Y50248D01*
X273583D01*
Y50532D01*
X273725D01*
Y50814D01*
X273866D01*
Y51097D01*
X274008D01*
Y51239D01*
X274149D01*
Y51381D01*
X274291D01*
Y51522D01*
X274433D01*
Y51664D01*
X274574D01*
Y51805D01*
X274857D01*
Y51947D01*
X275140D01*
Y52088D01*
X275848D01*
Y52230D01*
X276697D01*
Y52088D01*
D02*
G37*
G36*
X266932Y43597D02*
X267215D01*
Y43456D01*
X267357D01*
Y43314D01*
X267498D01*
Y42324D01*
X267357D01*
Y42182D01*
X267215D01*
Y42041D01*
X266932D01*
Y41899D01*
X266508D01*
Y42041D01*
X266083D01*
Y42182D01*
X265942D01*
Y42607D01*
X265800D01*
Y43031D01*
X265942D01*
Y43456D01*
X266083D01*
Y43597D01*
X266366D01*
Y43739D01*
X266932D01*
Y43597D01*
D02*
G37*
G36*
X250375D02*
X250658D01*
Y43456D01*
X250800D01*
Y43314D01*
X250941D01*
Y42324D01*
X250800D01*
Y42182D01*
X250658D01*
Y42041D01*
X250375D01*
Y41899D01*
X249951D01*
Y42041D01*
X249526D01*
Y42182D01*
X249384D01*
Y42607D01*
X249243D01*
Y43031D01*
X249384D01*
Y43456D01*
X249526D01*
Y43597D01*
X249809D01*
Y43739D01*
X250375D01*
Y43597D01*
D02*
G37*
G36*
X238629Y49541D02*
X239337D01*
Y49399D01*
X239620D01*
Y49258D01*
X239903D01*
Y49116D01*
X240044D01*
Y48975D01*
X240327D01*
Y48833D01*
X240469D01*
Y48550D01*
X240611D01*
Y48409D01*
X240752D01*
Y48126D01*
X240894D01*
Y47843D01*
X241035D01*
Y47418D01*
X241177D01*
Y45578D01*
X236082D01*
Y45012D01*
X236224D01*
Y44446D01*
X236365D01*
Y44022D01*
X236507D01*
Y43880D01*
X236648D01*
Y43597D01*
X236790D01*
Y43456D01*
X236931D01*
Y43314D01*
X237214D01*
Y43173D01*
X237497D01*
Y43031D01*
X237780D01*
Y42890D01*
X239478D01*
Y43031D01*
X240044D01*
Y43173D01*
X240611D01*
Y43314D01*
X240894D01*
Y42324D01*
X240469D01*
Y42182D01*
X240044D01*
Y42041D01*
X239195D01*
Y41899D01*
X237922D01*
Y42041D01*
X237214D01*
Y42182D01*
X236931D01*
Y42324D01*
X236507D01*
Y42465D01*
X236365D01*
Y42607D01*
X236082D01*
Y42748D01*
X235941D01*
Y42890D01*
X235799D01*
Y43031D01*
X235658D01*
Y43314D01*
X235516D01*
Y43456D01*
X235375D01*
Y43739D01*
X235233D01*
Y44163D01*
X235091D01*
Y44588D01*
X234950D01*
Y46852D01*
X235091D01*
Y47418D01*
X235233D01*
Y47843D01*
X235375D01*
Y48126D01*
X235516D01*
Y48267D01*
X235658D01*
Y48550D01*
X235799D01*
Y48692D01*
X235941D01*
Y48833D01*
X236082D01*
Y48975D01*
X236224D01*
Y49116D01*
X236507D01*
Y49258D01*
X236790D01*
Y49399D01*
X237073D01*
Y49541D01*
X237780D01*
Y49682D01*
X238629D01*
Y49541D01*
D02*
G37*
G36*
X230138Y32842D02*
X230988D01*
Y32701D01*
X231554D01*
Y32559D01*
X231978D01*
Y31993D01*
X231837D01*
Y31569D01*
X231695D01*
Y31427D01*
X231412D01*
Y31569D01*
X231129D01*
Y31710D01*
X230705D01*
Y31852D01*
X230138D01*
Y31993D01*
X228582D01*
Y31852D01*
X228157D01*
Y31710D01*
X228016D01*
Y31569D01*
X227874D01*
Y31427D01*
X227733D01*
Y31286D01*
X227591D01*
Y31003D01*
X227450D01*
Y29870D01*
X227591D01*
Y29587D01*
X227733D01*
Y29446D01*
X227874D01*
Y29304D01*
X228016D01*
Y29163D01*
X228157D01*
Y29021D01*
X228440D01*
Y28880D01*
X228723D01*
Y28738D01*
X229006D01*
Y28597D01*
X229289D01*
Y28455D01*
X229714D01*
Y28314D01*
X229997D01*
Y28172D01*
X230280D01*
Y28031D01*
X230563D01*
Y27889D01*
X230846D01*
Y27748D01*
X231129D01*
Y27606D01*
X231412D01*
Y27465D01*
X231554D01*
Y27323D01*
X231695D01*
Y27182D01*
X231837D01*
Y26899D01*
X231978D01*
Y26757D01*
X232120D01*
Y26332D01*
X232261D01*
Y24634D01*
X232120D01*
Y24210D01*
X231978D01*
Y24068D01*
X231837D01*
Y23785D01*
X231695D01*
Y23644D01*
X231554D01*
Y23502D01*
X231412D01*
Y23361D01*
X231129D01*
Y23219D01*
X230988D01*
Y23078D01*
X230563D01*
Y22936D01*
X230138D01*
Y22795D01*
X229431D01*
Y22653D01*
X228016D01*
Y22795D01*
X226884D01*
Y22936D01*
X226459D01*
Y23078D01*
X226035D01*
Y24210D01*
X226318D01*
Y24068D01*
X226601D01*
Y23927D01*
X227167D01*
Y23785D01*
X227874D01*
Y23644D01*
X229714D01*
Y23785D01*
X230138D01*
Y23927D01*
X230422D01*
Y24068D01*
X230563D01*
Y24210D01*
X230705D01*
Y24351D01*
X230846D01*
Y24493D01*
X230988D01*
Y24776D01*
X231129D01*
Y25908D01*
X230988D01*
Y26191D01*
X230846D01*
Y26332D01*
X230705D01*
Y26474D01*
X230563D01*
Y26616D01*
X230422D01*
Y26757D01*
X230138D01*
Y26899D01*
X229855D01*
Y27040D01*
X229573D01*
Y27182D01*
X229289D01*
Y27323D01*
X228865D01*
Y27465D01*
X228440D01*
Y27606D01*
X228157D01*
Y27748D01*
X227874D01*
Y27889D01*
X227591D01*
Y28031D01*
X227450D01*
Y28172D01*
X227167D01*
Y28314D01*
X227025D01*
Y28455D01*
X226884D01*
Y28597D01*
X226742D01*
Y28738D01*
X226601D01*
Y29021D01*
X226459D01*
Y29304D01*
X226318D01*
Y29870D01*
X226176D01*
Y30861D01*
X226318D01*
Y31427D01*
X226459D01*
Y31710D01*
X226601D01*
Y31852D01*
X226742D01*
Y31993D01*
X226884D01*
Y32135D01*
X227025D01*
Y32276D01*
X227167D01*
Y32418D01*
X227450D01*
Y32559D01*
X227733D01*
Y32701D01*
X228157D01*
Y32842D01*
X228865D01*
Y32984D01*
X230138D01*
Y32842D01*
D02*
G37*
G36*
X262970Y32135D02*
X262828D01*
Y31286D01*
X262687D01*
Y30578D01*
X262545D01*
Y29870D01*
X264244D01*
Y28880D01*
X262262D01*
Y28314D01*
X262121D01*
Y27606D01*
X261979D01*
Y26899D01*
X261838D01*
Y26616D01*
X263819D01*
Y25625D01*
X261696D01*
Y25342D01*
X261555D01*
Y24634D01*
X261413D01*
Y23927D01*
X261272D01*
Y23219D01*
X261130D01*
Y22795D01*
X260140D01*
Y22936D01*
X260281D01*
Y23644D01*
X260423D01*
Y24210D01*
X260564D01*
Y24917D01*
X260706D01*
Y25625D01*
X258724D01*
Y25484D01*
X258583D01*
Y24776D01*
X258441D01*
Y24068D01*
X258300D01*
Y23219D01*
X258158D01*
Y22795D01*
X257309D01*
Y23502D01*
X257451D01*
Y24351D01*
X257592D01*
Y25059D01*
X257734D01*
Y25625D01*
X256036D01*
Y26616D01*
X258017D01*
Y27323D01*
X258158D01*
Y28031D01*
X258300D01*
Y28738D01*
X258441D01*
Y28880D01*
X256460D01*
Y29870D01*
X258583D01*
Y30295D01*
X258724D01*
Y31144D01*
X258866D01*
Y31852D01*
X259007D01*
Y32559D01*
X259149D01*
Y32842D01*
X259998D01*
Y32135D01*
X259856D01*
Y31427D01*
X259715D01*
Y30719D01*
X259573D01*
Y29870D01*
X261555D01*
Y30012D01*
X261696D01*
Y30861D01*
X261838D01*
Y31569D01*
X261979D01*
Y32276D01*
X262121D01*
Y32842D01*
X262970D01*
Y32135D01*
D02*
G37*
G36*
X246130Y30295D02*
X246413D01*
Y29587D01*
X246271D01*
Y29163D01*
X246130D01*
Y29304D01*
X244856D01*
Y29163D01*
X244573D01*
Y29021D01*
X244290D01*
Y28880D01*
X244148D01*
Y28738D01*
X244007D01*
Y28597D01*
X243865D01*
Y28455D01*
X243724D01*
Y28172D01*
X243582D01*
Y28031D01*
X243441D01*
Y27606D01*
X243299D01*
Y22795D01*
X242167D01*
Y23078D01*
Y23219D01*
Y30295D01*
X243016D01*
Y29870D01*
X243158D01*
Y28880D01*
X243441D01*
Y29163D01*
X243582D01*
Y29304D01*
X243724D01*
Y29446D01*
X243865D01*
Y29587D01*
X244007D01*
Y29729D01*
X244148D01*
Y29870D01*
X244290D01*
Y30012D01*
X244431D01*
Y30153D01*
X244715D01*
Y30295D01*
X245280D01*
Y30436D01*
X246130D01*
Y30295D01*
D02*
G37*
G36*
X266791D02*
X267074D01*
Y30153D01*
X267215D01*
Y30012D01*
X267357D01*
Y29021D01*
X267215D01*
Y28880D01*
X267074D01*
Y28738D01*
X266791D01*
Y28597D01*
X266366D01*
Y28738D01*
X265942D01*
Y28880D01*
X265800D01*
Y29304D01*
X265659D01*
Y29729D01*
X265800D01*
Y30153D01*
X265942D01*
Y30295D01*
X266225D01*
Y30436D01*
X266791D01*
Y30295D01*
D02*
G37*
G36*
Y24351D02*
X267074D01*
Y24210D01*
X267215D01*
Y24068D01*
X267357D01*
Y23078D01*
X267215D01*
Y22936D01*
X267074D01*
Y22795D01*
X266791D01*
Y22653D01*
X266366D01*
Y22795D01*
X265942D01*
Y22936D01*
X265800D01*
Y23361D01*
X265659D01*
Y23785D01*
X265800D01*
Y24210D01*
X265942D01*
Y24351D01*
X266225D01*
Y24493D01*
X266791D01*
Y24351D01*
D02*
G37*
G36*
X246554D02*
X246837D01*
Y24210D01*
X246979D01*
Y24068D01*
X247120D01*
Y23078D01*
X246979D01*
Y22936D01*
X246837D01*
Y22795D01*
X246554D01*
Y22653D01*
X246130D01*
Y22795D01*
X245705D01*
Y22936D01*
X245564D01*
Y23361D01*
X245422D01*
Y23785D01*
X245564D01*
Y24210D01*
X245705D01*
Y24351D01*
X245988D01*
Y24493D01*
X246554D01*
Y24351D01*
D02*
G37*
G36*
X237497Y30295D02*
X238205D01*
Y30153D01*
X238488D01*
Y30012D01*
X238771D01*
Y29870D01*
X238912D01*
Y29729D01*
X239195D01*
Y29587D01*
X239337D01*
Y29304D01*
X239478D01*
Y29163D01*
X239620D01*
Y28880D01*
X239762D01*
Y28597D01*
X239903D01*
Y28172D01*
X240044D01*
Y26332D01*
X234950D01*
Y25766D01*
X235091D01*
Y25200D01*
X235233D01*
Y24776D01*
X235375D01*
Y24634D01*
X235516D01*
Y24351D01*
X235658D01*
Y24210D01*
X235799D01*
Y24068D01*
X236082D01*
Y23927D01*
X236365D01*
Y23785D01*
X236648D01*
Y23644D01*
X238346D01*
Y23785D01*
X238912D01*
Y23927D01*
X239478D01*
Y24068D01*
X239762D01*
Y23078D01*
X239337D01*
Y22936D01*
X238912D01*
Y22795D01*
X238063D01*
Y22653D01*
X236790D01*
Y22795D01*
X236082D01*
Y22936D01*
X235799D01*
Y23078D01*
X235375D01*
Y23219D01*
X235233D01*
Y23361D01*
X234950D01*
Y23502D01*
X234809D01*
Y23644D01*
X234667D01*
Y23785D01*
X234526D01*
Y24068D01*
X234384D01*
Y24210D01*
X234242D01*
Y24493D01*
X234101D01*
Y24917D01*
X233959D01*
Y25342D01*
X233818D01*
Y27606D01*
X233959D01*
Y28172D01*
X234101D01*
Y28597D01*
X234242D01*
Y28880D01*
X234384D01*
Y29021D01*
X234526D01*
Y29304D01*
X234667D01*
Y29446D01*
X234809D01*
Y29587D01*
X234950D01*
Y29729D01*
X235091D01*
Y29870D01*
X235375D01*
Y30012D01*
X235658D01*
Y30153D01*
X235941D01*
Y30295D01*
X236648D01*
Y30436D01*
X237497D01*
Y30295D01*
D02*
G37*
G36*
X330189Y71334D02*
X330897D01*
Y71193D01*
X331180D01*
Y71051D01*
X331463D01*
Y70910D01*
X331746D01*
Y70768D01*
X331887D01*
Y70627D01*
X332029D01*
Y70485D01*
X332170D01*
Y70343D01*
X332312D01*
Y70061D01*
X332453D01*
Y69636D01*
X332595D01*
Y67938D01*
X332453D01*
Y67513D01*
X332312D01*
Y67089D01*
X332170D01*
Y66947D01*
X332029D01*
Y66664D01*
X331887D01*
Y66381D01*
X331746D01*
Y66240D01*
X331604D01*
Y66098D01*
X331463D01*
Y65957D01*
X331321D01*
Y65815D01*
X331180D01*
Y65532D01*
X331038D01*
Y65391D01*
X330897D01*
Y65249D01*
X330755D01*
Y65107D01*
X330614D01*
Y64966D01*
X330472D01*
Y64824D01*
X330331D01*
Y64683D01*
X330189D01*
Y64541D01*
X330048D01*
Y64400D01*
X329906D01*
Y64258D01*
X329765D01*
Y64117D01*
X329623D01*
Y63975D01*
X329482D01*
Y63834D01*
X329340D01*
Y63692D01*
X329198D01*
Y63551D01*
X329057D01*
Y63409D01*
X328915D01*
Y63268D01*
X328774D01*
Y63126D01*
X328633D01*
Y62985D01*
X328491D01*
Y62843D01*
X328349D01*
Y62702D01*
X328208D01*
Y62560D01*
X328066D01*
Y62419D01*
X333019D01*
Y61287D01*
X326510D01*
Y62419D01*
X326651D01*
Y62560D01*
X326793D01*
Y62702D01*
X326934D01*
Y62843D01*
X327076D01*
Y62985D01*
X327217D01*
Y63126D01*
X327359D01*
Y63268D01*
X327500D01*
Y63409D01*
X327642D01*
Y63551D01*
X327783D01*
Y63692D01*
X327925D01*
Y63834D01*
X328066D01*
Y63975D01*
X328208D01*
Y64117D01*
X328349D01*
Y64258D01*
X328491D01*
Y64400D01*
X328633D01*
Y64541D01*
X328774D01*
Y64683D01*
X328915D01*
Y64824D01*
X329057D01*
Y64966D01*
X329198D01*
Y65107D01*
X329340D01*
Y65249D01*
X329482D01*
Y65391D01*
X329623D01*
Y65532D01*
X329765D01*
Y65673D01*
X329906D01*
Y65815D01*
X330048D01*
Y65957D01*
X330189D01*
Y66098D01*
X330331D01*
Y66381D01*
X330472D01*
Y66523D01*
X330614D01*
Y66664D01*
X330755D01*
Y66806D01*
X330897D01*
Y67089D01*
X331038D01*
Y67372D01*
X331180D01*
Y67655D01*
X331321D01*
Y68079D01*
X331463D01*
Y69353D01*
X331321D01*
Y69636D01*
X331180D01*
Y69919D01*
X331038D01*
Y70061D01*
X330897D01*
Y70202D01*
X330614D01*
Y70343D01*
X330189D01*
Y70485D01*
X328915D01*
Y70343D01*
X328491D01*
Y70202D01*
X328208D01*
Y70061D01*
X327925D01*
Y69919D01*
X327783D01*
Y69777D01*
X327500D01*
Y69636D01*
X327359D01*
Y69494D01*
X327217D01*
Y69636D01*
X327076D01*
Y69777D01*
X326934D01*
Y69919D01*
X326793D01*
Y70061D01*
X326651D01*
Y70343D01*
X326934D01*
Y70485D01*
X327076D01*
Y70627D01*
X327217D01*
Y70768D01*
X327500D01*
Y70910D01*
X327783D01*
Y71051D01*
X328066D01*
Y71193D01*
X328491D01*
Y71334D01*
X329198D01*
Y71476D01*
X330189D01*
Y71334D01*
D02*
G37*
G36*
X424200Y150528D02*
X423545D01*
Y137427D01*
X422890D01*
Y130222D01*
X422235D01*
Y124981D01*
X421580D01*
Y120396D01*
X420925D01*
Y117121D01*
X420270D01*
Y113846D01*
X419615D01*
Y111225D01*
X418960D01*
Y109260D01*
X418305D01*
Y106640D01*
X417649D01*
Y104675D01*
X416995D01*
Y102710D01*
X416339D01*
Y100744D01*
X415684D01*
Y99434D01*
X415029D01*
Y97469D01*
X414374D01*
Y96159D01*
X413719D01*
Y94849D01*
X413064D01*
Y92884D01*
X412409D01*
Y91574D01*
X411754D01*
Y90264D01*
X411099D01*
Y88954D01*
X410444D01*
Y88298D01*
X409789D01*
Y86988D01*
X409134D01*
Y85678D01*
X408479D01*
Y84368D01*
X407824D01*
Y83713D01*
X407169D01*
Y82403D01*
X406514D01*
Y81748D01*
X405859D01*
Y80438D01*
X405204D01*
Y79783D01*
X404548D01*
Y79128D01*
X403893D01*
Y77818D01*
X403238D01*
Y77162D01*
X402583D01*
Y76508D01*
X401928D01*
Y75852D01*
X401273D01*
Y74542D01*
X400618D01*
Y73887D01*
X399963D01*
Y73232D01*
X399308D01*
Y72577D01*
X398653D01*
Y71922D01*
X397998D01*
Y71267D01*
X397343D01*
Y70612D01*
X396688D01*
Y69957D01*
X396033D01*
Y69302D01*
X394723D01*
Y68647D01*
X394068D01*
Y67992D01*
X393413D01*
Y67337D01*
X392757D01*
Y66682D01*
X392103D01*
Y66027D01*
X390792D01*
Y65372D01*
X390137D01*
Y64717D01*
X389482D01*
Y64061D01*
X388172D01*
Y63406D01*
X387517D01*
Y62751D01*
X386207D01*
Y62096D01*
X384897D01*
Y61441D01*
X384242D01*
Y60786D01*
X382932D01*
Y60131D01*
X381622D01*
Y59476D01*
X380967D01*
Y58821D01*
X379656D01*
Y58166D01*
X378346D01*
Y57511D01*
X376381D01*
Y56856D01*
X375726D01*
Y57511D01*
X373761D01*
Y58166D01*
X372451D01*
Y58821D01*
X371796D01*
Y59476D01*
X370486D01*
Y60131D01*
X369176D01*
Y60786D01*
X367865D01*
Y61441D01*
X367211D01*
Y62096D01*
X365900D01*
Y62751D01*
X364590D01*
Y63406D01*
X363935D01*
Y64061D01*
X363280D01*
Y64717D01*
X361970D01*
Y65372D01*
X361315D01*
Y66027D01*
X360005D01*
Y66682D01*
X359350D01*
Y67337D01*
X358695D01*
Y67992D01*
X358040D01*
Y68647D01*
X357385D01*
Y69302D01*
X356075D01*
Y69957D01*
X355420D01*
Y70612D01*
X354765D01*
Y71267D01*
X354109D01*
Y71922D01*
X353454D01*
Y72577D01*
X352799D01*
Y73232D01*
X352144D01*
Y73887D01*
X351489D01*
Y74542D01*
X350834D01*
Y75852D01*
X350179D01*
Y76508D01*
X349524D01*
Y77162D01*
X348869D01*
Y77818D01*
X348214D01*
Y79128D01*
X347559D01*
Y79783D01*
X346904D01*
Y80438D01*
X346249D01*
Y81748D01*
X345594D01*
Y82403D01*
X344939D01*
Y83713D01*
X344284D01*
Y84368D01*
X343629D01*
Y85678D01*
X342974D01*
Y86988D01*
X342318D01*
Y88298D01*
X341663D01*
Y88954D01*
X341008D01*
Y90264D01*
X340353D01*
Y91574D01*
X339698D01*
Y92884D01*
X339043D01*
Y94849D01*
X338388D01*
Y96159D01*
X337733D01*
Y97469D01*
X337078D01*
Y99434D01*
X336423D01*
Y100744D01*
X335768D01*
Y102710D01*
X335113D01*
Y104675D01*
X334458D01*
Y105985D01*
Y106640D01*
X333803D01*
Y109260D01*
X333148D01*
Y111225D01*
X332493D01*
Y113846D01*
X331838D01*
Y117121D01*
X331183D01*
Y120396D01*
X330527D01*
Y124981D01*
X329873D01*
Y130222D01*
X329217D01*
Y137427D01*
X328562D01*
Y150528D01*
X327907D01*
Y168870D01*
X424200D01*
Y150528D01*
D02*
G37*
G36*
X363347Y45117D02*
X363553D01*
Y39957D01*
X363760D01*
Y39751D01*
X363966D01*
Y39545D01*
X364173D01*
Y39338D01*
X364379D01*
Y39132D01*
X364585D01*
Y38719D01*
X364792D01*
Y38513D01*
X364998D01*
Y38306D01*
X365411D01*
Y38100D01*
X365824D01*
Y37894D01*
X366030D01*
Y37687D01*
X366236D01*
Y37481D01*
X366443D01*
Y37274D01*
X366649D01*
Y37068D01*
X367062D01*
Y36862D01*
X367268D01*
Y36449D01*
X367062D01*
Y36243D01*
X366855D01*
Y36036D01*
X366649D01*
Y35830D01*
X366443D01*
Y35624D01*
X366236D01*
Y35417D01*
X366030D01*
Y35211D01*
X365824D01*
Y35004D01*
X365411D01*
Y35211D01*
X365204D01*
Y34798D01*
X364998D01*
Y34385D01*
X364792D01*
Y34179D01*
X364585D01*
Y33972D01*
X364379D01*
Y33560D01*
X364173D01*
Y33353D01*
X363553D01*
Y33560D01*
X363347D01*
Y33766D01*
X363141D01*
Y34179D01*
X362934D01*
Y34385D01*
X362728D01*
Y34592D01*
X362522D01*
Y34798D01*
X362109D01*
Y35004D01*
X361696D01*
Y35211D01*
X361490D01*
Y35417D01*
X361283D01*
Y35624D01*
X361077D01*
Y35830D01*
X360871D01*
Y36036D01*
X360664D01*
Y36243D01*
X360458D01*
Y36449D01*
X360251D01*
Y36862D01*
X360458D01*
Y37068D01*
X360664D01*
Y37274D01*
X360871D01*
Y37481D01*
X361077D01*
Y37687D01*
X361283D01*
Y37894D01*
X361490D01*
Y38100D01*
X361902D01*
Y38306D01*
X362109D01*
Y38513D01*
X362315D01*
Y38719D01*
X362522D01*
Y38925D01*
X362728D01*
Y39338D01*
X362109D01*
Y39132D01*
X361902D01*
Y38719D01*
X361490D01*
Y40577D01*
Y40783D01*
Y45117D01*
X361696D01*
Y45323D01*
X361902D01*
Y45117D01*
X362522D01*
Y45323D01*
X362934D01*
Y45117D01*
X363141D01*
Y45323D01*
X363347D01*
Y45117D01*
D02*
G37*
G36*
X364585D02*
X366030D01*
Y39751D01*
Y39545D01*
Y38719D01*
X365411D01*
Y38925D01*
X365204D01*
Y39132D01*
X364998D01*
Y39338D01*
X364792D01*
Y39545D01*
X364585D01*
Y39751D01*
X364379D01*
Y39957D01*
X364173D01*
Y40164D01*
X363966D01*
Y45117D01*
X364173D01*
Y45323D01*
X364585D01*
Y45117D01*
D02*
G37*
G36*
X356124Y27781D02*
X352203D01*
Y27988D01*
X351996D01*
Y34798D01*
X343948D01*
Y29432D01*
X343741D01*
Y27781D01*
X339820D01*
Y27988D01*
X339614D01*
Y37894D01*
Y38100D01*
Y45117D01*
X343948D01*
Y44910D01*
X343741D01*
Y41608D01*
X343948D01*
Y38100D01*
X351790D01*
Y38306D01*
X351996D01*
Y45117D01*
X356124D01*
Y27781D01*
D02*
G37*
G36*
X396780Y44910D02*
X396986D01*
Y42021D01*
X396780D01*
Y41815D01*
X391414D01*
Y41608D01*
X391208D01*
Y27781D01*
X387286D01*
Y27988D01*
X387080D01*
Y41815D01*
X381508D01*
Y44291D01*
X381302D01*
Y45117D01*
X396780D01*
Y44910D01*
D02*
G37*
G36*
X375523Y36862D02*
Y36655D01*
Y31290D01*
X383572D01*
Y27988D01*
X383365D01*
Y27781D01*
X371808D01*
Y27988D01*
X371396D01*
Y45117D01*
X375523D01*
Y36862D01*
D02*
G37*
G36*
X366030Y27988D02*
X365411D01*
Y27781D01*
X364173D01*
Y27988D01*
X363966D01*
Y32734D01*
X364173D01*
Y32941D01*
X364379D01*
Y33353D01*
X364585D01*
Y33560D01*
X364792D01*
Y33766D01*
X364998D01*
Y33972D01*
X365204D01*
Y34179D01*
X365411D01*
Y34385D01*
X365617D01*
Y34592D01*
X366030D01*
Y27988D01*
D02*
G37*
G36*
X361902Y34385D02*
X362109D01*
Y34179D01*
X362315D01*
Y33972D01*
X362522D01*
Y33560D01*
X362728D01*
Y33353D01*
X362934D01*
Y33147D01*
X363141D01*
Y32941D01*
X363347D01*
Y32734D01*
X363553D01*
Y27988D01*
X363347D01*
Y27781D01*
X361902D01*
Y27988D01*
X361490D01*
Y33353D01*
Y33560D01*
Y34592D01*
X361902D01*
Y34385D01*
D02*
G37*
%LPC*%
G36*
X262121Y67372D02*
X259998D01*
Y66947D01*
X259856D01*
Y66240D01*
X259715D01*
Y65532D01*
X259573D01*
Y65391D01*
Y65107D01*
X261696D01*
Y65673D01*
X261838D01*
Y66381D01*
X261979D01*
Y67230D01*
X262121D01*
Y67372D01*
D02*
G37*
G36*
X239337Y64966D02*
X236931D01*
Y64824D01*
X236507D01*
Y64683D01*
X236224D01*
Y64541D01*
X236082D01*
Y64400D01*
X235941D01*
Y64117D01*
X235799D01*
Y63692D01*
X235658D01*
Y63126D01*
X235799D01*
Y62702D01*
X235941D01*
Y62560D01*
X236082D01*
Y62419D01*
X236224D01*
Y62277D01*
X236507D01*
Y62136D01*
X237780D01*
Y62277D01*
X238205D01*
Y62419D01*
X238488D01*
Y62560D01*
X238629D01*
Y62702D01*
X238771D01*
Y62843D01*
X238912D01*
Y62985D01*
X239054D01*
Y63126D01*
X239195D01*
Y63551D01*
X239337D01*
Y64966D01*
D02*
G37*
G36*
X230138Y70343D02*
X227874D01*
Y66240D01*
X230138D01*
Y66381D01*
X230705D01*
Y66523D01*
X230988D01*
Y66664D01*
X231129D01*
Y66806D01*
X231271D01*
Y66947D01*
X231412D01*
Y67089D01*
X231554D01*
Y67372D01*
X231695D01*
Y67796D01*
X231837D01*
Y68928D01*
X231695D01*
Y69353D01*
X231554D01*
Y69494D01*
X231412D01*
Y69636D01*
X231271D01*
Y69777D01*
X231129D01*
Y69919D01*
X230988D01*
Y70061D01*
X230705D01*
Y70202D01*
X230138D01*
Y70343D01*
D02*
G37*
G36*
X322264Y70485D02*
X321132D01*
Y70343D01*
X320849D01*
Y70202D01*
X320566D01*
Y70061D01*
X320425D01*
Y69919D01*
X320283D01*
Y69636D01*
X320142D01*
Y69353D01*
X320000D01*
Y69070D01*
X319859D01*
Y68504D01*
X319717D01*
Y67372D01*
X319576D01*
Y65249D01*
X319717D01*
Y64117D01*
X319859D01*
Y63551D01*
X320000D01*
Y63268D01*
X320142D01*
Y62985D01*
X320283D01*
Y62702D01*
X320425D01*
Y62560D01*
X320566D01*
Y62419D01*
X320849D01*
Y62277D01*
X321132D01*
Y62136D01*
X322264D01*
Y62277D01*
X322689D01*
Y62419D01*
X322830D01*
Y62560D01*
X322972D01*
Y62702D01*
X323113D01*
Y62843D01*
X323255D01*
Y63126D01*
X323396D01*
Y63409D01*
X323538D01*
Y63834D01*
X323680D01*
Y64541D01*
X323821D01*
Y68079D01*
X323680D01*
Y68787D01*
X323538D01*
Y69211D01*
X323396D01*
Y69494D01*
X323255D01*
Y69777D01*
X323113D01*
Y69919D01*
X322972D01*
Y70061D01*
X322830D01*
Y70202D01*
X322547D01*
Y70343D01*
X322264D01*
Y70485D01*
D02*
G37*
G36*
X314198D02*
X313066D01*
Y70343D01*
X312783D01*
Y70202D01*
X312500D01*
Y70061D01*
X312358D01*
Y69919D01*
X312217D01*
Y69636D01*
X312075D01*
Y69353D01*
X311934D01*
Y69070D01*
X311792D01*
Y68504D01*
X311651D01*
Y67372D01*
X311509D01*
Y65249D01*
X311651D01*
Y64258D01*
Y64117D01*
X311792D01*
Y63551D01*
X311934D01*
Y63268D01*
X312075D01*
Y62985D01*
X312217D01*
Y62702D01*
X312358D01*
Y62560D01*
X312500D01*
Y62419D01*
X312783D01*
Y62277D01*
X313066D01*
Y62136D01*
X314198D01*
Y62277D01*
X314622D01*
Y62419D01*
X314764D01*
Y62560D01*
X314906D01*
Y62702D01*
X315047D01*
Y62843D01*
X315189D01*
Y63126D01*
X315330D01*
Y63409D01*
X315472D01*
Y63834D01*
X315613D01*
Y64541D01*
X315755D01*
Y68079D01*
X315613D01*
Y68787D01*
X315472D01*
Y69211D01*
X315330D01*
Y69494D01*
X315189D01*
Y69777D01*
X315047D01*
Y69919D01*
X314906D01*
Y70061D01*
X314764D01*
Y70202D01*
X314481D01*
Y70343D01*
X314198D01*
Y70485D01*
D02*
G37*
G36*
X306132D02*
X305000D01*
Y70343D01*
X304716D01*
Y70202D01*
X304433D01*
Y70061D01*
X304292D01*
Y69919D01*
X304151D01*
Y69636D01*
X304009D01*
Y69353D01*
X303867D01*
Y69070D01*
X303726D01*
Y68504D01*
X303584D01*
Y67372D01*
X303443D01*
Y65249D01*
X303584D01*
Y64117D01*
X303726D01*
Y63551D01*
X303867D01*
Y63268D01*
X304009D01*
Y62985D01*
X304151D01*
Y62702D01*
X304292D01*
Y62560D01*
X304433D01*
Y62419D01*
X304716D01*
Y62277D01*
X305000D01*
Y62136D01*
X306132D01*
Y62277D01*
X306556D01*
Y62419D01*
X306698D01*
Y62560D01*
X306839D01*
Y62702D01*
X306981D01*
Y62843D01*
X307122D01*
Y63126D01*
X307264D01*
Y63409D01*
X307405D01*
Y63834D01*
X307547D01*
Y64541D01*
X307688D01*
Y68079D01*
X307547D01*
Y68787D01*
X307405D01*
Y69211D01*
X307264D01*
Y69494D01*
X307122D01*
Y69777D01*
X306981D01*
Y69919D01*
X306839D01*
Y70061D01*
X306698D01*
Y70202D01*
X306415D01*
Y70343D01*
X306132D01*
Y70485D01*
D02*
G37*
G36*
X285471D02*
X284338D01*
Y70343D01*
X284056D01*
Y70202D01*
X283772D01*
Y70061D01*
X283631D01*
Y69919D01*
X283489D01*
Y69636D01*
X283348D01*
Y69353D01*
X283206D01*
Y69070D01*
X283065D01*
Y68504D01*
X282923D01*
Y67372D01*
X282782D01*
Y66098D01*
Y65957D01*
Y65249D01*
X282923D01*
Y64117D01*
X283065D01*
Y63551D01*
X283206D01*
Y63268D01*
X283348D01*
Y62985D01*
X283489D01*
Y62702D01*
X283631D01*
Y62560D01*
X283772D01*
Y62419D01*
X284056D01*
Y62277D01*
X284338D01*
Y62136D01*
X285471D01*
Y62277D01*
X285895D01*
Y62419D01*
X286037D01*
Y62560D01*
X286178D01*
Y62702D01*
X286320D01*
Y62843D01*
X286461D01*
Y63126D01*
X286603D01*
Y63409D01*
X286744D01*
Y63834D01*
X286886D01*
Y64541D01*
X287027D01*
Y68079D01*
X286886D01*
Y68787D01*
X286744D01*
Y69211D01*
X286603D01*
Y69494D01*
X286461D01*
Y69777D01*
X286320D01*
Y69919D01*
X286178D01*
Y70061D01*
X286037D01*
Y70202D01*
X285754D01*
Y70343D01*
X285471D01*
Y70485D01*
D02*
G37*
G36*
X277404D02*
X276272D01*
Y70343D01*
X275989D01*
Y70202D01*
X275706D01*
Y70061D01*
X275565D01*
Y69919D01*
X275423D01*
Y69636D01*
X275282D01*
Y69353D01*
X275140D01*
Y69070D01*
X274998D01*
Y68504D01*
X274857D01*
Y67372D01*
X274715D01*
Y65249D01*
X274857D01*
Y64117D01*
X274998D01*
Y63551D01*
X275140D01*
Y63268D01*
X275282D01*
Y62985D01*
X275423D01*
Y62702D01*
X275565D01*
Y62560D01*
X275706D01*
Y62419D01*
X275989D01*
Y62277D01*
X276272D01*
Y62136D01*
X277404D01*
Y62277D01*
X277829D01*
Y62419D01*
X277970D01*
Y62560D01*
X278112D01*
Y62702D01*
X278253D01*
Y62843D01*
X278395D01*
Y63126D01*
X278536D01*
Y63409D01*
X278678D01*
Y63551D01*
Y63834D01*
X278819D01*
Y64541D01*
X278961D01*
Y68079D01*
X278819D01*
Y68787D01*
X278678D01*
Y69211D01*
X278536D01*
Y69494D01*
X278395D01*
Y69777D01*
X278253D01*
Y69919D01*
X278112D01*
Y70061D01*
X277970D01*
Y70202D01*
X277687D01*
Y70343D01*
X277404D01*
Y70485D01*
D02*
G37*
G36*
X261555Y48126D02*
X259432D01*
Y47701D01*
X259291D01*
Y46994D01*
X259149D01*
Y46286D01*
X259007D01*
Y45862D01*
X261130D01*
Y46428D01*
X261272D01*
Y46994D01*
Y47135D01*
X261413D01*
Y47984D01*
X261555D01*
Y48126D01*
D02*
G37*
G36*
X230280Y51097D02*
X227874D01*
Y47135D01*
X230280D01*
Y47277D01*
X230705D01*
Y47418D01*
X230988D01*
Y47560D01*
X231271D01*
Y47701D01*
X231412D01*
Y47984D01*
X231554D01*
Y48126D01*
X231695D01*
Y48550D01*
X231837D01*
Y49682D01*
X231695D01*
Y49965D01*
Y50107D01*
X231554D01*
Y50390D01*
X231412D01*
Y50532D01*
X231271D01*
Y50673D01*
X231129D01*
Y50814D01*
X230846D01*
Y50956D01*
X230280D01*
Y51097D01*
D02*
G37*
G36*
X276838Y51239D02*
X275706D01*
Y51097D01*
X275423D01*
Y50956D01*
X275140D01*
Y50814D01*
X274998D01*
Y50673D01*
X274857D01*
Y50390D01*
X274715D01*
Y50107D01*
X274574D01*
Y49824D01*
X274433D01*
Y49258D01*
X274291D01*
Y48126D01*
X274149D01*
Y46003D01*
X274291D01*
Y44871D01*
X274433D01*
Y44305D01*
X274574D01*
Y44022D01*
X274715D01*
Y43739D01*
X274857D01*
Y43456D01*
X274998D01*
Y43314D01*
X275140D01*
Y43173D01*
X275423D01*
Y43031D01*
X275706D01*
Y42890D01*
X276838D01*
Y43031D01*
X277263D01*
Y43173D01*
X277404D01*
Y43314D01*
X277546D01*
Y43456D01*
X277687D01*
Y43597D01*
X277829D01*
Y43880D01*
X277970D01*
Y44163D01*
X278112D01*
Y44588D01*
X278253D01*
Y45296D01*
X278395D01*
Y48833D01*
X278253D01*
Y49541D01*
X278112D01*
Y49965D01*
X277970D01*
Y50248D01*
X277829D01*
Y50532D01*
X277687D01*
Y50673D01*
X277546D01*
Y50814D01*
X277404D01*
Y50956D01*
X277121D01*
Y51097D01*
X276838D01*
Y51239D01*
D02*
G37*
G36*
X238771Y48692D02*
X237639D01*
Y48550D01*
X237214D01*
Y48409D01*
X236931D01*
Y48267D01*
X236790D01*
Y48126D01*
X236648D01*
Y47843D01*
X236507D01*
Y47701D01*
X236365D01*
Y47277D01*
X236224D01*
Y46711D01*
X236082D01*
Y46569D01*
X240044D01*
Y47135D01*
X239903D01*
Y47701D01*
X239762D01*
Y47984D01*
X239620D01*
Y48126D01*
X239478D01*
Y48267D01*
X239337D01*
Y48409D01*
X239195D01*
Y48550D01*
X238771D01*
Y48692D01*
D02*
G37*
G36*
X261413Y28880D02*
X259291D01*
Y28455D01*
X259149D01*
Y27748D01*
X259007D01*
Y27040D01*
X258866D01*
Y26616D01*
X260989D01*
Y27182D01*
X261130D01*
Y27889D01*
X261272D01*
Y28738D01*
X261413D01*
Y28880D01*
D02*
G37*
G36*
X237639Y29446D02*
X236507D01*
Y29304D01*
X236082D01*
Y29163D01*
X235799D01*
Y29021D01*
X235658D01*
Y28880D01*
X235516D01*
Y28597D01*
X235375D01*
Y28455D01*
X235233D01*
Y28031D01*
X235091D01*
Y27465D01*
X234950D01*
Y27323D01*
X238912D01*
Y27889D01*
X238771D01*
Y28455D01*
X238629D01*
Y28738D01*
X238488D01*
Y28880D01*
X238346D01*
Y29021D01*
X238205D01*
Y29163D01*
X238063D01*
Y29304D01*
X237639D01*
Y29446D01*
D02*
G37*
G36*
X422235Y166905D02*
X329873D01*
Y157734D01*
X330527D01*
Y140048D01*
X331183D01*
Y131532D01*
X331838D01*
Y126292D01*
X332493D01*
Y121706D01*
X333148D01*
Y118431D01*
X333803D01*
Y115156D01*
X334458D01*
Y112535D01*
X335113D01*
Y109915D01*
X335768D01*
Y107295D01*
X336423D01*
Y106640D01*
X337078D01*
Y107295D01*
X338388D01*
Y107950D01*
X339043D01*
Y108605D01*
X339698D01*
Y109260D01*
X340353D01*
Y109915D01*
X341663D01*
Y110570D01*
X342318D01*
Y111225D01*
X342974D01*
Y111880D01*
X343629D01*
Y112535D01*
X344939D01*
Y113190D01*
X345594D01*
Y113846D01*
X346249D01*
Y114501D01*
X346904D01*
Y115156D01*
X348214D01*
Y115811D01*
X348869D01*
Y116466D01*
X349524D01*
Y117121D01*
X350179D01*
Y117776D01*
X351489D01*
Y118431D01*
X352144D01*
Y119086D01*
X352799D01*
Y119741D01*
X353454D01*
Y120396D01*
X354765D01*
Y121051D01*
X355420D01*
Y121706D01*
X356075D01*
Y122361D01*
X357385D01*
Y123016D01*
X358040D01*
Y123671D01*
X358695D01*
Y124326D01*
X359350D01*
Y124981D01*
X360660D01*
Y125636D01*
X361315D01*
Y126292D01*
X361970D01*
Y126946D01*
X362625D01*
Y127602D01*
X363935D01*
Y128257D01*
X364590D01*
Y128912D01*
X365245D01*
Y129567D01*
X365900D01*
Y130222D01*
X367211D01*
Y130877D01*
X367865D01*
Y131532D01*
X368521D01*
Y132187D01*
X369176D01*
Y132842D01*
X370486D01*
Y133497D01*
X371141D01*
Y134152D01*
X371796D01*
Y134807D01*
X372451D01*
Y135462D01*
X373761D01*
Y136117D01*
X374416D01*
Y136772D01*
X375071D01*
Y137427D01*
X377036D01*
Y136772D01*
X377691D01*
Y136117D01*
X379001D01*
Y135462D01*
X379656D01*
Y134807D01*
X380312D01*
Y134152D01*
X380967D01*
Y133497D01*
X382277D01*
Y132842D01*
X382932D01*
Y132187D01*
X383587D01*
Y131532D01*
X384242D01*
Y130877D01*
X385552D01*
Y130222D01*
X386207D01*
Y129567D01*
X386862D01*
Y128912D01*
X387517D01*
Y128257D01*
X388827D01*
Y127602D01*
X389482D01*
Y126946D01*
X390137D01*
Y126292D01*
X390792D01*
Y125636D01*
X392103D01*
Y124981D01*
X392757D01*
Y124326D01*
X393413D01*
Y123671D01*
X394068D01*
Y123016D01*
X395378D01*
Y122361D01*
X396033D01*
Y121706D01*
X396688D01*
Y121051D01*
X397998D01*
Y120396D01*
X398653D01*
Y119741D01*
X399308D01*
Y119086D01*
X399963D01*
Y118431D01*
X401273D01*
Y117776D01*
X401928D01*
Y117121D01*
X402583D01*
Y116466D01*
X403238D01*
Y115811D01*
X404548D01*
Y115156D01*
X405204D01*
Y114501D01*
X405859D01*
Y113846D01*
X406514D01*
Y113190D01*
X407824D01*
Y112535D01*
X408479D01*
Y111880D01*
X409134D01*
Y111225D01*
X409789D01*
Y110570D01*
X411099D01*
Y109915D01*
X411754D01*
Y109260D01*
X412409D01*
Y108605D01*
X413064D01*
Y107950D01*
X414374D01*
Y107295D01*
X415029D01*
Y106640D01*
X415684D01*
Y107295D01*
X416339D01*
Y109915D01*
X416995D01*
Y112535D01*
X417649D01*
Y115156D01*
X418305D01*
Y118431D01*
X418960D01*
Y121706D01*
X419615D01*
Y126292D01*
X420270D01*
Y131532D01*
X420925D01*
Y140048D01*
X421580D01*
Y157734D01*
X422235D01*
Y166905D01*
D02*
G37*
G36*
X377036Y130222D02*
X375726D01*
Y129567D01*
X374416D01*
Y128912D01*
X373761D01*
Y128257D01*
X373106D01*
Y127602D01*
X372451D01*
Y126946D01*
X371141D01*
Y126292D01*
X370486D01*
Y125636D01*
X369831D01*
Y124981D01*
X369176D01*
Y124326D01*
X367865D01*
Y123671D01*
X367211D01*
Y123016D01*
X366555D01*
Y122361D01*
X365900D01*
Y121706D01*
X364590D01*
Y121051D01*
X363935D01*
Y120396D01*
X363280D01*
Y119741D01*
X361970D01*
Y119086D01*
X361315D01*
Y118431D01*
X360660D01*
Y117776D01*
X360005D01*
Y117121D01*
X358695D01*
Y116466D01*
X358040D01*
Y115811D01*
X357385D01*
Y115156D01*
X356730D01*
Y114501D01*
X355420D01*
Y113846D01*
X354765D01*
Y113190D01*
X354109D01*
Y112535D01*
X353454D01*
Y111880D01*
X352144D01*
Y111225D01*
X351489D01*
Y110570D01*
X350834D01*
Y109915D01*
X350179D01*
Y109260D01*
X348869D01*
Y108605D01*
X348214D01*
Y107950D01*
X347559D01*
Y107295D01*
X346249D01*
Y106640D01*
X345594D01*
Y105985D01*
X344939D01*
Y105330D01*
X344284D01*
Y104675D01*
X342974D01*
Y104020D01*
X342318D01*
Y103365D01*
X341663D01*
Y102710D01*
X341008D01*
Y102055D01*
X339698D01*
Y101399D01*
X339043D01*
Y100744D01*
X338388D01*
Y100089D01*
X339043D01*
Y98124D01*
X339698D01*
Y96814D01*
X340353D01*
Y95504D01*
X341008D01*
Y94194D01*
X341663D01*
Y93539D01*
X342318D01*
Y94194D01*
X342974D01*
Y94849D01*
X343629D01*
Y95504D01*
X344939D01*
Y96159D01*
X345594D01*
Y96814D01*
X346249D01*
Y97469D01*
X346904D01*
Y98124D01*
X348214D01*
Y98779D01*
X348869D01*
Y99434D01*
X349524D01*
Y100089D01*
X350179D01*
Y100744D01*
X351489D01*
Y101399D01*
X352144D01*
Y102055D01*
X352799D01*
Y102710D01*
X353454D01*
Y103365D01*
X354765D01*
Y104020D01*
X355420D01*
Y104675D01*
X356075D01*
Y105330D01*
X356730D01*
Y105985D01*
X358040D01*
Y106640D01*
X358695D01*
Y107295D01*
X359350D01*
Y107950D01*
X360005D01*
Y108605D01*
X361315D01*
Y109260D01*
X361970D01*
Y109915D01*
X362625D01*
Y110570D01*
X363935D01*
Y111225D01*
X364590D01*
Y111880D01*
X365245D01*
Y112535D01*
X365900D01*
Y113190D01*
X367211D01*
Y113846D01*
X367865D01*
Y114501D01*
X368521D01*
Y115156D01*
X369176D01*
Y115811D01*
X370486D01*
Y116466D01*
X371141D01*
Y117121D01*
X371796D01*
Y117776D01*
X372451D01*
Y118431D01*
X373761D01*
Y119086D01*
X374416D01*
Y119741D01*
X375071D01*
Y120396D01*
X377036D01*
Y119741D01*
X377691D01*
Y119086D01*
X379001D01*
Y118431D01*
X379656D01*
Y117776D01*
X380312D01*
Y117121D01*
X380967D01*
Y116466D01*
X382277D01*
Y115811D01*
X382932D01*
Y115156D01*
X383587D01*
Y114501D01*
X384242D01*
Y113846D01*
X385552D01*
Y113190D01*
X386207D01*
Y112535D01*
X386862D01*
Y111880D01*
X387517D01*
Y111225D01*
X388827D01*
Y110570D01*
X389482D01*
Y109915D01*
X390137D01*
Y109260D01*
X391447D01*
Y108605D01*
X392103D01*
Y107950D01*
X392757D01*
Y107295D01*
X393413D01*
Y106640D01*
X394723D01*
Y105985D01*
X395378D01*
Y105330D01*
X396033D01*
Y104675D01*
X396688D01*
Y104020D01*
X397998D01*
Y103365D01*
X398653D01*
Y102710D01*
X399308D01*
Y102055D01*
X399963D01*
Y101399D01*
X401273D01*
Y100744D01*
X401928D01*
Y100089D01*
X402583D01*
Y99434D01*
X403238D01*
Y98779D01*
X404548D01*
Y98124D01*
X405204D01*
Y97469D01*
X405859D01*
Y96814D01*
X406514D01*
Y96159D01*
X407824D01*
Y95504D01*
X408479D01*
Y94849D01*
X409134D01*
Y94194D01*
X411099D01*
Y95504D01*
X411754D01*
Y96814D01*
X412409D01*
Y98124D01*
X413064D01*
Y100089D01*
X413719D01*
Y100744D01*
X413064D01*
Y101399D01*
X412409D01*
Y102055D01*
X411754D01*
Y102710D01*
X410444D01*
Y103365D01*
X409789D01*
Y104020D01*
X409134D01*
Y104675D01*
X407824D01*
Y105330D01*
X407169D01*
Y105985D01*
X406514D01*
Y106640D01*
X405859D01*
Y107295D01*
X404548D01*
Y107950D01*
X403893D01*
Y108605D01*
X403238D01*
Y109260D01*
X402583D01*
Y109915D01*
X401273D01*
Y110570D01*
X400618D01*
Y111225D01*
X399963D01*
Y111880D01*
X399308D01*
Y112535D01*
X397998D01*
Y113190D01*
X397343D01*
Y113846D01*
X396688D01*
Y114501D01*
X396033D01*
Y115156D01*
X394723D01*
Y115811D01*
X394068D01*
Y116466D01*
X393413D01*
Y117121D01*
X392757D01*
Y117776D01*
X391447D01*
Y118431D01*
X390792D01*
Y119086D01*
X390137D01*
Y119741D01*
X389482D01*
Y120396D01*
X388172D01*
Y121051D01*
X387517D01*
Y121706D01*
X386862D01*
Y122361D01*
X385552D01*
Y123016D01*
X384897D01*
Y123671D01*
X384242D01*
Y124326D01*
X383587D01*
Y124981D01*
X382277D01*
Y125636D01*
X381622D01*
Y126292D01*
X380967D01*
Y126946D01*
X380312D01*
Y127602D01*
X379001D01*
Y128257D01*
X378346D01*
Y128912D01*
X377691D01*
Y129567D01*
X377036D01*
Y130222D01*
D02*
G37*
G36*
Y113190D02*
X375726D01*
Y112535D01*
X374416D01*
Y111880D01*
X373761D01*
Y111225D01*
X373106D01*
Y110570D01*
X371796D01*
Y109915D01*
X371141D01*
Y109260D01*
X370486D01*
Y108605D01*
X369831D01*
Y107950D01*
X368521D01*
Y107295D01*
X367865D01*
Y106640D01*
X367211D01*
Y105985D01*
X366555D01*
Y105330D01*
X365245D01*
Y104675D01*
X364590D01*
Y104020D01*
X363935D01*
Y103365D01*
X363280D01*
Y102710D01*
X361970D01*
Y102055D01*
X361315D01*
Y101399D01*
X360660D01*
Y100744D01*
X360005D01*
Y100089D01*
X358695D01*
Y99434D01*
X358040D01*
Y98779D01*
X357385D01*
Y98124D01*
X356730D01*
Y97469D01*
X355420D01*
Y96814D01*
X354765D01*
Y96159D01*
X354109D01*
Y95504D01*
X352799D01*
Y94849D01*
X352144D01*
Y94194D01*
X351489D01*
Y93539D01*
X350834D01*
Y92884D01*
X349524D01*
Y92229D01*
X348869D01*
Y91574D01*
X348214D01*
Y90919D01*
X347559D01*
Y90264D01*
X346249D01*
Y89608D01*
X345594D01*
Y88954D01*
X344939D01*
Y88298D01*
X344284D01*
Y87643D01*
X344939D01*
Y86333D01*
X345594D01*
Y85678D01*
X346249D01*
Y84368D01*
X346904D01*
Y83713D01*
X347559D01*
Y82403D01*
X348214D01*
Y81748D01*
X348869D01*
Y80438D01*
X349524D01*
Y79783D01*
X350179D01*
Y79128D01*
X350834D01*
Y77818D01*
X351489D01*
Y77162D01*
X352144D01*
Y76508D01*
X352799D01*
Y75852D01*
X353454D01*
Y75197D01*
X354109D01*
Y74542D01*
X354765D01*
Y73887D01*
X355420D01*
Y73232D01*
X356075D01*
Y72577D01*
X356730D01*
Y71922D01*
X357385D01*
Y71267D01*
X358040D01*
Y70612D01*
X358695D01*
Y69957D01*
X359350D01*
Y69302D01*
X360660D01*
Y68647D01*
X361315D01*
Y67992D01*
X361970D01*
Y67337D01*
X363280D01*
Y66682D01*
X363935D01*
Y66027D01*
X364590D01*
Y65372D01*
X365900D01*
Y64717D01*
X366555D01*
Y64061D01*
X367865D01*
Y63406D01*
X369176D01*
Y62751D01*
X369831D01*
Y62096D01*
X371141D01*
Y61441D01*
X372451D01*
Y60786D01*
X373761D01*
Y60131D01*
X375071D01*
Y59476D01*
X377036D01*
Y60131D01*
X378346D01*
Y60786D01*
X379656D01*
Y61441D01*
X380967D01*
Y62096D01*
X382277D01*
Y62751D01*
X382932D01*
Y63406D01*
X384242D01*
Y64061D01*
X385552D01*
Y64717D01*
X386207D01*
Y65372D01*
X387517D01*
Y66027D01*
X388172D01*
Y66682D01*
X388827D01*
Y67337D01*
X390137D01*
Y67992D01*
X390792D01*
Y68647D01*
X391447D01*
Y69302D01*
X392757D01*
Y69957D01*
X393413D01*
Y70612D01*
X394068D01*
Y71267D01*
X394723D01*
Y71922D01*
X395378D01*
Y72577D01*
X396033D01*
Y73232D01*
X396688D01*
Y73887D01*
X397343D01*
Y74542D01*
X397998D01*
Y75197D01*
X398653D01*
Y75852D01*
X399308D01*
Y76508D01*
X399963D01*
Y77162D01*
X400618D01*
Y77818D01*
X401273D01*
Y79128D01*
X401928D01*
Y79783D01*
X402583D01*
Y80438D01*
X403238D01*
Y81748D01*
X403893D01*
Y82403D01*
X404548D01*
Y83713D01*
X405204D01*
Y84368D01*
X405859D01*
Y85678D01*
X406514D01*
Y86333D01*
X407169D01*
Y87643D01*
X407824D01*
Y88298D01*
X407169D01*
Y88954D01*
X406514D01*
Y89608D01*
X405859D01*
Y90264D01*
X405204D01*
Y90919D01*
X403893D01*
Y91574D01*
X403238D01*
Y92229D01*
X402583D01*
Y92884D01*
X401928D01*
Y93539D01*
X400618D01*
Y94194D01*
X399963D01*
Y94849D01*
X399308D01*
Y95504D01*
X397998D01*
Y96159D01*
X397343D01*
Y96814D01*
X396688D01*
Y97469D01*
X396033D01*
Y98124D01*
X394723D01*
Y98779D01*
X394068D01*
Y99434D01*
X393413D01*
Y100089D01*
X392757D01*
Y100744D01*
X391447D01*
Y101399D01*
X390792D01*
Y102055D01*
X390137D01*
Y102710D01*
X389482D01*
Y103365D01*
X388172D01*
Y104020D01*
X387517D01*
Y104675D01*
X386862D01*
Y105330D01*
X386207D01*
Y105985D01*
X384897D01*
Y106640D01*
X384242D01*
Y107295D01*
X383587D01*
Y107950D01*
X382932D01*
Y108605D01*
X381622D01*
Y109260D01*
X380967D01*
Y109915D01*
X380312D01*
Y110570D01*
X379656D01*
Y111225D01*
X378346D01*
Y111880D01*
X377691D01*
Y112535D01*
X377036D01*
Y113190D01*
D02*
G37*
%LPD*%
G36*
X357385Y161009D02*
X356730D01*
Y157079D01*
X356075D01*
Y156424D01*
X355420D01*
Y155769D01*
X353454D01*
Y155114D01*
X348214D01*
Y155769D01*
X350179D01*
Y156424D01*
X350834D01*
Y157079D01*
X351489D01*
Y159044D01*
X350834D01*
Y160354D01*
X348214D01*
Y159699D01*
X347559D01*
Y161009D01*
X348214D01*
Y161664D01*
X350179D01*
Y162319D01*
X351489D01*
Y162974D01*
X354109D01*
Y162319D01*
X356730D01*
Y162974D01*
X357385D01*
Y161009D01*
D02*
G37*
G36*
X339698Y161664D02*
X340353D01*
Y157734D01*
X341008D01*
Y156424D01*
X341663D01*
Y155114D01*
X342318D01*
Y154459D01*
X342974D01*
Y153804D01*
X344284D01*
Y153149D01*
X344939D01*
Y152494D01*
X346904D01*
Y151839D01*
X348214D01*
Y150528D01*
X347559D01*
Y149873D01*
X346904D01*
Y149218D01*
X344284D01*
Y149873D01*
X343629D01*
Y150528D01*
X342318D01*
Y151184D01*
X341008D01*
Y152494D01*
X340353D01*
Y153804D01*
X339043D01*
Y154459D01*
X338388D01*
Y155769D01*
X337733D01*
Y156424D01*
X337078D01*
Y157079D01*
X335768D01*
Y157734D01*
X334458D01*
Y158389D01*
X333803D01*
Y159044D01*
X334458D01*
Y159699D01*
X335768D01*
Y160354D01*
X334458D01*
Y162319D01*
X337078D01*
Y161009D01*
X337733D01*
Y160354D01*
X338388D01*
Y162319D01*
X339698D01*
Y161664D01*
D02*
G37*
G36*
X390792Y161009D02*
X391447D01*
Y160354D01*
X392103D01*
Y157079D01*
X392757D01*
Y156424D01*
X393413D01*
Y155769D01*
X394068D01*
Y155114D01*
X395378D01*
Y154459D01*
X396033D01*
Y153804D01*
X397343D01*
Y153149D01*
X397998D01*
Y152494D01*
X398653D01*
Y151839D01*
X397998D01*
Y151184D01*
X397343D01*
Y150528D01*
X395378D01*
Y151184D01*
X394723D01*
Y151839D01*
X392757D01*
Y153804D01*
X392103D01*
Y154459D01*
X391447D01*
Y155114D01*
X389482D01*
Y154459D01*
X388827D01*
Y153804D01*
X386862D01*
Y155114D01*
X387517D01*
Y156424D01*
X388827D01*
Y157079D01*
X387517D01*
Y157734D01*
X386862D01*
Y159044D01*
X387517D01*
Y159699D01*
X388827D01*
Y159044D01*
X389482D01*
Y161664D01*
X390792D01*
Y161009D01*
D02*
G37*
G36*
X399308Y158389D02*
Y157734D01*
X397998D01*
Y157079D01*
X396033D01*
Y157734D01*
X394723D01*
Y158389D01*
X394068D01*
Y159044D01*
X399308D01*
Y158389D01*
D02*
G37*
G36*
X348869Y157734D02*
X349524D01*
Y157079D01*
X347559D01*
Y156424D01*
X344939D01*
Y157079D01*
X343629D01*
Y157734D01*
X344939D01*
Y158389D01*
X348869D01*
Y157734D01*
D02*
G37*
G36*
X403893Y162319D02*
X405204D01*
Y161664D01*
X407169D01*
Y162319D01*
X408479D01*
Y160354D01*
X407169D01*
Y159044D01*
X406514D01*
Y157079D01*
X405859D01*
Y156424D01*
X404548D01*
Y155769D01*
X403238D01*
Y155114D01*
X398653D01*
Y156424D01*
X400618D01*
Y157079D01*
X401273D01*
Y159699D01*
X400618D01*
Y160354D01*
X397998D01*
Y159699D01*
X397343D01*
Y161009D01*
X397998D01*
Y161664D01*
X399963D01*
Y162319D01*
X401273D01*
Y162974D01*
X403893D01*
Y162319D01*
D02*
G37*
G36*
X375726Y161009D02*
X377691D01*
Y160354D01*
X379656D01*
Y159699D01*
X382932D01*
Y159044D01*
X382277D01*
Y158389D01*
X381622D01*
Y157734D01*
X380967D01*
Y157079D01*
X379656D01*
Y156424D01*
X375071D01*
Y155114D01*
X375726D01*
Y154459D01*
X374416D01*
Y155114D01*
X373106D01*
Y155769D01*
X369176D01*
Y155114D01*
X367865D01*
Y153804D01*
X367211D01*
Y153149D01*
X366555D01*
Y151184D01*
X365900D01*
Y149873D01*
X366555D01*
Y149218D01*
X367211D01*
Y150528D01*
X368521D01*
Y151184D01*
X369176D01*
Y151839D01*
X369831D01*
Y150528D01*
X370486D01*
Y149873D01*
X369831D01*
Y148563D01*
X369176D01*
Y147908D01*
X368521D01*
Y146598D01*
X369176D01*
Y144633D01*
X368521D01*
Y142013D01*
X367865D01*
Y140048D01*
X367211D01*
Y138737D01*
X366555D01*
Y138082D01*
X365900D01*
Y137427D01*
X365245D01*
Y136772D01*
X362625D01*
Y136117D01*
X361970D01*
Y134807D01*
X361315D01*
Y134152D01*
X360660D01*
Y133497D01*
X357385D01*
Y131532D01*
X358040D01*
Y130877D01*
X358695D01*
Y130222D01*
X360005D01*
Y128912D01*
X358695D01*
Y128257D01*
X357385D01*
Y127602D01*
X356075D01*
Y126946D01*
X355420D01*
Y126292D01*
X354765D01*
Y125636D01*
X354109D01*
Y124981D01*
X353454D01*
Y124326D01*
X352799D01*
Y123016D01*
X352144D01*
Y122361D01*
X351489D01*
Y123016D01*
X349524D01*
Y121706D01*
X348869D01*
Y121051D01*
X346249D01*
Y122361D01*
X346904D01*
Y123671D01*
X345594D01*
Y125636D01*
X346249D01*
Y126292D01*
X347559D01*
Y126946D01*
X346904D01*
Y128257D01*
X349524D01*
Y127602D01*
X350834D01*
Y126946D01*
X351489D01*
Y127602D01*
X353454D01*
Y128257D01*
X354765D01*
Y128912D01*
X355420D01*
Y130222D01*
X354109D01*
Y130877D01*
X352144D01*
Y131532D01*
X350834D01*
Y132187D01*
X350179D01*
Y136117D01*
X350834D01*
Y136772D01*
X351489D01*
Y137427D01*
X352799D01*
Y138082D01*
X354109D01*
Y137427D01*
X355420D01*
Y138082D01*
X354765D01*
Y138737D01*
X354109D01*
Y139392D01*
X352144D01*
Y140048D01*
X350834D01*
Y140703D01*
X350179D01*
Y141358D01*
X349524D01*
Y142013D01*
X350179D01*
Y142668D01*
X350834D01*
Y143323D01*
X354765D01*
Y143978D01*
X357385D01*
Y144633D01*
X358040D01*
Y143323D01*
X358695D01*
Y142013D01*
X359350D01*
Y140703D01*
X360005D01*
Y140048D01*
X360660D01*
Y139392D01*
X361315D01*
Y138737D01*
X361970D01*
Y138082D01*
X364590D01*
Y138737D01*
X365245D01*
Y139392D01*
X365900D01*
Y140048D01*
X366555D01*
Y143978D01*
X365245D01*
Y144633D01*
X363280D01*
Y145943D01*
X363935D01*
Y146598D01*
X365900D01*
Y147908D01*
X365245D01*
Y149218D01*
X364590D01*
Y155114D01*
X365245D01*
Y157079D01*
X365900D01*
Y157734D01*
X366555D01*
Y159044D01*
X367211D01*
Y159699D01*
X367865D01*
Y160354D01*
X369176D01*
Y161009D01*
X369831D01*
Y161664D01*
X375726D01*
Y161009D01*
D02*
G37*
G36*
X388172Y151184D02*
X388827D01*
Y150528D01*
X389482D01*
Y148563D01*
Y147908D01*
X390137D01*
Y146598D01*
X390792D01*
Y145943D01*
X392103D01*
Y145288D01*
X394068D01*
Y144633D01*
X397343D01*
Y141358D01*
X397998D01*
Y140048D01*
X398653D01*
Y139392D01*
X397343D01*
Y140048D01*
X396033D01*
Y140703D01*
X394723D01*
Y141358D01*
X393413D01*
Y142013D01*
X392757D01*
Y142668D01*
X391447D01*
Y143323D01*
X390137D01*
Y144633D01*
X388172D01*
Y143978D01*
X387517D01*
Y143323D01*
X386862D01*
Y142668D01*
X384897D01*
Y145288D01*
X386207D01*
Y146598D01*
X385552D01*
Y145943D01*
X384242D01*
Y146598D01*
X382932D01*
Y147908D01*
X383587D01*
Y148563D01*
X384242D01*
Y149218D01*
X385552D01*
Y148563D01*
X386862D01*
Y149218D01*
X386207D01*
Y150528D01*
X386862D01*
Y151839D01*
X388172D01*
Y151184D01*
D02*
G37*
G36*
X408479Y157734D02*
X409134D01*
Y152494D01*
X408479D01*
Y149218D01*
X407824D01*
Y146598D01*
X406514D01*
Y147253D01*
X403238D01*
Y146598D01*
X401928D01*
Y145943D01*
X401273D01*
Y145288D01*
X399963D01*
Y145943D01*
X399308D01*
Y146598D01*
X397343D01*
Y147253D01*
X396688D01*
Y148563D01*
X397343D01*
Y149873D01*
X397998D01*
Y150528D01*
X398653D01*
Y151184D01*
X399308D01*
Y151839D01*
X399963D01*
Y152494D01*
X401273D01*
Y153149D01*
X402583D01*
Y153804D01*
X403893D01*
Y154459D01*
X404548D01*
Y155114D01*
X405859D01*
Y155769D01*
X406514D01*
Y156424D01*
X407169D01*
Y157734D01*
X407824D01*
Y158389D01*
X408479D01*
Y157734D01*
D02*
G37*
G36*
X358695Y158389D02*
X359350D01*
Y156424D01*
X360005D01*
Y151184D01*
X359350D01*
Y149218D01*
X358695D01*
Y146598D01*
X359350D01*
Y145288D01*
X358040D01*
Y145943D01*
X356730D01*
Y144633D01*
X356075D01*
Y145288D01*
X354765D01*
Y145943D01*
X354109D01*
Y145288D01*
X353454D01*
Y144633D01*
X352144D01*
Y143978D01*
X348214D01*
Y142668D01*
X347559D01*
Y147908D01*
X348214D01*
Y149873D01*
X348869D01*
Y150528D01*
X349524D01*
Y151184D01*
X350179D01*
Y151839D01*
X351489D01*
Y152494D01*
X352799D01*
Y153149D01*
X353454D01*
Y153804D01*
X354765D01*
Y154459D01*
X356075D01*
Y155114D01*
X356730D01*
Y156424D01*
X357385D01*
Y157734D01*
X358040D01*
Y159699D01*
X358695D01*
Y158389D01*
D02*
G37*
G36*
X337078Y150528D02*
X337733D01*
Y149218D01*
X338388D01*
Y147908D01*
X339698D01*
Y147253D01*
X341663D01*
Y146598D01*
X345594D01*
Y147253D01*
X346249D01*
Y143978D01*
X342318D01*
Y144633D01*
X340353D01*
Y143978D01*
X339043D01*
Y144633D01*
X338388D01*
Y145288D01*
X337733D01*
Y144633D01*
X337078D01*
Y143978D01*
X335113D01*
Y144633D01*
X334458D01*
Y145288D01*
X335113D01*
Y146598D01*
X334458D01*
Y147253D01*
X333148D01*
Y148563D01*
X333803D01*
Y149218D01*
X335113D01*
Y150528D01*
X334458D01*
Y151184D01*
X337078D01*
Y150528D01*
D02*
G37*
G36*
X349524Y139392D02*
X350179D01*
Y138737D01*
X350834D01*
Y138082D01*
X350179D01*
Y137427D01*
X349524D01*
Y136772D01*
X348869D01*
Y135462D01*
X348214D01*
Y133497D01*
X348869D01*
Y132842D01*
X346249D01*
Y132187D01*
X344284D01*
Y131532D01*
X342974D01*
Y132842D01*
X341008D01*
Y132187D01*
X340353D01*
Y131532D01*
X337733D01*
Y132842D01*
X338388D01*
Y133497D01*
X337078D01*
Y132842D01*
X336423D01*
Y133497D01*
X335768D01*
Y135462D01*
X336423D01*
Y136117D01*
X337733D01*
Y135462D01*
X338388D01*
Y136772D01*
X337733D01*
Y137427D01*
X337078D01*
Y138082D01*
X337733D01*
Y138737D01*
X340353D01*
Y138082D01*
X341008D01*
Y135462D01*
X341663D01*
Y134807D01*
X344939D01*
Y135462D01*
X345594D01*
Y136117D01*
X344939D01*
Y138737D01*
X345594D01*
Y139392D01*
X346249D01*
Y140048D01*
X349524D01*
Y139392D01*
D02*
G37*
G36*
X415029Y163629D02*
X416339D01*
Y162974D01*
X416995D01*
Y162319D01*
X417649D01*
Y158389D01*
X416995D01*
Y157079D01*
X416339D01*
Y155114D01*
X415684D01*
Y153804D01*
X415029D01*
Y153149D01*
Y151839D01*
X414374D01*
Y150528D01*
X415684D01*
Y151839D01*
X416339D01*
Y143323D01*
X415684D01*
Y142013D01*
X415029D01*
Y140703D01*
X415684D01*
Y138082D01*
X416339D01*
Y132187D01*
X415684D01*
Y131532D01*
X415029D01*
Y130877D01*
X413719D01*
Y130222D01*
X411754D01*
Y127602D01*
X412409D01*
Y126946D01*
X413719D01*
Y126292D01*
X414374D01*
Y125636D01*
X415029D01*
Y123016D01*
X414374D01*
Y121051D01*
X413719D01*
Y119086D01*
X413064D01*
Y117121D01*
X411754D01*
Y117776D01*
X410444D01*
Y117121D01*
X409789D01*
Y116466D01*
X407169D01*
Y118431D01*
X405859D01*
Y120396D01*
X407169D01*
Y121051D01*
X406514D01*
Y123016D01*
X408479D01*
Y122361D01*
X409134D01*
Y121051D01*
X409789D01*
Y120396D01*
X410444D01*
Y121051D01*
X411099D01*
Y121706D01*
X411754D01*
Y124326D01*
X411099D01*
Y124981D01*
X410444D01*
Y125636D01*
X409134D01*
Y126292D01*
X406514D01*
Y125636D01*
X405204D01*
Y126292D01*
X403238D01*
Y126946D01*
X402583D01*
Y131532D01*
X403238D01*
Y132187D01*
X403893D01*
Y132842D01*
X405204D01*
Y133497D01*
X405859D01*
Y134807D01*
X405204D01*
Y135462D01*
X404548D01*
Y136117D01*
X403893D01*
Y136772D01*
X403238D01*
Y137427D01*
X402583D01*
Y138082D01*
X401928D01*
Y138737D01*
X401273D01*
Y139392D01*
X400618D01*
Y140048D01*
X399308D01*
Y141358D01*
X398653D01*
Y143978D01*
X399308D01*
Y144633D01*
X399963D01*
Y143978D01*
X401273D01*
Y144633D01*
X401928D01*
Y145288D01*
X403238D01*
Y145943D01*
X407169D01*
Y140703D01*
X407824D01*
Y138737D01*
X408479D01*
Y136772D01*
X409134D01*
Y136117D01*
X409789D01*
Y134807D01*
X410444D01*
Y134152D01*
X411099D01*
Y133497D01*
X411754D01*
Y131532D01*
X413719D01*
Y132187D01*
X414374D01*
Y132842D01*
X415029D01*
Y133497D01*
X415684D01*
Y136117D01*
X415029D01*
Y138082D01*
X414374D01*
Y138737D01*
X413719D01*
Y139392D01*
X413064D01*
Y138737D01*
X412409D01*
Y137427D01*
X411754D01*
Y138082D01*
X411099D01*
Y140703D01*
X411754D01*
Y141358D01*
X413719D01*
Y144633D01*
X413064D01*
Y150528D01*
X413719D01*
Y153149D01*
X414374D01*
Y156424D01*
X415029D01*
Y158389D01*
X414374D01*
Y159044D01*
X412409D01*
Y158389D01*
X411754D01*
Y153149D01*
X411099D01*
Y155769D01*
X410444D01*
Y161664D01*
X411099D01*
Y162974D01*
X411754D01*
Y163629D01*
X413064D01*
Y164284D01*
X415029D01*
Y163629D01*
D02*
G37*
G36*
X402583Y135462D02*
X403238D01*
Y133497D01*
X402583D01*
Y132842D01*
X401928D01*
Y131532D01*
X401273D01*
Y128257D01*
X397343D01*
Y127602D01*
X394723D01*
Y128257D01*
X392757D01*
Y127602D01*
X391447D01*
Y129567D01*
X390792D01*
Y130222D01*
X390137D01*
Y130877D01*
X389482D01*
Y131532D01*
X390137D01*
Y132187D01*
X391447D01*
Y132842D01*
X390792D01*
Y134152D01*
X391447D01*
Y134807D01*
X393413D01*
Y134152D01*
X394068D01*
Y132187D01*
X394723D01*
Y131532D01*
X395378D01*
Y130877D01*
X396033D01*
Y130222D01*
X397998D01*
Y130877D01*
X398653D01*
Y133497D01*
X399308D01*
Y136117D01*
X402583D01*
Y135462D01*
D02*
G37*
%LPC*%
G36*
X353454Y161664D02*
X351489D01*
Y160354D01*
X353454D01*
Y161664D01*
D02*
G37*
G36*
X403238D02*
X401273D01*
Y160354D01*
X401928D01*
Y161009D01*
X403238D01*
Y161664D01*
D02*
G37*
%LPD*%
G36*
X382277Y105330D02*
X381622D01*
Y104675D01*
X380967D01*
Y103365D01*
X380312D01*
Y102055D01*
X379656D01*
Y101399D01*
X379001D01*
Y100744D01*
X377691D01*
Y100089D01*
X376381D01*
Y99434D01*
X374416D01*
Y98779D01*
X372451D01*
Y99434D01*
X373106D01*
Y100089D01*
X373761D01*
Y100744D01*
X374416D01*
Y102055D01*
X373761D01*
Y103365D01*
X371796D01*
Y102055D01*
X373106D01*
Y101399D01*
X372451D01*
Y100744D01*
X368521D01*
Y101399D01*
X367865D01*
Y102055D01*
X371141D01*
Y104020D01*
X371796D01*
Y104675D01*
X373761D01*
Y105330D01*
X374416D01*
Y105985D01*
X375726D01*
Y106640D01*
X377036D01*
Y105985D01*
X381622D01*
Y106640D01*
X382277D01*
Y105330D01*
D02*
G37*
G36*
X367211Y100089D02*
X367865D01*
Y97469D01*
X368521D01*
Y96814D01*
X369831D01*
Y96159D01*
X371141D01*
Y95504D01*
X370486D01*
Y94194D01*
X369831D01*
Y93539D01*
X367865D01*
Y92884D01*
X366555D01*
Y94849D01*
X365245D01*
Y94194D01*
X363935D01*
Y93539D01*
X361970D01*
Y96159D01*
X363280D01*
Y96814D01*
X362625D01*
Y97469D01*
X361970D01*
Y98124D01*
X361315D01*
Y98779D01*
X361970D01*
Y99434D01*
X364590D01*
Y98124D01*
X365245D01*
Y97469D01*
X365900D01*
Y98779D01*
X365245D01*
Y100089D01*
X365900D01*
Y100744D01*
X367211D01*
Y100089D01*
D02*
G37*
G36*
X382277Y102710D02*
X382932D01*
Y96159D01*
X382277D01*
Y89608D01*
X382932D01*
Y88298D01*
X382277D01*
Y88954D01*
X380312D01*
Y88298D01*
X379001D01*
Y88954D01*
X378346D01*
Y89608D01*
X377691D01*
Y90264D01*
X377036D01*
Y92229D01*
X375726D01*
Y91574D01*
X372451D01*
Y92229D01*
X373106D01*
Y92884D01*
X371796D01*
Y92229D01*
X370486D01*
Y92884D01*
X371141D01*
Y94849D01*
X371796D01*
Y95504D01*
X372451D01*
Y96814D01*
X373761D01*
Y97469D01*
X374416D01*
Y98124D01*
X376381D01*
Y98779D01*
X377691D01*
Y99434D01*
X379001D01*
Y100089D01*
X380312D01*
Y100744D01*
X380967D01*
Y102055D01*
X381622D01*
Y103365D01*
X382277D01*
Y102710D01*
D02*
G37*
G36*
X388172Y98779D02*
X390792D01*
Y98124D01*
X391447D01*
Y97469D01*
X392103D01*
Y96814D01*
X392757D01*
Y95504D01*
X393413D01*
Y94194D01*
X394068D01*
Y88954D01*
X394723D01*
Y89608D01*
X395378D01*
Y90264D01*
X396033D01*
Y89608D01*
X397343D01*
Y88954D01*
X396688D01*
Y88298D01*
X396033D01*
Y87643D01*
X395378D01*
Y84368D01*
X394068D01*
Y83713D01*
X393413D01*
Y83058D01*
X392757D01*
Y81748D01*
X392103D01*
Y80438D01*
X391447D01*
Y79128D01*
X390792D01*
Y78473D01*
X390137D01*
Y77818D01*
X389482D01*
Y77162D01*
X383587D01*
Y77818D01*
X382932D01*
Y75852D01*
X383587D01*
Y75197D01*
X384242D01*
Y74542D01*
X384897D01*
Y73887D01*
X386207D01*
Y73232D01*
X386862D01*
Y72577D01*
X386207D01*
Y71922D01*
X385552D01*
Y70612D01*
X384897D01*
Y69957D01*
X384242D01*
Y69302D01*
X383587D01*
Y68647D01*
X382932D01*
Y67337D01*
X381622D01*
Y66682D01*
X379001D01*
Y67992D01*
X378346D01*
Y67337D01*
X377691D01*
Y66682D01*
X377036D01*
Y65372D01*
X376381D01*
Y64717D01*
X374416D01*
Y65372D01*
X373761D01*
Y66027D01*
X374416D01*
Y67337D01*
X375071D01*
Y67992D01*
X375726D01*
Y68647D01*
X375071D01*
X374416Y67992D01*
X373106D01*
Y68647D01*
X372451D01*
Y69302D01*
X373106D01*
Y69957D01*
X373761D01*
Y70612D01*
X375726D01*
Y71922D01*
X375071D01*
Y72577D01*
X378346D01*
Y70612D01*
X379001D01*
Y69957D01*
X379656D01*
Y69302D01*
X380967D01*
Y69957D01*
X381622D01*
Y70612D01*
X382277D01*
Y72577D01*
X381622D01*
Y73232D01*
X380967D01*
Y73887D01*
X379656D01*
Y74542D01*
X378346D01*
Y75197D01*
X377036D01*
Y75852D01*
X376381D01*
Y76508D01*
X375726D01*
Y77162D01*
X375071D01*
Y78473D01*
X374416D01*
Y79783D01*
X375071D01*
Y81093D01*
X375726D01*
Y81748D01*
X379001D01*
Y82403D01*
X378346D01*
Y83058D01*
X377691D01*
Y83713D01*
X376381D01*
Y84368D01*
X375071D01*
Y85023D01*
X373106D01*
Y85678D01*
X372451D01*
Y86333D01*
X371796D01*
Y87643D01*
X371141D01*
Y90264D01*
X374416D01*
Y90919D01*
X375726D01*
Y90264D01*
X376381D01*
Y89608D01*
X377036D01*
Y88954D01*
X377691D01*
Y88298D01*
X378346D01*
Y87643D01*
X379001D01*
Y86988D01*
X379656D01*
Y86333D01*
X380312D01*
Y87643D01*
X381622D01*
Y83713D01*
X382277D01*
Y80438D01*
X382932D01*
Y79783D01*
X383587D01*
Y79128D01*
X384242D01*
Y78473D01*
X385552D01*
Y77818D01*
X388172D01*
Y78473D01*
X388827D01*
Y79128D01*
X389482D01*
Y79783D01*
X390137D01*
Y80438D01*
X390792D01*
Y81748D01*
X391447D01*
Y83058D01*
X390792D01*
Y84368D01*
X388827D01*
Y83713D01*
X388172D01*
Y83058D01*
X387517D01*
Y85678D01*
X388172D01*
Y86333D01*
X389482D01*
Y86988D01*
X390792D01*
Y87643D01*
X390137D01*
Y88298D01*
X391447D01*
Y87643D01*
X392103D01*
Y88298D01*
X392757D01*
Y91574D01*
X393413D01*
Y92229D01*
X392757D01*
Y94849D01*
X392103D01*
Y95504D01*
X391447D01*
Y96159D01*
X390792D01*
Y96814D01*
X390137D01*
Y97469D01*
X389482D01*
Y96814D01*
X388827D01*
Y96159D01*
X389482D01*
Y95504D01*
X390137D01*
Y94849D01*
X390792D01*
Y94194D01*
X391447D01*
Y92884D01*
X390792D01*
Y92229D01*
X390137D01*
Y90919D01*
X389482D01*
Y89608D01*
X388827D01*
Y88298D01*
X388172D01*
Y90264D01*
X387517D01*
Y92229D01*
X386862D01*
Y92884D01*
X386207D01*
Y94194D01*
X385552D01*
Y94849D01*
X384897D01*
Y96814D01*
X385552D01*
Y98124D01*
X386207D01*
Y98779D01*
X387517D01*
Y99434D01*
X388172D01*
Y98779D01*
D02*
G37*
G36*
X358695Y94194D02*
X360005D01*
Y92884D01*
X360660D01*
Y91574D01*
X361315D01*
Y90919D01*
X362625D01*
Y90264D01*
X365900D01*
Y89608D01*
X367211D01*
Y90264D01*
X370486D01*
Y89608D01*
X369831D01*
Y88954D01*
X370486D01*
Y86988D01*
X371141D01*
Y85678D01*
X369831D01*
Y86333D01*
X367865D01*
Y86988D01*
X365900D01*
Y87643D01*
X365245D01*
Y88298D01*
X363280D01*
Y87643D01*
X361315D01*
Y88298D01*
X360660D01*
Y88954D01*
X359350D01*
Y87643D01*
X358695D01*
Y86988D01*
X356730D01*
Y88954D01*
X354765D01*
Y91574D01*
X358040D01*
Y92229D01*
X357385D01*
Y92884D01*
X356730D01*
Y93539D01*
X357385D01*
Y94194D01*
X358040D01*
Y94849D01*
X358695D01*
Y94194D01*
D02*
G37*
G36*
X371796Y83713D02*
X373106D01*
Y83058D01*
X375071D01*
Y81748D01*
X374416D01*
Y81093D01*
X373761D01*
Y77162D01*
X374416D01*
Y76508D01*
X370486D01*
Y75852D01*
X369176D01*
Y75197D01*
X367865D01*
Y74542D01*
X366555D01*
Y75852D01*
X363935D01*
Y75197D01*
X363280D01*
Y74542D01*
X362625D01*
Y73887D01*
X361315D01*
Y74542D01*
X360660D01*
Y75852D01*
X361315D01*
Y76508D01*
X360660D01*
Y77162D01*
X360005D01*
Y76508D01*
X358695D01*
Y78473D01*
X359350D01*
Y79128D01*
X361315D01*
Y79783D01*
X360005D01*
Y81093D01*
X360660D01*
Y81748D01*
X362625D01*
Y81093D01*
X363280D01*
Y79783D01*
X363935D01*
Y79128D01*
X364590D01*
Y78473D01*
X369176D01*
Y80438D01*
X368521D01*
Y81093D01*
X367865D01*
Y82403D01*
X368521D01*
Y83713D01*
X369176D01*
Y84368D01*
X371796D01*
Y83713D01*
D02*
G37*
%LPC*%
G36*
X377691Y105330D02*
X375726D01*
Y104675D01*
Y104020D01*
X376381D01*
Y104675D01*
X377691D01*
Y105330D01*
D02*
G37*
G36*
X364792Y38513D02*
X364585D01*
Y38306D01*
X364792D01*
Y38513D01*
D02*
G37*
G36*
X363760Y38925D02*
X363347D01*
Y38719D01*
X363141D01*
Y38100D01*
X362934D01*
Y37894D01*
X362728D01*
Y37687D01*
X362522D01*
Y37481D01*
X362315D01*
Y37274D01*
X362109D01*
Y36862D01*
X361902D01*
Y36655D01*
X362522D01*
Y36862D01*
X362728D01*
Y37068D01*
X362934D01*
Y37274D01*
X363141D01*
Y37687D01*
X363347D01*
Y38100D01*
X363553D01*
Y38513D01*
X363760D01*
Y38925D01*
D02*
G37*
G36*
X363141Y36655D02*
X362934D01*
Y36449D01*
X363141D01*
Y36655D01*
D02*
G37*
G36*
X364173Y37481D02*
X363553D01*
Y37274D01*
Y37068D01*
X363347D01*
Y36862D01*
X363141D01*
Y36655D01*
X363966D01*
Y36036D01*
X363760D01*
Y35624D01*
X363553D01*
Y35417D01*
X363347D01*
Y35004D01*
X363141D01*
Y34798D01*
X363553D01*
Y35004D01*
X363760D01*
Y35211D01*
X363966D01*
Y35417D01*
X364173D01*
Y35624D01*
X364379D01*
Y35830D01*
X364585D01*
Y36036D01*
X364792D01*
Y36243D01*
X364998D01*
Y36449D01*
X365204D01*
Y36862D01*
X364998D01*
Y37068D01*
X364585D01*
Y37274D01*
X364173D01*
Y37481D01*
D02*
G37*
%LPD*%
D10*
X419100Y641170D02*
G03*
X419100Y640170I0J-500D01*
G01*
D02*
G03*
X419100Y641170I0J500D01*
G01*
D02*
G03*
X419100Y640170I0J-500D01*
G01*
X124460Y641170D02*
G03*
X124460Y640170I0J-500D01*
G01*
D02*
G03*
X124460Y641170I0J500D01*
G01*
D02*
G03*
X124460Y640170I0J-500D01*
G01*
X123190Y479880D02*
G03*
X123190Y478880I0J-500D01*
G01*
D02*
G03*
X123190Y479880I0J500D01*
G01*
D02*
G03*
X123190Y478880I0J-500D01*
G01*
X121920Y228420D02*
G03*
X121920Y227420I0J-500D01*
G01*
D02*
G03*
X121920Y228420I0J500D01*
G01*
D02*
G03*
X121920Y227420I0J-500D01*
G01*
X538580Y94520D02*
Y668020D01*
X487580Y94520D02*
X538580D01*
X487580D02*
Y682720D01*
X500380D01*
X409100Y630170D02*
X429100D01*
X409100Y566170D02*
X429100D01*
X387100Y588170D02*
Y608170D01*
X451100Y588170D02*
Y608170D01*
X57250Y94520D02*
Y668020D01*
X6250Y94520D02*
X57250D01*
X6250D02*
Y682720D01*
X19050D01*
X114460Y630170D02*
X134460D01*
X114460Y566170D02*
X134460D01*
X92460Y588170D02*
Y608170D01*
X156460Y588170D02*
Y608170D01*
X113190Y468880D02*
X133190D01*
X113190Y404880D02*
X133190D01*
X91190Y426880D02*
Y446880D01*
X155190Y426880D02*
Y446880D01*
X111920Y217420D02*
X131920D01*
X111920Y153420D02*
X131920D01*
X89920Y175420D02*
Y195420D01*
X153920Y175420D02*
Y195420D01*
D11*
X459741Y675638D02*
X454663D01*
X457202D01*
Y662942D01*
X454663Y660403D01*
X452123D01*
X449584Y662942D01*
X474976Y660403D02*
X464819D01*
X474976Y670559D01*
Y673098D01*
X472437Y675638D01*
X467358D01*
X464819Y673098D01*
X361951Y608327D02*
X356872D01*
X359412D01*
Y595632D01*
X356872Y593092D01*
X354333D01*
X351794Y595632D01*
X377186Y608327D02*
X372108Y605788D01*
X367029Y600710D01*
Y595632D01*
X369568Y593092D01*
X374647D01*
X377186Y595632D01*
Y598171D01*
X374647Y600710D01*
X367029D01*
X76200Y680717D02*
X71122D01*
X73661D01*
Y668022D01*
X71122Y665482D01*
X68583D01*
X66043Y668022D01*
X81278Y665482D02*
X86357D01*
X83818D01*
Y680717D01*
X81278Y678178D01*
X175261Y605788D02*
X170182D01*
X172722D01*
Y593092D01*
X170182Y590552D01*
X167643D01*
X165104Y593092D01*
X180339Y603248D02*
X182878Y605788D01*
X187957D01*
X190496Y603248D01*
Y600709D01*
X187957Y598170D01*
X185417D01*
X187957D01*
X190496Y595631D01*
Y593092D01*
X187957Y590552D01*
X182878D01*
X180339Y593092D01*
X87881Y507741D02*
X82802D01*
X85342D01*
Y495045D01*
X82802Y492506D01*
X80263D01*
X77724Y495045D01*
X100577Y492506D02*
Y507741D01*
X92959Y500123D01*
X103116D01*
X86611Y256281D02*
X81532D01*
X84072D01*
Y243585D01*
X81532Y241046D01*
X78993D01*
X76454Y243585D01*
X101846Y256281D02*
X91689D01*
Y248664D01*
X96767Y251203D01*
X99307D01*
X101846Y248664D01*
Y243585D01*
X99307Y241046D01*
X94228D01*
X91689Y243585D01*
X406397Y549906D02*
X403857Y552445D01*
X398779D01*
X396240Y549906D01*
Y539749D01*
X398779Y537210D01*
X403857D01*
X406397Y539749D01*
Y544827D01*
X401318D01*
X411475Y537210D02*
Y552445D01*
X421632Y537210D01*
Y552445D01*
X426710D02*
Y537210D01*
X434328D01*
X436867Y539749D01*
Y549906D01*
X434328Y552445D01*
X426710D01*
X95250Y120650D02*
Y130807D01*
X100328Y135885D01*
X105407Y130807D01*
Y120650D01*
Y128267D01*
X95250D01*
X110485Y135885D02*
X115563D01*
X113024D01*
Y120650D01*
X110485D01*
X115563D01*
X123181D02*
Y135885D01*
X133338Y120650D01*
Y135885D01*
X138416Y120650D02*
X143494D01*
X140955D01*
Y135885D01*
X138416Y133346D01*
X69850Y388614D02*
X74928D01*
X72389D01*
Y373379D01*
X69850D01*
X74928D01*
X92703D02*
X82546D01*
X92703Y383536D01*
Y386075D01*
X90163Y388614D01*
X85085D01*
X82546Y386075D01*
X107938D02*
X105399Y388614D01*
X100320D01*
X97781Y386075D01*
Y375918D01*
X100320Y373379D01*
X105399D01*
X107938Y375918D01*
X123173Y373379D02*
X113016D01*
X123173Y383536D01*
Y386075D01*
X120634Y388614D01*
X115555D01*
X113016Y386075D01*
X128251Y370840D02*
X138408D01*
X153643Y386075D02*
X151104Y388614D01*
X146025D01*
X143486Y386075D01*
Y383536D01*
X146025Y380997D01*
X151104D01*
X153643Y378457D01*
Y375918D01*
X151104Y373379D01*
X146025D01*
X143486Y375918D01*
X158721Y388614D02*
Y373379D01*
X166339D01*
X168878Y375918D01*
Y386075D01*
X166339Y388614D01*
X158721D01*
X173956Y373379D02*
Y383536D01*
X179035Y388614D01*
X184113Y383536D01*
Y373379D01*
Y380997D01*
X173956D01*
X78740Y551174D02*
Y541017D01*
X83818Y535939D01*
X88897Y541017D01*
Y551174D01*
X93975D02*
Y535939D01*
X101593D01*
X104132Y538478D01*
Y548635D01*
X101593Y551174D01*
X93975D01*
X109210D02*
Y535939D01*
X116828D01*
X119367Y538478D01*
Y548635D01*
X116828Y551174D01*
X109210D01*
X124445Y533400D02*
X134602D01*
X149837Y551174D02*
X139680D01*
Y543557D01*
X144759Y546096D01*
X147298D01*
X149837Y543557D01*
Y538478D01*
X147298Y535939D01*
X142219D01*
X139680Y538478D01*
X154915Y551174D02*
Y541017D01*
X159994Y535939D01*
X165072Y541017D01*
Y551174D01*
M02*
