G04*
G04 #@! TF.GenerationSoftware,Altium Limited,Altium Designer,25.8.1 (18)*
G04*
G04 Layer_Physical_Order=1*
G04 Layer_Color=255*
%FSLAX44Y44*%
%MOMM*%
G71*
G04*
G04 #@! TF.SameCoordinates,B4FD2330-8F18-4F1E-BBFD-ABE2F71AA5CF*
G04*
G04*
G04 #@! TF.FilePolarity,Positive*
G04*
G01*
G75*
%ADD11C,0.2540*%
%ADD17C,1.2750*%
%ADD18R,1.2750X1.2750*%
%ADD19C,2.2500*%
%ADD20C,2.4000*%
%ADD21C,3.0000*%
G36*
X546104Y0D02*
X0D01*
Y732557D01*
X17090D01*
X18142Y730017D01*
X16856Y728731D01*
X14936Y725858D01*
X13614Y722666D01*
X12940Y719277D01*
Y715823D01*
X13614Y712434D01*
X14936Y709242D01*
X16856Y706369D01*
X19299Y703926D01*
X22172Y702006D01*
X25364Y700684D01*
X28753Y700010D01*
X32208D01*
X35596Y700684D01*
X38788Y702006D01*
X41661Y703926D01*
X44104Y706369D01*
X46024Y709242D01*
X47346Y712434D01*
X48020Y715823D01*
Y719277D01*
X47346Y722666D01*
X46024Y725858D01*
X44104Y728731D01*
X42818Y730017D01*
X43870Y732557D01*
X139987D01*
X140078Y732515D01*
X141979Y730544D01*
Y715384D01*
X141946Y715304D01*
X140970Y710397D01*
Y710142D01*
X140920Y709892D01*
Y707390D01*
Y676910D01*
Y674408D01*
X140970Y674158D01*
Y673903D01*
X141946Y668996D01*
X142044Y668760D01*
X142093Y668510D01*
X144008Y663887D01*
X144150Y663675D01*
X144248Y663440D01*
X147027Y659280D01*
X147208Y659099D01*
X147349Y658887D01*
X150887Y655349D01*
X151099Y655208D01*
X151280Y655027D01*
X155440Y652247D01*
X155675Y652150D01*
X155887Y652008D01*
X160510Y650094D01*
X160760Y650044D01*
X160996Y649946D01*
X165903Y648970D01*
X166158D01*
X166408Y648920D01*
X398742D01*
X398992Y648970D01*
X399247D01*
X404154Y649946D01*
X404390Y650044D01*
X404640Y650094D01*
X409263Y652008D01*
X409474Y652150D01*
X409710Y652247D01*
X413870Y655027D01*
X414051Y655208D01*
X414263Y655349D01*
X417801Y658887D01*
X417942Y659099D01*
X418123Y659280D01*
X420902Y663440D01*
X421000Y663676D01*
X421142Y663887D01*
X423056Y668510D01*
X423106Y668760D01*
X423204Y668996D01*
X424180Y673903D01*
Y674158D01*
X424230Y674408D01*
Y676910D01*
Y707390D01*
Y709892D01*
X424180Y710142D01*
Y710397D01*
X423742Y712600D01*
Y731814D01*
X424352Y732557D01*
X500960D01*
X502012Y730017D01*
X500726Y728731D01*
X498806Y725858D01*
X497484Y722666D01*
X496810Y719277D01*
Y715823D01*
X497484Y712434D01*
X498806Y709242D01*
X500726Y706369D01*
X503169Y703926D01*
X506042Y702006D01*
X509234Y700684D01*
X512622Y700010D01*
X516077D01*
X519466Y700684D01*
X522658Y702006D01*
X525531Y703926D01*
X527974Y706369D01*
X529894Y709242D01*
X531216Y712434D01*
X531890Y715823D01*
Y719277D01*
X531216Y722666D01*
X529894Y725858D01*
X527974Y728731D01*
X526688Y730017D01*
X527740Y732557D01*
X546104D01*
X546104Y0D01*
D02*
G37*
%LPC*%
G36*
X45720Y676909D02*
Y669290D01*
X53339D01*
X52758Y671461D01*
X51584Y673494D01*
X49924Y675154D01*
X47891Y676328D01*
X45720Y676909D01*
D02*
G37*
G36*
X27965Y676935D02*
X20320D01*
Y669290D01*
X27965D01*
Y676935D01*
D02*
G37*
G36*
X43180Y676909D02*
X41009Y676328D01*
X38976Y675154D01*
X37316Y673494D01*
X36142Y671461D01*
X35561Y669290D01*
X43180D01*
Y676909D01*
D02*
G37*
G36*
X17780Y676935D02*
X10135D01*
Y669290D01*
X17780D01*
Y676935D01*
D02*
G37*
G36*
X53339Y666750D02*
X45720D01*
Y659131D01*
X47891Y659713D01*
X49924Y660886D01*
X51584Y662546D01*
X52758Y664579D01*
X53339Y666750D01*
D02*
G37*
G36*
X43180D02*
X35561D01*
X36142Y664579D01*
X37316Y662546D01*
X38976Y660886D01*
X41009Y659713D01*
X43180Y659131D01*
Y666750D01*
D02*
G37*
G36*
X526954Y676935D02*
X524606D01*
X522339Y676328D01*
X520306Y675154D01*
X518646Y673494D01*
X517472Y671461D01*
X516865Y669194D01*
Y666846D01*
X517472Y664579D01*
X518646Y662546D01*
X520306Y660886D01*
X522339Y659713D01*
X524606Y659105D01*
X526954D01*
X529221Y659713D01*
X531254Y660886D01*
X532914Y662546D01*
X534087Y664579D01*
X534695Y666846D01*
Y669194D01*
X534087Y671461D01*
X532914Y673494D01*
X531254Y675154D01*
X529221Y676328D01*
X526954Y676935D01*
D02*
G37*
G36*
X509295D02*
X491465D01*
Y671905D01*
X487680D01*
X486193Y671609D01*
X484933Y670767D01*
X470963Y656797D01*
X470121Y655537D01*
X469825Y654050D01*
Y621369D01*
X450511Y602055D01*
X432336D01*
X431950Y603493D01*
X430135Y606637D01*
X427567Y609205D01*
X424423Y611020D01*
X420915Y611960D01*
X417285D01*
X413777Y611020D01*
X410633Y609205D01*
X408065Y606637D01*
X406250Y603493D01*
X405310Y599986D01*
Y596354D01*
X406250Y592847D01*
X408065Y589703D01*
X410633Y587135D01*
X413777Y585320D01*
X417285Y584380D01*
X420915D01*
X424423Y585320D01*
X427567Y587135D01*
X430135Y589703D01*
X431950Y592847D01*
X432336Y594285D01*
X452120D01*
X453607Y594581D01*
X454867Y595423D01*
X476457Y617013D01*
X477299Y618273D01*
X477595Y619760D01*
Y652441D01*
X488925Y663771D01*
X491465Y663256D01*
Y659105D01*
X509295D01*
Y676935D01*
D02*
G37*
G36*
X27965Y666750D02*
X20320D01*
Y659105D01*
X27965D01*
Y666750D01*
D02*
G37*
G36*
X17780D02*
X10135D01*
Y659105D01*
X17780D01*
Y666750D01*
D02*
G37*
G36*
X526954Y651535D02*
X524606D01*
X522339Y650928D01*
X520306Y649754D01*
X518646Y648094D01*
X517472Y646061D01*
X516865Y643794D01*
Y641446D01*
X517472Y639179D01*
X518646Y637146D01*
X520306Y635486D01*
X522339Y634313D01*
X524606Y633705D01*
X526954D01*
X529221Y634313D01*
X531254Y635486D01*
X532914Y637146D01*
X534087Y639179D01*
X534695Y641446D01*
Y643794D01*
X534087Y646061D01*
X532914Y648094D01*
X531254Y649754D01*
X529221Y650928D01*
X526954Y651535D01*
D02*
G37*
G36*
X501554D02*
X499206D01*
X496939Y650928D01*
X494906Y649754D01*
X493246Y648094D01*
X492072Y646061D01*
X491465Y643794D01*
Y641446D01*
X492072Y639179D01*
X493246Y637146D01*
X494906Y635486D01*
X496939Y634313D01*
X499206Y633705D01*
X501554D01*
X503821Y634313D01*
X505854Y635486D01*
X507514Y637146D01*
X508688Y639179D01*
X509295Y641446D01*
Y643794D01*
X508688Y646061D01*
X507514Y648094D01*
X505854Y649754D01*
X503821Y650928D01*
X501554Y651535D01*
D02*
G37*
G36*
X45624D02*
X43276D01*
X41009Y650928D01*
X38976Y649754D01*
X37316Y648094D01*
X36142Y646061D01*
X35535Y643794D01*
Y641446D01*
X36142Y639179D01*
X37316Y637146D01*
X38976Y635486D01*
X41009Y634313D01*
X43276Y633705D01*
X45624D01*
X47891Y634313D01*
X49924Y635486D01*
X51584Y637146D01*
X52758Y639179D01*
X53365Y641446D01*
Y643794D01*
X52758Y646061D01*
X51584Y648094D01*
X49924Y649754D01*
X47891Y650928D01*
X45624Y651535D01*
D02*
G37*
G36*
X20224D02*
X17876D01*
X15609Y650928D01*
X13576Y649754D01*
X11916Y648094D01*
X10742Y646061D01*
X10135Y643794D01*
Y641446D01*
X10742Y639179D01*
X11916Y637146D01*
X13576Y635486D01*
X15609Y634313D01*
X17876Y633705D01*
X20224D01*
X22491Y634313D01*
X24524Y635486D01*
X26184Y637146D01*
X27357Y639179D01*
X27965Y641446D01*
Y643794D01*
X27357Y646061D01*
X26184Y648094D01*
X24524Y649754D01*
X22491Y650928D01*
X20224Y651535D01*
D02*
G37*
G36*
X446414Y638110D02*
X445770D01*
Y624840D01*
X459040D01*
Y625484D01*
X458049Y629182D01*
X456135Y632498D01*
X453428Y635205D01*
X450112Y637119D01*
X446414Y638110D01*
D02*
G37*
G36*
X395614D02*
X394970D01*
Y624840D01*
X408240D01*
Y625484D01*
X407249Y629182D01*
X405335Y632498D01*
X402628Y635205D01*
X399312Y637119D01*
X395614Y638110D01*
D02*
G37*
G36*
X151774D02*
X151130D01*
Y624840D01*
X164400D01*
Y625484D01*
X163409Y629182D01*
X161495Y632498D01*
X158788Y635205D01*
X155472Y637119D01*
X151774Y638110D01*
D02*
G37*
G36*
X100974D02*
X100330D01*
Y624840D01*
X113600D01*
Y625484D01*
X112609Y629182D01*
X110695Y632498D01*
X107988Y635205D01*
X104672Y637119D01*
X100974Y638110D01*
D02*
G37*
G36*
X443230D02*
X442586D01*
X438888Y637119D01*
X435572Y635205D01*
X432865Y632498D01*
X430951Y629182D01*
X429960Y625484D01*
Y624840D01*
X443230D01*
Y638110D01*
D02*
G37*
G36*
X392430D02*
X391786D01*
X388088Y637119D01*
X384772Y635205D01*
X382065Y632498D01*
X380151Y629182D01*
X379160Y625484D01*
Y624840D01*
X392430D01*
Y638110D01*
D02*
G37*
G36*
X148590D02*
X147946D01*
X144248Y637119D01*
X140932Y635205D01*
X138225Y632498D01*
X136311Y629182D01*
X135320Y625484D01*
Y624840D01*
X148590D01*
Y638110D01*
D02*
G37*
G36*
X97790D02*
X97146D01*
X93448Y637119D01*
X90132Y635205D01*
X87425Y632498D01*
X85511Y629182D01*
X84520Y625484D01*
Y624840D01*
X97790D01*
Y638110D01*
D02*
G37*
G36*
X459040Y622300D02*
X445770D01*
Y609030D01*
X446414D01*
X450112Y610021D01*
X453428Y611935D01*
X456135Y614642D01*
X458049Y617958D01*
X459040Y621656D01*
Y622300D01*
D02*
G37*
G36*
X443230D02*
X429960D01*
Y621656D01*
X430951Y617958D01*
X432865Y614642D01*
X435572Y611935D01*
X438888Y610021D01*
X442586Y609030D01*
X443230D01*
Y622300D01*
D02*
G37*
G36*
X408240D02*
X394970D01*
Y609030D01*
X395614D01*
X399312Y610021D01*
X402628Y611935D01*
X405335Y614642D01*
X407249Y617958D01*
X408240Y621656D01*
Y622300D01*
D02*
G37*
G36*
X392430D02*
X379160D01*
Y621656D01*
X380151Y617958D01*
X382065Y614642D01*
X384772Y611935D01*
X388088Y610021D01*
X391786Y609030D01*
X392430D01*
Y622300D01*
D02*
G37*
G36*
X164400D02*
X151130D01*
Y609030D01*
X151774D01*
X155472Y610021D01*
X158788Y611935D01*
X161495Y614642D01*
X163409Y617958D01*
X164400Y621656D01*
Y622300D01*
D02*
G37*
G36*
X148590D02*
X135320D01*
Y621656D01*
X136311Y617958D01*
X138225Y614642D01*
X140932Y611935D01*
X144248Y610021D01*
X147946Y609030D01*
X148590D01*
Y622300D01*
D02*
G37*
G36*
X113600D02*
X100330D01*
Y609030D01*
X100974D01*
X104672Y610021D01*
X107988Y611935D01*
X110695Y614642D01*
X112609Y617958D01*
X113600Y621656D01*
Y622300D01*
D02*
G37*
G36*
X97790D02*
X84520D01*
Y621656D01*
X85511Y617958D01*
X87425Y614642D01*
X90132Y611935D01*
X93448Y610021D01*
X97146Y609030D01*
X97790D01*
Y622300D01*
D02*
G37*
G36*
X526954Y626135D02*
X524606D01*
X522339Y625527D01*
X520306Y624354D01*
X518646Y622694D01*
X517472Y620661D01*
X516865Y618394D01*
Y616046D01*
X517472Y613779D01*
X518646Y611746D01*
X520306Y610086D01*
X522339Y608913D01*
X524606Y608305D01*
X526954D01*
X529221Y608913D01*
X531254Y610086D01*
X532914Y611746D01*
X534087Y613779D01*
X534695Y616046D01*
Y618394D01*
X534087Y620661D01*
X532914Y622694D01*
X531254Y624354D01*
X529221Y625527D01*
X526954Y626135D01*
D02*
G37*
G36*
X501554D02*
X499206D01*
X496939Y625527D01*
X494906Y624354D01*
X493246Y622694D01*
X492072Y620661D01*
X491465Y618394D01*
Y616046D01*
X492072Y613779D01*
X493246Y611746D01*
X494906Y610086D01*
X496939Y608913D01*
X499206Y608305D01*
X501554D01*
X503821Y608913D01*
X505854Y610086D01*
X507514Y611746D01*
X508688Y613779D01*
X509295Y616046D01*
Y618394D01*
X508688Y620661D01*
X507514Y622694D01*
X505854Y624354D01*
X503821Y625527D01*
X501554Y626135D01*
D02*
G37*
G36*
X20224D02*
X17876D01*
X15609Y625527D01*
X13576Y624354D01*
X11916Y622694D01*
X10742Y620661D01*
X10135Y618394D01*
Y616046D01*
X10742Y613779D01*
X11916Y611746D01*
X13576Y610086D01*
X15609Y608913D01*
X17876Y608305D01*
X20224D01*
X22491Y608913D01*
X24524Y610086D01*
X26184Y611746D01*
X27357Y613779D01*
X27965Y616046D01*
Y618394D01*
X27357Y620661D01*
X26184Y622694D01*
X24524Y624354D01*
X22491Y625527D01*
X20224Y626135D01*
D02*
G37*
G36*
X45624D02*
X43276D01*
X41009Y625527D01*
X38976Y624354D01*
X37316Y622694D01*
X36142Y620661D01*
X35535Y618394D01*
Y616046D01*
X36142Y613779D01*
X37316Y611746D01*
X38976Y610086D01*
X41009Y608913D01*
X43276Y608305D01*
X45624D01*
X47891Y608913D01*
X49924Y610086D01*
X51584Y611746D01*
X52501Y613335D01*
X68241D01*
X86153Y595423D01*
X87413Y594581D01*
X88900Y594285D01*
X111224D01*
X111610Y592847D01*
X113425Y589703D01*
X115993Y587135D01*
X119137Y585320D01*
X122645Y584380D01*
X126276D01*
X129783Y585320D01*
X132927Y587135D01*
X135495Y589703D01*
X137310Y592847D01*
X138250Y596354D01*
Y599986D01*
X137310Y603493D01*
X135495Y606637D01*
X132927Y609205D01*
X129783Y611020D01*
X126276Y611960D01*
X122645D01*
X119137Y611020D01*
X115993Y609205D01*
X113425Y606637D01*
X111610Y603493D01*
X111224Y602055D01*
X90509D01*
X72597Y619967D01*
X71337Y620809D01*
X69850Y621105D01*
X52501D01*
X51584Y622694D01*
X49924Y624354D01*
X47891Y625527D01*
X45624Y626135D01*
D02*
G37*
G36*
X526954Y600735D02*
X524606D01*
X522339Y600127D01*
X520306Y598954D01*
X518646Y597294D01*
X517472Y595261D01*
X516865Y592994D01*
Y590646D01*
X517472Y588379D01*
X518646Y586346D01*
X520306Y584686D01*
X522339Y583512D01*
X524606Y582905D01*
X526954D01*
X529221Y583512D01*
X531254Y584686D01*
X532914Y586346D01*
X534087Y588379D01*
X534695Y590646D01*
Y592994D01*
X534087Y595261D01*
X532914Y597294D01*
X531254Y598954D01*
X529221Y600127D01*
X526954Y600735D01*
D02*
G37*
G36*
X501554D02*
X499206D01*
X496939Y600127D01*
X494906Y598954D01*
X493246Y597294D01*
X492072Y595261D01*
X491465Y592994D01*
Y590646D01*
X492072Y588379D01*
X493246Y586346D01*
X494906Y584686D01*
X496939Y583512D01*
X499206Y582905D01*
X501554D01*
X503821Y583512D01*
X505854Y584686D01*
X507514Y586346D01*
X508688Y588379D01*
X509295Y590646D01*
Y592994D01*
X508688Y595261D01*
X507514Y597294D01*
X505854Y598954D01*
X503821Y600127D01*
X501554Y600735D01*
D02*
G37*
G36*
X45624D02*
X43276D01*
X41009Y600127D01*
X38976Y598954D01*
X37316Y597294D01*
X36142Y595261D01*
X35535Y592994D01*
Y590646D01*
X36142Y588379D01*
X37316Y586346D01*
X38976Y584686D01*
X41009Y583512D01*
X43276Y582905D01*
X45624D01*
X47891Y583512D01*
X49924Y584686D01*
X51584Y586346D01*
X52758Y588379D01*
X53365Y590646D01*
Y592994D01*
X52758Y595261D01*
X51584Y597294D01*
X49924Y598954D01*
X47891Y600127D01*
X45624Y600735D01*
D02*
G37*
G36*
X20224D02*
X17876D01*
X15609Y600127D01*
X13576Y598954D01*
X11916Y597294D01*
X10742Y595261D01*
X10135Y592994D01*
Y590646D01*
X10742Y588379D01*
X11916Y586346D01*
X13576Y584686D01*
X15609Y583512D01*
X17876Y582905D01*
X20224D01*
X22491Y583512D01*
X24524Y584686D01*
X26184Y586346D01*
X27357Y588379D01*
X27965Y590646D01*
Y592994D01*
X27357Y595261D01*
X26184Y597294D01*
X24524Y598954D01*
X22491Y600127D01*
X20224Y600735D01*
D02*
G37*
G36*
X446414Y587310D02*
X445770D01*
Y574040D01*
X459040D01*
Y574684D01*
X458049Y578382D01*
X456135Y581698D01*
X453428Y584405D01*
X450112Y586319D01*
X446414Y587310D01*
D02*
G37*
G36*
X395614D02*
X394970D01*
Y574040D01*
X408240D01*
Y574684D01*
X407249Y578382D01*
X405335Y581698D01*
X402628Y584405D01*
X399312Y586319D01*
X395614Y587310D01*
D02*
G37*
G36*
X151774D02*
X151130D01*
Y574040D01*
X164400D01*
Y574684D01*
X163409Y578382D01*
X161495Y581698D01*
X158788Y584405D01*
X155472Y586319D01*
X151774Y587310D01*
D02*
G37*
G36*
X100974D02*
X100330D01*
Y574040D01*
X113600D01*
Y574684D01*
X112609Y578382D01*
X110695Y581698D01*
X107988Y584405D01*
X104672Y586319D01*
X100974Y587310D01*
D02*
G37*
G36*
X443230D02*
X442586D01*
X438888Y586319D01*
X435572Y584405D01*
X432865Y581698D01*
X430951Y578382D01*
X429960Y574684D01*
Y574040D01*
X443230D01*
Y587310D01*
D02*
G37*
G36*
X392430D02*
X391786D01*
X388088Y586319D01*
X384772Y584405D01*
X382065Y581698D01*
X380151Y578382D01*
X379160Y574684D01*
Y574040D01*
X392430D01*
Y587310D01*
D02*
G37*
G36*
X148590D02*
X147946D01*
X144248Y586319D01*
X140932Y584405D01*
X138225Y581698D01*
X136311Y578382D01*
X135320Y574684D01*
Y574040D01*
X148590D01*
Y587310D01*
D02*
G37*
G36*
X97790D02*
X97146D01*
X93448Y586319D01*
X90132Y584405D01*
X87425Y581698D01*
X85511Y578382D01*
X84520Y574684D01*
Y574040D01*
X97790D01*
Y587310D01*
D02*
G37*
G36*
X459040Y571500D02*
X445770D01*
Y558230D01*
X446414D01*
X450112Y559221D01*
X453428Y561135D01*
X456135Y563842D01*
X458049Y567158D01*
X459040Y570856D01*
Y571500D01*
D02*
G37*
G36*
X443230D02*
X429960D01*
Y570856D01*
X430951Y567158D01*
X432865Y563842D01*
X435572Y561135D01*
X438888Y559221D01*
X442586Y558230D01*
X443230D01*
Y571500D01*
D02*
G37*
G36*
X408240D02*
X394970D01*
Y558230D01*
X395614D01*
X399312Y559221D01*
X402628Y561135D01*
X405335Y563842D01*
X407249Y567158D01*
X408240Y570856D01*
Y571500D01*
D02*
G37*
G36*
X392430D02*
X379160D01*
Y570856D01*
X380151Y567158D01*
X382065Y563842D01*
X384772Y561135D01*
X388088Y559221D01*
X391786Y558230D01*
X392430D01*
Y571500D01*
D02*
G37*
G36*
X164400D02*
X151130D01*
Y558230D01*
X151774D01*
X155472Y559221D01*
X158788Y561135D01*
X161495Y563842D01*
X163409Y567158D01*
X164400Y570856D01*
Y571500D01*
D02*
G37*
G36*
X148590D02*
X135320D01*
Y570856D01*
X136311Y567158D01*
X138225Y563842D01*
X140932Y561135D01*
X144248Y559221D01*
X147946Y558230D01*
X148590D01*
Y571500D01*
D02*
G37*
G36*
X113600D02*
X100330D01*
Y558230D01*
X100974D01*
X104672Y559221D01*
X107988Y561135D01*
X110695Y563842D01*
X112609Y567158D01*
X113600Y570856D01*
Y571500D01*
D02*
G37*
G36*
X97790D02*
X84520D01*
Y570856D01*
X85511Y567158D01*
X87425Y563842D01*
X90132Y561135D01*
X93448Y559221D01*
X97146Y558230D01*
X97790D01*
Y571500D01*
D02*
G37*
G36*
X526954Y575335D02*
X524606D01*
X522339Y574728D01*
X520306Y573554D01*
X518646Y571894D01*
X517472Y569861D01*
X516865Y567594D01*
Y565246D01*
X517472Y562979D01*
X518646Y560946D01*
X520306Y559286D01*
X522339Y558112D01*
X524606Y557505D01*
X526954D01*
X529221Y558112D01*
X531254Y559286D01*
X532914Y560946D01*
X534087Y562979D01*
X534695Y565246D01*
Y567594D01*
X534087Y569861D01*
X532914Y571894D01*
X531254Y573554D01*
X529221Y574728D01*
X526954Y575335D01*
D02*
G37*
G36*
X501554D02*
X499206D01*
X496939Y574728D01*
X494906Y573554D01*
X493246Y571894D01*
X492072Y569861D01*
X491465Y567594D01*
Y565246D01*
X492072Y562979D01*
X493246Y560946D01*
X494906Y559286D01*
X496939Y558112D01*
X499206Y557505D01*
X501554D01*
X503821Y558112D01*
X505854Y559286D01*
X507514Y560946D01*
X508688Y562979D01*
X509295Y565246D01*
Y567594D01*
X508688Y569861D01*
X507514Y571894D01*
X505854Y573554D01*
X503821Y574728D01*
X501554Y575335D01*
D02*
G37*
G36*
X45624D02*
X43276D01*
X41009Y574728D01*
X38976Y573554D01*
X37316Y571894D01*
X36142Y569861D01*
X35535Y567594D01*
Y565246D01*
X36142Y562979D01*
X37316Y560946D01*
X38976Y559286D01*
X41009Y558112D01*
X43276Y557505D01*
X45624D01*
X47891Y558112D01*
X49924Y559286D01*
X51584Y560946D01*
X52758Y562979D01*
X53365Y565246D01*
Y567594D01*
X52758Y569861D01*
X51584Y571894D01*
X49924Y573554D01*
X47891Y574728D01*
X45624Y575335D01*
D02*
G37*
G36*
X20224D02*
X17876D01*
X15609Y574728D01*
X13576Y573554D01*
X11916Y571894D01*
X10742Y569861D01*
X10135Y567594D01*
Y565246D01*
X10742Y562979D01*
X11916Y560946D01*
X13576Y559286D01*
X15609Y558112D01*
X17876Y557505D01*
X20224D01*
X22491Y558112D01*
X24524Y559286D01*
X26184Y560946D01*
X27357Y562979D01*
X27965Y565246D01*
Y567594D01*
X27357Y569861D01*
X26184Y571894D01*
X24524Y573554D01*
X22491Y574728D01*
X20224Y575335D01*
D02*
G37*
G36*
X526954Y549935D02*
X524606D01*
X522339Y549328D01*
X520306Y548154D01*
X518646Y546494D01*
X517472Y544461D01*
X516865Y542194D01*
Y539846D01*
X517472Y537579D01*
X518646Y535546D01*
X520306Y533886D01*
X522339Y532713D01*
X524606Y532105D01*
X526954D01*
X529221Y532713D01*
X531254Y533886D01*
X532914Y535546D01*
X534087Y537579D01*
X534695Y539846D01*
Y542194D01*
X534087Y544461D01*
X532914Y546494D01*
X531254Y548154D01*
X529221Y549328D01*
X526954Y549935D01*
D02*
G37*
G36*
X501554D02*
X499206D01*
X496939Y549328D01*
X494906Y548154D01*
X493246Y546494D01*
X492072Y544461D01*
X491465Y542194D01*
Y539846D01*
X492072Y537579D01*
X493246Y535546D01*
X494906Y533886D01*
X496939Y532713D01*
X499206Y532105D01*
X501554D01*
X503821Y532713D01*
X505854Y533886D01*
X507514Y535546D01*
X508688Y537579D01*
X509295Y539846D01*
Y542194D01*
X508688Y544461D01*
X507514Y546494D01*
X505854Y548154D01*
X503821Y549328D01*
X501554Y549935D01*
D02*
G37*
G36*
X45624D02*
X43276D01*
X41009Y549328D01*
X38976Y548154D01*
X37316Y546494D01*
X36142Y544461D01*
X35535Y542194D01*
Y539846D01*
X36142Y537579D01*
X37316Y535546D01*
X38976Y533886D01*
X41009Y532713D01*
X43276Y532105D01*
X45624D01*
X47891Y532713D01*
X49924Y533886D01*
X51584Y535546D01*
X52758Y537579D01*
X53365Y539846D01*
Y542194D01*
X52758Y544461D01*
X51584Y546494D01*
X49924Y548154D01*
X47891Y549328D01*
X45624Y549935D01*
D02*
G37*
G36*
X20224D02*
X17876D01*
X15609Y549328D01*
X13576Y548154D01*
X11916Y546494D01*
X10742Y544461D01*
X10135Y542194D01*
Y539846D01*
X10742Y537579D01*
X11916Y535546D01*
X13576Y533886D01*
X15609Y532713D01*
X17876Y532105D01*
X20224D01*
X22491Y532713D01*
X24524Y533886D01*
X26184Y535546D01*
X27357Y537579D01*
X27965Y539846D01*
Y542194D01*
X27357Y544461D01*
X26184Y546494D01*
X24524Y548154D01*
X22491Y549328D01*
X20224Y549935D01*
D02*
G37*
G36*
X526954Y524535D02*
X524606D01*
X522339Y523927D01*
X520306Y522754D01*
X518646Y521094D01*
X517472Y519061D01*
X516865Y516794D01*
Y514446D01*
X517472Y512179D01*
X518646Y510146D01*
X520306Y508486D01*
X522339Y507313D01*
X524606Y506705D01*
X526954D01*
X529221Y507313D01*
X531254Y508486D01*
X532914Y510146D01*
X534087Y512179D01*
X534695Y514446D01*
Y516794D01*
X534087Y519061D01*
X532914Y521094D01*
X531254Y522754D01*
X529221Y523927D01*
X526954Y524535D01*
D02*
G37*
G36*
X501554D02*
X499206D01*
X496939Y523927D01*
X494906Y522754D01*
X493246Y521094D01*
X492072Y519061D01*
X491465Y516794D01*
Y514446D01*
X492072Y512179D01*
X493246Y510146D01*
X494906Y508486D01*
X496939Y507313D01*
X499206Y506705D01*
X501554D01*
X503821Y507313D01*
X505854Y508486D01*
X507514Y510146D01*
X508688Y512179D01*
X509295Y514446D01*
Y516794D01*
X508688Y519061D01*
X507514Y521094D01*
X505854Y522754D01*
X503821Y523927D01*
X501554Y524535D01*
D02*
G37*
G36*
X45624D02*
X43276D01*
X41009Y523927D01*
X38976Y522754D01*
X37316Y521094D01*
X36142Y519061D01*
X35535Y516794D01*
Y514446D01*
X36142Y512179D01*
X37316Y510146D01*
X38976Y508486D01*
X41009Y507313D01*
X43276Y506705D01*
X45624D01*
X47891Y507313D01*
X49924Y508486D01*
X51584Y510146D01*
X52758Y512179D01*
X53365Y514446D01*
Y516794D01*
X52758Y519061D01*
X51584Y521094D01*
X49924Y522754D01*
X47891Y523927D01*
X45624Y524535D01*
D02*
G37*
G36*
X20224D02*
X17876D01*
X15609Y523927D01*
X13576Y522754D01*
X11916Y521094D01*
X10742Y519061D01*
X10135Y516794D01*
Y514446D01*
X10742Y512179D01*
X11916Y510146D01*
X13576Y508486D01*
X15609Y507313D01*
X17876Y506705D01*
X20224D01*
X22491Y507313D01*
X24524Y508486D01*
X26184Y510146D01*
X27357Y512179D01*
X27965Y514446D01*
Y516794D01*
X27357Y519061D01*
X26184Y521094D01*
X24524Y522754D01*
X22491Y523927D01*
X20224Y524535D01*
D02*
G37*
G36*
X526954Y499135D02*
X524606D01*
X522339Y498527D01*
X520306Y497354D01*
X518646Y495694D01*
X517472Y493661D01*
X516865Y491394D01*
Y489046D01*
X517472Y486779D01*
X518646Y484746D01*
X520306Y483086D01*
X522339Y481912D01*
X524606Y481305D01*
X526954D01*
X529221Y481912D01*
X531254Y483086D01*
X532914Y484746D01*
X534087Y486779D01*
X534695Y489046D01*
Y491394D01*
X534087Y493661D01*
X532914Y495694D01*
X531254Y497354D01*
X529221Y498527D01*
X526954Y499135D01*
D02*
G37*
G36*
X501554D02*
X499206D01*
X496939Y498527D01*
X494906Y497354D01*
X493246Y495694D01*
X492072Y493661D01*
X491465Y491394D01*
Y489046D01*
X492072Y486779D01*
X493246Y484746D01*
X494906Y483086D01*
X496939Y481912D01*
X499206Y481305D01*
X501554D01*
X503821Y481912D01*
X505854Y483086D01*
X507514Y484746D01*
X508688Y486779D01*
X509295Y489046D01*
Y491394D01*
X508688Y493661D01*
X507514Y495694D01*
X505854Y497354D01*
X503821Y498527D01*
X501554Y499135D01*
D02*
G37*
G36*
X45624D02*
X43276D01*
X41009Y498527D01*
X38976Y497354D01*
X37316Y495694D01*
X36142Y493661D01*
X35535Y491394D01*
Y489046D01*
X36142Y486779D01*
X37316Y484746D01*
X38976Y483086D01*
X41009Y481912D01*
X43276Y481305D01*
X45624D01*
X47891Y481912D01*
X49924Y483086D01*
X51584Y484746D01*
X52758Y486779D01*
X53365Y489046D01*
Y491394D01*
X52758Y493661D01*
X51584Y495694D01*
X49924Y497354D01*
X47891Y498527D01*
X45624Y499135D01*
D02*
G37*
G36*
X20224D02*
X17876D01*
X15609Y498527D01*
X13576Y497354D01*
X11916Y495694D01*
X10742Y493661D01*
X10135Y491394D01*
Y489046D01*
X10742Y486779D01*
X11916Y484746D01*
X13576Y483086D01*
X15609Y481912D01*
X17876Y481305D01*
X20224D01*
X22491Y481912D01*
X24524Y483086D01*
X26184Y484746D01*
X27357Y486779D01*
X27965Y489046D01*
Y491394D01*
X27357Y493661D01*
X26184Y495694D01*
X24524Y497354D01*
X22491Y498527D01*
X20224Y499135D01*
D02*
G37*
G36*
X150504Y476820D02*
X149860D01*
Y463550D01*
X163130D01*
Y464194D01*
X162139Y467892D01*
X160225Y471208D01*
X157518Y473915D01*
X154202Y475829D01*
X150504Y476820D01*
D02*
G37*
G36*
X99704D02*
X99060D01*
Y463550D01*
X112330D01*
Y464194D01*
X111339Y467892D01*
X109425Y471208D01*
X106718Y473915D01*
X103402Y475829D01*
X99704Y476820D01*
D02*
G37*
G36*
X147320D02*
X146676D01*
X142978Y475829D01*
X139662Y473915D01*
X136955Y471208D01*
X135041Y467892D01*
X134050Y464194D01*
Y463550D01*
X147320D01*
Y476820D01*
D02*
G37*
G36*
X96520D02*
X95876D01*
X92178Y475829D01*
X88862Y473915D01*
X86155Y471208D01*
X84241Y467892D01*
X83250Y464194D01*
Y463550D01*
X96520D01*
Y476820D01*
D02*
G37*
G36*
X526954Y473735D02*
X524606D01*
X522339Y473128D01*
X520306Y471954D01*
X518646Y470294D01*
X517472Y468261D01*
X516865Y465994D01*
Y463646D01*
X517472Y461379D01*
X518646Y459346D01*
X520306Y457686D01*
X522339Y456512D01*
X524606Y455905D01*
X526954D01*
X529221Y456512D01*
X531254Y457686D01*
X532914Y459346D01*
X534087Y461379D01*
X534695Y463646D01*
Y465994D01*
X534087Y468261D01*
X532914Y470294D01*
X531254Y471954D01*
X529221Y473128D01*
X526954Y473735D01*
D02*
G37*
G36*
X501554D02*
X499206D01*
X496939Y473128D01*
X494906Y471954D01*
X493246Y470294D01*
X492072Y468261D01*
X491465Y465994D01*
Y463646D01*
X492072Y461379D01*
X493246Y459346D01*
X494906Y457686D01*
X496939Y456512D01*
X499206Y455905D01*
X501554D01*
X503821Y456512D01*
X505854Y457686D01*
X507514Y459346D01*
X508688Y461379D01*
X509295Y463646D01*
Y465994D01*
X508688Y468261D01*
X507514Y470294D01*
X505854Y471954D01*
X503821Y473128D01*
X501554Y473735D01*
D02*
G37*
G36*
X45624D02*
X43276D01*
X41009Y473128D01*
X38976Y471954D01*
X37316Y470294D01*
X36142Y468261D01*
X35535Y465994D01*
Y463646D01*
X36142Y461379D01*
X37316Y459346D01*
X38976Y457686D01*
X41009Y456512D01*
X43276Y455905D01*
X45624D01*
X47891Y456512D01*
X49924Y457686D01*
X51584Y459346D01*
X52758Y461379D01*
X53365Y463646D01*
Y465994D01*
X52758Y468261D01*
X51584Y470294D01*
X49924Y471954D01*
X47891Y473128D01*
X45624Y473735D01*
D02*
G37*
G36*
X20224D02*
X17876D01*
X15609Y473128D01*
X13576Y471954D01*
X11916Y470294D01*
X10742Y468261D01*
X10135Y465994D01*
Y463646D01*
X10742Y461379D01*
X11916Y459346D01*
X13576Y457686D01*
X15609Y456512D01*
X17876Y455905D01*
X20224D01*
X22491Y456512D01*
X24524Y457686D01*
X26184Y459346D01*
X27357Y461379D01*
X27965Y463646D01*
Y465994D01*
X27357Y468261D01*
X26184Y470294D01*
X24524Y471954D01*
X22491Y473128D01*
X20224Y473735D01*
D02*
G37*
G36*
X163130Y461010D02*
X149860D01*
Y447740D01*
X150504D01*
X154202Y448731D01*
X157518Y450645D01*
X160225Y453352D01*
X162139Y456668D01*
X163130Y460366D01*
Y461010D01*
D02*
G37*
G36*
X147320D02*
X134050D01*
Y460366D01*
X135041Y456668D01*
X136955Y453352D01*
X139662Y450645D01*
X142978Y448731D01*
X146676Y447740D01*
X147320D01*
Y461010D01*
D02*
G37*
G36*
X112330D02*
X99060D01*
Y447740D01*
X99704D01*
X103402Y448731D01*
X106718Y450645D01*
X109425Y453352D01*
X111339Y456668D01*
X112330Y460366D01*
Y461010D01*
D02*
G37*
G36*
X96520D02*
X83250D01*
Y460366D01*
X84241Y456668D01*
X86155Y453352D01*
X88862Y450645D01*
X92178Y448731D01*
X95876Y447740D01*
X96520D01*
Y461010D01*
D02*
G37*
G36*
X125006Y450670D02*
X121375D01*
X117867Y449730D01*
X114723Y447915D01*
X112155Y445347D01*
X110340Y442203D01*
X110295Y442035D01*
X52979D01*
X52758Y442861D01*
X51584Y444894D01*
X49924Y446554D01*
X47891Y447728D01*
X45624Y448335D01*
X43276D01*
X41009Y447728D01*
X38976Y446554D01*
X37316Y444894D01*
X36142Y442861D01*
X35535Y440594D01*
Y438246D01*
X36142Y435979D01*
X37316Y433946D01*
X38976Y432286D01*
X41009Y431113D01*
X43276Y430505D01*
X45624D01*
X47891Y431113D01*
X49924Y432286D01*
X51584Y433946D01*
X51768Y434265D01*
X109614D01*
X110340Y431557D01*
X112155Y428413D01*
X114723Y425845D01*
X117867Y424030D01*
X121375Y423090D01*
X125006D01*
X128513Y424030D01*
X131657Y425845D01*
X134225Y428413D01*
X136040Y431557D01*
X136980Y435065D01*
Y438695D01*
X136040Y442203D01*
X134225Y445347D01*
X131657Y447915D01*
X128513Y449730D01*
X125006Y450670D01*
D02*
G37*
G36*
X526954Y448335D02*
X524606D01*
X522339Y447728D01*
X520306Y446554D01*
X518646Y444894D01*
X517472Y442861D01*
X516865Y440594D01*
Y438246D01*
X517472Y435979D01*
X518646Y433946D01*
X520306Y432286D01*
X522339Y431113D01*
X524606Y430505D01*
X526954D01*
X529221Y431113D01*
X531254Y432286D01*
X532914Y433946D01*
X534087Y435979D01*
X534695Y438246D01*
Y440594D01*
X534087Y442861D01*
X532914Y444894D01*
X531254Y446554D01*
X529221Y447728D01*
X526954Y448335D01*
D02*
G37*
G36*
X501554D02*
X499206D01*
X496939Y447728D01*
X494906Y446554D01*
X493246Y444894D01*
X492072Y442861D01*
X491465Y440594D01*
Y438246D01*
X492072Y435979D01*
X493246Y433946D01*
X494906Y432286D01*
X496939Y431113D01*
X499206Y430505D01*
X501554D01*
X503821Y431113D01*
X505854Y432286D01*
X507514Y433946D01*
X508688Y435979D01*
X509295Y438246D01*
Y440594D01*
X508688Y442861D01*
X507514Y444894D01*
X505854Y446554D01*
X503821Y447728D01*
X501554Y448335D01*
D02*
G37*
G36*
X20224D02*
X17876D01*
X15609Y447728D01*
X13576Y446554D01*
X11916Y444894D01*
X10742Y442861D01*
X10135Y440594D01*
Y438246D01*
X10742Y435979D01*
X11916Y433946D01*
X13576Y432286D01*
X15609Y431113D01*
X17876Y430505D01*
X20224D01*
X22491Y431113D01*
X24524Y432286D01*
X26184Y433946D01*
X27357Y435979D01*
X27965Y438246D01*
Y440594D01*
X27357Y442861D01*
X26184Y444894D01*
X24524Y446554D01*
X22491Y447728D01*
X20224Y448335D01*
D02*
G37*
G36*
X150504Y426020D02*
X149860D01*
Y412750D01*
X163130D01*
Y413394D01*
X162139Y417092D01*
X160225Y420408D01*
X157518Y423115D01*
X154202Y425029D01*
X150504Y426020D01*
D02*
G37*
G36*
X99704D02*
X99060D01*
Y412750D01*
X112330D01*
Y413394D01*
X111339Y417092D01*
X109425Y420408D01*
X106718Y423115D01*
X103402Y425029D01*
X99704Y426020D01*
D02*
G37*
G36*
X96520D02*
X95876D01*
X92178Y425029D01*
X88862Y423115D01*
X86155Y420408D01*
X84241Y417092D01*
X83250Y413394D01*
Y412750D01*
X96520D01*
Y426020D01*
D02*
G37*
G36*
X147320D02*
X146676D01*
X142978Y425029D01*
X139662Y423115D01*
X136955Y420408D01*
X135041Y417092D01*
X134050Y413394D01*
Y412750D01*
X147320D01*
Y426020D01*
D02*
G37*
G36*
X526954Y422935D02*
X524606D01*
X522339Y422327D01*
X520306Y421154D01*
X518646Y419494D01*
X517472Y417461D01*
X516865Y415194D01*
Y412846D01*
X517472Y410579D01*
X518646Y408546D01*
X520306Y406886D01*
X522339Y405713D01*
X524606Y405105D01*
X526954D01*
X529221Y405713D01*
X531254Y406886D01*
X532914Y408546D01*
X534087Y410579D01*
X534695Y412846D01*
Y415194D01*
X534087Y417461D01*
X532914Y419494D01*
X531254Y421154D01*
X529221Y422327D01*
X526954Y422935D01*
D02*
G37*
G36*
X501554D02*
X499206D01*
X496939Y422327D01*
X494906Y421154D01*
X493246Y419494D01*
X492072Y417461D01*
X491465Y415194D01*
Y412846D01*
X492072Y410579D01*
X493246Y408546D01*
X494906Y406886D01*
X496939Y405713D01*
X499206Y405105D01*
X501554D01*
X503821Y405713D01*
X505854Y406886D01*
X507514Y408546D01*
X508688Y410579D01*
X509295Y412846D01*
Y415194D01*
X508688Y417461D01*
X507514Y419494D01*
X505854Y421154D01*
X503821Y422327D01*
X501554Y422935D01*
D02*
G37*
G36*
X45624D02*
X43276D01*
X41009Y422327D01*
X38976Y421154D01*
X37316Y419494D01*
X36142Y417461D01*
X35535Y415194D01*
Y412846D01*
X36142Y410579D01*
X37316Y408546D01*
X38976Y406886D01*
X41009Y405713D01*
X43276Y405105D01*
X45624D01*
X47891Y405713D01*
X49924Y406886D01*
X51584Y408546D01*
X52758Y410579D01*
X53365Y412846D01*
Y415194D01*
X52758Y417461D01*
X51584Y419494D01*
X49924Y421154D01*
X47891Y422327D01*
X45624Y422935D01*
D02*
G37*
G36*
X20224D02*
X17876D01*
X15609Y422327D01*
X13576Y421154D01*
X11916Y419494D01*
X10742Y417461D01*
X10135Y415194D01*
Y412846D01*
X10742Y410579D01*
X11916Y408546D01*
X13576Y406886D01*
X15609Y405713D01*
X17876Y405105D01*
X20224D01*
X22491Y405713D01*
X24524Y406886D01*
X26184Y408546D01*
X27357Y410579D01*
X27965Y412846D01*
Y415194D01*
X27357Y417461D01*
X26184Y419494D01*
X24524Y421154D01*
X22491Y422327D01*
X20224Y422935D01*
D02*
G37*
G36*
X163130Y410210D02*
X149860D01*
Y396940D01*
X150504D01*
X154202Y397931D01*
X157518Y399845D01*
X160225Y402552D01*
X162139Y405868D01*
X163130Y409566D01*
Y410210D01*
D02*
G37*
G36*
X147320D02*
X134050D01*
Y409566D01*
X135041Y405868D01*
X136955Y402552D01*
X139662Y399845D01*
X142978Y397931D01*
X146676Y396940D01*
X147320D01*
Y410210D01*
D02*
G37*
G36*
X112330D02*
X99060D01*
Y396940D01*
X99704D01*
X103402Y397931D01*
X106718Y399845D01*
X109425Y402552D01*
X111339Y405868D01*
X112330Y409566D01*
Y410210D01*
D02*
G37*
G36*
X96520D02*
X83250D01*
Y409566D01*
X84241Y405868D01*
X86155Y402552D01*
X88862Y399845D01*
X92178Y397931D01*
X95876Y396940D01*
X96520D01*
Y410210D01*
D02*
G37*
G36*
X526954Y397535D02*
X524606D01*
X522339Y396927D01*
X520306Y395754D01*
X518646Y394094D01*
X517472Y392061D01*
X516865Y389794D01*
Y387446D01*
X517472Y385179D01*
X518646Y383146D01*
X520306Y381486D01*
X522339Y380312D01*
X524606Y379705D01*
X526954D01*
X529221Y380312D01*
X531254Y381486D01*
X532914Y383146D01*
X534087Y385179D01*
X534695Y387446D01*
Y389794D01*
X534087Y392061D01*
X532914Y394094D01*
X531254Y395754D01*
X529221Y396927D01*
X526954Y397535D01*
D02*
G37*
G36*
X501554D02*
X499206D01*
X496939Y396927D01*
X494906Y395754D01*
X493246Y394094D01*
X492072Y392061D01*
X491465Y389794D01*
Y387446D01*
X492072Y385179D01*
X493246Y383146D01*
X494906Y381486D01*
X496939Y380312D01*
X499206Y379705D01*
X501554D01*
X503821Y380312D01*
X505854Y381486D01*
X507514Y383146D01*
X508688Y385179D01*
X509295Y387446D01*
Y389794D01*
X508688Y392061D01*
X507514Y394094D01*
X505854Y395754D01*
X503821Y396927D01*
X501554Y397535D01*
D02*
G37*
G36*
X45624D02*
X43276D01*
X41009Y396927D01*
X38976Y395754D01*
X37316Y394094D01*
X36142Y392061D01*
X35535Y389794D01*
Y387446D01*
X36142Y385179D01*
X37316Y383146D01*
X38976Y381486D01*
X41009Y380312D01*
X43276Y379705D01*
X45624D01*
X47891Y380312D01*
X49924Y381486D01*
X51584Y383146D01*
X52758Y385179D01*
X53365Y387446D01*
Y389794D01*
X52758Y392061D01*
X51584Y394094D01*
X49924Y395754D01*
X47891Y396927D01*
X45624Y397535D01*
D02*
G37*
G36*
X20224D02*
X17876D01*
X15609Y396927D01*
X13576Y395754D01*
X11916Y394094D01*
X10742Y392061D01*
X10135Y389794D01*
Y387446D01*
X10742Y385179D01*
X11916Y383146D01*
X13576Y381486D01*
X15609Y380312D01*
X17876Y379705D01*
X20224D01*
X22491Y380312D01*
X24524Y381486D01*
X26184Y383146D01*
X27357Y385179D01*
X27965Y387446D01*
Y389794D01*
X27357Y392061D01*
X26184Y394094D01*
X24524Y395754D01*
X22491Y396927D01*
X20224Y397535D01*
D02*
G37*
G36*
X526954Y372135D02*
X524606D01*
X522339Y371527D01*
X520306Y370354D01*
X518646Y368694D01*
X517472Y366661D01*
X516865Y364394D01*
Y362046D01*
X517472Y359779D01*
X518646Y357746D01*
X520306Y356086D01*
X522339Y354912D01*
X524606Y354305D01*
X526954D01*
X529221Y354912D01*
X531254Y356086D01*
X532914Y357746D01*
X534087Y359779D01*
X534695Y362046D01*
Y364394D01*
X534087Y366661D01*
X532914Y368694D01*
X531254Y370354D01*
X529221Y371527D01*
X526954Y372135D01*
D02*
G37*
G36*
X501554D02*
X499206D01*
X496939Y371527D01*
X494906Y370354D01*
X493246Y368694D01*
X492072Y366661D01*
X491465Y364394D01*
Y362046D01*
X492072Y359779D01*
X493246Y357746D01*
X494906Y356086D01*
X496939Y354912D01*
X499206Y354305D01*
X501554D01*
X503821Y354912D01*
X505854Y356086D01*
X507514Y357746D01*
X508688Y359779D01*
X509295Y362046D01*
Y364394D01*
X508688Y366661D01*
X507514Y368694D01*
X505854Y370354D01*
X503821Y371527D01*
X501554Y372135D01*
D02*
G37*
G36*
X45624D02*
X43276D01*
X41009Y371527D01*
X38976Y370354D01*
X37316Y368694D01*
X36142Y366661D01*
X35535Y364394D01*
Y362046D01*
X36142Y359779D01*
X37316Y357746D01*
X38976Y356086D01*
X41009Y354912D01*
X43276Y354305D01*
X45624D01*
X47891Y354912D01*
X49924Y356086D01*
X51584Y357746D01*
X52758Y359779D01*
X53365Y362046D01*
Y364394D01*
X52758Y366661D01*
X51584Y368694D01*
X49924Y370354D01*
X47891Y371527D01*
X45624Y372135D01*
D02*
G37*
G36*
X20224D02*
X17876D01*
X15609Y371527D01*
X13576Y370354D01*
X11916Y368694D01*
X10742Y366661D01*
X10135Y364394D01*
Y362046D01*
X10742Y359779D01*
X11916Y357746D01*
X13576Y356086D01*
X15609Y354912D01*
X17876Y354305D01*
X20224D01*
X22491Y354912D01*
X24524Y356086D01*
X26184Y357746D01*
X27357Y359779D01*
X27965Y362046D01*
Y364394D01*
X27357Y366661D01*
X26184Y368694D01*
X24524Y370354D01*
X22491Y371527D01*
X20224Y372135D01*
D02*
G37*
G36*
X526954Y346735D02*
X524606D01*
X522339Y346128D01*
X520306Y344954D01*
X518646Y343294D01*
X517472Y341261D01*
X516865Y338994D01*
Y336646D01*
X517472Y334379D01*
X518646Y332346D01*
X520306Y330686D01*
X522339Y329512D01*
X524606Y328905D01*
X526954D01*
X529221Y329512D01*
X531254Y330686D01*
X532914Y332346D01*
X534087Y334379D01*
X534695Y336646D01*
Y338994D01*
X534087Y341261D01*
X532914Y343294D01*
X531254Y344954D01*
X529221Y346128D01*
X526954Y346735D01*
D02*
G37*
G36*
X501554D02*
X499206D01*
X496939Y346128D01*
X494906Y344954D01*
X493246Y343294D01*
X492072Y341261D01*
X491465Y338994D01*
Y336646D01*
X492072Y334379D01*
X493246Y332346D01*
X494906Y330686D01*
X496939Y329512D01*
X499206Y328905D01*
X501554D01*
X503821Y329512D01*
X505854Y330686D01*
X507514Y332346D01*
X508688Y334379D01*
X509295Y336646D01*
Y338994D01*
X508688Y341261D01*
X507514Y343294D01*
X505854Y344954D01*
X503821Y346128D01*
X501554Y346735D01*
D02*
G37*
G36*
X45624D02*
X43276D01*
X41009Y346128D01*
X38976Y344954D01*
X37316Y343294D01*
X36142Y341261D01*
X35535Y338994D01*
Y336646D01*
X36142Y334379D01*
X37316Y332346D01*
X38976Y330686D01*
X41009Y329512D01*
X43276Y328905D01*
X45624D01*
X47891Y329512D01*
X49924Y330686D01*
X51584Y332346D01*
X52758Y334379D01*
X53365Y336646D01*
Y338994D01*
X52758Y341261D01*
X51584Y343294D01*
X49924Y344954D01*
X47891Y346128D01*
X45624Y346735D01*
D02*
G37*
G36*
X20224D02*
X17876D01*
X15609Y346128D01*
X13576Y344954D01*
X11916Y343294D01*
X10742Y341261D01*
X10135Y338994D01*
Y336646D01*
X10742Y334379D01*
X11916Y332346D01*
X13576Y330686D01*
X15609Y329512D01*
X17876Y328905D01*
X20224D01*
X22491Y329512D01*
X24524Y330686D01*
X26184Y332346D01*
X27357Y334379D01*
X27965Y336646D01*
Y338994D01*
X27357Y341261D01*
X26184Y343294D01*
X24524Y344954D01*
X22491Y346128D01*
X20224Y346735D01*
D02*
G37*
G36*
X526954Y321335D02*
X524606D01*
X522339Y320728D01*
X520306Y319554D01*
X518646Y317894D01*
X517472Y315861D01*
X516865Y313594D01*
Y311246D01*
X517472Y308979D01*
X518646Y306946D01*
X520306Y305286D01*
X522339Y304112D01*
X524606Y303505D01*
X526954D01*
X529221Y304112D01*
X531254Y305286D01*
X532914Y306946D01*
X534087Y308979D01*
X534695Y311246D01*
Y313594D01*
X534087Y315861D01*
X532914Y317894D01*
X531254Y319554D01*
X529221Y320728D01*
X526954Y321335D01*
D02*
G37*
G36*
X501554D02*
X499206D01*
X496939Y320728D01*
X494906Y319554D01*
X493246Y317894D01*
X492072Y315861D01*
X491465Y313594D01*
Y311246D01*
X492072Y308979D01*
X493246Y306946D01*
X494906Y305286D01*
X496939Y304112D01*
X499206Y303505D01*
X501554D01*
X503821Y304112D01*
X505854Y305286D01*
X507514Y306946D01*
X508688Y308979D01*
X509295Y311246D01*
Y313594D01*
X508688Y315861D01*
X507514Y317894D01*
X505854Y319554D01*
X503821Y320728D01*
X501554Y321335D01*
D02*
G37*
G36*
X45624D02*
X43276D01*
X41009Y320728D01*
X38976Y319554D01*
X37316Y317894D01*
X36142Y315861D01*
X35535Y313594D01*
Y311246D01*
X36142Y308979D01*
X37316Y306946D01*
X38976Y305286D01*
X41009Y304112D01*
X43276Y303505D01*
X45624D01*
X47891Y304112D01*
X49924Y305286D01*
X51584Y306946D01*
X52758Y308979D01*
X53365Y311246D01*
Y313594D01*
X52758Y315861D01*
X51584Y317894D01*
X49924Y319554D01*
X47891Y320728D01*
X45624Y321335D01*
D02*
G37*
G36*
X20224D02*
X17876D01*
X15609Y320728D01*
X13576Y319554D01*
X11916Y317894D01*
X10742Y315861D01*
X10135Y313594D01*
Y311246D01*
X10742Y308979D01*
X11916Y306946D01*
X13576Y305286D01*
X15609Y304112D01*
X17876Y303505D01*
X20224D01*
X22491Y304112D01*
X24524Y305286D01*
X26184Y306946D01*
X27357Y308979D01*
X27965Y311246D01*
Y313594D01*
X27357Y315861D01*
X26184Y317894D01*
X24524Y319554D01*
X22491Y320728D01*
X20224Y321335D01*
D02*
G37*
G36*
X526954Y295935D02*
X524606D01*
X522339Y295327D01*
X520306Y294154D01*
X518646Y292494D01*
X517472Y290461D01*
X516865Y288194D01*
Y285846D01*
X517472Y283579D01*
X518646Y281546D01*
X520306Y279886D01*
X522339Y278713D01*
X524606Y278105D01*
X526954D01*
X529221Y278713D01*
X531254Y279886D01*
X532914Y281546D01*
X534087Y283579D01*
X534695Y285846D01*
Y288194D01*
X534087Y290461D01*
X532914Y292494D01*
X531254Y294154D01*
X529221Y295327D01*
X526954Y295935D01*
D02*
G37*
G36*
X501554D02*
X499206D01*
X496939Y295327D01*
X494906Y294154D01*
X493246Y292494D01*
X492072Y290461D01*
X491465Y288194D01*
Y285846D01*
X492072Y283579D01*
X493246Y281546D01*
X494906Y279886D01*
X496939Y278713D01*
X499206Y278105D01*
X501554D01*
X503821Y278713D01*
X505854Y279886D01*
X507514Y281546D01*
X508688Y283579D01*
X509295Y285846D01*
Y288194D01*
X508688Y290461D01*
X507514Y292494D01*
X505854Y294154D01*
X503821Y295327D01*
X501554Y295935D01*
D02*
G37*
G36*
X45624D02*
X43276D01*
X41009Y295327D01*
X38976Y294154D01*
X37316Y292494D01*
X36142Y290461D01*
X35535Y288194D01*
Y285846D01*
X36142Y283579D01*
X37316Y281546D01*
X38976Y279886D01*
X41009Y278713D01*
X43276Y278105D01*
X45624D01*
X47891Y278713D01*
X49924Y279886D01*
X51584Y281546D01*
X52758Y283579D01*
X53365Y285846D01*
Y288194D01*
X52758Y290461D01*
X51584Y292494D01*
X49924Y294154D01*
X47891Y295327D01*
X45624Y295935D01*
D02*
G37*
G36*
X20224D02*
X17876D01*
X15609Y295327D01*
X13576Y294154D01*
X11916Y292494D01*
X10742Y290461D01*
X10135Y288194D01*
Y285846D01*
X10742Y283579D01*
X11916Y281546D01*
X13576Y279886D01*
X15609Y278713D01*
X17876Y278105D01*
X20224D01*
X22491Y278713D01*
X24524Y279886D01*
X26184Y281546D01*
X27357Y283579D01*
X27965Y285846D01*
Y288194D01*
X27357Y290461D01*
X26184Y292494D01*
X24524Y294154D01*
X22491Y295327D01*
X20224Y295935D01*
D02*
G37*
G36*
X526954Y270535D02*
X524606D01*
X522339Y269928D01*
X520306Y268754D01*
X518646Y267094D01*
X517472Y265061D01*
X516865Y262794D01*
Y260446D01*
X517472Y258179D01*
X518646Y256146D01*
X520306Y254486D01*
X522339Y253312D01*
X524606Y252705D01*
X526954D01*
X529221Y253312D01*
X531254Y254486D01*
X532914Y256146D01*
X534087Y258179D01*
X534695Y260446D01*
Y262794D01*
X534087Y265061D01*
X532914Y267094D01*
X531254Y268754D01*
X529221Y269928D01*
X526954Y270535D01*
D02*
G37*
G36*
X501554D02*
X499206D01*
X496939Y269928D01*
X494906Y268754D01*
X493246Y267094D01*
X492072Y265061D01*
X491465Y262794D01*
Y260446D01*
X492072Y258179D01*
X493246Y256146D01*
X494906Y254486D01*
X496939Y253312D01*
X499206Y252705D01*
X501554D01*
X503821Y253312D01*
X505854Y254486D01*
X507514Y256146D01*
X508688Y258179D01*
X509295Y260446D01*
Y262794D01*
X508688Y265061D01*
X507514Y267094D01*
X505854Y268754D01*
X503821Y269928D01*
X501554Y270535D01*
D02*
G37*
G36*
X45624D02*
X43276D01*
X41009Y269928D01*
X38976Y268754D01*
X37316Y267094D01*
X36142Y265061D01*
X35535Y262794D01*
Y260446D01*
X36142Y258179D01*
X37316Y256146D01*
X38976Y254486D01*
X41009Y253312D01*
X43276Y252705D01*
X45624D01*
X47891Y253312D01*
X49924Y254486D01*
X51584Y256146D01*
X52758Y258179D01*
X53365Y260446D01*
Y262794D01*
X52758Y265061D01*
X51584Y267094D01*
X49924Y268754D01*
X47891Y269928D01*
X45624Y270535D01*
D02*
G37*
G36*
X20224D02*
X17876D01*
X15609Y269928D01*
X13576Y268754D01*
X11916Y267094D01*
X10742Y265061D01*
X10135Y262794D01*
Y260446D01*
X10742Y258179D01*
X11916Y256146D01*
X13576Y254486D01*
X15609Y253312D01*
X17876Y252705D01*
X20224D01*
X22491Y253312D01*
X24524Y254486D01*
X26184Y256146D01*
X27357Y258179D01*
X27965Y260446D01*
Y262794D01*
X27357Y265061D01*
X26184Y267094D01*
X24524Y268754D01*
X22491Y269928D01*
X20224Y270535D01*
D02*
G37*
G36*
X526954Y245135D02*
X524606D01*
X522339Y244527D01*
X520306Y243354D01*
X518646Y241694D01*
X517472Y239661D01*
X516865Y237394D01*
Y235046D01*
X517472Y232779D01*
X518646Y230746D01*
X520306Y229086D01*
X522339Y227913D01*
X524606Y227305D01*
X526954D01*
X529221Y227913D01*
X531254Y229086D01*
X532914Y230746D01*
X534087Y232779D01*
X534695Y235046D01*
Y237394D01*
X534087Y239661D01*
X532914Y241694D01*
X531254Y243354D01*
X529221Y244527D01*
X526954Y245135D01*
D02*
G37*
G36*
X501554D02*
X499206D01*
X496939Y244527D01*
X494906Y243354D01*
X493246Y241694D01*
X492072Y239661D01*
X491465Y237394D01*
Y235046D01*
X492072Y232779D01*
X493246Y230746D01*
X494906Y229086D01*
X496939Y227913D01*
X499206Y227305D01*
X501554D01*
X503821Y227913D01*
X505854Y229086D01*
X507514Y230746D01*
X508688Y232779D01*
X509295Y235046D01*
Y237394D01*
X508688Y239661D01*
X507514Y241694D01*
X505854Y243354D01*
X503821Y244527D01*
X501554Y245135D01*
D02*
G37*
G36*
X45624D02*
X43276D01*
X41009Y244527D01*
X38976Y243354D01*
X37316Y241694D01*
X36142Y239661D01*
X35535Y237394D01*
Y235046D01*
X36142Y232779D01*
X37316Y230746D01*
X38976Y229086D01*
X41009Y227913D01*
X43276Y227305D01*
X45624D01*
X47891Y227913D01*
X49924Y229086D01*
X51584Y230746D01*
X52758Y232779D01*
X53365Y235046D01*
Y237394D01*
X52758Y239661D01*
X51584Y241694D01*
X49924Y243354D01*
X47891Y244527D01*
X45624Y245135D01*
D02*
G37*
G36*
X20224D02*
X17876D01*
X15609Y244527D01*
X13576Y243354D01*
X11916Y241694D01*
X10742Y239661D01*
X10135Y237394D01*
Y235046D01*
X10742Y232779D01*
X11916Y230746D01*
X13576Y229086D01*
X15609Y227913D01*
X17876Y227305D01*
X20224D01*
X22491Y227913D01*
X24524Y229086D01*
X26184Y230746D01*
X27357Y232779D01*
X27965Y235046D01*
Y237394D01*
X27357Y239661D01*
X26184Y241694D01*
X24524Y243354D01*
X22491Y244527D01*
X20224Y245135D01*
D02*
G37*
G36*
X149234Y225360D02*
X148590D01*
Y212090D01*
X161860D01*
Y212734D01*
X160869Y216432D01*
X158955Y219748D01*
X156248Y222455D01*
X152932Y224369D01*
X149234Y225360D01*
D02*
G37*
G36*
X98434D02*
X97790D01*
Y212090D01*
X111060D01*
Y212734D01*
X110069Y216432D01*
X108155Y219748D01*
X105448Y222455D01*
X102132Y224369D01*
X98434Y225360D01*
D02*
G37*
G36*
X146050D02*
X145406D01*
X141708Y224369D01*
X138392Y222455D01*
X135685Y219748D01*
X133771Y216432D01*
X132780Y212734D01*
Y212090D01*
X146050D01*
Y225360D01*
D02*
G37*
G36*
X95250D02*
X94606D01*
X90908Y224369D01*
X87592Y222455D01*
X84885Y219748D01*
X82971Y216432D01*
X81980Y212734D01*
Y212090D01*
X95250D01*
Y225360D01*
D02*
G37*
G36*
X526954Y219735D02*
X524606D01*
X522339Y219128D01*
X520306Y217954D01*
X518646Y216294D01*
X517472Y214261D01*
X516865Y211994D01*
Y209646D01*
X517472Y207379D01*
X518646Y205346D01*
X520306Y203686D01*
X522339Y202512D01*
X524606Y201905D01*
X526954D01*
X529221Y202512D01*
X531254Y203686D01*
X532914Y205346D01*
X534087Y207379D01*
X534695Y209646D01*
Y211994D01*
X534087Y214261D01*
X532914Y216294D01*
X531254Y217954D01*
X529221Y219128D01*
X526954Y219735D01*
D02*
G37*
G36*
X501554D02*
X499206D01*
X496939Y219128D01*
X494906Y217954D01*
X493246Y216294D01*
X492072Y214261D01*
X491465Y211994D01*
Y209646D01*
X492072Y207379D01*
X493246Y205346D01*
X494906Y203686D01*
X496939Y202512D01*
X499206Y201905D01*
X501554D01*
X503821Y202512D01*
X505854Y203686D01*
X507514Y205346D01*
X508688Y207379D01*
X509295Y209646D01*
Y211994D01*
X508688Y214261D01*
X507514Y216294D01*
X505854Y217954D01*
X503821Y219128D01*
X501554Y219735D01*
D02*
G37*
G36*
X45624D02*
X43276D01*
X41009Y219128D01*
X38976Y217954D01*
X37316Y216294D01*
X36142Y214261D01*
X35535Y211994D01*
Y209646D01*
X36142Y207379D01*
X37316Y205346D01*
X38976Y203686D01*
X41009Y202512D01*
X43276Y201905D01*
X45624D01*
X47891Y202512D01*
X49924Y203686D01*
X51584Y205346D01*
X52758Y207379D01*
X53365Y209646D01*
Y211994D01*
X52758Y214261D01*
X51584Y216294D01*
X49924Y217954D01*
X47891Y219128D01*
X45624Y219735D01*
D02*
G37*
G36*
X20224D02*
X17876D01*
X15609Y219128D01*
X13576Y217954D01*
X11916Y216294D01*
X10742Y214261D01*
X10135Y211994D01*
Y209646D01*
X10742Y207379D01*
X11916Y205346D01*
X13576Y203686D01*
X15609Y202512D01*
X17876Y201905D01*
X20224D01*
X22491Y202512D01*
X24524Y203686D01*
X26184Y205346D01*
X27357Y207379D01*
X27965Y209646D01*
Y211994D01*
X27357Y214261D01*
X26184Y216294D01*
X24524Y217954D01*
X22491Y219128D01*
X20224Y219735D01*
D02*
G37*
G36*
X161860Y209550D02*
X148590D01*
Y196280D01*
X149234D01*
X152932Y197271D01*
X156248Y199185D01*
X158955Y201892D01*
X160869Y205208D01*
X161860Y208906D01*
Y209550D01*
D02*
G37*
G36*
X146050D02*
X132780D01*
Y208906D01*
X133771Y205208D01*
X135685Y201892D01*
X138392Y199185D01*
X141708Y197271D01*
X145406Y196280D01*
X146050D01*
Y209550D01*
D02*
G37*
G36*
X111060D02*
X97790D01*
Y196280D01*
X98434D01*
X102132Y197271D01*
X105448Y199185D01*
X108155Y201892D01*
X110069Y205208D01*
X111060Y208906D01*
Y209550D01*
D02*
G37*
G36*
X95250D02*
X81980D01*
Y208906D01*
X82971Y205208D01*
X84885Y201892D01*
X87592Y199185D01*
X90908Y197271D01*
X94606Y196280D01*
X95250D01*
Y209550D01*
D02*
G37*
G36*
X123736Y199210D02*
X120105D01*
X116597Y198270D01*
X113453Y196455D01*
X110885Y193887D01*
X109070Y190743D01*
X108684Y189305D01*
X52501D01*
X51584Y190894D01*
X49924Y192554D01*
X47891Y193727D01*
X45624Y194335D01*
X43276D01*
X41009Y193727D01*
X38976Y192554D01*
X37316Y190894D01*
X36142Y188861D01*
X35535Y186594D01*
Y184246D01*
X36142Y181979D01*
X37316Y179946D01*
X38976Y178286D01*
X41009Y177113D01*
X43276Y176505D01*
X45624D01*
X47891Y177113D01*
X49924Y178286D01*
X51584Y179946D01*
X52501Y181535D01*
X108684D01*
X109070Y180097D01*
X110885Y176953D01*
X113453Y174385D01*
X116597Y172570D01*
X120105Y171630D01*
X123736D01*
X127243Y172570D01*
X130387Y174385D01*
X132955Y176953D01*
X134770Y180097D01*
X135710Y183605D01*
Y187236D01*
X134770Y190743D01*
X132955Y193887D01*
X130387Y196455D01*
X127243Y198270D01*
X123736Y199210D01*
D02*
G37*
G36*
X526954Y194335D02*
X524606D01*
X522339Y193727D01*
X520306Y192554D01*
X518646Y190894D01*
X517472Y188861D01*
X516865Y186594D01*
Y184246D01*
X517472Y181979D01*
X518646Y179946D01*
X520306Y178286D01*
X522339Y177113D01*
X524606Y176505D01*
X526954D01*
X529221Y177113D01*
X531254Y178286D01*
X532914Y179946D01*
X534087Y181979D01*
X534695Y184246D01*
Y186594D01*
X534087Y188861D01*
X532914Y190894D01*
X531254Y192554D01*
X529221Y193727D01*
X526954Y194335D01*
D02*
G37*
G36*
X501554D02*
X499206D01*
X496939Y193727D01*
X494906Y192554D01*
X493246Y190894D01*
X492072Y188861D01*
X491465Y186594D01*
Y184246D01*
X492072Y181979D01*
X493246Y179946D01*
X494906Y178286D01*
X496939Y177113D01*
X499206Y176505D01*
X501554D01*
X503821Y177113D01*
X505854Y178286D01*
X507514Y179946D01*
X508688Y181979D01*
X509295Y184246D01*
Y186594D01*
X508688Y188861D01*
X507514Y190894D01*
X505854Y192554D01*
X503821Y193727D01*
X501554Y194335D01*
D02*
G37*
G36*
X20224D02*
X17876D01*
X15609Y193727D01*
X13576Y192554D01*
X11916Y190894D01*
X10742Y188861D01*
X10135Y186594D01*
Y184246D01*
X10742Y181979D01*
X11916Y179946D01*
X13576Y178286D01*
X15609Y177113D01*
X17876Y176505D01*
X20224D01*
X22491Y177113D01*
X24524Y178286D01*
X26184Y179946D01*
X27357Y181979D01*
X27965Y184246D01*
Y186594D01*
X27357Y188861D01*
X26184Y190894D01*
X24524Y192554D01*
X22491Y193727D01*
X20224Y194335D01*
D02*
G37*
G36*
X149234Y174560D02*
X148590D01*
Y161290D01*
X161860D01*
Y161934D01*
X160869Y165632D01*
X158955Y168948D01*
X156248Y171655D01*
X152932Y173569D01*
X149234Y174560D01*
D02*
G37*
G36*
X98434D02*
X97790D01*
Y161290D01*
X111060D01*
Y161934D01*
X110069Y165632D01*
X108155Y168948D01*
X105448Y171655D01*
X102132Y173569D01*
X98434Y174560D01*
D02*
G37*
G36*
X146050D02*
X145406D01*
X141708Y173569D01*
X138392Y171655D01*
X135685Y168948D01*
X133771Y165632D01*
X132780Y161934D01*
Y161290D01*
X146050D01*
Y174560D01*
D02*
G37*
G36*
X95250D02*
X94606D01*
X90908Y173569D01*
X87592Y171655D01*
X84885Y168948D01*
X82971Y165632D01*
X81980Y161934D01*
Y161290D01*
X95250D01*
Y174560D01*
D02*
G37*
G36*
X526954Y168935D02*
X524606D01*
X522339Y168328D01*
X520306Y167154D01*
X518646Y165494D01*
X517472Y163461D01*
X516865Y161194D01*
Y158846D01*
X517472Y156579D01*
X518646Y154546D01*
X520306Y152886D01*
X522339Y151713D01*
X524606Y151105D01*
X526954D01*
X529221Y151713D01*
X531254Y152886D01*
X532914Y154546D01*
X534087Y156579D01*
X534695Y158846D01*
Y161194D01*
X534087Y163461D01*
X532914Y165494D01*
X531254Y167154D01*
X529221Y168328D01*
X526954Y168935D01*
D02*
G37*
G36*
X501554D02*
X499206D01*
X496939Y168328D01*
X494906Y167154D01*
X493246Y165494D01*
X492072Y163461D01*
X491465Y161194D01*
Y158846D01*
X492072Y156579D01*
X493246Y154546D01*
X494906Y152886D01*
X496939Y151713D01*
X499206Y151105D01*
X501554D01*
X503821Y151713D01*
X505854Y152886D01*
X507514Y154546D01*
X508688Y156579D01*
X509295Y158846D01*
Y161194D01*
X508688Y163461D01*
X507514Y165494D01*
X505854Y167154D01*
X503821Y168328D01*
X501554Y168935D01*
D02*
G37*
G36*
X45624D02*
X43276D01*
X41009Y168328D01*
X38976Y167154D01*
X37316Y165494D01*
X36142Y163461D01*
X35535Y161194D01*
Y158846D01*
X36142Y156579D01*
X37316Y154546D01*
X38976Y152886D01*
X41009Y151713D01*
X43276Y151105D01*
X45624D01*
X47891Y151713D01*
X49924Y152886D01*
X51584Y154546D01*
X52758Y156579D01*
X53365Y158846D01*
Y161194D01*
X52758Y163461D01*
X51584Y165494D01*
X49924Y167154D01*
X47891Y168328D01*
X45624Y168935D01*
D02*
G37*
G36*
X20224D02*
X17876D01*
X15609Y168328D01*
X13576Y167154D01*
X11916Y165494D01*
X10742Y163461D01*
X10135Y161194D01*
Y158846D01*
X10742Y156579D01*
X11916Y154546D01*
X13576Y152886D01*
X15609Y151713D01*
X17876Y151105D01*
X20224D01*
X22491Y151713D01*
X24524Y152886D01*
X26184Y154546D01*
X27357Y156579D01*
X27965Y158846D01*
Y161194D01*
X27357Y163461D01*
X26184Y165494D01*
X24524Y167154D01*
X22491Y168328D01*
X20224Y168935D01*
D02*
G37*
G36*
X161860Y158750D02*
X148590D01*
Y145480D01*
X149234D01*
X152932Y146471D01*
X156248Y148385D01*
X158955Y151092D01*
X160869Y154408D01*
X161860Y158106D01*
Y158750D01*
D02*
G37*
G36*
X146050D02*
X132780D01*
Y158106D01*
X133771Y154408D01*
X135685Y151092D01*
X138392Y148385D01*
X141708Y146471D01*
X145406Y145480D01*
X146050D01*
Y158750D01*
D02*
G37*
G36*
X111060D02*
X97790D01*
Y145480D01*
X98434D01*
X102132Y146471D01*
X105448Y148385D01*
X108155Y151092D01*
X110069Y154408D01*
X111060Y158106D01*
Y158750D01*
D02*
G37*
G36*
X95250D02*
X81980D01*
Y158106D01*
X82971Y154408D01*
X84885Y151092D01*
X87592Y148385D01*
X90908Y146471D01*
X94606Y145480D01*
X95250D01*
Y158750D01*
D02*
G37*
G36*
X526954Y143535D02*
X524606D01*
X522339Y142928D01*
X520306Y141754D01*
X518646Y140094D01*
X517472Y138061D01*
X516865Y135794D01*
Y133446D01*
X517472Y131179D01*
X518646Y129146D01*
X520306Y127486D01*
X522339Y126313D01*
X524606Y125705D01*
X526954D01*
X529221Y126313D01*
X531254Y127486D01*
X532914Y129146D01*
X534087Y131179D01*
X534695Y133446D01*
Y135794D01*
X534087Y138061D01*
X532914Y140094D01*
X531254Y141754D01*
X529221Y142928D01*
X526954Y143535D01*
D02*
G37*
G36*
X501554D02*
X499206D01*
X496939Y142928D01*
X494906Y141754D01*
X493246Y140094D01*
X492072Y138061D01*
X491465Y135794D01*
Y133446D01*
X492072Y131179D01*
X493246Y129146D01*
X494906Y127486D01*
X496939Y126313D01*
X499206Y125705D01*
X501554D01*
X503821Y126313D01*
X505854Y127486D01*
X507514Y129146D01*
X508688Y131179D01*
X509295Y133446D01*
Y135794D01*
X508688Y138061D01*
X507514Y140094D01*
X505854Y141754D01*
X503821Y142928D01*
X501554Y143535D01*
D02*
G37*
G36*
X45624D02*
X43276D01*
X41009Y142928D01*
X38976Y141754D01*
X37316Y140094D01*
X36142Y138061D01*
X35535Y135794D01*
Y133446D01*
X36142Y131179D01*
X37316Y129146D01*
X38976Y127486D01*
X41009Y126313D01*
X43276Y125705D01*
X45624D01*
X47891Y126313D01*
X49924Y127486D01*
X51584Y129146D01*
X52758Y131179D01*
X53365Y133446D01*
Y135794D01*
X52758Y138061D01*
X51584Y140094D01*
X49924Y141754D01*
X47891Y142928D01*
X45624Y143535D01*
D02*
G37*
G36*
X20224D02*
X17876D01*
X15609Y142928D01*
X13576Y141754D01*
X11916Y140094D01*
X10742Y138061D01*
X10135Y135794D01*
Y133446D01*
X10742Y131179D01*
X11916Y129146D01*
X13576Y127486D01*
X15609Y126313D01*
X17876Y125705D01*
X20224D01*
X22491Y126313D01*
X24524Y127486D01*
X26184Y129146D01*
X27357Y131179D01*
X27965Y133446D01*
Y135794D01*
X27357Y138061D01*
X26184Y140094D01*
X24524Y141754D01*
X22491Y142928D01*
X20224Y143535D01*
D02*
G37*
G36*
X526954Y118135D02*
X524606D01*
X522339Y117528D01*
X520306Y116354D01*
X518646Y114694D01*
X517472Y112661D01*
X516865Y110394D01*
Y108046D01*
X517472Y105779D01*
X518646Y103746D01*
X520306Y102086D01*
X522339Y100913D01*
X524606Y100305D01*
X526954D01*
X529221Y100913D01*
X531254Y102086D01*
X532914Y103746D01*
X534087Y105779D01*
X534695Y108046D01*
Y110394D01*
X534087Y112661D01*
X532914Y114694D01*
X531254Y116354D01*
X529221Y117528D01*
X526954Y118135D01*
D02*
G37*
G36*
X501554D02*
X499206D01*
X496939Y117528D01*
X494906Y116354D01*
X493246Y114694D01*
X492072Y112661D01*
X491465Y110394D01*
Y108046D01*
X492072Y105779D01*
X493246Y103746D01*
X494906Y102086D01*
X496939Y100913D01*
X499206Y100305D01*
X501554D01*
X503821Y100913D01*
X505854Y102086D01*
X507514Y103746D01*
X508688Y105779D01*
X509295Y108046D01*
Y110394D01*
X508688Y112661D01*
X507514Y114694D01*
X505854Y116354D01*
X503821Y117528D01*
X501554Y118135D01*
D02*
G37*
G36*
X45624D02*
X43276D01*
X41009Y117528D01*
X38976Y116354D01*
X37316Y114694D01*
X36142Y112661D01*
X35535Y110394D01*
Y108046D01*
X36142Y105779D01*
X37316Y103746D01*
X38976Y102086D01*
X41009Y100913D01*
X43276Y100305D01*
X45624D01*
X47891Y100913D01*
X49924Y102086D01*
X51584Y103746D01*
X52758Y105779D01*
X53365Y108046D01*
Y110394D01*
X52758Y112661D01*
X51584Y114694D01*
X49924Y116354D01*
X47891Y117528D01*
X45624Y118135D01*
D02*
G37*
G36*
X20224D02*
X17876D01*
X15609Y117528D01*
X13576Y116354D01*
X11916Y114694D01*
X10742Y112661D01*
X10135Y110394D01*
Y108046D01*
X10742Y105779D01*
X11916Y103746D01*
X13576Y102086D01*
X15609Y100913D01*
X17876Y100305D01*
X20224D01*
X22491Y100913D01*
X24524Y102086D01*
X26184Y103746D01*
X27357Y105779D01*
X27965Y108046D01*
Y110394D01*
X27357Y112661D01*
X26184Y114694D01*
X24524Y116354D01*
X22491Y117528D01*
X20224Y118135D01*
D02*
G37*
G36*
X484328Y75960D02*
X480872D01*
X477484Y75286D01*
X474292Y73964D01*
X471419Y72044D01*
X468976Y69601D01*
X467056Y66728D01*
X465734Y63536D01*
X465060Y60148D01*
Y56693D01*
X465734Y53304D01*
X467056Y50112D01*
X468976Y47239D01*
X471419Y44796D01*
X474292Y42876D01*
X477484Y41554D01*
X480872Y40880D01*
X484328D01*
X487716Y41554D01*
X490908Y42876D01*
X493781Y44796D01*
X496224Y47239D01*
X498144Y50112D01*
X499466Y53304D01*
X500140Y56693D01*
Y60148D01*
X499466Y63536D01*
X498144Y66728D01*
X496224Y69601D01*
X493781Y72044D01*
X490908Y73964D01*
X487716Y75286D01*
X484328Y75960D01*
D02*
G37*
G36*
X63958Y73420D02*
X60503D01*
X57114Y72746D01*
X53922Y71424D01*
X51049Y69504D01*
X48606Y67061D01*
X46686Y64188D01*
X45364Y60996D01*
X44690Y57607D01*
Y54152D01*
X45364Y50764D01*
X46686Y47572D01*
X48606Y44699D01*
X51049Y42256D01*
X53922Y40336D01*
X57114Y39014D01*
X60503Y38340D01*
X63958D01*
X67346Y39014D01*
X70538Y40336D01*
X73411Y42256D01*
X75854Y44699D01*
X77774Y47572D01*
X79096Y50764D01*
X79770Y54152D01*
Y57607D01*
X79096Y60996D01*
X77774Y64188D01*
X75854Y67061D01*
X73411Y69504D01*
X70538Y71424D01*
X67346Y72746D01*
X63958Y73420D01*
D02*
G37*
%LPD*%
D11*
X487680Y668020D02*
X500380D01*
X473710Y654050D02*
X487680Y668020D01*
X473710Y619760D02*
Y654050D01*
X452120Y598170D02*
X473710Y619760D01*
X419100Y598170D02*
X452120D01*
X44450Y185420D02*
X121920D01*
Y438150D02*
X123190Y436880D01*
X45720Y438150D02*
X121920D01*
X44450Y439420D02*
X45720Y438150D01*
X44450Y617220D02*
X69850D01*
X88900Y598170D01*
X124460D01*
D17*
X525780Y109220D02*
D03*
X500380D02*
D03*
X525780Y134620D02*
D03*
X500380D02*
D03*
X525780Y160020D02*
D03*
X500380D02*
D03*
X525780Y185420D02*
D03*
X500380D02*
D03*
X525780Y210820D02*
D03*
X500380D02*
D03*
X525780Y236220D02*
D03*
X500380D02*
D03*
X525780Y261620D02*
D03*
X500380D02*
D03*
X525780Y287020D02*
D03*
X500380D02*
D03*
X525780Y312420D02*
D03*
X500380D02*
D03*
X525780Y337820D02*
D03*
X500380D02*
D03*
X525780Y363220D02*
D03*
X500380D02*
D03*
X525780Y388620D02*
D03*
X500380D02*
D03*
X525780Y414020D02*
D03*
X500380D02*
D03*
X525780Y439420D02*
D03*
X500380D02*
D03*
X525780Y464820D02*
D03*
X500380D02*
D03*
X525780Y490220D02*
D03*
X500380D02*
D03*
X525780Y515620D02*
D03*
X500380D02*
D03*
X525780Y541020D02*
D03*
X500380D02*
D03*
X525780Y566420D02*
D03*
X500380D02*
D03*
X525780Y591820D02*
D03*
X500380D02*
D03*
X525780Y617220D02*
D03*
X500380D02*
D03*
X525780Y642620D02*
D03*
X500380D02*
D03*
X525780Y668020D02*
D03*
X44450Y109220D02*
D03*
X19050D02*
D03*
X44450Y134620D02*
D03*
X19050D02*
D03*
X44450Y160020D02*
D03*
X19050D02*
D03*
X44450Y185420D02*
D03*
X19050D02*
D03*
X44450Y210820D02*
D03*
X19050D02*
D03*
X44450Y236220D02*
D03*
X19050D02*
D03*
X44450Y261620D02*
D03*
X19050D02*
D03*
X44450Y287020D02*
D03*
X19050D02*
D03*
X44450Y312420D02*
D03*
X19050D02*
D03*
X44450Y337820D02*
D03*
X19050D02*
D03*
X44450Y363220D02*
D03*
X19050D02*
D03*
X44450Y388620D02*
D03*
X19050D02*
D03*
X44450Y414020D02*
D03*
X19050D02*
D03*
X44450Y439420D02*
D03*
X19050D02*
D03*
X44450Y464820D02*
D03*
X19050D02*
D03*
X44450Y490220D02*
D03*
X19050D02*
D03*
X44450Y515620D02*
D03*
X19050D02*
D03*
X44450Y541020D02*
D03*
X19050D02*
D03*
X44450Y566420D02*
D03*
X19050D02*
D03*
X44450Y591820D02*
D03*
X19050D02*
D03*
X44450Y617220D02*
D03*
X19050D02*
D03*
X44450Y642620D02*
D03*
X19050D02*
D03*
X44450Y668020D02*
D03*
D18*
X500380D02*
D03*
X19050D02*
D03*
D19*
X419100Y598170D02*
D03*
X124460D02*
D03*
X123190Y436880D02*
D03*
X121920Y185420D02*
D03*
D20*
X393700Y623570D02*
D03*
Y572770D02*
D03*
X444500D02*
D03*
Y623570D02*
D03*
X149860D02*
D03*
Y572770D02*
D03*
X99060D02*
D03*
Y623570D02*
D03*
X148590Y462280D02*
D03*
Y411480D02*
D03*
X97790D02*
D03*
Y462280D02*
D03*
X147320Y210820D02*
D03*
Y160020D02*
D03*
X96520D02*
D03*
Y210820D02*
D03*
D21*
X514350Y717550D02*
D03*
X482600Y58420D02*
D03*
X62230Y55880D02*
D03*
X30480Y717550D02*
D03*
M02*
